#N canvas 0 0 450 300 10;
#X obj 84 206 div;
#X floatatom 150 165 5 0 0 0 - - -;
#X floatatom 84 232 5 0 0 0 - - -;
#X floatatom 84 155 5 0 0 0 - - -;
#X floatatom 135 233 5 0 0 0 - - -;
#X obj 84 16 until;
#X obj 84 279 print div;
#X obj 144 279 print mod;
#X obj 135 206 mod;
#X obj 150 123 f;
#X obj 84 118 f;
#X floatatom 99 88 5 0 0 0 - - -;
#X floatatom 165 92 5 0 0 0 - - -;
#X obj 210 231 sel 0;
#X obj 84 44 t b b;
#X obj 44 8 bng 15 250 50 0 empty empty empty 17 7 0 10 -262144 -1
-1;
#X obj 138 22 bng 15 250 50 0 empty empty empty 17 7 0 10 -262144 -1
-1;
#X obj 194 38 bng 15 250 50 0 empty empty empty 17 7 0 10 -262144 -1
-1;
#X obj 233 182 f;
#X obj 172 218 t b;
#X obj 241 273 f;
#X obj 241 311 print euclid;
#X connect 0 0 2 0;
#X connect 1 0 0 1;
#X connect 1 0 8 1;
#X connect 1 0 18 1;
#X connect 2 0 20 1;
#X connect 2 0 6 0;
#X connect 3 0 0 0;
#X connect 3 0 8 0;
#X connect 4 0 9 1;
#X connect 4 0 13 0;
#X connect 4 0 7 0;
#X connect 5 0 14 0;
#X connect 8 0 4 0;
#X connect 8 0 19 0;
#X connect 9 0 1 0;
#X connect 10 0 3 0;
#X connect 11 0 10 1;
#X connect 12 0 9 1;
#X connect 13 0 5 1;
#X connect 13 0 20 0;
#X connect 14 0 10 0;
#X connect 14 1 9 0;
#X connect 15 0 5 0;
#X connect 16 0 14 0;
#X connect 17 0 11 0;
#X connect 17 0 12 0;
#X connect 18 0 10 1;
#X connect 19 0 18 0;
#X connect 20 0 21 0;
