#N canvas 638 198 533 300 10;
#X obj 154 128 *~;
#X obj 170 61 *;
#X obj 170 84 sig~;
#X obj 170 106 lop~ 1;
#X obj 153 -35 inlet~ L-Input;
#X obj 244 -35 inlet~ R-Input;
#X obj 230 132 *~;
#X obj 153 179 throw~ L-\$1;
#X obj 339 -35 inlet;
#X obj 229 180 throw~ R-\$1;
#X obj 173 1 hsl 55 12 0 1 0 0 \$0-send \$0-send empty -2 -8 0 10 -262144
-1 -1 3400 1;
#X floatatom 267 100 5 0 0 0 - - -;
#X obj 170 36 r \$0-send;
#X obj 339 0 u_dispatch \$0 \$1 send;
#X obj 415 -24 u_load \$0;
#X obj 153 209 outlet~ L-out;
#X obj 231 229 outlet~ R-out;
#X connect 0 0 7 0;
#X connect 0 0 15 0;
#X connect 1 0 2 0;
#X connect 2 0 3 0;
#X connect 3 0 0 1;
#X connect 3 0 6 0;
#X connect 4 0 0 0;
#X connect 5 0 6 1;
#X connect 6 0 9 0;
#X connect 6 0 16 0;
#X connect 8 0 13 0;
#X connect 12 0 1 0;
#X connect 12 0 1 1;
#X coords 0 -1 1 1 70 35 1 165 -20;
