#N canvas 379 252 636 521 10;
#X obj 200 109 vd~ \$0-delay;
#X obj -42 127 *~ 0.7;
#X obj -9 104 r \$0-feedback;
#X obj 20 189 delwrite~ \$0-delay 5000;
#X obj 21 71 inlet~;
#X obj 182 212 outlet~;
#X obj 182 187 c_xfade;
#X obj 199 21 inlet~;
#X obj 381 51 u_dispatch \$0 \$1 dry;
#X obj 381 25 inlet;
#X obj 381 74 u_dispatch \$0 \$1 feedback;
#X obj 221 164 r \$0-dry;
#X obj 264 84 sig~;
#N canvas 378 177 450 300 quantize 0;
#X obj 69 128 /;
#X obj 69 152 * 4;
#X floatatom 69 207 5 0 0 0 - - -;
#X obj 69 72 t b f;
#X obj 69 99 60000;
#X obj 114 190 t b f;
#X obj 69 240 /;
#X obj 114 171 r \$0-deltime;
#X obj 69 283 outlet;
#X obj 69 261 +;
#X obj 157 221 r \$0-lag;
#X obj 157 244 t b f;
#X floatatom 176 276 5 0 0 0 - - -;
#X obj 69 45 r globalTempo;
#X connect 0 0 1 0;
#X connect 1 0 2 0;
#X connect 2 0 6 0;
#X connect 3 0 4 0;
#X connect 3 1 0 1;
#X connect 4 0 0 0;
#X connect 5 0 2 0;
#X connect 5 1 6 1;
#X connect 6 0 9 0;
#X connect 7 0 5 0;
#X connect 9 0 8 0;
#X connect 9 0 12 0;
#X connect 10 0 11 0;
#X connect 11 0 9 0;
#X connect 11 1 9 1;
#X connect 13 0 3 0;
#X restore 264 50 pd quantize;
#X obj 381 101 u_dispatch \$0 \$1 deltime;
#X obj 381 123 u_dispatch \$0 \$1 lag;
#X connect 0 0 1 0;
#X connect 0 0 6 1;
#X connect 1 0 3 0;
#X connect 2 0 1 1;
#X connect 4 0 3 0;
#X connect 4 0 6 0;
#X connect 6 0 5 0;
#X connect 7 0 0 0;
#X connect 8 0 10 0;
#X connect 9 0 8 0;
#X connect 10 0 14 0;
#X connect 11 0 6 2;
#X connect 12 0 0 0;
#X connect 13 0 12 0;
#X connect 14 0 15 0;
