#N canvas 629 472 1079 547 10;
#X obj 13 253 e_del;
#X obj 13 367 dac~;
#X msg 109 219 dry \$1;
#X floatatom 109 178 5 0 0 0 - - -, f 5;
#X msg 178 219 feedback \$1;
#X floatatom 178 178 5 0 0 0 - - -, f 5;
#X obj 485 206 s globalBPM;
#X floatatom 400 192 5 0 0 0 - - -, f 5;
#X msg 313 219 deltime \$1;
#X floatatom 313 195 5 0 0 0 - - -, f 5;
#X msg 261 219 lag \$1;
#X floatatom 261 178 5 0 0 0 - - -, f 5;
#X obj 28 200 sig~;
#X floatatom 28 165 5 0 0 0 - - -, f 5;
#N canvas 5 50 450 300 REFERNCE 0;
#X text 88 83 Name:e_del;
#X text 92 109 comment;
#X restore -421 37 pd REFERNCE;
#X obj 12 308 *~ 0.1;
#N canvas 456 81 450 300 source 0;
#X obj 146 126 *~;
#X msg 67 63 1 0 \, 0 100 0;
#X obj 67 108 vline~;
#X floatatom 99 -11 5 0 0 0 - - -, f 5;
#X obj 67 43 metro;
#X obj 99 -52 r globalBPM;
#X obj 162 88 noise~;
#X obj 99 12 * 8;
#X obj 146 155 outlet~;
#X obj 99 -32 bpmtoms;
#X obj 32 -29 inlet;
#X connect 0 0 8 0;
#X connect 1 0 2 0;
#X connect 2 0 0 0;
#X connect 3 0 7 0;
#X connect 4 0 1 0;
#X connect 5 0 9 0;
#X connect 6 0 0 1;
#X connect 7 0 4 1;
#X connect 9 0 3 0;
#X connect 10 0 4 0;
#X restore 14 112 pd source;
#X msg 400 171 120;
#X obj 400 150 loadbang;
#X msg 400 220 bpm \$1;
#X text 179 34 Timesyncable Delay;
#X text 179 53 Input1: Signal-Source;
#X text 179 67 Input2: Delay Modulation signal;
#X text 179 83 Input3: Message Control Input;
#X text 179 99 Args: Unique Object Name;
#X text 177 117 Control Messages: dry: 0-1 feedback: 0-1 deltime:0-128
bpm: 0-999;
#X obj 14 84 tgl 15 0 empty empty empty 17 7 0 10 -262144 -1 -1 0 1
;
#X connect 0 0 15 0;
#X connect 2 0 0 2;
#X connect 3 0 2 0;
#X connect 4 0 0 2;
#X connect 5 0 4 0;
#X connect 7 0 6 0;
#X connect 7 0 19 0;
#X connect 8 0 0 2;
#X connect 9 0 8 0;
#X connect 10 0 0 2;
#X connect 11 0 10 0;
#X connect 12 0 0 1;
#X connect 13 0 12 0;
#X connect 15 0 1 0;
#X connect 15 0 1 1;
#X connect 16 0 0 0;
#X connect 17 0 7 0;
#X connect 18 0 17 0;
#X connect 19 0 0 2;
#X connect 26 0 16 0;
