#N canvas 0 0 1280 734 10;
#X obj 533 93 vd~ buff;
#X obj 580 157 *~;
#X obj 445 429 dac~;
#X obj 595 7 vsl 15 128 0 1 0 1 empty empty fb 0 -9 0 10 -262144 -1
-1 12300 1;
#X obj 582 188 delwrite~ buff 2000;
#X obj 213 106 osc~ 440;
#X obj 212 161 *~;
#X obj 308 67 tgl 15 0 empty empty empty 17 7 0 10 -262144 -1 -1 0
1;
#X floatatom 213 78 5 0 0 0 - - -;
#X msg 213 17 30;
#X msg 243 17 200;
#X obj 661 76 *~;
#X obj 676 -79 vsl 15 128 0 1 0 1 empty empty fb 0 -9 0 10 -262144
-1 -1 12200 1;
#X obj 661 109 delwrite~ buff2 2000;
#X obj 870 21 vd~ buff2;
#X obj 868 -144 osc~ 1;
#X obj 869 -51 *~;
#X floatatom 868 -171 5 0 0 0 - - -;
#X floatatom 931 -97 5 0 0 0 - - -;
#X floatatom 966 -96 5 0 0 0 - - -;
#X obj 931 -67 *~;
#X obj 870 -15 +~ 1;
#X obj 868 -82 +~ 0.5;
#X obj 869 -113 /~ 2;
#X obj 1056 -177 tgl 15 0 empty empty empty 17 7 0 10 -262144 -1 -1
0 1;
#X msg 1056 -140 \; pd dsp \$1;
#X obj 392 170 *~;
#X obj 211 214 *~;
#X floatatom 230 188 5 0 0 0 - - -;
#X obj 869 274 *~;
#X floatatom 894 247 5 0 0 0 - - -;
#X obj 533 60 sig~;
#X floatatom 533 24 5 0 0 0 - - -;
#X obj 1002 101 noise~;
#X obj 870 243 *~;
#X obj 988 134 *~;
#X obj 996 226 *~;
#X obj 1039 57 hsl 128 15 0 1 0 0 empty empty empty -2 -8 0 10 -262144
-1 -1 2400 1;
#X obj 1036 209 -;
#X obj 1036 152 t b f;
#X obj 1036 178 1;
#X msg 995 169 1;
#X obj 995 193 sig~;
#X obj 408 133 line~;
#X msg 408 102 \$1 1000;
#X obj 1044 129 loadbang;
#X obj 308 129 vline~;
#X obj 316 201 snapshot~;
#X obj 409 225 metro 100;
#X obj 429 196 tgl 15 0 empty empty empty 17 7 0 10 -262144 -1 -1 0
1;
#X floatatom 318 237 5 0 0 0 - - -;
#X msg 308 101 \$1 10 \, 0 1000 1000;
#X obj 386 -5 sig~;
#X floatatom 385 -56 5 0 0 0 - - -;
#X obj 155 106 osc~ 440;
#X obj 162 151 *~;
#X floatatom 113 23 5 0 0 0 - - -;
#X obj 48 167 osc~ 440;
#X floatatom 69 131 5 0 0 0 - - -;
#X obj 84 199 *~;
#X floatatom 154 213 5 0 0 0 - - -;
#X obj 161 243 * 0.1;
#X msg 699 391 start;
#X msg 741 391 stop;
#X msg 698 366 open emptyset2.wav;
#X obj 699 421 writesf~;
#X obj 443 304 +~;
#X obj 444 368 hip~ 10000;
#X obj 897 164 samphold~;
#X obj 887 104 phasor~;
#X floatatom 887 70 5 0 0 0 - - -;
#X floatatom 568 322 5 0 0 0 - - -;
#X obj 579 344 mtof;
#X obj 945 53 mtof;
#X floatatom 963 18 5 0 0 0 - - -;
#X obj 1135 -137 switch~;
#X connect 0 0 1 0;
#X connect 0 0 13 0;
#X connect 1 0 4 0;
#X connect 3 0 1 1;
#X connect 5 0 6 0;
#X connect 6 0 26 0;
#X connect 6 0 27 0;
#X connect 7 0 51 0;
#X connect 7 0 44 0;
#X connect 8 0 5 0;
#X connect 9 0 8 0;
#X connect 10 0 8 0;
#X connect 11 0 13 0;
#X connect 12 0 11 1;
#X connect 14 0 11 0;
#X connect 14 0 34 0;
#X connect 15 0 23 0;
#X connect 16 0 21 0;
#X connect 17 0 15 0;
#X connect 18 0 20 0;
#X connect 19 0 20 1;
#X connect 19 0 21 1;
#X connect 20 0 16 1;
#X connect 21 0 14 0;
#X connect 22 0 16 0;
#X connect 23 0 22 0;
#X connect 24 0 25 0;
#X connect 24 0 75 0;
#X connect 26 0 4 0;
#X connect 27 0 66 0;
#X connect 28 0 27 1;
#X connect 29 0 66 0;
#X connect 30 0 29 1;
#X connect 31 0 0 0;
#X connect 32 0 31 0;
#X connect 33 0 35 1;
#X connect 34 0 29 0;
#X connect 35 0 68 0;
#X connect 36 0 34 1;
#X connect 37 0 39 0;
#X connect 37 0 35 0;
#X connect 38 0 36 1;
#X connect 39 0 40 0;
#X connect 39 1 38 1;
#X connect 40 0 38 0;
#X connect 41 0 42 0;
#X connect 42 0 36 0;
#X connect 44 0 43 0;
#X connect 45 0 41 0;
#X connect 46 0 47 0;
#X connect 47 0 50 0;
#X connect 48 0 47 0;
#X connect 49 0 48 0;
#X connect 51 0 46 0;
#X connect 52 0 6 1;
#X connect 52 0 26 1;
#X connect 53 0 52 0;
#X connect 54 0 55 0;
#X connect 55 0 6 0;
#X connect 56 0 55 1;
#X connect 57 0 59 0;
#X connect 58 0 57 0;
#X connect 59 0 6 0;
#X connect 60 0 61 0;
#X connect 61 0 59 1;
#X connect 62 0 65 0;
#X connect 63 0 65 0;
#X connect 64 0 65 0;
#X connect 66 0 65 0;
#X connect 66 0 67 0;
#X connect 67 0 2 0;
#X connect 67 0 2 1;
#X connect 68 0 34 1;
#X connect 69 0 68 1;
#X connect 70 0 69 0;
#X connect 71 0 72 0;
#X connect 72 0 67 1;
#X connect 73 0 70 0;
#X connect 74 0 73 0;
