#N canvas 350 259 1366 702 10;
#X floatatom 349 -120 5 0 0 0 - - -;
#X floatatom 1364 159 5 0 0 0 - - -;
#X floatatom 262 -102 5 0 0 0 - - -;
#X obj 349 -74 s \$1-pitch;
#X obj 421 -74 s \$1-lpfreq;
#X floatatom 421 -127 5 0 0 0 - - -;
#X obj 93 29 inlet~;
#X obj 262 -75 s \$1-feedback;
#X obj 111 104 send~ \$0-input;
#X obj 93 56 *~ 1;
#N canvas 371 104 555 481 comb 0;
#X msg 131 250 pitch \$1;
#X floatatom 287 231 5 0 100 0 - - -;
#X obj 287 251 / 100;
#X msg 287 273 feedback \$1;
#X floatatom 471 229 5 0 0 0 - - -;
#X obj 471 249 mtof;
#X msg 471 278 lpfreq \$1;
#X msg 384 256 pickuppos \$1;
#X msg 206 258 pluckpos \$1;
#X floatatom 206 211 5 0 0 0 - - -;
#X obj 206 236 / 100;
#X floatatom 384 210 5 0 0 0 - - -;
#X obj 384 235 / 100;
#X obj 287 208 r \$1-feedback;
#X obj 41 82 r \$1-pitch;
#X obj 471 207 r \$1-lpfreq;
#X obj 84 428 throw~ \$0-output;
#X obj 87 312 receive~ \$0-input;
#X obj 86 329 *~ 1;
#X floatatom 191 373 5 0 0 0 - - -;
#X obj 130 116 + 7;
#X obj 130 83 t b f;
#X obj 130 59 + 7;
#X obj 141 -52 r \$2-spread;
#X obj 140 36 *;
#X obj 141 -25 t b f;
#X floatatom 140 5 5 0 0 0 - - -;
#X obj 231 5 u_save.me.mmb comb1 \$2;
#X obj 263 375 inlet;
#X obj 274 424 u_snapshot~;
#X obj 86 353 s_guitar \$2;
#X obj 130 186 line;
#X floatatom 130 215 5 0 0 0 - - -;
#X msg 213 160 \$1 \$2;
#X obj 213 131 pack;
#X obj 236 108 r \$2-transitiontime;
#X obj 213 41 r \$2-scene-fade;
#X obj 130 150 pack 0 0;
#X msg 213 83 56.6823;
#X connect 0 0 30 1;
#X connect 1 0 2 0;
#X connect 2 0 3 0;
#X connect 3 0 30 1;
#X connect 4 0 5 0;
#X connect 5 0 6 0;
#X connect 6 0 30 1;
#X connect 7 0 30 1;
#X connect 8 0 30 1;
#X connect 9 0 10 0;
#X connect 10 0 8 0;
#X connect 11 0 12 0;
#X connect 12 0 7 0;
#X connect 13 0 1 0;
#X connect 14 0 20 0;
#X connect 15 0 4 0;
#X connect 17 0 30 0;
#X connect 18 0 16 0;
#X connect 18 0 29 0;
#X connect 19 0 18 1;
#X connect 20 0 37 0;
#X connect 21 0 20 0;
#X connect 21 1 20 1;
#X connect 22 0 21 0;
#X connect 23 0 25 0;
#X connect 24 0 22 0;
#X connect 25 0 26 0;
#X connect 25 1 24 1;
#X connect 26 0 24 0;
#X connect 26 0 27 0;
#X connect 27 0 26 0;
#X connect 28 0 19 0;
#X connect 30 0 18 0;
#X connect 31 0 32 0;
#X connect 32 0 0 0;
#X connect 33 0 31 0;
#X connect 34 0 33 0;
#X connect 35 0 34 1;
#X connect 36 0 38 0;
#X connect 37 0 31 0;
#X connect 38 0 34 0;
#X restore 318 175 pd comb;
#N canvas 418 279 557 351 combmain 0;
#X msg 214 195 pitch \$1;
#X floatatom 322 176 5 0 100 0 - - -;
#X obj 322 196 / 100;
#X msg 322 218 feedback \$1;
#X floatatom 457 173 5 0 0 0 - - -;
#X obj 457 193 mtof;
#X msg 457 222 lpfreq \$1;
#X msg 429 129 pickuppos \$1;
#X msg 326 130 pluckpos \$1;
#X floatatom 328 83 5 0 0 0 - - -;
#X obj 328 108 / 100;
#X floatatom 429 83 5 0 0 0 - - -;
#X obj 429 108 / 100;
#X obj 322 153 r \$1-feedback;
#X obj 126 10 r \$1-pitch;
#X obj 457 151 r \$1-lpfreq;
#X obj 87 306 throw~ \$0-output;
#X obj 86 202 receive~ \$0-input;
#X obj 86 267 *~ 1;
#X floatatom 192 281 5 0 0 0 - - -;
#X obj 85 243 s_guitar \$2;
#X obj 234 246 inlet;
#X obj 214 131 line;
#X floatatom 214 160 5 0 0 0 - - -;
#X msg 213 102 \$1 \$2;
#X obj 213 73 pack;
#X obj 236 50 r \$2-transitiontime;
#X obj 213 -17 r \$2-scene-fade;
#X obj 126 50 pack 0 0;
#X msg 213 22 49.2829;
#X connect 0 0 20 1;
#X connect 1 0 2 0;
#X connect 2 0 3 0;
#X connect 3 0 20 1;
#X connect 4 0 5 0;
#X connect 5 0 6 0;
#X connect 6 0 20 1;
#X connect 7 0 20 1;
#X connect 8 0 20 1;
#X connect 9 0 10 0;
#X connect 10 0 8 0;
#X connect 11 0 12 0;
#X connect 12 0 7 0;
#X connect 13 0 1 0;
#X connect 14 0 28 0;
#X connect 15 0 4 0;
#X connect 17 0 20 0;
#X connect 18 0 16 0;
#X connect 19 0 18 1;
#X connect 20 0 18 0;
#X connect 21 0 19 0;
#X connect 22 0 23 0;
#X connect 23 0 0 0;
#X connect 24 0 22 0;
#X connect 25 0 24 0;
#X connect 26 0 25 1;
#X connect 27 0 29 0;
#X connect 28 0 24 0;
#X connect 29 0 25 0;
#X restore 235 174 pd combmain;
#X obj 114 164 catch~ \$0-output;
#X obj 94 256 outlet~;
#N canvas 470 75 555 481 comb 0;
#X msg 130 170 pitch \$1;
#X floatatom 286 121 5 0 100 0 - - -;
#X obj 286 141 / 100;
#X msg 286 163 feedback \$1;
#X floatatom 470 119 5 0 0 0 - - -;
#X obj 470 139 mtof;
#X msg 470 168 lpfreq \$1;
#X msg 383 146 pickuppos \$1;
#X msg 205 148 pluckpos \$1;
#X floatatom 205 101 5 0 0 0 - - -;
#X obj 205 126 / 100;
#X floatatom 383 100 5 0 0 0 - - -;
#X obj 383 125 / 100;
#X obj 286 98 r \$1-feedback;
#X obj 41 -48 r \$1-pitch;
#X obj 470 97 r \$1-lpfreq;
#X obj 87 310 throw~ \$0-output;
#X obj 86 202 receive~ \$0-input;
#X obj 86 284 *~ 1;
#X floatatom 107 262 5 0 0 0 - - -;
#X obj 130 -47 t b f;
#X obj 141 -182 r \$2-spread;
#X obj 140 -94 *;
#X obj 141 -155 t b f;
#X floatatom 140 -125 5 0 0 0 - - -;
#X obj 231 -125 u_save.me.mmb comb2 \$2;
#X obj 130 -71 + 9;
#X obj 130 -22 + 9;
#X obj 219 276 inlet;
#X obj 85 243 s_guitar \$2;
#X obj 130 86 line;
#X floatatom 130 115 5 0 0 0 - - -;
#X msg 193 60 \$1 \$2;
#X obj 193 31 pack;
#X obj 216 8 r \$2-transitiontime;
#X obj 193 -63 r \$2-scene-fade;
#X obj 130 50 pack 0 0;
#X msg 193 -21 59.1019;
#X connect 0 0 29 1;
#X connect 1 0 2 0;
#X connect 2 0 3 0;
#X connect 3 0 29 1;
#X connect 4 0 5 0;
#X connect 5 0 6 0;
#X connect 6 0 29 1;
#X connect 7 0 29 1;
#X connect 8 0 29 1;
#X connect 9 0 10 0;
#X connect 10 0 8 0;
#X connect 11 0 12 0;
#X connect 12 0 7 0;
#X connect 13 0 1 0;
#X connect 14 0 27 0;
#X connect 15 0 4 0;
#X connect 17 0 29 0;
#X connect 18 0 16 0;
#X connect 19 0 18 1;
#X connect 20 0 27 0;
#X connect 20 1 27 1;
#X connect 21 0 23 0;
#X connect 22 0 26 0;
#X connect 23 0 24 0;
#X connect 23 1 22 1;
#X connect 24 0 22 0;
#X connect 24 0 25 0;
#X connect 25 0 24 0;
#X connect 26 0 20 0;
#X connect 27 0 36 0;
#X connect 28 0 19 0;
#X connect 29 0 18 0;
#X connect 30 0 31 0;
#X connect 31 0 0 0;
#X connect 32 0 30 0;
#X connect 33 0 32 0;
#X connect 34 0 33 1;
#X connect 35 0 37 0;
#X connect 36 0 30 0;
#X connect 37 0 33 0;
#X restore 367 175 pd comb;
#N canvas 3286 1042 1920 1014 comb 0;
#X msg 130 280 pitch \$1;
#X floatatom 286 261 5 0 100 0 - - -;
#X obj 286 281 / 100;
#X msg 286 303 feedback \$1;
#X floatatom 470 259 5 0 0 0 - - -;
#X obj 470 279 mtof;
#X msg 470 308 lpfreq \$1;
#X msg 383 286 pickuppos \$1;
#X msg 205 288 pluckpos \$1;
#X floatatom 205 241 5 0 0 0 - - -;
#X obj 205 266 / 100;
#X floatatom 383 240 5 0 0 0 - - -;
#X obj 383 265 / 100;
#X obj 286 238 r \$1-feedback;
#X obj 41 82 r \$1-pitch;
#X obj 470 237 r \$1-lpfreq;
#X obj 87 450 throw~ \$0-output;
#X obj 86 342 receive~ \$0-input;
#X obj 86 424 *~ 1;
#X floatatom 107 404 5 0 0 0 - - -;
#X obj 130 83 t b f;
#X obj 141 -52 r \$2-spread;
#X obj 140 36 *;
#X obj 141 -25 t b f;
#X floatatom 140 5 5 0 0 0 - - -;
#X obj 130 108 + 12;
#X obj 130 59 + 12;
#X obj 231 5 u_save.me.mmb comb3 \$2;
#X obj 170 409 inlet;
#X obj 85 383 s_guitar \$2;
#X obj 130 186 line;
#X floatatom 130 215 5 0 0 0 - - -;
#X msg 203 160 \$1 \$2;
#X obj 203 131 pack;
#X obj 226 108 r \$2-transitiontime;
#X obj 203 41 r \$2-scene-fade;
#X obj 130 150 pack 0 0;
#X msg 203 76 62.5418;
#X connect 0 0 29 1;
#X connect 1 0 2 0;
#X connect 2 0 3 0;
#X connect 3 0 29 1;
#X connect 4 0 5 0;
#X connect 5 0 6 0;
#X connect 6 0 29 1;
#X connect 7 0 29 1;
#X connect 8 0 29 1;
#X connect 9 0 10 0;
#X connect 10 0 8 0;
#X connect 11 0 12 0;
#X connect 12 0 7 0;
#X connect 13 0 1 0;
#X connect 14 0 25 0;
#X connect 15 0 4 0;
#X connect 17 0 29 0;
#X connect 18 0 16 0;
#X connect 19 0 18 1;
#X connect 20 0 25 0;
#X connect 20 1 25 1;
#X connect 21 0 23 0;
#X connect 22 0 26 0;
#X connect 23 0 24 0;
#X connect 23 1 22 1;
#X connect 24 0 22 0;
#X connect 24 0 27 0;
#X connect 25 0 36 0;
#X connect 26 0 20 0;
#X connect 27 0 24 0;
#X connect 28 0 19 0;
#X connect 29 0 18 0;
#X connect 30 0 31 0;
#X connect 31 0 0 0;
#X connect 32 0 30 0;
#X connect 33 0 32 0;
#X connect 34 0 33 1;
#X connect 35 0 37 0;
#X connect 36 0 30 0;
#X connect 37 0 33 0;
#X restore 420 175 pd comb;
#N canvas 382 89 555 481 comb 0;
#X msg 130 240 pitch \$1;
#X floatatom 286 221 5 0 100 0 - - -;
#X obj 286 241 / 100;
#X msg 286 263 feedback \$1;
#X floatatom 470 219 5 0 0 0 - - -;
#X obj 470 239 mtof;
#X msg 470 268 lpfreq \$1;
#X msg 383 246 pickuppos \$1;
#X msg 205 248 pluckpos \$1;
#X floatatom 205 201 5 0 0 0 - - -;
#X obj 205 226 / 100;
#X floatatom 383 200 5 0 0 0 - - -;
#X obj 383 225 / 100;
#X obj 286 198 r \$1-feedback;
#X obj 41 82 r \$1-pitch;
#X obj 470 197 r \$1-lpfreq;
#X obj 87 410 throw~ \$0-output;
#X obj 86 302 receive~ \$0-input;
#X obj 86 384 *~ 1;
#X floatatom 107 364 5 0 0 0 - - -;
#X obj 130 83 t b f;
#X obj 131 -52 r \$2-spread;
#X obj 130 36 *;
#X obj 131 -25 t b f;
#X floatatom 130 5 5 0 0 0 - - -;
#X obj 130 59 + 23;
#X obj 130 108 + 23;
#X obj 221 5 u_save.me.mmb comb4 \$2;
#X obj 164 365 inlet;
#X obj 85 343 s_guitar \$2;
#X obj 130 177 line;
#X floatatom 130 206 5 0 0 0 - - -;
#X msg 193 151 \$1 \$2;
#X obj 193 122 pack;
#X obj 216 99 r \$2-transitiontime;
#X obj 193 32 r \$2-scene-fade;
#X obj 130 141 pack 0 0;
#X msg 193 69 71.1019;
#X connect 0 0 29 1;
#X connect 1 0 2 0;
#X connect 2 0 3 0;
#X connect 3 0 29 1;
#X connect 4 0 5 0;
#X connect 5 0 6 0;
#X connect 6 0 29 1;
#X connect 7 0 29 1;
#X connect 8 0 29 1;
#X connect 9 0 10 0;
#X connect 10 0 8 0;
#X connect 11 0 12 0;
#X connect 12 0 7 0;
#X connect 13 0 1 0;
#X connect 14 0 26 0;
#X connect 15 0 4 0;
#X connect 17 0 29 0;
#X connect 18 0 16 0;
#X connect 19 0 18 1;
#X connect 20 0 26 0;
#X connect 20 1 26 1;
#X connect 21 0 23 0;
#X connect 22 0 25 0;
#X connect 23 0 24 0;
#X connect 23 1 22 1;
#X connect 24 0 22 0;
#X connect 24 0 27 0;
#X connect 25 0 20 0;
#X connect 26 0 36 0;
#X connect 27 0 24 0;
#X connect 28 0 19 0;
#X connect 29 0 18 0;
#X connect 30 0 31 0;
#X connect 31 0 0 0;
#X connect 32 0 30 0;
#X connect 33 0 32 0;
#X connect 34 0 33 1;
#X connect 35 0 37 0;
#X connect 36 0 30 0;
#X connect 37 0 33 0;
#X restore 470 175 pd comb;
#N canvas 458 76 555 481 comb 0;
#X msg 130 250 pitch \$1;
#X floatatom 286 231 5 0 100 0 - - -;
#X obj 286 251 / 100;
#X msg 286 273 feedback \$1;
#X floatatom 470 229 5 0 0 0 - - -;
#X obj 470 249 mtof;
#X msg 470 278 lpfreq \$1;
#X msg 383 256 pickuppos \$1;
#X msg 205 258 pluckpos \$1;
#X floatatom 205 211 5 0 0 0 - - -;
#X obj 205 236 / 100;
#X floatatom 383 210 5 0 0 0 - - -;
#X obj 383 235 / 100;
#X obj 286 208 r \$1-feedback;
#X obj 41 82 r \$1-pitch;
#X obj 470 207 r \$1-lpfreq;
#X obj 87 420 throw~ \$0-output;
#X obj 86 312 receive~ \$0-input;
#X obj 86 394 *~ 1;
#X floatatom 107 374 5 0 0 0 - - -;
#X obj 130 83 t b f;
#X obj 131 -52 r \$2-spread;
#X obj 130 36 *;
#X obj 131 -25 t b f;
#X floatatom 130 5 5 0 0 0 - - -;
#X obj 130 59 + 4;
#X obj 130 108 + 4;
#X obj 221 5 u_save.me.mmb comb5 \$2;
#X obj 158 376 inlet;
#X obj 313 417 u_snapshot~;
#X obj 85 353 s_guitar \$2;
#X obj 130 186 line;
#X floatatom 130 215 5 0 0 0 - - -;
#X msg 193 160 \$1 \$2;
#X obj 193 131 pack;
#X obj 216 108 r \$2-transitiontime;
#X obj 193 41 r \$2-scene-fade;
#X obj 130 150 pack 0 0;
#X msg 193 75 54.4642;
#X connect 0 0 30 1;
#X connect 1 0 2 0;
#X connect 2 0 3 0;
#X connect 3 0 30 1;
#X connect 4 0 5 0;
#X connect 5 0 6 0;
#X connect 6 0 30 1;
#X connect 7 0 30 1;
#X connect 8 0 30 1;
#X connect 9 0 10 0;
#X connect 10 0 8 0;
#X connect 11 0 12 0;
#X connect 12 0 7 0;
#X connect 13 0 1 0;
#X connect 14 0 26 0;
#X connect 15 0 4 0;
#X connect 17 0 30 0;
#X connect 18 0 16 0;
#X connect 19 0 18 1;
#X connect 20 0 26 0;
#X connect 20 1 26 1;
#X connect 21 0 23 0;
#X connect 22 0 25 0;
#X connect 23 0 24 0;
#X connect 23 1 22 1;
#X connect 24 0 22 0;
#X connect 24 0 27 0;
#X connect 25 0 20 0;
#X connect 26 0 37 0;
#X connect 27 0 24 0;
#X connect 28 0 19 0;
#X connect 30 0 18 0;
#X connect 30 0 29 0;
#X connect 31 0 32 0;
#X connect 32 0 0 0;
#X connect 33 0 31 0;
#X connect 34 0 33 0;
#X connect 35 0 34 1;
#X connect 36 0 38 0;
#X connect 37 0 31 0;
#X connect 38 0 34 0;
#X restore 520 175 pd comb;
#N canvas 651 76 555 481 comb 0;
#X msg 130 340 pitch \$1;
#X floatatom 286 321 5 0 100 0 - - -;
#X obj 286 341 / 100;
#X msg 286 363 feedback \$1;
#X floatatom 470 319 5 0 0 0 - - -;
#X obj 470 339 mtof;
#X msg 470 368 lpfreq \$1;
#X msg 383 346 pickuppos \$1;
#X msg 205 348 pluckpos \$1;
#X floatatom 205 301 5 0 0 0 - - -;
#X obj 205 326 / 100;
#X floatatom 383 300 5 0 0 0 - - -;
#X obj 383 325 / 100;
#X obj 286 298 r \$1-feedback;
#X obj 41 82 r \$1-pitch;
#X obj 470 297 r \$1-lpfreq;
#X obj 87 510 throw~ \$0-output;
#X obj 86 402 receive~ \$0-input;
#X obj 86 484 *~ 1;
#X floatatom 107 464 5 0 0 0 - - -;
#X obj 130 83 t b f;
#X obj 131 -52 r \$2-spread;
#X obj 130 36 *;
#X obj 131 -25 t b f;
#X floatatom 130 5 5 0 0 0 - - -;
#X obj 130 108 - 19;
#X obj 221 5 u_save.me.mmb comb6 \$2;
#X obj 130 59 + 19;
#X obj 154 463 inlet;
#X obj 85 443 s_guitar \$2;
#X obj 130 246 line;
#X floatatom 130 275 5 0 0 0 - - -;
#X msg 193 220 \$1 \$2;
#X obj 193 191 pack;
#X obj 216 168 r \$2-transitiontime;
#X obj 193 101 r \$2-scene-fade;
#X obj 130 210 pack 0 0;
#X msg 193 136 33.5259;
#X connect 0 0 29 1;
#X connect 1 0 2 0;
#X connect 2 0 3 0;
#X connect 3 0 29 1;
#X connect 4 0 5 0;
#X connect 5 0 6 0;
#X connect 6 0 29 1;
#X connect 7 0 29 1;
#X connect 8 0 29 1;
#X connect 9 0 10 0;
#X connect 10 0 8 0;
#X connect 11 0 12 0;
#X connect 12 0 7 0;
#X connect 13 0 1 0;
#X connect 14 0 25 0;
#X connect 15 0 4 0;
#X connect 17 0 29 0;
#X connect 18 0 16 0;
#X connect 19 0 18 1;
#X connect 20 0 25 0;
#X connect 20 1 25 1;
#X connect 21 0 23 0;
#X connect 22 0 27 0;
#X connect 23 0 24 0;
#X connect 23 1 22 1;
#X connect 24 0 22 0;
#X connect 24 0 26 0;
#X connect 25 0 36 0;
#X connect 26 0 24 0;
#X connect 27 0 20 0;
#X connect 28 0 19 0;
#X connect 29 0 18 0;
#X connect 30 0 31 0;
#X connect 31 0 0 0;
#X connect 32 0 30 0;
#X connect 33 0 32 0;
#X connect 34 0 33 1;
#X connect 35 0 37 0;
#X connect 36 0 30 0;
#X connect 37 0 33 0;
#X restore 570 175 pd comb;
#X obj 146 -15 r \$2-velocity;
#X obj 146 9 / 2;
#X obj 146 39 + 0.5;
#X obj 235 19 vsl 15 128 0 1 0 0 empty empty empty 0 -9 0 10 -262144
-1 -1 0 1;
#X obj 93 216 c_cpfade;
#X obj 138 189 inlet;
#X obj 367 20 vsl 15 128 0 1 0 0 empty empty empty 0 -9 0 10 -262144
-1 -1 0 1;
#X obj 318 21 vsl 15 128 0 1 0 0 empty empty empty 0 -9 0 10 -262144
-1 -1 0 1;
#X obj 420 24 vsl 15 128 0 1 0 0 empty empty empty 0 -9 0 10 -262144
-1 -1 0 1;
#X obj 570 22 vsl 15 128 0 1 0 0 empty empty empty 0 -9 0 10 -262144
-1 -1 0 1;
#X obj 470 25 vsl 15 128 0 1 0 0 empty empty empty 0 -9 0 10 -262144
-1 -1 0 1;
#X obj 520 23 vsl 15 128 0 1 0 0 empty empty empty 0 -9 0 10 -262144
-1 -1 0 1;
#X obj 979 11 s \$2-transitiontime;
#X floatatom 979 -21 5 0 0 0 - - -;
#X obj 1031 -24 u_save.me.mmb \$1-\$2-transition \$2;
#X obj 894 100 s transition;
#X floatatom 894 69 5 0 0 0 - - -;
#X obj 948 -86 r \$2-fadetime;
#X obj 947 -61 / 2;
#X connect 0 0 3 0;
#X connect 2 0 7 0;
#X connect 5 0 4 0;
#X connect 6 0 9 0;
#X connect 9 0 8 0;
#X connect 9 0 23 0;
#X connect 12 0 23 1;
#X connect 19 0 20 0;
#X connect 20 0 21 0;
#X connect 21 0 9 1;
#X connect 22 0 11 0;
#X connect 23 0 13 0;
#X connect 24 0 23 2;
#X connect 25 0 14 0;
#X connect 26 0 10 0;
#X connect 27 0 15 0;
#X connect 28 0 18 0;
#X connect 29 0 16 0;
#X connect 30 0 17 0;
#X connect 32 0 31 0;
#X connect 32 0 33 0;
#X connect 33 0 32 0;
#X connect 35 0 34 0;
#X connect 36 0 37 0;
#X connect 37 0 32 0;
