#N canvas 117 80 1245 517 10;
#X obj 198 252 dac~;
#X msg 390 143 drywet \$1;
#X obj 390 96 knob 32 32 0 1 0 1 empty empty Dry/Wet 0 -8 0 8 -262144
-1 -1 3100 1;
#X msg 462 142 feedback \$1;
#X obj 548 -8 vsl 15 128 0 1 0 1 empty empty empty 0 -9 0 10 -262144
-1 -1 5800 1;
#X obj 570 -8 vsl 15 128 0 1 0 1 empty empty empty 0 -9 0 10 -262144
-1 -1 8000 1;
#X obj 590 -8 vsl 15 128 0 1 0 1 empty empty empty 0 -9 0 10 -262144
-1 -1 6800 1;
#X obj 611 -8 vsl 15 128 0 1 0 1 empty empty empty 0 -9 0 10 -262144
-1 -1 0 1;
#X obj 630 -8 vsl 15 128 0 1 0 1 empty empty empty 0 -9 0 10 -262144
-1 -1 0 1;
#X obj 650 -9 vsl 15 128 0 1 0 1 empty empty empty 0 -9 0 10 -262144
-1 -1 6000 1;
#X obj 669 -8 vsl 15 128 0 1 0 1 empty empty empty 0 -9 0 10 -262144
-1 -1 0 1;
#X obj 462 46 knob 32 32 0 1 0 0 empty empty Feedback 0 -8 0 8 -262144
-1 -1 3100 1;
#X obj 804 157 prepend pitch;
#X obj 197 174 e_resonator reso1;
#X obj 549 157 prepend vol;
#X msg 296 143 lpfreq \$1;
#N canvas 1081 367 450 300 package 0;
#X obj 88 140 pack f f f f f f f;
#X obj 88 50 inlet;
#X obj 88 83 t b f;
#X obj 128 51 inlet;
#X obj 128 84 t b f;
#X obj 168 51 inlet;
#X obj 168 84 t b f;
#X obj 208 51 inlet;
#X obj 208 84 t b f;
#X obj 248 51 inlet;
#X obj 248 84 t b f;
#X obj 288 51 inlet;
#X obj 288 84 t b f;
#X obj 50 51 inlet;
#X obj 88 163 outlet;
#X connect 0 0 14 0;
#X connect 1 0 2 0;
#X connect 2 0 0 0;
#X connect 2 1 0 1;
#X connect 3 0 4 0;
#X connect 4 0 0 0;
#X connect 4 1 0 2;
#X connect 5 0 6 0;
#X connect 6 0 0 0;
#X connect 6 1 0 3;
#X connect 7 0 8 0;
#X connect 8 0 0 0;
#X connect 8 1 0 4;
#X connect 9 0 10 0;
#X connect 10 0 0 0;
#X connect 10 1 0 5;
#X connect 11 0 12 0;
#X connect 12 0 0 0;
#X connect 12 1 0 6;
#X connect 13 0 0 0;
#X restore 548 138 pd package;
#N canvas 1081 367 450 300 package 0;
#X obj 88 140 pack f f f f f f f;
#X obj 88 50 inlet;
#X obj 88 83 t b f;
#X obj 128 51 inlet;
#X obj 128 84 t b f;
#X obj 168 51 inlet;
#X obj 168 84 t b f;
#X obj 208 51 inlet;
#X obj 208 84 t b f;
#X obj 248 51 inlet;
#X obj 248 84 t b f;
#X obj 288 51 inlet;
#X obj 288 84 t b f;
#X obj 50 51 inlet;
#X obj 88 163 outlet;
#X connect 0 0 14 0;
#X connect 1 0 2 0;
#X connect 2 0 0 0;
#X connect 2 1 0 1;
#X connect 3 0 4 0;
#X connect 4 0 0 0;
#X connect 4 1 0 2;
#X connect 5 0 6 0;
#X connect 6 0 0 0;
#X connect 6 1 0 3;
#X connect 7 0 8 0;
#X connect 8 0 0 0;
#X connect 8 1 0 4;
#X connect 9 0 10 0;
#X connect 10 0 0 0;
#X connect 10 1 0 5;
#X connect 11 0 12 0;
#X connect 12 0 0 0;
#X connect 12 1 0 6;
#X connect 13 0 0 0;
#X restore 804 125 pd package;
#X obj 804 95 nbx 3 14 -1e+037 1e+037 0 1 empty empty empty 0 -8 0
10 -262144 -1 -1 47 256;
#X obj 843 95 nbx 3 14 -1e+037 1e+037 0 1 empty empty empty 0 -8 0
10 -262144 -1 -1 39 256;
#X obj 882 95 nbx 3 14 -1e+037 1e+037 0 1 empty empty empty 0 -8 0
10 -262144 -1 -1 44 256;
#X obj 922 95 nbx 3 14 -1e+037 1e+037 0 1 empty empty empty 0 -8 0
10 -262144 -1 -1 41 256;
#X obj 961 95 nbx 3 14 -1e+037 1e+037 0 1 empty empty empty 0 -8 0
10 -262144 -1 -1 49 256;
#X obj 1000 95 nbx 3 14 -1e+037 1e+037 0 1 empty empty empty 0 -8 0
10 -262144 -1 -1 73 256;
#X obj 1039 95 nbx 3 14 -1e+037 1e+037 0 1 empty empty empty 0 -8 0
10 -262144 -1 -1 55 256;
#X text 545 -30 Volume;
#X text 801 76 Pitch;
#X obj 296 84 knob 32 32 0 127 0 1 empty empty LPFreq 0 -8 0 8 -262144
-1 -1 24 1;
#X obj 296 125 mtof;
#X obj 137 75 osc~;
#X obj 136 35 vline~;
#X obj 137 55 *~ 900;
#X msg 136 12 1 0 \, 0 50 0;
#X obj 462 116 + 0.9;
#X obj 462 89 * 0.1;
#X obj 197 136 *~ 0.4;
#N canvas 608 163 450 300 multiplex 0;
#X obj 101 116 *~;
#X obj 57 117 *~;
#X msg 166 61 1 0;
#X msg 204 62 0 1;
#X obj 166 94 unpack;
#X obj 166 27 sel 0 1;
#X obj 56 2 inlet~;
#X obj 102 3 inlet~;
#X obj 58 178 outlet~;
#X obj 166 5 inlet;
#X connect 0 0 8 0;
#X connect 1 0 8 0;
#X connect 2 0 4 0;
#X connect 3 0 4 0;
#X connect 4 0 1 1;
#X connect 4 1 0 1;
#X connect 5 0 2 0;
#X connect 5 1 3 0;
#X connect 6 0 1 0;
#X connect 7 0 0 0;
#X connect 9 0 5 0;
#X restore 136 99 pd multiplex;
#X obj 181 36 noise~;
#X obj 205 72 tgl 15 0 empty empty empty 17 7 0 10 -262144 -1 -1 0
1;
#X text 225 13 comment;
#X text 128 -214 Resonator - resonator effect built from combfilters
from s_guitare from the rjlib.;
#N canvas 0 0 1920 1014 reference 0;
#X text 101 118 Name: e_resonator Class: Effect Summary: Resonator
effect built from comb filters Argument 0: Unique Scripting Name Inlet
0: sig~ Inlet 1: lpfreq \, drywet \, feedback vol<list \, 7 \, f> \,
pitch<list \, 7 \, 0-127> Outlet 0:sig~ Description: 7 Voices Combfilter
Resonator. Very useful if you are into Basic Channel;
#X coords 0 -1 1 1 360 220 1 100 100;
#X restore 131 -187 pd reference;
#N canvas -4 -4 1366 702 gui 1;
#X msg 400 153 drywet \$1;
#X obj 400 106 knob 32 32 0 1 0 1 empty empty Dry/Wet 0 -8 0 8 -262144
-1 -1 0 1;
#X msg 472 152 feedback \$1;
#X obj 558 2 vsl 15 128 0 1 0 1 empty empty empty 0 -9 0 10 -262144
-1 -1 5800 1;
#X obj 580 2 vsl 15 128 0 1 0 1 empty empty empty 0 -9 0 10 -262144
-1 -1 8000 1;
#X obj 600 2 vsl 15 128 0 1 0 1 empty empty empty 0 -9 0 10 -262144
-1 -1 6800 1;
#X obj 621 2 vsl 15 128 0 1 0 1 empty empty empty 0 -9 0 10 -262144
-1 -1 0 1;
#X obj 640 2 vsl 15 128 0 1 0 1 empty empty empty 0 -9 0 10 -262144
-1 -1 0 1;
#X obj 660 1 vsl 15 128 0 1 0 1 empty empty empty 0 -9 0 10 -262144
-1 -1 6000 1;
#X obj 679 2 vsl 15 128 0 1 0 1 empty empty empty 0 -9 0 10 -262144
-1 -1 0 1;
#X obj 472 56 knob 32 32 0 1 0 0 empty empty Feedback 0 -8 0 8 -262144
-1 -1 0 1;
#X obj 814 167 prepend pitch;
#X obj 559 167 prepend vol;
#X msg 306 153 lpfreq \$1;
#N canvas 1081 367 450 300 package 0;
#X obj 88 140 pack f f f f f f f;
#X obj 88 50 inlet;
#X obj 88 83 t b f;
#X obj 128 51 inlet;
#X obj 128 84 t b f;
#X obj 168 51 inlet;
#X obj 168 84 t b f;
#X obj 208 51 inlet;
#X obj 208 84 t b f;
#X obj 248 51 inlet;
#X obj 248 84 t b f;
#X obj 288 51 inlet;
#X obj 288 84 t b f;
#X obj 50 51 inlet;
#X obj 88 163 outlet;
#X connect 0 0 14 0;
#X connect 1 0 2 0;
#X connect 2 0 0 0;
#X connect 2 1 0 1;
#X connect 3 0 4 0;
#X connect 4 0 0 0;
#X connect 4 1 0 2;
#X connect 5 0 6 0;
#X connect 6 0 0 0;
#X connect 6 1 0 3;
#X connect 7 0 8 0;
#X connect 8 0 0 0;
#X connect 8 1 0 4;
#X connect 9 0 10 0;
#X connect 10 0 0 0;
#X connect 10 1 0 5;
#X connect 11 0 12 0;
#X connect 12 0 0 0;
#X connect 12 1 0 6;
#X connect 13 0 0 0;
#X restore 558 148 pd package;
#N canvas 1081 367 450 300 package 0;
#X obj 88 140 pack f f f f f f f;
#X obj 88 50 inlet;
#X obj 88 83 t b f;
#X obj 128 51 inlet;
#X obj 128 84 t b f;
#X obj 168 51 inlet;
#X obj 168 84 t b f;
#X obj 208 51 inlet;
#X obj 208 84 t b f;
#X obj 248 51 inlet;
#X obj 248 84 t b f;
#X obj 288 51 inlet;
#X obj 288 84 t b f;
#X obj 50 51 inlet;
#X obj 88 163 outlet;
#X connect 0 0 14 0;
#X connect 1 0 2 0;
#X connect 2 0 0 0;
#X connect 2 1 0 1;
#X connect 3 0 4 0;
#X connect 4 0 0 0;
#X connect 4 1 0 2;
#X connect 5 0 6 0;
#X connect 6 0 0 0;
#X connect 6 1 0 3;
#X connect 7 0 8 0;
#X connect 8 0 0 0;
#X connect 8 1 0 4;
#X connect 9 0 10 0;
#X connect 10 0 0 0;
#X connect 10 1 0 5;
#X connect 11 0 12 0;
#X connect 12 0 0 0;
#X connect 12 1 0 6;
#X connect 13 0 0 0;
#X restore 814 135 pd package;
#X obj 814 105 nbx 3 14 -1e+037 1e+037 0 1 empty empty empty 0 -8 0
10 -262144 -1 -1 47 256;
#X obj 853 105 nbx 3 14 -1e+037 1e+037 0 1 empty empty empty 0 -8 0
10 -262144 -1 -1 39 256;
#X obj 892 105 nbx 3 14 -1e+037 1e+037 0 1 empty empty empty 0 -8 0
10 -262144 -1 -1 44 256;
#X obj 932 105 nbx 3 14 -1e+037 1e+037 0 1 empty empty empty 0 -8 0
10 -262144 -1 -1 41 256;
#X obj 971 105 nbx 3 14 -1e+037 1e+037 0 1 empty empty empty 0 -8 0
10 -262144 -1 -1 49 256;
#X obj 1010 105 nbx 3 14 -1e+037 1e+037 0 1 empty empty empty 0 -8
0 10 -262144 -1 -1 73 256;
#X obj 1049 105 nbx 3 14 -1e+037 1e+037 0 1 empty empty empty 0 -8
0 10 -262144 -1 -1 55 256;
#X text 811 86 Pitch;
#X obj 306 94 knob 32 32 0 127 0 1 empty empty LPFreq 0 -8 0 8 -262144
-1 -1 0 1;
#X obj 306 135 mtof;
#X obj 472 126 + 0.9;
#X obj 472 99 * 0.1;
#X obj 306 223 outlet;
#X connect 0 0 28 0;
#X connect 1 0 0 0;
#X connect 2 0 28 0;
#X connect 3 0 14 0;
#X connect 4 0 14 1;
#X connect 5 0 14 2;
#X connect 6 0 14 3;
#X connect 7 0 14 4;
#X connect 8 0 14 5;
#X connect 9 0 14 6;
#X connect 10 0 27 0;
#X connect 11 0 28 0;
#X connect 12 0 28 0;
#X connect 13 0 28 0;
#X connect 14 0 12 0;
#X connect 15 0 11 0;
#X connect 16 0 15 0;
#X connect 17 0 15 1;
#X connect 18 0 15 2;
#X connect 19 0 15 3;
#X connect 20 0 15 4;
#X connect 21 0 15 5;
#X connect 22 0 15 6;
#X connect 24 0 25 0;
#X connect 25 0 13 0;
#X connect 26 0 2 0;
#X connect 27 0 26 0;
#X restore 717 224 pd gui;
#X connect 1 0 13 1;
#X connect 2 0 1 0;
#X connect 3 0 13 1;
#X connect 4 0 16 0;
#X connect 5 0 16 1;
#X connect 6 0 16 2;
#X connect 7 0 16 3;
#X connect 8 0 16 4;
#X connect 9 0 16 5;
#X connect 10 0 16 6;
#X connect 11 0 34 0;
#X connect 12 0 13 1;
#X connect 13 0 0 0;
#X connect 13 0 0 1;
#X connect 14 0 13 1;
#X connect 15 0 13 1;
#X connect 16 0 14 0;
#X connect 17 0 12 0;
#X connect 18 0 17 0;
#X connect 19 0 17 1;
#X connect 20 0 17 2;
#X connect 21 0 17 3;
#X connect 22 0 17 4;
#X connect 23 0 17 5;
#X connect 24 0 17 6;
#X connect 27 0 28 0;
#X connect 28 0 15 0;
#X connect 29 0 36 0;
#X connect 30 0 31 0;
#X connect 31 0 29 0;
#X connect 32 0 30 0;
#X connect 33 0 3 0;
#X connect 34 0 33 0;
#X connect 35 0 13 0;
#X connect 36 0 35 0;
#X connect 37 0 36 1;
#X connect 38 0 36 2;
