#N canvas 168 114 1078 1006 10;
#X floatatom 1364 159 5 0 0 0 - - -;
#X obj 93 29 inlet~;
#X obj 111 104 send~ \$0-input;
#X obj 114 164 catch~ \$0-output;
#X obj 94 256 outlet~;
#X obj 93 216 c_cpfade;
#X obj 235 70 r \$0-vol;
#X obj 235 97 unpack f f f f f f f;
#X obj 706 -86 inlet;
#N canvas 1048 173 557 351 comb 0;
#X msg 214 195 pitch \$1;
#X obj 87 346 throw~ \$0-output;
#X obj 86 202 receive~ \$0-input;
#X obj 86 307 *~ 1;
#X floatatom 132 291 5 0 0 0 - - -;
#X obj 132 267 inlet;
#X floatatom 214 160 5 0 0 0 - - -;
#X obj 214 130 inlet;
#X msg 298 194 feedback \$1;
#X obj 298 168 r \$0-feedback;
#X msg 387 194 lpfreq \$1;
#X obj 387 168 r \$0-lpfreq;
#X obj 85 243 s_guitar \$1;
#X connect 0 0 12 1;
#X connect 2 0 12 0;
#X connect 3 0 1 0;
#X connect 4 0 3 1;
#X connect 5 0 4 0;
#X connect 6 0 0 0;
#X connect 7 0 6 0;
#X connect 8 0 12 1;
#X connect 9 0 8 0;
#X connect 10 0 12 1;
#X connect 11 0 10 0;
#X connect 12 0 3 0;
#X restore 235 174 pd comb;
#X obj 365 97 unpack f f f f f f f;
#X obj 365 70 r \$0-pitch;
#X obj 138 189 r \$0-drywet;
#N canvas 1257 399 557 351 comb 0;
#X msg 214 195 pitch \$1;
#X obj 87 346 throw~ \$0-output;
#X obj 86 202 receive~ \$0-input;
#X obj 86 307 *~ 1;
#X floatatom 132 291 5 0 0 0 - - -;
#X obj 132 267 inlet;
#X floatatom 214 160 5 0 0 0 - - -;
#X obj 214 130 inlet;
#X msg 298 194 feedback \$1;
#X obj 298 168 r \$0-feedback;
#X msg 387 194 lpfreq \$1;
#X obj 387 168 r \$0-lpfreq;
#X obj 85 243 s_guitar \$2;
#X connect 0 0 12 1;
#X connect 2 0 12 0;
#X connect 3 0 1 0;
#X connect 4 0 3 1;
#X connect 5 0 4 0;
#X connect 6 0 0 0;
#X connect 7 0 6 0;
#X connect 8 0 12 1;
#X connect 9 0 8 0;
#X connect 10 0 12 1;
#X connect 11 0 10 0;
#X connect 12 0 3 0;
#X restore 285 174 pd comb;
#N canvas 1257 399 557 351 comb 0;
#X msg 214 195 pitch \$1;
#X obj 87 346 throw~ \$0-output;
#X obj 86 202 receive~ \$0-input;
#X obj 86 307 *~ 1;
#X floatatom 132 291 5 0 0 0 - - -;
#X obj 132 267 inlet;
#X floatatom 214 160 5 0 0 0 - - -;
#X obj 214 130 inlet;
#X msg 298 194 feedback \$1;
#X obj 298 168 r \$0-feedback;
#X msg 387 194 lpfreq \$1;
#X obj 387 168 r \$0-lpfreq;
#X obj 85 243 s_guitar \$2;
#X connect 0 0 12 1;
#X connect 2 0 12 0;
#X connect 3 0 1 0;
#X connect 4 0 3 1;
#X connect 5 0 4 0;
#X connect 6 0 0 0;
#X connect 7 0 6 0;
#X connect 8 0 12 1;
#X connect 9 0 8 0;
#X connect 10 0 12 1;
#X connect 11 0 10 0;
#X connect 12 0 3 0;
#X restore 335 174 pd comb;
#N canvas 1257 399 557 351 comb 0;
#X msg 214 195 pitch \$1;
#X obj 87 346 throw~ \$0-output;
#X obj 86 202 receive~ \$0-input;
#X obj 86 307 *~ 1;
#X floatatom 132 291 5 0 0 0 - - -;
#X obj 132 267 inlet;
#X floatatom 214 160 5 0 0 0 - - -;
#X obj 214 130 inlet;
#X msg 298 194 feedback \$1;
#X obj 298 168 r \$0-feedback;
#X msg 387 194 lpfreq \$1;
#X obj 387 168 r \$0-lpfreq;
#X obj 85 243 s_guitar \$2;
#X connect 0 0 12 1;
#X connect 2 0 12 0;
#X connect 3 0 1 0;
#X connect 4 0 3 1;
#X connect 5 0 4 0;
#X connect 6 0 0 0;
#X connect 7 0 6 0;
#X connect 8 0 12 1;
#X connect 9 0 8 0;
#X connect 10 0 12 1;
#X connect 11 0 10 0;
#X connect 12 0 3 0;
#X restore 385 174 pd comb;
#N canvas 1257 399 557 351 comb 0;
#X msg 214 195 pitch \$1;
#X obj 87 346 throw~ \$0-output;
#X obj 86 202 receive~ \$0-input;
#X obj 86 307 *~ 1;
#X floatatom 132 291 5 0 0 0 - - -;
#X obj 132 267 inlet;
#X floatatom 214 160 5 0 0 0 - - -;
#X obj 214 130 inlet;
#X msg 298 194 feedback \$1;
#X obj 298 168 r \$0-feedback;
#X msg 387 194 lpfreq \$1;
#X obj 387 168 r \$0-lpfreq;
#X obj 85 243 s_guitar \$2;
#X connect 0 0 12 1;
#X connect 2 0 12 0;
#X connect 3 0 1 0;
#X connect 4 0 3 1;
#X connect 5 0 4 0;
#X connect 6 0 0 0;
#X connect 7 0 6 0;
#X connect 8 0 12 1;
#X connect 9 0 8 0;
#X connect 10 0 12 1;
#X connect 11 0 10 0;
#X connect 12 0 3 0;
#X restore 435 174 pd comb;
#N canvas 1257 399 557 351 comb 0;
#X msg 214 195 pitch \$1;
#X obj 87 346 throw~ \$0-output;
#X obj 86 202 receive~ \$0-input;
#X obj 86 307 *~ 1;
#X floatatom 132 291 5 0 0 0 - - -;
#X obj 132 267 inlet;
#X floatatom 214 160 5 0 0 0 - - -;
#X obj 214 130 inlet;
#X msg 298 194 feedback \$1;
#X obj 298 168 r \$0-feedback;
#X msg 387 194 lpfreq \$1;
#X obj 387 168 r \$0-lpfreq;
#X obj 85 243 s_guitar \$2;
#X connect 0 0 12 1;
#X connect 2 0 12 0;
#X connect 3 0 1 0;
#X connect 4 0 3 1;
#X connect 5 0 4 0;
#X connect 6 0 0 0;
#X connect 7 0 6 0;
#X connect 8 0 12 1;
#X connect 9 0 8 0;
#X connect 10 0 12 1;
#X connect 11 0 10 0;
#X connect 12 0 3 0;
#X restore 485 174 pd comb;
#N canvas 1257 399 557 351 comb 0;
#X msg 214 195 pitch \$1;
#X obj 87 346 throw~ \$0-output;
#X obj 86 202 receive~ \$0-input;
#X obj 86 307 *~ 1;
#X floatatom 132 291 5 0 0 0 - - -;
#X obj 132 267 inlet;
#X floatatom 214 160 5 0 0 0 - - -;
#X obj 214 130 inlet;
#X msg 298 194 feedback \$1;
#X obj 298 168 r \$0-feedback;
#X msg 387 194 lpfreq \$1;
#X obj 387 168 r \$0-lpfreq;
#X obj 85 243 s_guitar \$2;
#X connect 0 0 12 1;
#X connect 2 0 12 0;
#X connect 3 0 1 0;
#X connect 4 0 3 1;
#X connect 5 0 4 0;
#X connect 6 0 0 0;
#X connect 7 0 6 0;
#X connect 8 0 12 1;
#X connect 9 0 8 0;
#X connect 10 0 12 1;
#X connect 11 0 10 0;
#X connect 12 0 3 0;
#X restore 535 174 pd comb;
#X obj 634 133 print tester;
#X msg 625 -55 pitch \$1;
#X floatatom 532 -67 5 0 0 0 - - -;
#X obj 706 -52 u_dispatch \$0 \$1 pitch;
#X obj 706 -27 u_dispatch \$0 \$1 vol;
#X obj 706 -7 u_dispatch \$0 \$1 feedback;
#X obj 706 13 u_dispatch \$0 \$1 lpfreq;
#X obj 706 33 u_dispatch \$0 \$1 drywet;
#X connect 1 0 2 0;
#X connect 1 0 5 0;
#X connect 3 0 5 1;
#X connect 5 0 4 0;
#X connect 6 0 7 0;
#X connect 6 0 19 0;
#X connect 7 0 9 0;
#X connect 7 1 13 0;
#X connect 7 2 14 0;
#X connect 7 3 15 0;
#X connect 7 4 16 0;
#X connect 7 5 17 0;
#X connect 7 6 18 0;
#X connect 8 0 22 0;
#X connect 10 0 9 1;
#X connect 10 1 13 1;
#X connect 10 2 14 1;
#X connect 10 3 15 1;
#X connect 10 4 16 1;
#X connect 10 5 17 1;
#X connect 10 6 18 1;
#X connect 11 0 10 0;
#X connect 12 0 5 2;
#X connect 20 0 22 0;
#X connect 21 0 20 0;
#X connect 22 0 23 0;
#X connect 23 0 24 0;
#X connect 24 0 25 0;
#X connect 25 0 26 0;
