#N canvas 0 0 1366 702 10;
#X obj 90 320 e_delayfb gra 2000;
#X obj 64 279 inlet~;
#N canvas 6 309 706 316 mod 0;
#N canvas 661 171 450 300 osc 1;
#X obj 87 107 s_4osc;
#X obj 88 194 outlet~;
#X obj 223 92 tgl 15 0 empty empty empty 17 7 0 10 -262144 -1 -1 1
1;
#X obj 87 39 inlet;
#X obj 223 67 loadbang;
#X obj 154 39 inlet;
#X obj 114 141 noise~;
#X obj 87 169 c_cpfade;
#X obj 201 39 inlet;
#X connect 0 0 7 0;
#X connect 2 0 0 5;
#X connect 3 0 0 0;
#X connect 4 0 2 0;
#X connect 5 0 0 3;
#X connect 6 0 7 1;
#X connect 7 0 1 0;
#X connect 8 0 7 2;
#X restore 160 67 pd osc;
#X obj 160 187 c_xfade;
#X floatatom 224 155 5 0 0 0 - - -;
#X obj 238 238 snapshot~;
#X obj 283 209 metro 50;
#X obj 283 180 tgl 15 0 empty empty empty 17 7 0 10 -262144 -1 -1 0
1;
#X floatatom 238 260 5 0 0 0 - - -;
#X obj 159 154 lop~ 500;
#X floatatom 212 131 5 0 0 0 - - -;
#X obj 161 256 outlet~;
#X obj 160 111 *~ 1;
#X floatatom 185 93 5 0 0 0 - - -;
#X obj 160 17 inlet;
#X obj 343 79 clip 0 1;
#X obj 160 43 route pitch morph intensity lfreq ffade noise;
#X connect 0 0 10 0;
#X connect 1 0 3 0;
#X connect 1 0 9 0;
#X connect 2 0 1 2;
#X connect 3 0 6 0;
#X connect 4 0 3 0;
#X connect 5 0 4 0;
#X connect 7 0 1 0;
#X connect 8 0 7 1;
#X connect 10 0 7 0;
#X connect 10 0 1 1;
#X connect 11 0 10 1;
#X connect 12 0 14 0;
#X connect 13 0 2 0;
#X connect 14 0 0 0;
#X connect 14 1 0 1;
#X connect 14 2 11 0;
#X connect 14 3 8 0;
#X connect 14 4 13 0;
#X connect 14 5 0 2;
#X restore 151 280 pd mod;
#X obj 64 550 outlet~;
#X floatatom 310 504 5 0 0 1 Dry/Wet - -;
#X msg 575 127 feedback \$1;
#X floatatom 575 96 5 0 0 0 - - -;
#X obj 64 518 c_cpfade;
#X msg 106 128 pitch \$1;
#X msg 182 127 morph \$1;
#X msg 252 127 lfreq \$1;
#X msg 329 126 intensity \$1;
#X msg 435 127 ffade \$1;
#X floatatom 106 100 5 0 0 0 - - -;
#X floatatom 182 96 5 0 0 0 - - -;
#X floatatom 252 97 5 0 0 0 - - -;
#X floatatom 329 94 5 0 0 0 - - -;
#X floatatom 435 97 5 0 0 0 - - -;
#X obj 89 478 *~ 3;
#X floatatom 505 97 5 0 0 0 - - -;
#X msg 505 127 noise \$1;
#X obj 252 76 mtof;
#X floatatom 252 24 5 0 0 0 - - -;
#X obj 298 -51 random 127;
#X obj 252 52 +;
#X obj 298 -2 *;
#X obj 298 -76 metro 50;
#X obj 298 -97 tgl 15 0 empty empty empty 17 7 0 10 -262144 -1 -1 0
1;
#X floatatom 316 -21 5 0 0 0 - - -;
#X obj 298 21 t b f;
#X floatatom 351 -97 5 0 0 0 - - -;
#X obj 257 280 inlet~;
#X obj 257 522 c_cpfade;
#X obj 283 482 *~ 3;
#X obj 258 557 outlet~;
#X obj 257 321 e_delayfb gra 2000;
#X floatatom 304 420 5 0 0 0 - - -;
#X floatatom 310 464 5 0 0 0 - - -;
#X obj 283 443 hip~;
#X obj 90 436 hip~;
#X msg 425 505 1;
#X obj 425 476 r lb;
#X obj 187 295 +~ 1;
#X floatatom 220 278 5 0 0 0 - - -;
#X obj 923 219 u_dispatch \$0 \$1 pitch;
#X obj 923 196 inlet;
#X obj 923 242 u_dispatch \$0 \$1 morph;
#X obj 923 264 u_dispatch \$0 \$1 lpfreq;
#X obj 923 285 u_dispatch \$0 \$1 intensity;
#X obj 923 308 u_dispatch \$0 \$1 ffade;
#X obj 923 330 u_dispatch \$0 \$1 noise;
#X obj 923 352 u_dispatch \$0 \$1 feedback;
#X obj 923 376 u_dispatch \$0 \$1 drywet;
#X obj 923 401 u_dispatch \$0 \$1 highpass;
#X connect 0 0 39 0;
#X connect 1 0 0 0;
#X connect 1 0 7 0;
#X connect 2 0 42 0;
#X connect 4 0 7 2;
#X connect 4 0 32 2;
#X connect 5 0 0 2;
#X connect 5 0 35 2;
#X connect 6 0 5 0;
#X connect 7 0 3 0;
#X connect 8 0 2 0;
#X connect 9 0 2 0;
#X connect 10 0 2 0;
#X connect 11 0 2 0;
#X connect 12 0 2 0;
#X connect 13 0 8 0;
#X connect 14 0 9 0;
#X connect 15 0 10 0;
#X connect 16 0 11 0;
#X connect 17 0 12 0;
#X connect 18 0 7 1;
#X connect 19 0 20 0;
#X connect 20 0 2 0;
#X connect 21 0 15 0;
#X connect 22 0 24 0;
#X connect 23 0 25 0;
#X connect 24 0 21 0;
#X connect 25 0 29 0;
#X connect 26 0 23 0;
#X connect 27 0 26 0;
#X connect 28 0 25 1;
#X connect 29 0 24 0;
#X connect 29 1 24 1;
#X connect 30 0 26 1;
#X connect 31 0 32 0;
#X connect 31 0 35 0;
#X connect 32 0 34 0;
#X connect 33 0 32 1;
#X connect 35 0 38 0;
#X connect 36 0 38 1;
#X connect 36 0 39 1;
#X connect 37 0 33 1;
#X connect 37 0 18 1;
#X connect 38 0 33 0;
#X connect 39 0 18 0;
#X connect 40 0 32 2;
#X connect 40 0 7 2;
#X connect 41 0 40 0;
#X connect 42 0 0 1;
#X connect 42 0 35 1;
#X connect 43 0 42 1;
#X connect 44 0 46 0;
#X connect 45 0 44 0;
#X connect 46 0 47 0;
#X connect 47 0 48 0;
#X connect 48 0 49 0;
#X connect 49 0 50 0;
#X connect 50 0 51 0;
#X connect 51 0 52 0;
#X connect 52 0 53 0;
