#N canvas 0 0 1366 702 10;
#X obj 118 227 e_delayfb gra 2000;
#X obj 92 186 inlet~;
#N canvas 6 309 706 316 mod 0;
#N canvas 661 171 450 300 osc 0;
#X obj 87 107 s_4osc;
#X obj 88 194 outlet~;
#X obj 223 92 tgl 15 0 empty empty empty 17 7 0 10 -262144 -1 -1 1
1;
#X obj 87 39 inlet;
#X obj 223 67 loadbang;
#X obj 154 39 inlet;
#X obj 114 141 noise~;
#X obj 87 169 c_cpfade;
#X obj 201 39 inlet;
#X connect 0 0 7 0;
#X connect 2 0 0 5;
#X connect 3 0 0 0;
#X connect 4 0 2 0;
#X connect 5 0 0 3;
#X connect 6 0 7 1;
#X connect 7 0 1 0;
#X connect 8 0 7 2;
#X restore 160 67 pd osc;
#X obj 160 187 c_xfade;
#X floatatom 224 155 5 0 0 0 - - -;
#X obj 238 238 snapshot~;
#X obj 283 209 metro 50;
#X obj 283 180 tgl 15 0 empty empty empty 17 7 0 10 -262144 -1 -1 0
1;
#X floatatom 238 260 5 0 0 0 - - -;
#X obj 159 154 lop~ 500;
#X floatatom 212 131 5 0 0 0 - - -;
#X obj 161 256 outlet~;
#X obj 160 111 *~ 1;
#X floatatom 185 93 5 0 0 0 - - -;
#X obj 160 17 inlet;
#X obj 343 79 clip 0 1;
#X obj 160 43 route pitch morph intensity lfreq ffade noise;
#X connect 0 0 10 0;
#X connect 1 0 3 0;
#X connect 1 0 9 0;
#X connect 2 0 1 2;
#X connect 3 0 6 0;
#X connect 4 0 3 0;
#X connect 5 0 4 0;
#X connect 7 0 1 0;
#X connect 8 0 7 1;
#X connect 10 0 7 0;
#X connect 10 0 1 1;
#X connect 11 0 10 1;
#X connect 12 0 14 0;
#X connect 13 0 2 0;
#X connect 14 0 0 0;
#X connect 14 1 0 1;
#X connect 14 2 11 0;
#X connect 14 3 8 0;
#X connect 14 4 13 0;
#X connect 14 5 0 2;
#X restore 179 187 pd mod;
#X obj 92 457 outlet~;
#X floatatom 338 411 5 0 0 1 Dry/Wet - -;
#X msg 575 127 feedback \$1;
#X floatatom 575 96 5 0 0 0 - - -;
#X obj 92 425 c_cpfade;
#X msg 106 128 pitch \$1;
#X msg 182 127 morph \$1;
#X msg 252 127 lfreq \$1;
#X msg 329 126 intensity \$1;
#X msg 435 127 ffade \$1;
#X floatatom 106 100 5 0 0 0 - - -;
#X floatatom 182 96 5 0 0 0 - - -;
#X floatatom 252 97 5 0 0 0 - - -;
#X floatatom 329 94 5 0 0 0 - - -;
#X floatatom 435 97 5 0 0 0 - - -;
#X obj 117 385 *~ 3;
#X floatatom 505 97 5 0 0 0 - - -;
#X msg 505 127 noise \$1;
#X obj 252 76 mtof;
#X floatatom 252 24 5 0 0 0 - - -;
#X obj 298 -51 random 127;
#X obj 252 52 +;
#X obj 298 -2 *;
#X obj 298 -76 metro 50;
#X obj 298 -97 tgl 15 0 empty empty empty 17 7 0 10 -262144 -1 -1 0
1;
#X floatatom 316 -21 5 0 0 0 - - -;
#X obj 298 21 t b f;
#X floatatom 351 -97 5 0 0 0 - - -;
#X obj 285 187 inlet~;
#X obj 285 429 c_cpfade;
#X obj 311 389 *~ 3;
#X obj 286 464 outlet~;
#X obj 285 228 e_delayfb gra 2000;
#X floatatom 336 329 5 0 0 0 - - -;
#X floatatom 338 371 5 0 0 0 - - -;
#X obj 311 350 hip~;
#X obj 118 343 hip~;
#X obj 575 170 u_save.me.mmb \$1-feedback \$2;
#N canvas 0 0 1366 702 randomfreq 0;
#X obj 513 430 mtof;
#X obj 552 264 random 127;
#X obj 552 222 metro 250;
#X obj 552 199 tgl 15 0 empty empty empty 17 7 0 10 -262144 -1 -1 0
1;
#X obj 577 392 line;
#X floatatom 619 244 5 0 0 0 - - -;
#X floatatom 410 264 5 0 0 0 - - -;
#X obj 436 310 t b f;
#X obj 620 289 *;
#X floatatom 637 298 5 0 0 0 - - -;
#X floatatom 611 193 5 0 0 0 - - -;
#X obj 427 342 +;
#X floatatom 669 205 5 0 0 0 - - -;
#X obj 427 370 clip 0 120;
#X obj 692 253 random 300;
#X obj 704 278 + 1000;
#X msg 575 358 \$1 \$2;
#X obj 575 324 pack 0 0;
#X floatatom 648 321 5 0 0 0 - - -;
#X floatatom 499 352 5 0 0 0 - - -;
#X obj 537 480 outlet;
#X obj 568 153 inlet;
#X connect 0 0 20 0;
#X connect 1 0 8 0;
#X connect 1 0 17 0;
#X connect 2 0 1 0;
#X connect 2 0 14 0;
#X connect 3 0 2 0;
#X connect 4 0 7 0;
#X connect 5 0 1 1;
#X connect 6 0 11 0;
#X connect 7 0 11 0;
#X connect 7 1 11 1;
#X connect 9 0 8 1;
#X connect 10 0 2 1;
#X connect 11 0 13 0;
#X connect 11 0 19 0;
#X connect 13 0 0 0;
#X connect 14 0 15 0;
#X connect 15 0 10 0;
#X connect 16 0 4 0;
#X connect 17 0 16 0;
#X connect 18 0 17 1;
#X connect 21 0 3 0;
#X restore 368 297 pd randomfreq;
#X obj 361 268 tgl 15 0 empty empty empty 17 7 0 10 -262144 -1 -1 0
1;
#X obj 575 190 u_save.me.mmb \$1-noise \$2;
#X obj 575 210 u_save.me.mmb \$1-ffade \$2;
#X obj 576 230 u_save.me.mmb \$1-intensity \$2;
#X obj 576 253 u_save.me.mmb \$1-lfreq \$2;
#X obj 576 276 u_save.me.mmb \$1-morph \$2;
#X obj 576 300 u_save.me.mmb \$1-pitch \$2;
#X obj 487 328 mtof;
#X floatatom 479 295 5 0 0 0 - - -;
#X msg 453 412 1;
#X obj 453 383 r lb;
#X obj 627 503 line;
#X msg 631 431 \$1 600;
#X obj 215 202 +~ 1;
#X floatatom 248 185 5 0 0 0 - - -;
#X obj 783 -8 inlet;
#X obj 780 42 route Pitch Morph LowPass Intensity;
#X obj 896 91 route Mix Noise Feedback Dry/Wet;
#X obj 895 129 route Hi-Pass;
#X connect 0 0 39 0;
#X connect 1 0 0 0;
#X connect 1 0 7 0;
#X connect 2 0 55 0;
#X connect 4 0 7 2;
#X connect 4 0 32 2;
#X connect 5 0 0 2;
#X connect 5 0 35 2;
#X connect 6 0 5 0;
#X connect 6 0 40 0;
#X connect 7 0 3 0;
#X connect 8 0 2 0;
#X connect 9 0 2 0;
#X connect 10 0 2 0;
#X connect 11 0 2 0;
#X connect 12 0 2 0;
#X connect 13 0 8 0;
#X connect 13 0 48 0;
#X connect 14 0 9 0;
#X connect 14 0 47 0;
#X connect 15 0 10 0;
#X connect 15 0 46 0;
#X connect 16 0 11 0;
#X connect 16 0 45 0;
#X connect 17 0 12 0;
#X connect 17 0 44 0;
#X connect 18 0 7 1;
#X connect 19 0 20 0;
#X connect 19 0 43 0;
#X connect 20 0 2 0;
#X connect 21 0 15 0;
#X connect 22 0 24 0;
#X connect 23 0 25 0;
#X connect 24 0 21 0;
#X connect 25 0 29 0;
#X connect 26 0 23 0;
#X connect 27 0 26 0;
#X connect 28 0 25 1;
#X connect 29 0 24 0;
#X connect 29 1 24 1;
#X connect 30 0 26 1;
#X connect 31 0 32 0;
#X connect 31 0 35 0;
#X connect 32 0 34 0;
#X connect 33 0 32 1;
#X connect 35 0 38 0;
#X connect 36 0 38 1;
#X connect 36 0 39 1;
#X connect 37 0 33 1;
#X connect 37 0 18 1;
#X connect 38 0 33 0;
#X connect 39 0 18 0;
#X connect 40 0 6 0;
#X connect 41 0 54 0;
#X connect 42 0 41 0;
#X connect 43 0 19 0;
#X connect 44 0 17 0;
#X connect 45 0 16 0;
#X connect 46 0 15 0;
#X connect 47 0 14 0;
#X connect 48 0 13 0;
#X connect 49 0 36 0;
#X connect 50 0 49 0;
#X connect 51 0 32 2;
#X connect 51 0 7 2;
#X connect 52 0 51 0;
#X connect 53 0 36 0;
#X connect 54 0 53 0;
#X connect 55 0 0 1;
#X connect 55 0 35 1;
#X connect 56 0 55 1;
#X connect 57 0 58 0;
#X connect 57 0 59 0;
#X connect 58 0 13 0;
#X connect 58 1 14 0;
#X connect 58 2 22 0;
#X connect 58 3 16 0;
#X connect 58 4 59 0;
#X connect 59 0 17 0;
#X connect 59 1 19 0;
#X connect 59 2 6 0;
#X connect 59 3 4 0;
#X connect 59 4 60 0;
#X connect 60 0 37 0;
