#N canvas 551 354 1366 702 10;
#X obj 64 19 inlet~;
#N canvas 65 325 985 335 mod 1;
#N canvas 652 183 450 300 osc 1;
#X obj 88 194 outlet~;
#X obj 87 39 inlet;
#X obj 154 39 inlet;
#X obj 114 141 noise~;
#X obj 87 169 c_cpfade;
#X obj 201 39 inlet;
#N canvas 65 85 450 300 4osc 0;
#X obj 108 246 osc~;
#N canvas 515 78 689 480 triangle 0;
#X obj 69 338 outlet~;
#X obj 128 48 inlet;
#X obj 129 76 * -1;
#X obj 69 103 phasor~;
#X obj 69 125 *~ 2;
#X obj 69 147 -~ 1;
#X obj 68 230 +~;
#X obj 130 104 phasor~;
#X obj 130 126 *~ 2;
#X obj 130 148 -~ 1;
#X obj 68 181 clip~ 0 1;
#X obj 141 185 clip~ 0 1;
#X msg 212 76 0;
#X obj 212 48 loadbang;
#X connect 1 0 2 0;
#X connect 1 0 3 0;
#X connect 2 0 7 0;
#X connect 3 0 4 0;
#X connect 4 0 5 0;
#X connect 5 0 10 0;
#X connect 6 0 0 0;
#X connect 7 0 8 0;
#X connect 8 0 9 0;
#X connect 9 0 11 0;
#X connect 10 0 6 0;
#X connect 11 0 6 1;
#X connect 12 0 7 1;
#X connect 12 0 3 1;
#X connect 13 0 12 0;
#X restore 148 247 pd triangle;
#N canvas 0 50 450 300 pulse 0;
#X obj 148 101 phasor~;
#X obj 145 253 outlet~;
#X obj 148 25 inlet;
#X obj 208 103 phasor~;
#X obj 207 60 *~ -1;
#X msg 288 64 0;
#X msg 326 65 0.5;
#X obj 288 32 bng 15 250 50 0 empty empty empty 17 7 0 10 -262144 -1
-1;
#X obj 147 148 +~;
#X obj 146 192 -~ 1;
#X obj 288 9 loadbang;
#X connect 0 0 8 0;
#X connect 2 0 0 0;
#X connect 2 0 4 0;
#X connect 3 0 8 1;
#X connect 4 0 3 0;
#X connect 5 0 0 1;
#X connect 6 0 3 1;
#X connect 7 0 5 0;
#X connect 7 0 6 0;
#X connect 8 0 9 0;
#X connect 9 0 1 0;
#X connect 10 0 7 0;
#X restore 237 248 pd pulse;
#N canvas 0 50 450 300 saw 0;
#X obj 128 103 phasor~;
#X obj 128 48 inlet;
#X obj 128 169 outlet~;
#X obj 128 147 -~ 1;
#X obj 128 125 *~ 2;
#X connect 0 0 4 0;
#X connect 1 0 0 0;
#X connect 3 0 2 0;
#X connect 4 0 3 0;
#X restore 305 249 pd saw;
#X obj 108 457 outlet~;
#X floatatom 278 318 5 0 75 0 Morph - -, f 5;
#X obj 108 429 *~ 0.7;
#X obj 108 152 +;
#X floatatom 108 77 5 0 0 0 Fine - -, f 5;
#X obj 108 51 inlet;
#X obj 278 282 inlet;
#X obj 108 119 t b f;
#X obj 34 51 inlet;
#X floatatom 34 76 5 0 0 0 Freq - -, f 5;
#X obj 328 368 inlet;
#X floatatom 328 390 5 0 0 0 Amp - -, f 5;
#X obj 370 368 r \$0-amp;
#X obj 153 49 r \$0-fine;
#X obj -40 52 r \$0-freq;
#X obj 334 280 r \$0-morph;
#X obj 108 179 mtof;
#X obj 108 96 / 127;
#X obj 226 49 inlet;
#X obj 108 212 +;
#X obj 226 181 t b f;
#X floatatom 48 247 5 0 0 0 - - -, f 5;
#X obj 417 279 loadbang;
#X msg 417 301 0;
#X obj 34 11 loadbang;
#X obj -33 157 inlet~;
#N canvas 308 120 450 300 4chcrossfade 0;
#X obj 38 217 *~;
#X obj 107 218 *~;
#X obj 38 217 *~;
#X obj 178 220 *~;
#X obj 252 223 *~;
#N canvas 255 97 450 300 table 0;
#X obj 99 35 loadbang;
#X obj 99 82 100;
#X obj 99 104 until;
#X obj 99 126 f;
#X obj 130 127 + 1;
#X obj 99 171 / 50;
#X obj 99 193 * 3.1459;
#X obj 99 215 sin;
#X obj 99 237 max;
#X msg 169 83 0;
#X obj 99 58 t b b;
#X obj 99 259 tabwrite \$0-curve;
#X obj 273 112 table \$0-curve;
#X obj 99 149 t f f;
#X connect 0 0 10 0;
#X connect 1 0 2 0;
#X connect 2 0 3 0;
#X connect 3 0 4 0;
#X connect 3 0 13 0;
#X connect 4 0 3 1;
#X connect 5 0 6 0;
#X connect 6 0 7 0;
#X connect 7 0 8 0;
#X connect 8 0 11 0;
#X connect 9 0 3 1;
#X connect 10 0 1 0;
#X connect 10 1 9 0;
#X connect 13 0 5 0;
#X connect 13 1 11 1;
#X restore 41 41 pd table;
#N canvas 366 175 450 300 pan 0;
#X obj 95 68 inlet;
#X floatatom 95 90 5 0 0 0 - - -, f 5;
#X obj 95 167 tabread \$0-curve;
#X obj 95 133 mod 100;
#X obj 95 201 outlet;
#X obj 95 109 + 25;
#X connect 0 0 1 0;
#X connect 1 0 5 0;
#X connect 2 0 4 0;
#X connect 3 0 2 0;
#X connect 5 0 3 0;
#X restore 55 143 pd pan;
#N canvas 366 175 450 300 pan 0;
#X obj 95 68 inlet;
#X floatatom 95 90 5 0 0 0 - - -, f 5;
#X obj 95 167 tabread \$0-curve;
#X obj 95 133 mod 100;
#X obj 95 201 outlet;
#X obj 95 109 + 0;
#X connect 0 0 1 0;
#X connect 1 0 5 0;
#X connect 2 0 4 0;
#X connect 3 0 2 0;
#X connect 5 0 3 0;
#X restore 125 144 pd pan;
#N canvas 366 175 450 300 pan 0;
#X obj 95 68 inlet;
#X floatatom 95 90 5 0 0 0 - - -, f 5;
#X obj 95 167 tabread \$0-curve;
#X obj 95 133 mod 100;
#X obj 95 201 outlet;
#X obj 95 109 + 75;
#X connect 0 0 1 0;
#X connect 1 0 5 0;
#X connect 2 0 4 0;
#X connect 3 0 2 0;
#X connect 5 0 3 0;
#X restore 198 144 pd pan;
#N canvas 366 175 450 300 pan 0;
#X obj 95 68 inlet;
#X floatatom 95 90 5 0 0 0 - - -, f 5;
#X obj 95 167 tabread \$0-curve;
#X obj 95 133 mod 100;
#X obj 95 201 outlet;
#X obj 95 109 + 50;
#X connect 0 0 1 0;
#X connect 1 0 5 0;
#X connect 2 0 4 0;
#X connect 3 0 2 0;
#X connect 5 0 3 0;
#X restore 270 151 pd pan;
#X obj 39 113 inlet~;
#X obj 107 112 inlet~;
#X obj 179 110 inlet~;
#X obj 251 108 inlet~;
#X obj 37 269 outlet~;
#X obj 269 73 inlet;
#X obj 55 195 line~;
#X obj 124 192 line~;
#X obj 197 194 line~;
#X obj 269 199 line~;
#X msg 55 170 \$1 100;
#X msg 124 166 \$1 100;
#X msg 197 169 \$1 100;
#X msg 272 174 \$1 100;
#X connect 0 0 14 0;
#X connect 1 0 14 0;
#X connect 3 0 14 0;
#X connect 4 0 14 0;
#X connect 6 0 20 0;
#X connect 7 0 21 0;
#X connect 8 0 22 0;
#X connect 9 0 23 0;
#X connect 10 0 0 0;
#X connect 11 0 1 0;
#X connect 12 0 3 0;
#X connect 13 0 4 0;
#X connect 15 0 9 0;
#X connect 15 0 8 0;
#X connect 15 0 7 0;
#X connect 15 0 6 0;
#X connect 16 0 0 1;
#X connect 17 0 1 1;
#X connect 18 0 3 1;
#X connect 19 0 4 1;
#X connect 20 0 16 0;
#X connect 21 0 17 0;
#X connect 22 0 18 0;
#X connect 23 0 19 0;
#X restore 108 332 pd 4chcrossfade;
#X connect 0 0 30 0;
#X connect 1 0 30 1;
#X connect 2 0 30 2;
#X connect 3 0 30 3;
#X connect 5 0 30 4;
#X connect 6 0 4 0;
#X connect 7 0 20 0;
#X connect 8 0 21 0;
#X connect 9 0 8 0;
#X connect 10 0 5 0;
#X connect 11 0 7 0;
#X connect 11 1 7 1;
#X connect 12 0 13 0;
#X connect 13 0 7 0;
#X connect 14 0 15 0;
#X connect 15 0 6 1;
#X connect 16 0 15 0;
#X connect 17 0 8 0;
#X connect 18 0 13 0;
#X connect 19 0 5 0;
#X connect 20 0 23 0;
#X connect 21 0 11 0;
#X connect 22 0 24 0;
#X connect 23 0 0 0;
#X connect 23 0 25 0;
#X connect 23 0 1 0;
#X connect 23 0 2 0;
#X connect 23 0 3 0;
#X connect 24 0 23 0;
#X connect 24 1 23 1;
#X connect 26 0 27 0;
#X connect 27 0 5 0;
#X connect 28 0 13 0;
#X connect 29 0 0 0;
#X connect 30 0 6 0;
#X restore 86 113 pd 4osc;
#X connect 1 0 6 1;
#X connect 2 0 6 4;
#X connect 3 0 4 1;
#X connect 4 0 0 0;
#X connect 5 0 4 2;
#X connect 6 0 4 0;
#X restore 160 67 pd osc;
#X obj 160 187 c_xfade;
#X floatatom 224 155 5 0 0 0 - - -, f 5;
#X obj 159 154 lop~ 500;
#X obj 161 256 outlet~;
#X obj 160 111 *~ 1;
#X obj 296 137 clip 0 1;
#X obj 160 -16 r \$0-pitch;
#X obj 176 7 r \$0-morph;
#X obj 249 7 r \$0-intensity;
#X obj 296 101 r \$0-ffade;
#X obj 193 39 r \$0-noise;
#X obj 212 101 r \$0-lpfreq;
#X obj 212 127 mtof;
#X connect 0 0 5 0;
#X connect 1 0 4 0;
#X connect 2 0 1 2;
#X connect 3 0 1 0;
#X connect 5 0 3 0;
#X connect 5 0 1 1;
#X connect 6 0 2 0;
#X connect 7 0 0 0;
#X connect 8 0 0 1;
#X connect 9 0 5 1;
#X connect 10 0 6 0;
#X connect 11 0 0 2;
#X connect 12 0 13 0;
#X connect 13 0 3 1;
#X restore 187 -25 pd mod;
#X obj 64 330 outlet~;
#X obj 64 298 c_cpfade;
#X obj 89 218 *~ 3;
#X obj 261 2 inlet~;
#X obj 257 296 c_cpfade;
#X obj 280 222 *~ 3;
#X obj 258 331 outlet~;
#X obj 280 183 hip~;
#X obj 90 176 hip~;
#X obj 188 21 +~ 1;
#X obj 493 19 u_dispatch \$0 \$1 pitch;
#X obj 493 -4 inlet;
#X obj 493 42 u_dispatch \$0 \$1 morph;
#X obj 493 64 u_dispatch \$0 \$1 lpfreq;
#X obj 493 85 u_dispatch \$0 \$1 intensity;
#X obj 493 108 u_dispatch \$0 \$1 ffade;
#X obj 493 130 u_dispatch \$0 \$1 noise;
#X obj 493 152 u_dispatch \$0 \$1 feedback;
#X obj 493 201 u_dispatch \$0 \$1 highpass;
#X obj 279 61 e_del \$0-spheredelR;
#X obj 90 60 e_del \$0-spheredelL;
#X obj 302 260 r \$0-dry;
#X obj 493 176 u_dispatch \$0 \$1 dry;
#X obj 390 -3 r \$0-feedback;
#X obj 493 221 u_dispatch \$0 \$1 vol;
#X obj 351 201 r \$0-vol;
#X msg 409 30 dry \$1;
#X msg 409 -30 1;
#X obj 409 -59 loadbang;
#X obj 301 136 r \$0-highpass;
#X obj 301 159 mtof;
#X connect 0 0 3 0;
#X connect 0 0 22 0;
#X connect 1 0 11 0;
#X connect 3 0 2 0;
#X connect 4 0 3 1;
#X connect 5 0 6 0;
#X connect 5 0 21 0;
#X connect 6 0 8 0;
#X connect 7 0 6 1;
#X connect 9 0 7 0;
#X connect 10 0 4 0;
#X connect 11 0 21 1;
#X connect 11 0 22 1;
#X connect 12 0 14 0;
#X connect 13 0 12 0;
#X connect 14 0 15 0;
#X connect 15 0 16 0;
#X connect 16 0 17 0;
#X connect 17 0 18 0;
#X connect 18 0 19 0;
#X connect 19 0 24 0;
#X connect 20 0 26 0;
#X connect 21 0 9 0;
#X connect 22 0 10 0;
#X connect 23 0 6 2;
#X connect 23 0 3 2;
#X connect 24 0 20 0;
#X connect 25 0 22 2;
#X connect 25 0 21 2;
#X connect 27 0 4 1;
#X connect 27 0 7 1;
#X connect 28 0 22 2;
#X connect 28 0 21 2;
#X connect 29 0 28 0;
#X connect 30 0 29 0;
#X connect 31 0 32 0;
#X connect 32 0 10 1;
#X connect 32 0 9 1;
