#N canvas 170 502 1366 702 10;
#X obj 64 19 inlet~;
#N canvas 6 309 985 335 mod 1;
#N canvas 661 171 450 300 osc 1;
#X obj 87 107 s_4osc;
#X obj 88 194 outlet~;
#X obj 87 39 inlet;
#X obj 154 39 inlet;
#X obj 114 141 noise~;
#X obj 87 169 c_cpfade;
#X obj 201 39 inlet;
#X floatatom 314 39 5 0 0 0 - - -;
#X connect 0 0 5 0;
#X connect 2 0 0 1;
#X connect 3 0 0 4;
#X connect 4 0 5 1;
#X connect 5 0 1 0;
#X connect 6 0 5 2;
#X connect 7 0 0 4;
#X restore 160 67 pd osc;
#X obj 160 187 c_xfade;
#X floatatom 224 155 5 0 0 0 - - -;
#X obj 159 154 lop~ 500;
#X floatatom 212 131 5 0 0 0 - - -;
#X obj 161 256 outlet~;
#X obj 160 111 *~ 1;
#X obj 290 138 clip 0 1;
#X obj 160 -16 r \$0-pitch;
#X obj 176 7 r \$0-morph;
#X obj 249 7 r \$0-intensity;
#X obj 290 102 r \$0-ffade;
#X obj 193 39 r \$0-noise;
#X obj 212 101 r \$0-lpfreq;
#X connect 0 0 6 0;
#X connect 1 0 5 0;
#X connect 2 0 1 2;
#X connect 3 0 1 0;
#X connect 4 0 3 1;
#X connect 6 0 3 0;
#X connect 6 0 1 1;
#X connect 7 0 2 0;
#X connect 8 0 0 0;
#X connect 9 0 0 1;
#X connect 10 0 6 1;
#X connect 11 0 7 0;
#X connect 12 0 0 2;
#X connect 13 0 4 0;
#X restore 187 -25 pd mod;
#X obj 64 330 outlet~;
#X obj 64 298 c_cpfade;
#X obj 89 218 *~ 3;
#X obj 261 2 inlet~;
#X obj 257 296 c_cpfade;
#X obj 280 222 *~ 3;
#X obj 258 331 outlet~;
#X obj 280 183 hip~;
#X obj 90 176 hip~;
#X obj 188 21 +~ 1;
#X obj 493 19 u_dispatch \$0 \$1 pitch;
#X obj 493 -4 inlet;
#X obj 493 42 u_dispatch \$0 \$1 morph;
#X obj 493 64 u_dispatch \$0 \$1 lpfreq;
#X obj 493 85 u_dispatch \$0 \$1 intensity;
#X obj 493 108 u_dispatch \$0 \$1 ffade;
#X obj 493 130 u_dispatch \$0 \$1 noise;
#X obj 493 152 u_dispatch \$0 \$1 feedback;
#X obj 493 201 u_dispatch \$0 \$1 highpass;
#X obj 279 61 e_del \$0-spheredelR;
#X obj 90 60 e_del \$0-spheredelL;
#X obj 302 260 r \$0-dry;
#X obj 493 176 u_dispatch \$0 \$1 dry;
#X obj 390 -3 r \$0-feedback;
#X obj 301 159 r \$0-highpass;
#X obj 493 221 u_dispatch \$0 \$1 vol;
#X obj 351 201 r \$0-vol;
#X obj 167 139 u_snapshot~;
#X obj 332 107 u_snapshot~;
#X msg 409 30 dry \$1;
#X msg 406 -41 1;
#X connect 0 0 3 0;
#X connect 0 0 22 0;
#X connect 1 0 11 0;
#X connect 3 0 2 0;
#X connect 4 0 3 1;
#X connect 5 0 6 0;
#X connect 5 0 21 0;
#X connect 6 0 8 0;
#X connect 7 0 6 1;
#X connect 9 0 7 0;
#X connect 10 0 4 0;
#X connect 11 0 21 1;
#X connect 11 0 22 1;
#X connect 12 0 14 0;
#X connect 13 0 12 0;
#X connect 14 0 15 0;
#X connect 15 0 16 0;
#X connect 16 0 17 0;
#X connect 17 0 18 0;
#X connect 18 0 19 0;
#X connect 19 0 24 0;
#X connect 20 0 27 0;
#X connect 21 0 9 0;
#X connect 22 0 10 0;
#X connect 22 0 29 0;
#X connect 23 0 6 2;
#X connect 23 0 3 2;
#X connect 24 0 20 0;
#X connect 25 0 22 2;
#X connect 25 0 21 2;
#X connect 26 0 10 1;
#X connect 26 0 9 1;
#X connect 28 0 4 1;
#X connect 28 0 7 1;
#X connect 31 0 22 2;
#X connect 31 0 21 2;
#X connect 32 0 31 0;
