#N canvas 65 82 650 686 10;
#X obj 113 101 vradio 12 1 0 8 \$0-step1out \$0-step1in empty 0 -8
0 10 -44926 -86853 -262144 7;
#X obj 125 101 vradio 12 1 0 8 \$0-step2out \$0-step2in empty 0 -8
0 10 -44926 -86853 -262144 7;
#X obj 137 101 vradio 12 1 0 8 \$0-step3out \$0-step3in empty 0 -8
0 10 -44926 -86853 -262144 7;
#X obj 149 101 vradio 12 1 0 8 \$0-step4out \$0-step4in empty 0 -8
0 10 -44926 -86853 -262144 7;
#X obj 101 101 vradio 12 1 0 8 \$0-step0out \$0-step0in empty 0 -8
0 10 -44926 -86853 -262144 7;
#X obj 161 101 vradio 12 1 0 8 \$0-step5out \$0-step5in empty 0 -8
0 10 -44926 -86853 -262144 7;
#X obj 172 101 vradio 12 1 0 8 \$0-step6out \$0-step6in empty 0 -8
0 10 -44926 -86853 -262144 7;
#X obj 183 101 vradio 12 1 0 8 \$0-step7out \$0-step7in empty 0 -8
0 10 -44926 -86853 -262144 7;
#X obj 282 94 table \$0-grid 8;
#X obj 100 197 hradio 12 1 0 8 empty \$0-stepdisplay empty 0 -8 0 10
-4034 -1 -1 2;
#X obj 410 35 inlet;
#X obj 513 138 s \$0-stepindex;
#X obj 282 240 tabread \$0-grid 8;
#X obj 282 135 r \$0-stepindex;
#X obj 282 348 outlet;
#X obj 338 186 r \$0-array;
#N canvas 737 192 321 294 arguments 0;
#X obj 3 113 s \$0-array;
#X msg 69 89 set \$1-grid;
#X obj 69 68 \$0;
#X msg 3 87 set \$1;
#X obj 3 -3 loadbang;
#X obj 3 23 symbol \$1;
#X obj 3 67 symbol \$1;
#X obj 3 44 sel \$1;
#X obj 69 49 t b;
#X connect 1 0 0 0;
#X connect 2 0 1 0;
#X connect 3 0 0 0;
#X connect 4 0 5 0;
#X connect 5 0 7 0;
#X connect 6 0 3 0;
#X connect 7 0 6 0;
#X connect 7 1 8 0;
#X connect 8 0 2 0;
#X restore 5 0 pd arguments;
#N canvas 65 54 1301 714 settable 0;
#X floatatom 20 42 5 0 0 0 - - -;
#X obj 20 18 r \$0-step0out;
#X obj 20 63 t f b;
#X msg 110 80 0;
#X floatatom 154 42 5 0 0 0 - - -;
#X obj 154 63 t f b;
#X msg 247 80 1;
#X obj 154 18 r \$0-step1out;
#X floatatom 290 43 5 0 0 0 - - -;
#X obj 290 64 t f b;
#X floatatom 424 43 5 0 0 0 - - -;
#X obj 424 64 t f b;
#X msg 383 81 2;
#X msg 517 81 3;
#X obj 290 19 r \$0-step2out;
#X obj 424 19 r \$0-step3out;
#X floatatom 570 42 5 0 0 0 - - -;
#X obj 570 63 t f b;
#X floatatom 704 42 5 0 0 0 - - -;
#X obj 704 63 t f b;
#X floatatom 840 43 5 0 0 0 - - -;
#X obj 840 64 t f b;
#X floatatom 974 43 5 0 0 0 - - -;
#X obj 974 64 t f b;
#X obj 570 18 r \$0-step4out;
#X msg 661 80 4;
#X obj 704 18 r \$0-step5out;
#X obj 840 19 r \$0-step6out;
#X obj 974 19 r \$0-step7out;
#X obj 28 100 r \$0-array;
#X obj 169 101 r \$0-array;
#X obj 304 100 r \$0-array;
#X obj 440 95 r \$0-array;
#X obj 584 95 r \$0-array;
#X obj 712 98 r \$0-array;
#X obj 852 99 r \$0-array;
#X obj 986 103 r \$0-array;
#X obj 20 127 tabwrite \$0-grid;
#X obj 154 127 tabwrite \$0-grid;
#X obj 290 128 tabwrite \$0-grid;
#X obj 424 128 tabwrite \$0-grid;
#X obj 570 127 tabwrite \$0-grid;
#X obj 704 127 tabwrite \$0-grid;
#X obj 840 128 tabwrite \$0-grid;
#X obj 974 128 tabwrite \$0-grid;
#X msg 796 81 5;
#X msg 929 81 6;
#X msg 1068 81 7;
#X obj 110 103 +;
#X obj 247 104 +;
#X obj 383 106 +;
#X obj 517 104 +;
#X obj 661 103 +;
#X obj 796 105 +;
#X obj 929 100 +;
#X obj 1067 105 +;
#X obj 66 41 r \$0-segment;
#X obj 200 42 r \$0-segment;
#X obj 335 43 r \$0-segment;
#X obj 467 41 r \$0-segment;
#X obj 618 40 r \$0-segment;
#X obj 746 42 r \$0-segment;
#X obj 882 41 r \$0-segment;
#X obj 1014 41 r \$0-segment;
#X connect 0 0 2 0;
#X connect 1 0 0 0;
#X connect 2 0 37 0;
#X connect 2 1 3 0;
#X connect 3 0 48 0;
#X connect 4 0 5 0;
#X connect 5 0 38 0;
#X connect 5 1 6 0;
#X connect 6 0 49 0;
#X connect 7 0 4 0;
#X connect 8 0 9 0;
#X connect 9 0 39 0;
#X connect 9 1 12 0;
#X connect 10 0 11 0;
#X connect 11 0 40 0;
#X connect 11 1 13 0;
#X connect 12 0 50 0;
#X connect 13 0 51 0;
#X connect 14 0 8 0;
#X connect 15 0 10 0;
#X connect 16 0 17 0;
#X connect 17 0 41 0;
#X connect 17 1 25 0;
#X connect 18 0 19 0;
#X connect 19 0 42 0;
#X connect 19 1 45 0;
#X connect 20 0 21 0;
#X connect 21 0 43 0;
#X connect 21 1 46 0;
#X connect 22 0 23 0;
#X connect 23 0 44 0;
#X connect 23 1 47 0;
#X connect 24 0 16 0;
#X connect 25 0 52 0;
#X connect 26 0 18 0;
#X connect 27 0 20 0;
#X connect 28 0 22 0;
#X connect 29 0 37 0;
#X connect 30 0 38 0;
#X connect 31 0 39 0;
#X connect 32 0 40 0;
#X connect 33 0 41 0;
#X connect 34 0 42 0;
#X connect 35 0 43 0;
#X connect 36 0 44 0;
#X connect 45 0 53 0;
#X connect 46 0 54 0;
#X connect 47 0 55 0;
#X connect 48 0 37 1;
#X connect 49 0 38 1;
#X connect 50 0 39 1;
#X connect 51 0 40 1;
#X connect 52 0 41 1;
#X connect 53 0 42 1;
#X connect 54 0 43 1;
#X connect 55 0 44 1;
#X connect 56 0 48 1;
#X connect 57 0 49 1;
#X connect 58 0 50 1;
#X connect 59 0 51 1;
#X connect 60 0 52 1;
#X connect 61 0 53 1;
#X connect 62 0 54 1;
#X connect 63 0 55 1;
#X restore 282 68 pd settable;
#N canvas 580 442 450 300 segment 0;
#X obj 26 52 \$2;
#X obj 26 21 loadbang;
#X obj 26 77 == 0;
#X obj 26 176 s \$0-segment;
#X msg 26 127 0;
#X obj 26 100 sel 1 0;
#X obj 56 126 \$2;
#X obj 56 146 * 8;
#X connect 0 0 2 0;
#X connect 1 0 0 0;
#X connect 2 0 5 0;
#X connect 4 0 3 0;
#X connect 5 0 4 0;
#X connect 5 1 6 0;
#X connect 6 0 7 0;
#X connect 7 0 3 0;
#X restore 5 41 pd segment;
#X obj 282 178 +;
#X obj 297 156 r \$0-segment;
#X obj 516 118 s \$0-stepdisplay;
#X obj 410 127 s \$0-update;
#N canvas 756 249 451 442 settings 0;
#X msg 48 135 color \$1;
#X obj 48 161 s \$0-global;
#X obj 358 177 pack f \$0;
#X msg 358 201 symbol \$2-step\$1in;
#X obj 280 -31 r \$0-global;
#X obj 286 218 s;
#X obj 220 100 until;
#X msg 220 69 8;
#X msg 252 64 0;
#X obj 220 127 f;
#X obj 245 126 % 7;
#X obj 270 126 + 1;
#X obj 220 42 t b b;
#X obj 331 143 t b f;
#X obj 286 161 list;
#X obj 280 -6 t b a;
#X obj 286 187 list trim;
#X obj 48 -11 \$3;
#X obj 48 9 == 0;
#X msg 48 52 17;
#X obj 48 28 sel 1 0;
#X obj 75 52 \$3;
#X obj 48 -32 loadbang;
#X obj 145 152 v \$0-color;
#X text 129 13 Default Color;
#X connect 0 0 1 0;
#X connect 2 0 3 0;
#X connect 3 0 5 1;
#X connect 4 0 15 0;
#X connect 6 0 9 0;
#X connect 7 0 6 0;
#X connect 8 0 9 1;
#X connect 9 0 10 0;
#X connect 9 0 13 0;
#X connect 10 0 11 0;
#X connect 11 0 9 1;
#X connect 12 0 7 0;
#X connect 12 1 8 0;
#X connect 13 0 14 0;
#X connect 13 1 2 0;
#X connect 14 0 16 0;
#X connect 15 0 12 0;
#X connect 15 1 14 1;
#X connect 16 0 5 0;
#X connect 17 0 18 0;
#X connect 18 0 20 0;
#X connect 19 0 0 0;
#X connect 19 0 23 0;
#X connect 20 0 19 0;
#X connect 20 1 21 0;
#X connect 21 0 0 0;
#X connect 21 0 23 0;
#X connect 22 0 17 0;
#X restore 5 61 pd settings;
#X obj 410 58 route update mod;
#N canvas 715 82 650 686 doubleclick 0;
#X obj -101 -140 f;
#X obj -71 -140 + 1;
#X msg -64 -164 0;
#X msg -101 108 color 1;
#X msg -37 129 color \$1;
#X obj -101 15 tgl 15 0 empty empty empty 17 7 0 10 -262144 -1 -1 0
120;
#X obj -101 164 s \$0-step0in;
#X obj -37 108 v \$0-color;
#X obj -101 36 t f f f f f f f;
#X obj -14 65 t f b;
#X obj -101 -251 r \$0-step0out;
#X obj -101 -228 t b;
#X obj -64 -187 del 400;
#X obj -14 164 tabwrite \$1-omit;
#X obj 49 30 loadbang;
#X obj 49 52 \$2;
#X obj 49 75 * 8;
#X obj 79 139 +;
#X obj -16 -22 tabread \$1-omit;
#X obj -101 -89 t b b;
#X msg -16 -2 set \$1;
#X obj 129 -140 f;
#X obj 159 -140 + 1;
#X msg 166 -164 0;
#X msg 129 108 color 1;
#X msg 193 129 color \$1;
#X obj 129 15 tgl 15 0 empty empty empty 17 7 0 10 -262144 -1 -1 0
1;
#X obj 193 108 v \$0-color;
#X obj 129 36 t f f f f f f f;
#X obj 216 65 t f b;
#X obj 129 -228 t b;
#X obj 166 -187 del 400;
#X obj 216 164 tabwrite \$1-omit;
#X obj 279 30 loadbang;
#X obj 279 52 \$2;
#X obj 279 75 * 8;
#X obj 309 139 +;
#X obj 214 -22 tabread \$1-omit;
#X obj 129 -89 t b b;
#X msg 214 -2 set \$1;
#X obj 399 -140 f;
#X obj 429 -140 + 1;
#X msg 436 -164 0;
#X msg 399 108 color 1;
#X msg 463 129 color \$1;
#X obj 399 15 tgl 15 0 empty empty empty 17 7 0 10 -262144 -1 -1 0
1;
#X obj 463 108 v \$0-color;
#X obj 399 36 t f f f f f f f;
#X obj 486 65 t f b;
#X obj 399 -228 t b;
#X obj 436 -187 del 400;
#X obj 486 164 tabwrite \$1-omit;
#X obj 549 30 loadbang;
#X obj 549 52 \$2;
#X obj 549 75 * 8;
#X obj 579 139 +;
#X obj 484 -22 tabread \$1-omit;
#X obj 399 -89 t b b;
#X msg 484 -2 set \$1;
#X obj 639 -140 f;
#X obj 669 -140 + 1;
#X msg 676 -164 0;
#X msg 639 108 color 1;
#X msg 703 129 color \$1;
#X obj 639 15 tgl 15 0 empty empty empty 17 7 0 10 -262144 -1 -1 0
1;
#X obj 703 108 v \$0-color;
#X obj 639 36 t f f f f f f f;
#X obj 726 65 t f b;
#X obj 639 -228 t b;
#X obj 676 -187 del 400;
#X obj 726 164 tabwrite \$1-omit;
#X obj 789 30 loadbang;
#X obj 789 52 \$2;
#X obj 789 75 * 8;
#X obj 819 139 +;
#X obj 724 -22 tabread \$1-omit;
#X obj 639 -89 t b b;
#X msg 724 -2 set \$1;
#X obj 909 -140 f;
#X obj 939 -140 + 1;
#X msg 946 -164 0;
#X msg 909 108 color 1;
#X msg 973 129 color \$1;
#X obj 909 15 tgl 15 0 empty empty empty 17 7 0 10 -262144 -1 -1 0
1;
#X obj 973 108 v \$0-color;
#X obj 909 36 t f f f f f f f;
#X obj 996 65 t f b;
#X obj 909 -228 t b;
#X obj 946 -187 del 400;
#X obj 996 164 tabwrite \$1-omit;
#X obj 1059 30 loadbang;
#X obj 1059 52 \$2;
#X obj 1059 75 * 8;
#X obj 1089 139 +;
#X obj 994 -22 tabread \$1-omit;
#X obj 909 -89 t b b;
#X msg 994 -2 set \$1;
#X obj -104 308 f;
#X obj -74 308 + 1;
#X msg -104 555 color 1;
#X msg -40 576 color \$1;
#X obj -104 462 tgl 15 0 empty empty empty 17 7 0 10 -262144 -1 -1
0 1;
#X obj -40 555 v \$0-color;
#X obj -104 483 t f f f f f f f;
#X obj -17 512 t f b;
#X obj -104 220 t b;
#X obj -67 261 del 400;
#X obj -17 611 tabwrite \$1-omit;
#X obj 46 477 loadbang;
#X obj 46 499 \$2;
#X obj 46 522 * 8;
#X obj 76 586 +;
#X obj -19 425 tabread \$1-omit;
#X obj -104 359 t b b;
#X msg -19 445 set \$1;
#X obj 136 308 f;
#X obj 166 308 + 1;
#X msg 136 555 color 1;
#X msg 200 576 color \$1;
#X obj 136 462 tgl 15 0 empty empty empty 17 7 0 10 -262144 -1 -1 0
1;
#X obj 200 555 v \$0-color;
#X obj 136 483 t f f f f f f f;
#X obj 223 512 t f b;
#X obj 136 220 t b;
#X obj 173 261 del 400;
#X obj 223 611 tabwrite \$1-omit;
#X obj 286 477 loadbang;
#X obj 286 499 \$2;
#X obj 286 522 * 8;
#X obj 316 586 +;
#X obj 221 425 tabread \$1-omit;
#X obj 136 359 t b b;
#X msg 221 445 set \$1;
#X obj 406 308 f;
#X obj 436 308 + 1;
#X msg 406 555 color 1;
#X msg 470 576 color \$1;
#X obj 406 462 tgl 15 0 empty empty empty 17 7 0 10 -262144 -1 -1 0
1;
#X obj 470 555 v \$0-color;
#X obj 406 483 t f f f f f f f;
#X obj 493 512 t f b;
#X obj 406 220 t b;
#X obj 443 261 del 400;
#X obj 493 611 tabwrite \$1-omit;
#X obj 556 477 loadbang;
#X obj 556 499 \$2;
#X obj 556 522 * 8;
#X obj 586 586 +;
#X obj 491 425 tabread \$1-omit;
#X obj 406 359 t b b;
#X msg 491 445 set \$1;
#X obj 129 -251 r \$0-step1out;
#X obj 399 -251 r \$0-step2out;
#X obj 639 -251 r \$0-step3out;
#X obj 909 -251 r \$0-step4out;
#X obj -104 197 r \$0-step5out;
#X obj 136 197 r \$0-step6out;
#X obj 406 197 r \$0-step7out;
#X obj 129 164 s \$0-step1in;
#X obj 399 164 s \$0-step2in;
#X obj 639 164 s \$0-step3in;
#X obj 909 164 s \$0-step4in;
#X obj -104 611 s \$0-step5in;
#X obj 136 611 s \$0-step6in;
#X obj 406 611 s \$0-step7in;
#X msg 79 119 0;
#X msg 310 117 1;
#X msg 579 119 2;
#X msg 819 119 3;
#X msg 1089 119 4;
#X msg 76 566 5;
#X msg 316 566 6;
#X msg 586 566 7;
#X msg -67 284 0;
#X msg 173 284 0;
#X msg 443 284 0;
#X obj -104 338 sel 1;
#X obj 136 338 sel 1;
#X obj 406 338 sel 1;
#X obj 399 -110 sel 1;
#X obj 909 -110 sel 1;
#X obj 639 -110 sel 1;
#X obj 129 -110 sel 1;
#X obj -101 -110 sel 1;
#X obj 473 -101 print;
#X floatatom 543 4 5 0 0 0 - - -;
#X obj 399 63 sel 0 1;
#X obj 129 63 sel 0 1;
#X obj 639 63 sel 0 1;
#X obj 909 63 sel 0 1;
#X obj -101 63 sel 0 1;
#X obj -104 510 sel 0 1;
#X obj 136 510 sel 0 1;
#X obj 406 510 sel 0 1;
#X obj -16 -44 +;
#X obj -1 -73 r \$0-segment;
#X msg -28 -72 0;
#X obj 214 -44 +;
#X obj 229 -73 r \$0-segment;
#X msg 202 -72 1;
#X obj 484 -44 +;
#X obj 499 -73 r \$0-segment;
#X obj 724 -44 +;
#X obj 739 -73 r \$0-segment;
#X msg 472 -72 2;
#X msg 712 -72 3;
#X obj 994 -44 +;
#X obj 1009 -73 r \$0-segment;
#X msg 982 -72 4;
#X obj -19 404 +;
#X obj -4 375 r \$0-segment;
#X msg -31 376 5;
#X obj 221 404 +;
#X obj 236 375 r \$0-segment;
#X msg 209 376 6;
#X obj 491 404 +;
#X obj 506 375 r \$0-segment;
#X msg 479 376 7;
#X floatatom 8 33 5 0 0 0 - - -;
#X connect 0 0 1 0;
#X connect 0 0 183 0;
#X connect 1 0 0 1;
#X connect 2 0 0 1;
#X connect 3 0 6 0;
#X connect 4 0 6 0;
#X connect 5 0 8 0;
#X connect 5 0 218 0;
#X connect 7 0 4 0;
#X connect 8 0 190 0;
#X connect 8 6 9 0;
#X connect 9 0 13 0;
#X connect 9 1 165 0;
#X connect 10 0 11 0;
#X connect 11 0 0 0;
#X connect 11 0 12 0;
#X connect 12 0 2 0;
#X connect 14 0 15 0;
#X connect 15 0 16 0;
#X connect 16 0 17 1;
#X connect 17 0 13 1;
#X connect 18 0 20 0;
#X connect 19 0 5 0;
#X connect 19 1 196 0;
#X connect 20 0 5 0;
#X connect 21 0 22 0;
#X connect 21 0 182 0;
#X connect 22 0 21 1;
#X connect 23 0 21 1;
#X connect 24 0 158 0;
#X connect 25 0 158 0;
#X connect 26 0 28 0;
#X connect 27 0 25 0;
#X connect 28 0 187 0;
#X connect 28 6 29 0;
#X connect 29 0 32 0;
#X connect 29 1 166 0;
#X connect 30 0 21 0;
#X connect 30 0 31 0;
#X connect 31 0 23 0;
#X connect 33 0 34 0;
#X connect 34 0 35 0;
#X connect 35 0 36 1;
#X connect 36 0 32 1;
#X connect 37 0 39 0;
#X connect 38 0 26 0;
#X connect 38 1 199 0;
#X connect 39 0 26 0;
#X connect 40 0 41 0;
#X connect 40 0 179 0;
#X connect 41 0 40 1;
#X connect 42 0 40 1;
#X connect 43 0 159 0;
#X connect 44 0 159 0;
#X connect 45 0 47 0;
#X connect 46 0 44 0;
#X connect 47 0 186 0;
#X connect 47 6 48 0;
#X connect 48 0 51 0;
#X connect 48 1 167 0;
#X connect 49 0 40 0;
#X connect 49 0 50 0;
#X connect 50 0 42 0;
#X connect 52 0 53 0;
#X connect 53 0 54 0;
#X connect 54 0 55 1;
#X connect 55 0 51 1;
#X connect 56 0 58 0;
#X connect 56 0 185 0;
#X connect 57 0 45 0;
#X connect 57 1 204 0;
#X connect 58 0 45 0;
#X connect 59 0 60 0;
#X connect 59 0 181 0;
#X connect 60 0 59 1;
#X connect 61 0 59 1;
#X connect 62 0 160 0;
#X connect 63 0 160 0;
#X connect 64 0 66 0;
#X connect 65 0 63 0;
#X connect 66 0 188 0;
#X connect 66 6 67 0;
#X connect 67 0 70 0;
#X connect 67 1 168 0;
#X connect 68 0 59 0;
#X connect 68 0 69 0;
#X connect 69 0 61 0;
#X connect 71 0 72 0;
#X connect 72 0 73 0;
#X connect 73 0 74 1;
#X connect 74 0 70 1;
#X connect 75 0 77 0;
#X connect 76 0 64 0;
#X connect 76 1 205 0;
#X connect 77 0 64 0;
#X connect 78 0 79 0;
#X connect 78 0 180 0;
#X connect 79 0 78 1;
#X connect 80 0 78 1;
#X connect 81 0 161 0;
#X connect 82 0 161 0;
#X connect 83 0 85 0;
#X connect 84 0 82 0;
#X connect 85 0 189 0;
#X connect 85 6 86 0;
#X connect 86 0 89 0;
#X connect 86 1 169 0;
#X connect 87 0 78 0;
#X connect 87 0 88 0;
#X connect 88 0 80 0;
#X connect 90 0 91 0;
#X connect 91 0 92 0;
#X connect 92 0 93 1;
#X connect 93 0 89 1;
#X connect 94 0 96 0;
#X connect 95 0 83 0;
#X connect 95 1 208 0;
#X connect 96 0 83 0;
#X connect 97 0 98 0;
#X connect 97 0 176 0;
#X connect 98 0 97 1;
#X connect 99 0 162 0;
#X connect 100 0 162 0;
#X connect 101 0 103 0;
#X connect 102 0 100 0;
#X connect 103 0 191 0;
#X connect 103 6 104 0;
#X connect 104 0 107 0;
#X connect 104 1 170 0;
#X connect 105 0 97 0;
#X connect 105 0 106 0;
#X connect 106 0 173 0;
#X connect 108 0 109 0;
#X connect 109 0 110 0;
#X connect 110 0 111 1;
#X connect 111 0 107 1;
#X connect 112 0 114 0;
#X connect 113 0 101 0;
#X connect 113 1 211 0;
#X connect 114 0 101 0;
#X connect 115 0 116 0;
#X connect 115 0 177 0;
#X connect 116 0 115 1;
#X connect 117 0 163 0;
#X connect 118 0 163 0;
#X connect 119 0 121 0;
#X connect 120 0 118 0;
#X connect 121 0 192 0;
#X connect 121 6 122 0;
#X connect 122 0 125 0;
#X connect 122 1 171 0;
#X connect 123 0 115 0;
#X connect 123 0 124 0;
#X connect 124 0 174 0;
#X connect 126 0 127 0;
#X connect 127 0 128 0;
#X connect 128 0 129 1;
#X connect 129 0 125 1;
#X connect 130 0 132 0;
#X connect 131 0 119 0;
#X connect 131 1 214 0;
#X connect 132 0 119 0;
#X connect 133 0 134 0;
#X connect 133 0 178 0;
#X connect 134 0 133 1;
#X connect 135 0 164 0;
#X connect 136 0 164 0;
#X connect 137 0 139 0;
#X connect 138 0 136 0;
#X connect 139 0 193 0;
#X connect 139 6 140 0;
#X connect 140 0 143 0;
#X connect 140 1 172 0;
#X connect 141 0 133 0;
#X connect 141 0 142 0;
#X connect 142 0 175 0;
#X connect 144 0 145 0;
#X connect 145 0 146 0;
#X connect 146 0 147 1;
#X connect 147 0 143 1;
#X connect 148 0 150 0;
#X connect 149 0 137 0;
#X connect 149 1 217 0;
#X connect 150 0 137 0;
#X connect 151 0 30 0;
#X connect 152 0 49 0;
#X connect 153 0 68 0;
#X connect 154 0 87 0;
#X connect 155 0 105 0;
#X connect 156 0 123 0;
#X connect 157 0 141 0;
#X connect 165 0 17 0;
#X connect 166 0 36 0;
#X connect 167 0 55 0;
#X connect 168 0 74 0;
#X connect 169 0 93 0;
#X connect 170 0 111 0;
#X connect 171 0 129 0;
#X connect 172 0 147 0;
#X connect 173 0 97 1;
#X connect 174 0 115 1;
#X connect 175 0 133 1;
#X connect 176 0 113 0;
#X connect 177 0 131 0;
#X connect 178 0 149 0;
#X connect 179 0 57 0;
#X connect 179 0 184 0;
#X connect 180 0 95 0;
#X connect 181 0 76 0;
#X connect 182 0 38 0;
#X connect 183 0 19 0;
#X connect 186 0 43 0;
#X connect 186 1 46 0;
#X connect 187 0 24 0;
#X connect 187 1 27 0;
#X connect 188 0 62 0;
#X connect 188 1 65 0;
#X connect 189 0 81 0;
#X connect 189 1 84 0;
#X connect 190 0 3 0;
#X connect 190 1 7 0;
#X connect 191 0 99 0;
#X connect 191 1 102 0;
#X connect 192 0 117 0;
#X connect 192 1 120 0;
#X connect 193 0 135 0;
#X connect 193 1 138 0;
#X connect 194 0 18 0;
#X connect 195 0 194 1;
#X connect 196 0 194 0;
#X connect 197 0 37 0;
#X connect 198 0 197 1;
#X connect 199 0 197 0;
#X connect 200 0 56 0;
#X connect 201 0 200 1;
#X connect 202 0 75 0;
#X connect 203 0 202 1;
#X connect 204 0 200 0;
#X connect 205 0 202 0;
#X connect 206 0 94 0;
#X connect 207 0 206 1;
#X connect 208 0 206 0;
#X connect 209 0 112 0;
#X connect 210 0 209 1;
#X connect 211 0 209 0;
#X connect 212 0 130 0;
#X connect 213 0 212 1;
#X connect 214 0 212 0;
#X connect 215 0 148 0;
#X connect 216 0 215 1;
#X connect 217 0 215 0;
#X restore 4 81 pd doubleclick;
#X obj 282 204 t f f;
#X obj 402 221 % 8;
#X obj 282 273 spigot;
#X msg 674 238 \; \$1-omit const 1;
#X obj 674 211 \$0;
#X obj 674 183 bng 15 250 50 0 empty empty empty 17 7 0 10 -262144
-1 -1;
#X obj 674 159 loadbang;
#X obj 402 240 tabread \$0-omit;
#X obj 282 114 table \$0-omit 8;
#N canvas 697 87 650 686 update 1;
#X obj -37 -109 loadbang;
#X obj -10 198 tabread \$1;
#X obj -10 12 symbol \$1;
#X obj -10 33 sel \$1;
#X obj -10 119 f;
#X obj 43 119 + 1;
#X obj -10 144 t f f;
#X obj -10 257 s;
#X obj 68 191 pack f \$0;
#X obj -10 95 until;
#X msg -10 73 8;
#X obj 15 119 % 7;
#X obj -10 53 t b b;
#X msg 36 73 0;
#X msg 68 215 symbol \$2-step\$1in;
#X msg -10 224 set \$1;
#X obj -10 174 +;
#X obj 91 150 r \$0-segment;
#X obj -22 -80 r \$0-update;
#X obj -561 -11 iterate 8;
#X obj -561 145 tabread \$1-omit;
#X msg -561 215 color 1;
#X msg -507 236 color \$1;
#X obj -507 215 v \$0-color;
#X obj -396 180 pack f \$0;
#X obj -561 79 t f f;
#X obj -561 272 s;
#X msg -396 239 symbol \$2-step\$1in;
#X obj -561 117 +;
#X obj -545 98 r \$0-segment;
#X obj -561 180 sel 0 1;
#X text -473 -9 Omit Pattern;
#X text 67 31 Grid Color - Modulo;
#X obj -159 280 pack f \$0;
#X msg -159 301 symbol \$2-step\$1in;
#X obj -234 358 s;
#X msg -234 268 color 1;
#X obj -234 115 t f f;
#X obj -234 192 sel 1 0;
#X msg -199 247 color \$1;
#X obj -234 169 >= 8;
#X obj -200 220 v \$0-color;
#X obj -234 6 t b f;
#X text -209 49 comment;
#X obj -234 84 iterate 8;
#X obj -37 -42 t b b b;
#X obj -234 -16 v \$0-mod;
#X obj -561 54 clip 0 8;
#X obj -516 33 - 1;
#X connect 0 0 45 0;
#X connect 1 0 15 0;
#X connect 2 0 3 0;
#X connect 3 0 12 0;
#X connect 4 0 6 0;
#X connect 4 0 11 0;
#X connect 5 0 4 1;
#X connect 6 0 16 0;
#X connect 6 1 8 0;
#X connect 8 0 14 0;
#X connect 9 0 4 0;
#X connect 10 0 9 0;
#X connect 11 0 5 0;
#X connect 12 0 10 0;
#X connect 12 1 13 0;
#X connect 13 0 4 1;
#X connect 14 0 7 1;
#X connect 15 0 7 0;
#X connect 16 0 1 0;
#X connect 17 0 16 1;
#X connect 18 0 45 0;
#X connect 19 0 47 0;
#X connect 20 0 30 0;
#X connect 21 0 26 0;
#X connect 22 0 26 0;
#X connect 23 0 22 0;
#X connect 24 0 27 0;
#X connect 25 0 28 0;
#X connect 25 1 24 0;
#X connect 27 0 26 1;
#X connect 28 0 20 0;
#X connect 29 0 28 1;
#X connect 30 0 21 0;
#X connect 30 1 23 0;
#X connect 33 0 34 0;
#X connect 34 0 35 1;
#X connect 36 0 35 0;
#X connect 37 0 40 0;
#X connect 37 1 33 0;
#X connect 38 0 36 0;
#X connect 38 1 41 0;
#X connect 39 0 35 0;
#X connect 40 0 38 0;
#X connect 41 0 39 0;
#X connect 42 0 44 0;
#X connect 42 1 40 1;
#X connect 44 0 37 0;
#X connect 45 0 19 0;
#X connect 45 1 46 0;
#X connect 45 2 2 0;
#X connect 46 0 42 0;
#X connect 46 0 48 0;
#X connect 47 0 25 0;
#X connect 48 0 47 2;
#X restore 5 21 pd update;
#X obj 456 106 v \$0-mod;
#X obj 455 82 t b f;
#X connect 10 0 24 0;
#X connect 12 0 28 0;
#X connect 13 0 19 0;
#X connect 15 0 12 0;
#X connect 19 0 26 0;
#X connect 20 0 19 1;
#X connect 24 0 22 0;
#X connect 24 1 37 0;
#X connect 24 2 21 0;
#X connect 24 2 11 0;
#X connect 26 0 12 0;
#X connect 26 1 27 0;
#X connect 27 0 33 0;
#X connect 28 0 14 0;
#X connect 30 0 29 0;
#X connect 31 0 30 0;
#X connect 32 0 31 0;
#X connect 33 0 28 1;
#X connect 37 0 22 0;
#X connect 37 1 36 0;
#X coords 0 -1 1 1 96 109 2 100 100;
