#N canvas 232 108 672 661 10;
#X obj 113 101 vradio 12 1 0 8 \$0-step1out \$0-step1in empty 0 -8
0 10 -66577 -86853 -262144 0;
#X obj 125 101 vradio 12 1 0 8 \$0-step2out \$0-step2in empty 0 -8
0 10 -66577 -86853 -262144 0;
#X obj 137 101 vradio 12 1 0 8 \$0-step3out \$0-step3in empty 0 -8
0 10 -66577 -86853 -262144 0;
#X obj 149 101 vradio 12 1 0 8 \$0-step4out \$0-step4in empty 0 -8
0 10 -66577 -86853 -262144 0;
#X obj 101 101 vradio 12 1 0 8 \$0-step0out \$0-step0in empty 0 -8
0 10 -66577 -86853 -262144 0;
#X obj 161 101 vradio 12 1 0 8 \$0-step5out \$0-step5in empty 0 -8
0 10 -66577 -86853 -262144 0;
#X obj 172 101 vradio 12 1 0 8 \$0-step6out \$0-step6in empty 0 -8
0 10 -66577 -86853 -262144 0;
#X obj 183 101 vradio 12 1 0 8 \$0-step7out \$0-step7in empty 0 -8
0 10 -66577 -86853 -262144 0;
#X obj 100 197 hradio 12 1 0 8 empty \$0-stepdisplay empty 0 -8 0 10
-4034 -1 -1 7;
#X obj 410 35 inlet;
#X obj 503 138 s \$0-stepindex;
#X obj 282 260 tabread \$0-grid 8;
#X obj 282 135 r \$0-stepindex;
#X obj 282 368 outlet;
#X obj 470 243 r \$0-array;
#N canvas 724 211 321 294 arguments 0;
#X obj 3 113 s \$0-array;
#X msg 69 89 set \$1-grid;
#X obj 69 68 \$0;
#X msg 3 87 set \$1;
#X obj 3 -3 loadbang;
#X obj 3 23 symbol \$1;
#X obj 3 67 symbol \$1;
#X obj 3 44 sel \$1;
#X obj 69 49 t b;
#X connect 1 0 0 0;
#X connect 2 0 1 0;
#X connect 3 0 0 0;
#X connect 4 0 5 0;
#X connect 5 0 7 0;
#X connect 6 0 3 0;
#X connect 7 0 6 0;
#X connect 7 1 8 0;
#X connect 8 0 2 0;
#X restore 5 0 pd arguments;
#N canvas 61 86 1301 714 settable 0;
#X floatatom 20 42 5 0 0 0 - - -, f 5;
#X obj 20 18 r \$0-step0out;
#X obj 20 63 t f b;
#X msg 110 80 0;
#X floatatom 154 42 5 0 0 0 - - -, f 5;
#X obj 154 63 t f b;
#X msg 247 80 1;
#X obj 154 18 r \$0-step1out;
#X floatatom 290 43 5 0 0 0 - - -, f 5;
#X obj 290 64 t f b;
#X floatatom 424 43 5 0 0 0 - - -, f 5;
#X obj 424 64 t f b;
#X msg 383 81 2;
#X msg 517 81 3;
#X obj 290 19 r \$0-step2out;
#X obj 424 19 r \$0-step3out;
#X floatatom 570 42 5 0 0 0 - - -, f 5;
#X obj 570 63 t f b;
#X floatatom 704 42 5 0 0 0 - - -, f 5;
#X obj 704 63 t f b;
#X floatatom 840 43 5 0 0 0 - - -, f 5;
#X obj 840 64 t f b;
#X floatatom 974 43 5 0 0 0 - - -, f 5;
#X obj 974 64 t f b;
#X obj 570 18 r \$0-step4out;
#X msg 661 80 4;
#X obj 704 18 r \$0-step5out;
#X obj 840 19 r \$0-step6out;
#X obj 974 19 r \$0-step7out;
#X obj 28 100 r \$0-array;
#X obj 169 101 r \$0-array;
#X obj 304 100 r \$0-array;
#X obj 440 95 r \$0-array;
#X obj 584 95 r \$0-array;
#X obj 712 98 r \$0-array;
#X obj 852 99 r \$0-array;
#X obj 986 103 r \$0-array;
#X obj 20 127 tabwrite \$0-grid;
#X obj 154 127 tabwrite \$0-grid;
#X obj 290 128 tabwrite \$0-grid;
#X obj 424 128 tabwrite \$0-grid;
#X obj 570 127 tabwrite \$0-grid;
#X obj 704 127 tabwrite \$0-grid;
#X obj 840 128 tabwrite \$0-grid;
#X obj 974 128 tabwrite \$0-grid;
#X msg 796 81 5;
#X msg 929 81 6;
#X msg 1068 81 7;
#X obj 110 103 +;
#X obj 247 104 +;
#X obj 383 106 +;
#X obj 517 104 +;
#X obj 661 103 +;
#X obj 796 105 +;
#X obj 929 100 +;
#X obj 1067 105 +;
#X obj 66 41 r \$0-segment;
#X obj 200 42 r \$0-segment;
#X obj 335 43 r \$0-segment;
#X obj 467 41 r \$0-segment;
#X obj 618 40 r \$0-segment;
#X obj 746 42 r \$0-segment;
#X obj 882 41 r \$0-segment;
#X obj 1014 41 r \$0-segment;
#X connect 0 0 2 0;
#X connect 1 0 0 0;
#X connect 2 0 37 0;
#X connect 2 1 3 0;
#X connect 3 0 48 0;
#X connect 4 0 5 0;
#X connect 5 0 38 0;
#X connect 5 1 6 0;
#X connect 6 0 49 0;
#X connect 7 0 4 0;
#X connect 8 0 9 0;
#X connect 9 0 39 0;
#X connect 9 1 12 0;
#X connect 10 0 11 0;
#X connect 11 0 40 0;
#X connect 11 1 13 0;
#X connect 12 0 50 0;
#X connect 13 0 51 0;
#X connect 14 0 8 0;
#X connect 15 0 10 0;
#X connect 16 0 17 0;
#X connect 17 0 41 0;
#X connect 17 1 25 0;
#X connect 18 0 19 0;
#X connect 19 0 42 0;
#X connect 19 1 45 0;
#X connect 20 0 21 0;
#X connect 21 0 43 0;
#X connect 21 1 46 0;
#X connect 22 0 23 0;
#X connect 23 0 44 0;
#X connect 23 1 47 0;
#X connect 24 0 16 0;
#X connect 25 0 52 0;
#X connect 26 0 18 0;
#X connect 27 0 20 0;
#X connect 28 0 22 0;
#X connect 29 0 37 0;
#X connect 30 0 38 0;
#X connect 31 0 39 0;
#X connect 32 0 40 0;
#X connect 33 0 41 0;
#X connect 34 0 42 0;
#X connect 35 0 43 0;
#X connect 36 0 44 0;
#X connect 45 0 53 0;
#X connect 46 0 54 0;
#X connect 47 0 55 0;
#X connect 48 0 37 1;
#X connect 49 0 38 1;
#X connect 50 0 39 1;
#X connect 51 0 40 1;
#X connect 52 0 41 1;
#X connect 53 0 42 1;
#X connect 54 0 43 1;
#X connect 55 0 44 1;
#X connect 56 0 48 1;
#X connect 57 0 49 1;
#X connect 58 0 50 1;
#X connect 59 0 51 1;
#X connect 60 0 52 1;
#X connect 61 0 53 1;
#X connect 62 0 54 1;
#X connect 63 0 55 1;
#X restore 282 68 pd settable;
#N canvas 572 454 450 300 segment 0;
#X obj 26 52 \$2;
#X obj 26 21 loadbang;
#X obj 26 77 == 0;
#X obj 26 176 s \$0-segment;
#X msg 26 127 0;
#X obj 26 100 sel 1 0;
#X obj 56 126 \$2;
#X obj 56 146 * 16;
#X connect 0 0 2 0;
#X connect 1 0 0 0;
#X connect 2 0 5 0;
#X connect 4 0 3 0;
#X connect 5 0 4 0;
#X connect 5 1 6 0;
#X connect 6 0 7 0;
#X connect 7 0 3 0;
#X restore 5 41 pd segment;
#X obj 282 198 +;
#X obj 297 176 r \$0-segment;
#X obj 297 157 s \$0-stepdisplay;
#X obj 410 127 s \$0-update;
#N canvas 177 298 787 442 settings 0;
#X msg 48 135 color \$1;
#X obj 48 161 s \$0-global;
#X obj 587 183 pack f \$0;
#X msg 587 207 symbol \$2-step\$1in;
#X obj 509 -25 r \$0-global;
#X obj 515 224 s;
#X obj 449 106 until;
#X msg 449 75 8;
#X msg 481 70 0;
#X obj 449 133 f;
#X obj 474 132 % 7;
#X obj 499 132 + 1;
#X obj 449 48 t b b;
#X obj 560 149 t b f;
#X obj 515 167 list;
#X obj 509 0 t b a;
#X obj 515 193 list trim;
#X obj 48 -11 \$3;
#X obj 48 9 == 0;
#X msg 48 52 17;
#X obj 48 28 sel 1 0;
#X obj 75 52 \$3;
#X obj 48 -32 loadbang;
#X obj 145 152 v \$0-color;
#X text 129 13 Default Color;
#X obj 244 45 v \$0-mod;
#X msg 244 -1 8;
#X connect 0 0 1 0;
#X connect 2 0 3 0;
#X connect 3 0 5 1;
#X connect 4 0 15 0;
#X connect 6 0 9 0;
#X connect 7 0 6 0;
#X connect 8 0 9 1;
#X connect 9 0 10 0;
#X connect 9 0 13 0;
#X connect 10 0 11 0;
#X connect 11 0 9 1;
#X connect 12 0 7 0;
#X connect 12 1 8 0;
#X connect 13 0 14 0;
#X connect 13 1 2 0;
#X connect 14 0 16 0;
#X connect 15 0 12 0;
#X connect 15 1 14 1;
#X connect 16 0 5 0;
#X connect 17 0 18 0;
#X connect 18 0 20 0;
#X connect 19 0 0 0;
#X connect 19 0 23 0;
#X connect 20 0 19 0;
#X connect 20 1 21 0;
#X connect 21 0 0 0;
#X connect 21 0 23 0;
#X connect 22 0 17 0;
#X connect 22 0 26 0;
#X connect 26 0 25 0;
#X restore 5 61 pd settings;
#X obj 410 58 route update mod;
#N canvas 55 88 927 661 doubleclick 0;
#X obj -91 -130 f;
#X obj -61 -130 + 1;
#X msg -54 -154 0;
#X msg -27 139 color \$1;
#X obj -91 25 tgl 15 0 empty empty empty 17 7 0 10 -262144 -1 -1 0
1;
#X obj -91 174 s \$0-step0in;
#X obj -27 118 v \$0-color;
#X obj -91 46 t f f f f f f f;
#X obj -4 75 t f b;
#X obj -91 -241 r \$0-step0out;
#X obj -91 -218 t b;
#X obj -54 -177 del 400;
#X obj 89 149 +;
#X obj -91 -79 t b b;
#X msg -6 8 set \$1;
#X obj 139 -130 f;
#X obj 169 -130 + 1;
#X msg 176 -154 0;
#X msg 203 139 color \$1;
#X obj 139 25 tgl 15 0 empty empty empty 17 7 0 10 -262144 -1 -1 0
1;
#X obj 203 118 v \$0-color;
#X obj 139 46 t f f f f f f f;
#X obj 226 75 t f b;
#X obj 139 -218 t b;
#X obj 176 -177 del 400;
#X obj 319 149 +;
#X obj 139 -79 t b b;
#X msg 224 8 set \$1;
#X obj 409 -130 f;
#X obj 439 -130 + 1;
#X msg 446 -154 0;
#X msg 473 139 color \$1;
#X obj 409 25 tgl 15 0 empty empty empty 17 7 0 10 -262144 -1 -1 0
1;
#X obj 473 118 v \$0-color;
#X obj 409 46 t f f f f f f f;
#X obj 496 75 t f b;
#X obj 409 -218 t b;
#X obj 446 -177 del 400;
#X obj 589 149 +;
#X obj 409 -79 t b b;
#X msg 494 8 set \$1;
#X obj 649 -130 f;
#X obj 679 -130 + 1;
#X msg 686 -154 0;
#X msg 713 139 color \$1;
#X obj 649 25 tgl 15 0 empty empty empty 17 7 0 10 -262144 -1 -1 0
1;
#X obj 713 118 v \$0-color;
#X obj 649 46 t f f f f f f f;
#X obj 736 75 t f b;
#X obj 649 -218 t b;
#X obj 686 -177 del 400;
#X obj 829 149 +;
#X obj 649 -79 t b b;
#X msg 734 8 set \$1;
#X obj 919 -130 f;
#X obj 949 -130 + 1;
#X msg 956 -154 0;
#X msg 983 139 color \$1;
#X obj 919 25 tgl 15 0 empty empty empty 17 7 0 10 -262144 -1 -1 0
1;
#X obj 983 118 v \$0-color;
#X obj 919 46 t f f f f f f f;
#X obj 1006 75 t f b;
#X obj 919 -218 t b;
#X obj 956 -177 del 400;
#X obj 1099 149 +;
#X obj 919 -79 t b b;
#X msg 1004 8 set \$1;
#X obj -94 318 f;
#X obj -64 318 + 1;
#X msg -30 586 color \$1;
#X obj -94 472 tgl 15 0 empty empty empty 17 7 0 10 -262144 -1 -1 0
1;
#X obj -30 565 v \$0-color;
#X obj -94 493 t f f f f f f f;
#X obj -7 522 t f b;
#X obj -94 230 t b;
#X obj -57 271 del 400;
#X obj 86 596 +;
#X obj -94 369 t b b;
#X msg -9 455 set \$1;
#X obj 146 318 f;
#X obj 176 318 + 1;
#X msg 210 586 color \$1;
#X obj 146 472 tgl 15 0 empty empty empty 17 7 0 10 -262144 -1 -1 0
1;
#X obj 210 565 v \$0-color;
#X obj 146 493 t f f f f f f f;
#X obj 233 522 t f b;
#X obj 146 230 t b;
#X obj 183 271 del 400;
#X obj 326 596 +;
#X obj 146 369 t b b;
#X msg 231 455 set \$1;
#X obj 416 318 f;
#X obj 446 318 + 1;
#X msg 480 586 color \$1;
#X obj 416 472 tgl 15 0 empty empty empty 17 7 0 10 -262144 -1 -1 0
1;
#X obj 480 565 v \$0-color;
#X obj 416 493 t f f f f f f f;
#X obj 503 522 t f b;
#X obj 416 230 t b;
#X obj 453 271 del 400;
#X obj 596 596 +;
#X obj 416 369 t b b;
#X msg 501 455 set \$1;
#X obj 139 -241 r \$0-step1out;
#X obj 409 -241 r \$0-step2out;
#X obj 649 -241 r \$0-step3out;
#X obj 919 -241 r \$0-step4out;
#X obj -94 207 r \$0-step5out;
#X obj 146 207 r \$0-step6out;
#X obj 416 207 r \$0-step7out;
#X obj 139 174 s \$0-step1in;
#X obj 409 174 s \$0-step2in;
#X obj 649 174 s \$0-step3in;
#X obj 919 174 s \$0-step4in;
#X obj -94 621 s \$0-step5in;
#X obj 146 621 s \$0-step6in;
#X obj 416 621 s \$0-step7in;
#X msg -57 294 0;
#X msg 183 294 0;
#X msg 453 294 0;
#X obj -94 348 sel 1;
#X obj 146 348 sel 1;
#X obj 416 348 sel 1;
#X obj 409 -100 sel 1;
#X obj 919 -100 sel 1;
#X obj 649 -100 sel 1;
#X obj 139 -100 sel 1;
#X obj -91 -100 sel 1;
#X obj 409 73 sel 0 1;
#X obj 139 73 sel 0 1;
#X obj 649 73 sel 0 1;
#X obj 919 73 sel 0 1;
#X obj -91 73 sel 0 1;
#X obj -94 520 sel 0 1;
#X obj 146 520 sel 0 1;
#X obj 416 520 sel 0 1;
#X obj -6 -34 +;
#X obj 9 -63 r \$0-segment;
#X obj 224 -34 +;
#X obj 239 -63 r \$0-segment;
#X obj 494 -34 +;
#X obj 509 -63 r \$0-segment;
#X obj 734 -34 +;
#X obj 749 -63 r \$0-segment;
#X obj 1004 -34 +;
#X obj 1019 -63 r \$0-segment;
#X obj -9 414 +;
#X obj 6 385 r \$0-segment;
#X obj 231 414 +;
#X obj 246 385 r \$0-segment;
#X obj 501 414 +;
#X obj 516 385 r \$0-segment;
#X floatatom 18 43 5 0 0 0 - - -, f 5;
#X obj 25 206 r \$0-array;
#X obj 257 201 r \$0-array;
#X obj 508 193 r \$0-array;
#X obj 758 195 r \$0-array;
#X obj 1021 194 r \$0-array;
#X obj 26 642 r \$0-array;
#X obj 281 648 r \$0-array;
#X obj 519 644 r \$0-array;
#X obj -4 174 tabwrite \$0-grid;
#X obj 226 174 tabwrite \$0-grid;
#X obj 496 174 tabwrite \$0-grid;
#X obj 736 174 tabwrite \$0-grid;
#X obj 1006 174 tabwrite \$0-grid;
#X obj -7 621 tabwrite \$0-grid;
#X obj 233 627 tabwrite \$0-grid;
#X obj 503 621 tabwrite \$0-grid;
#X msg 89 129 8;
#X msg 319 127 9;
#X msg 589 129 10;
#X msg 829 129 11;
#X msg 1099 129 12;
#X msg 86 576 13;
#X msg 326 576 14;
#X msg 596 576 15;
#X msg -18 -62 8;
#X msg 212 -62 9;
#X msg 482 -62 10;
#X msg 722 -62 11;
#X msg 992 -62 12;
#X msg -21 386 13;
#X msg 219 386 14;
#X msg 489 386 15;
#X obj -6 -12 tabread \$0-grid;
#X obj 224 -12 tabread \$0-grid;
#X obj 494 -12 tabread \$0-grid;
#X obj 734 -12 tabread \$0-grid;
#X obj 1004 -12 tabread \$0-grid;
#X obj -9 435 tabread \$0-grid;
#X obj 231 435 tabread \$0-grid;
#X obj 501 435 tabread \$0-grid;
#X obj 534 409 r \$0-array;
#X obj 262 412 r \$0-array;
#X obj 26 410 r \$0-array;
#X obj 1041 -36 r \$0-array;
#X obj 771 -34 r \$0-array;
#X obj 542 -36 r \$0-array;
#X obj 255 -35 r \$0-array;
#X obj 27 -35 r \$0-array;
#X obj 57 68 r \$0-segment;
#X obj 319 73 r \$0-segment;
#X obj 566 73 r \$0-segment;
#X obj 813 72 r \$0-segment;
#X obj 1097 77 r \$0-segment;
#X obj 40 495 r \$0-segment;
#X obj 314 494 r \$0-segment;
#X obj 566 494 r \$0-segment;
#X msg 139 118 color 2;
#X msg 409 118 color 2;
#X msg 649 118 color 2;
#X msg 919 118 color 2;
#X msg -94 565 color 2;
#X msg 146 565 color 2;
#X msg 416 565 color 2;
#X msg -91 118 color 2;
#X obj 529 345 s \$0-dclick;
#X text 617 344 Detect if doubble klick;
#X connect 0 0 1 0;
#X connect 0 0 127 0;
#X connect 1 0 0 1;
#X connect 2 0 0 1;
#X connect 3 0 5 0;
#X connect 4 0 7 0;
#X connect 4 0 152 0;
#X connect 6 0 3 0;
#X connect 7 0 132 0;
#X connect 7 6 8 0;
#X connect 8 0 161 0;
#X connect 8 1 169 0;
#X connect 9 0 10 0;
#X connect 10 0 0 0;
#X connect 10 0 11 0;
#X connect 11 0 2 0;
#X connect 12 0 161 1;
#X connect 13 0 4 0;
#X connect 13 1 177 0;
#X connect 14 0 4 0;
#X connect 15 0 16 0;
#X connect 15 0 126 0;
#X connect 16 0 15 1;
#X connect 17 0 15 1;
#X connect 18 0 110 0;
#X connect 19 0 21 0;
#X connect 20 0 18 0;
#X connect 21 0 129 0;
#X connect 21 6 22 0;
#X connect 22 0 162 0;
#X connect 22 1 170 0;
#X connect 23 0 15 0;
#X connect 23 0 24 0;
#X connect 24 0 17 0;
#X connect 25 0 162 1;
#X connect 26 0 19 0;
#X connect 26 1 178 0;
#X connect 27 0 19 0;
#X connect 28 0 29 0;
#X connect 28 0 123 0;
#X connect 29 0 28 1;
#X connect 30 0 28 1;
#X connect 31 0 111 0;
#X connect 32 0 34 0;
#X connect 33 0 31 0;
#X connect 34 0 128 0;
#X connect 34 6 35 0;
#X connect 35 0 163 0;
#X connect 35 1 171 0;
#X connect 36 0 28 0;
#X connect 36 0 37 0;
#X connect 37 0 30 0;
#X connect 38 0 163 1;
#X connect 39 0 32 0;
#X connect 39 1 179 0;
#X connect 40 0 32 0;
#X connect 41 0 42 0;
#X connect 41 0 125 0;
#X connect 42 0 41 1;
#X connect 43 0 41 1;
#X connect 44 0 112 0;
#X connect 45 0 47 0;
#X connect 46 0 44 0;
#X connect 47 0 130 0;
#X connect 47 6 48 0;
#X connect 48 0 164 0;
#X connect 48 1 172 0;
#X connect 49 0 41 0;
#X connect 49 0 50 0;
#X connect 50 0 43 0;
#X connect 51 0 164 1;
#X connect 52 0 45 0;
#X connect 52 1 180 0;
#X connect 53 0 45 0;
#X connect 54 0 55 0;
#X connect 54 0 124 0;
#X connect 55 0 54 1;
#X connect 56 0 54 1;
#X connect 57 0 113 0;
#X connect 58 0 60 0;
#X connect 59 0 57 0;
#X connect 60 0 131 0;
#X connect 60 6 61 0;
#X connect 61 0 165 0;
#X connect 61 1 173 0;
#X connect 62 0 54 0;
#X connect 62 0 63 0;
#X connect 63 0 56 0;
#X connect 64 0 165 1;
#X connect 65 0 58 0;
#X connect 65 1 181 0;
#X connect 66 0 58 0;
#X connect 67 0 68 0;
#X connect 67 0 120 0;
#X connect 68 0 67 1;
#X connect 69 0 114 0;
#X connect 70 0 72 0;
#X connect 71 0 69 0;
#X connect 72 0 133 0;
#X connect 72 6 73 0;
#X connect 73 0 166 0;
#X connect 73 1 174 0;
#X connect 74 0 67 0;
#X connect 74 0 75 0;
#X connect 75 0 117 0;
#X connect 76 0 166 1;
#X connect 77 0 70 0;
#X connect 77 1 182 0;
#X connect 78 0 70 0;
#X connect 79 0 80 0;
#X connect 79 0 121 0;
#X connect 80 0 79 1;
#X connect 81 0 115 0;
#X connect 82 0 84 0;
#X connect 83 0 81 0;
#X connect 84 0 134 0;
#X connect 84 6 85 0;
#X connect 85 0 167 0;
#X connect 85 1 175 0;
#X connect 86 0 79 0;
#X connect 86 0 87 0;
#X connect 87 0 118 0;
#X connect 88 0 167 1;
#X connect 89 0 82 0;
#X connect 89 1 183 0;
#X connect 90 0 82 0;
#X connect 91 0 92 0;
#X connect 91 0 122 0;
#X connect 92 0 91 1;
#X connect 93 0 116 0;
#X connect 94 0 96 0;
#X connect 95 0 93 0;
#X connect 96 0 135 0;
#X connect 96 6 97 0;
#X connect 97 0 168 0;
#X connect 97 1 176 0;
#X connect 98 0 91 0;
#X connect 98 0 99 0;
#X connect 99 0 119 0;
#X connect 100 0 168 1;
#X connect 101 0 94 0;
#X connect 101 1 184 0;
#X connect 102 0 94 0;
#X connect 103 0 23 0;
#X connect 104 0 36 0;
#X connect 105 0 49 0;
#X connect 106 0 62 0;
#X connect 107 0 74 0;
#X connect 108 0 86 0;
#X connect 109 0 98 0;
#X connect 117 0 67 1;
#X connect 118 0 79 1;
#X connect 119 0 91 1;
#X connect 120 0 77 0;
#X connect 120 0 217 0;
#X connect 121 0 89 0;
#X connect 121 0 217 0;
#X connect 122 0 101 0;
#X connect 122 0 217 0;
#X connect 123 0 39 0;
#X connect 123 0 217 0;
#X connect 124 0 65 0;
#X connect 124 0 217 0;
#X connect 125 0 52 0;
#X connect 125 0 217 0;
#X connect 126 0 26 0;
#X connect 126 0 217 0;
#X connect 127 0 13 0;
#X connect 127 0 217 0;
#X connect 128 0 210 0;
#X connect 128 1 33 0;
#X connect 129 0 209 0;
#X connect 129 1 20 0;
#X connect 130 0 211 0;
#X connect 130 1 46 0;
#X connect 131 0 212 0;
#X connect 131 1 59 0;
#X connect 132 0 216 0;
#X connect 132 1 6 0;
#X connect 133 0 213 0;
#X connect 133 1 71 0;
#X connect 134 0 214 0;
#X connect 134 1 83 0;
#X connect 135 0 215 0;
#X connect 135 1 95 0;
#X connect 136 0 185 0;
#X connect 137 0 136 1;
#X connect 138 0 186 0;
#X connect 139 0 138 1;
#X connect 140 0 187 0;
#X connect 141 0 140 1;
#X connect 142 0 188 0;
#X connect 143 0 142 1;
#X connect 144 0 189 0;
#X connect 145 0 144 1;
#X connect 146 0 190 0;
#X connect 147 0 146 1;
#X connect 148 0 191 0;
#X connect 149 0 148 1;
#X connect 150 0 192 0;
#X connect 151 0 150 1;
#X connect 153 0 161 0;
#X connect 154 0 162 0;
#X connect 155 0 163 0;
#X connect 156 0 164 0;
#X connect 157 0 165 0;
#X connect 158 0 166 0;
#X connect 159 0 167 0;
#X connect 160 0 168 0;
#X connect 169 0 12 0;
#X connect 170 0 25 0;
#X connect 171 0 38 0;
#X connect 172 0 51 0;
#X connect 173 0 64 0;
#X connect 174 0 76 0;
#X connect 175 0 88 0;
#X connect 176 0 100 0;
#X connect 177 0 136 0;
#X connect 178 0 138 0;
#X connect 179 0 140 0;
#X connect 180 0 142 0;
#X connect 181 0 144 0;
#X connect 182 0 146 0;
#X connect 183 0 148 0;
#X connect 184 0 150 0;
#X connect 185 0 14 0;
#X connect 186 0 27 0;
#X connect 187 0 40 0;
#X connect 188 0 53 0;
#X connect 189 0 66 0;
#X connect 190 0 78 0;
#X connect 191 0 90 0;
#X connect 192 0 102 0;
#X connect 193 0 192 0;
#X connect 194 0 191 0;
#X connect 195 0 190 0;
#X connect 196 0 189 0;
#X connect 197 0 188 0;
#X connect 198 0 187 0;
#X connect 199 0 186 0;
#X connect 200 0 185 0;
#X connect 201 0 12 1;
#X connect 202 0 25 1;
#X connect 203 0 38 1;
#X connect 204 0 51 1;
#X connect 205 0 64 1;
#X connect 206 0 76 1;
#X connect 207 0 88 1;
#X connect 208 0 100 1;
#X connect 209 0 110 0;
#X connect 210 0 111 0;
#X connect 211 0 112 0;
#X connect 212 0 113 0;
#X connect 213 0 114 0;
#X connect 214 0 115 0;
#X connect 215 0 116 0;
#X connect 216 0 5 0;
#X restore 4 81 pd doubleclick;
#X obj 282 224 t f f;
#X obj 282 336 spigot;
#N canvas 1059 223 650 686 update 0;
#X obj -37 -109 loadbang;
#X obj -10 198 tabread \$1;
#X obj -10 12 symbol \$1;
#X obj -10 33 sel \$1;
#X obj -10 119 f;
#X obj 43 119 + 1;
#X obj -10 144 t f f;
#X obj -10 257 s;
#X obj 68 191 pack f \$0;
#X obj -10 95 until;
#X msg -10 73 8;
#X obj 15 119 % 7;
#X obj -10 53 t b b;
#X msg 36 73 0;
#X msg 68 215 symbol \$2-step\$1in;
#X msg -10 224 set \$1;
#X obj -10 174 +;
#X obj 91 150 r \$0-segment;
#X obj -22 -80 r \$0-update;
#X text -473 -9 Omit Pattern;
#X text 67 31 Grid Color - Modulo;
#X obj -159 280 pack f \$0;
#X msg -159 301 symbol \$2-step\$1in;
#X obj -234 358 s;
#X msg -234 268 color 1;
#X obj -234 115 t f f;
#X obj -234 192 sel 1 0;
#X msg -199 247 color \$1;
#X obj -234 169 >= 8;
#X obj -200 220 v \$0-color;
#X obj -234 6 t b f;
#X text -209 49 comment;
#X obj -37 -42 t b b b;
#X obj -234 -16 v \$0-mod;
#X obj -561 54 clip 0 8;
#X obj -516 33 - 1;
#X msg -507 263 color \$1;
#X obj -507 242 v \$0-color;
#X obj -396 207 pack f \$0;
#X obj -561 86 t f f;
#X obj -561 299 s;
#X msg -396 266 symbol \$2-step\$1in;
#X obj -561 124 +;
#X obj -545 105 r \$0-segment;
#X obj -561 207 sel 0 1;
#X obj -533 147 r \$0-array;
#X obj -561 172 tabread \$0-grid;
#X obj -561 147 + 8;
#X msg -561 242 color 2;
#X obj -561 -11 u_iterate 8;
#X obj -234 84 u_iterate 8;
#X connect 0 0 32 0;
#X connect 1 0 15 0;
#X connect 2 0 3 0;
#X connect 3 0 12 0;
#X connect 4 0 6 0;
#X connect 4 0 11 0;
#X connect 5 0 4 1;
#X connect 6 0 16 0;
#X connect 6 1 8 0;
#X connect 8 0 14 0;
#X connect 9 0 4 0;
#X connect 10 0 9 0;
#X connect 11 0 5 0;
#X connect 12 0 10 0;
#X connect 12 1 13 0;
#X connect 13 0 4 1;
#X connect 14 0 7 1;
#X connect 15 0 7 0;
#X connect 16 0 1 0;
#X connect 17 0 16 1;
#X connect 18 0 32 0;
#X connect 21 0 22 0;
#X connect 22 0 23 1;
#X connect 24 0 23 0;
#X connect 25 0 28 0;
#X connect 25 1 21 0;
#X connect 26 0 24 0;
#X connect 26 1 29 0;
#X connect 27 0 23 0;
#X connect 28 0 26 0;
#X connect 29 0 27 0;
#X connect 30 0 50 0;
#X connect 30 1 28 1;
#X connect 32 0 49 0;
#X connect 32 1 33 0;
#X connect 32 2 2 0;
#X connect 33 0 30 0;
#X connect 33 0 35 0;
#X connect 34 0 39 0;
#X connect 35 0 34 2;
#X connect 36 0 40 0;
#X connect 37 0 36 0;
#X connect 38 0 41 0;
#X connect 39 0 42 0;
#X connect 39 1 38 0;
#X connect 41 0 40 1;
#X connect 42 0 47 0;
#X connect 43 0 42 1;
#X connect 44 0 48 0;
#X connect 44 1 37 0;
#X connect 45 0 46 0;
#X connect 46 0 44 0;
#X connect 47 0 46 0;
#X connect 48 0 40 0;
#X connect 49 0 34 0;
#X connect 50 0 25 0;
#X restore 5 21 pd update;
#X obj 456 106 v \$0-mod;
#X obj 455 82 t b f;
#X obj 282 94 table \$0-grid 16;
#X obj 402 319 tabread \$0-grid;
#X obj 402 241 + 8;
#X obj 503 82 route float;
#X obj 402 369 outlet;
#X obj 532 321 s \$4-sendPattern;
#X obj 532 283 r \$0-dclick;
#X connect 9 0 23 0;
#X connect 11 0 26 0;
#X connect 12 0 18 0;
#X connect 12 0 20 0;
#X connect 14 0 11 0;
#X connect 14 0 31 0;
#X connect 18 0 25 0;
#X connect 19 0 18 1;
#X connect 23 0 21 0;
#X connect 23 1 29 0;
#X connect 23 2 33 0;
#X connect 25 0 11 0;
#X connect 25 1 32 0;
#X connect 26 0 13 0;
#X connect 29 0 21 0;
#X connect 29 1 28 0;
#X connect 31 0 26 1;
#X connect 31 0 34 0;
#X connect 32 0 31 0;
#X connect 33 0 10 0;
#X connect 36 0 35 0;
#X coords 0 -1 1 1 96 109 2 100 100;
