#N canvas 65 78 650 640 10;
#X obj 101 101 bng 15 250 50 0 empty empty empty 17 7 0 10 -262144
-1 -262144;
#X obj 101 101 bng 15 250 50 0 empty empty empty 17 7 0 10 -262144
-1 -1;
#X obj 133 101 bng 15 250 50 0 empty empty empty 17 7 0 10 -262144
-1 -1;
#X obj 148 101 bng 15 250 50 0 empty empty empty 17 7 0 10 -262144
-1 -1;
#X obj 101 145 tof/pmenu;
#X obj 165 345 outlet;
#X obj 222 119 prepend add;
#X obj 222 78 inlet;
#X obj 219 315 prepend pattern;
#X obj 269 79 r pattern-list;
#X obj 165 291 symbol;
#X obj 165 101 bng 15 250 50 0 empty empty empty 17 7 0 10 -241291
-262144 -262144;
#X obj 219 354 s \$1;
#X obj 165 42 r \$1-\$2;
#X obj 219 281 prepend bam;
#X obj 219 260 \$2;
#X obj 260 229 prepend set-pattern;
#X obj 260 202 prepend \$2;
#X obj 424 -31 r \$1-\$2-pmenu;
#X obj 424 -8 prepend set;
#X obj 101 101 cnv 15 60 15 empty empty empty 20 12 0 14 -233017 -66577
0;
#X symbolatom 102 102 8 0 0 0 - - -, f 8;
#X obj 414 103 symbol;
#X connect 0 0 4 0;
#X connect 1 0 4 0;
#X connect 2 0 4 0;
#X connect 3 0 4 0;
#X connect 4 1 10 1;
#X connect 4 1 17 0;
#X connect 4 1 21 0;
#X connect 6 0 4 0;
#X connect 7 0 6 0;
#X connect 8 0 12 0;
#X connect 9 0 4 0;
#X connect 10 0 8 0;
#X connect 10 0 5 0;
#X connect 11 0 10 0;
#X connect 11 0 15 0;
#X connect 13 0 11 0;
#X connect 14 0 12 0;
#X connect 15 0 14 0;
#X connect 16 0 12 0;
#X connect 17 0 16 0;
#X connect 18 0 19 0;
#X connect 18 0 22 0;
#X connect 19 0 4 0;
#X connect 19 0 21 0;
#X connect 22 0 10 1;
#X coords 0 -1 1 1 81 18 2 100 100;
