#N canvas 65 127 695 530 10;
#X obj 101 104 vsl 12 40 0 127 0 0 \$0-vol-slider0-out \$0-vol-slider0-in
empty 0 -9 0 10 -262144 -33289 -33289 3900 1;
#X obj 113 104 vsl 12 40 0 127 0 0 \$0-vol-slider1-out \$0-vol-slider1-in
empty 0 -9 0 10 -262144 -33289 -33289 3900 1;
#X obj 125 104 vsl 12 40 0 127 0 0 \$0-vol-slider2-out \$0-vol-slider2-in
empty 0 -9 0 10 -262144 -33289 -33289 3900 1;
#X obj 137 104 vsl 12 40 0 127 0 0 \$0-vol-slider3-out \$0-vol-slider3-in
empty 0 -9 0 10 -262144 -33289 -33289 3900 1;
#X obj 149 104 vsl 12 40 0 127 0 0 \$0-vol-slider4-out \$0-vol-slider4-in
empty 0 -9 0 10 -262144 -33289 -33289 3900 1;
#X obj 161 104 vsl 12 40 0 127 0 0 \$0-vol-slider5-out \$0-vol-slider5-in
empty 0 -9 0 10 -262144 -33289 -33289 3900 1;
#X obj 173 104 vsl 12 40 0 127 0 0 \$0-vol-slider6-out \$0-vol-slider6-in
empty 0 -9 0 10 -262144 -33289 -33289 3900 1;
#X obj 185 104 vsl 12 40 0 127 0 0 \$0-vol-slider7-out \$0-vol-slider7-in
empty 0 -9 0 10 -262144 -33289 -33289 3900 1;
#X obj 197 104 vsl 12 40 0 127 0 0 \$0-vol-slider8-out \$0-vol-slider8-in
empty 0 -9 0 10 -262144 -33289 -33289 3900 1;
#X obj 209 104 vsl 12 40 0 127 0 0 \$0-vol-slider9-out \$0-vol-slider9-in
empty 0 -9 0 10 -262144 -33289 -33289 3900 1;
#X obj 221 104 vsl 12 40 0 127 0 0 \$0-vol-slider10-out \$0-vol-slider10-in
empty 0 -9 0 10 -262144 -33289 -33289 3900 1;
#X obj 233 104 vsl 12 40 0 127 0 0 \$0-vol-slider11-out \$0-vol-slider11-in
empty 0 -9 0 10 -262144 -33289 -33289 3900 1;
#X obj 245 104 vsl 12 40 0 127 0 0 \$0-vol-slider12-out \$0-vol-slider12-in
empty 0 -9 0 10 -262144 -33289 -33289 3900 1;
#X obj 257 104 vsl 12 40 0 127 0 0 \$0-vol-slider13-out \$0-vol-slider13-in
empty 0 -9 0 10 -24198 -33289 -33289 3900 1;
#X obj 269 104 vsl 12 40 0 127 0 0 \$0-vol-slider14-out \$0-vol-slider14-in
empty 0 -9 0 10 -262144 -33289 -33289 3900 1;
#X obj 281 104 vsl 12 40 0 127 0 0 \$0-vol-slider15-out \$0-vol-slider15-in
empty 0 -9 0 10 -24198 -33289 -33289 3900 1;
#N canvas 388 105 767 639 populate 0;
#X obj 136 -84 r \$0-vol-slider1-out;
#X obj 1 336 t f b;
#X obj 141 336 t f b;
#X obj 281 336 t f b;
#X obj 421 336 t f b;
#X obj 1 -84 r \$0-vol-slider0-out;
#X obj 276 -84 r \$0-vol-slider2-out;
#X obj 416 -84 r \$0-vol-slider3-out;
#X obj 1 66 r \$0-vol-slider4-out;
#X obj 136 66 r \$0-vol-slider5-out;
#X obj 276 66 r \$0-vol-slider6-out;
#X obj 416 66 r \$0-vol-slider7-out;
#X obj 1 192 r \$0-vol-slider8-out;
#X obj 136 192 r \$0-vol-slider9-out;
#X obj 276 192 r \$0-vol-slider10-out;
#X obj 416 192 r \$0-vol-slider11-out;
#X obj 1 311 r \$0-vol-slider12-out;
#X obj 141 311 r \$0-vol-slider13-out;
#X obj 281 311 r \$0-vol-slider14-out;
#X obj 421 311 r \$0-vol-slider15-out;
#X obj 112 381 + \$2;
#X obj 252 379 + \$2;
#X obj 392 381 + \$2;
#X obj 532 383 + \$2;
#X obj 1 216 t f b;
#X obj 136 216 t f b;
#X obj 276 216 t f b;
#X obj 416 216 t f b;
#X obj 112 261 + \$2;
#X obj 242 259 + \$2;
#X obj 387 261 + \$2;
#X obj 521 263 + \$2;
#X obj 1 100 t f b;
#X obj 136 100 t f b;
#X obj 276 100 t f b;
#X obj 416 100 t f b;
#X obj 112 145 + \$2;
#X obj 242 143 + \$2;
#X obj 387 145 + \$2;
#X obj 521 147 + \$2;
#X obj 1 -50 t f b;
#X obj 136 -50 t f b;
#X obj 276 -50 t f b;
#X obj 416 -50 t f b;
#X obj 112 -5 + \$2;
#X obj 242 -7 + \$2;
#X obj 387 -5 + \$2;
#X obj 521 -3 + \$2;
#X msg 106 -33 0;
#X msg 241 -33 1;
#X msg 381 -33 2;
#X msg 521 -33 3;
#X msg 106 117 4;
#X msg 241 117 5;
#X msg 381 117 6;
#X msg 521 117 7;
#X msg 106 233 8;
#X msg 241 233 9;
#X msg 381 233 10;
#X msg 521 233 11;
#X msg 112 353 12;
#X msg 252 353 13;
#X msg 392 353 14;
#X msg 532 353 15;
#X obj 1 19 tabwrite \$1;
#X obj 136 21 tabwrite \$1;
#X obj 276 21 tabwrite \$1;
#X obj 416 21 tabwrite \$1;
#X obj 416 171 tabwrite \$1;
#X obj 276 171 tabwrite \$1;
#X obj 136 171 tabwrite \$1;
#X obj 1 171 tabwrite \$1;
#X obj 1 287 tabwrite \$1;
#X obj 136 287 tabwrite \$1;
#X obj 276 287 tabwrite \$1;
#X obj 416 287 tabwrite \$1;
#X obj 421 407 tabwrite \$1;
#X obj 281 407 tabwrite \$1;
#X obj 141 407 tabwrite \$1;
#X obj 1 407 tabwrite \$1;
#X connect 0 0 41 0;
#X connect 1 0 79 0;
#X connect 1 1 60 0;
#X connect 2 0 78 0;
#X connect 2 1 61 0;
#X connect 3 0 77 0;
#X connect 3 1 62 0;
#X connect 4 0 76 0;
#X connect 4 1 63 0;
#X connect 5 0 40 0;
#X connect 6 0 42 0;
#X connect 7 0 43 0;
#X connect 8 0 32 0;
#X connect 9 0 33 0;
#X connect 10 0 34 0;
#X connect 11 0 35 0;
#X connect 12 0 24 0;
#X connect 13 0 25 0;
#X connect 14 0 26 0;
#X connect 15 0 27 0;
#X connect 16 0 1 0;
#X connect 17 0 2 0;
#X connect 18 0 3 0;
#X connect 19 0 4 0;
#X connect 20 0 79 1;
#X connect 21 0 78 1;
#X connect 22 0 77 1;
#X connect 23 0 76 1;
#X connect 24 0 72 0;
#X connect 24 1 56 0;
#X connect 25 0 73 0;
#X connect 25 1 57 0;
#X connect 26 0 74 0;
#X connect 26 1 58 0;
#X connect 27 0 75 0;
#X connect 27 1 59 0;
#X connect 28 0 72 1;
#X connect 29 0 73 1;
#X connect 30 0 74 1;
#X connect 31 0 75 1;
#X connect 32 0 71 0;
#X connect 32 1 52 0;
#X connect 33 0 70 0;
#X connect 33 1 53 0;
#X connect 34 0 69 0;
#X connect 34 1 54 0;
#X connect 35 0 68 0;
#X connect 35 1 55 0;
#X connect 36 0 71 1;
#X connect 37 0 70 1;
#X connect 38 0 69 1;
#X connect 39 0 68 1;
#X connect 40 0 64 0;
#X connect 40 1 48 0;
#X connect 41 0 65 0;
#X connect 41 1 49 0;
#X connect 42 0 66 0;
#X connect 42 1 50 0;
#X connect 43 0 67 0;
#X connect 43 1 51 0;
#X connect 44 0 64 1;
#X connect 45 0 65 1;
#X connect 46 0 66 1;
#X connect 47 0 67 1;
#X connect 48 0 44 0;
#X connect 49 0 45 0;
#X connect 50 0 46 0;
#X connect 51 0 47 0;
#X connect 52 0 36 0;
#X connect 53 0 37 0;
#X connect 54 0 38 0;
#X connect 55 0 39 0;
#X connect 56 0 28 0;
#X connect 57 0 29 0;
#X connect 58 0 30 0;
#X connect 59 0 31 0;
#X connect 60 0 20 0;
#X connect 61 0 21 0;
#X connect 62 0 22 0;
#X connect 63 0 23 0;
#X restore 318 121 pd populate;
#N canvas 780 361 450 300 update 1;
#X msg 144 81 \$2-vol-slider\$1-in;
#X obj 144 60 pack f \$0;
#X obj 79 128 s;
#X obj 144 101 symbol;
#X obj 79 -52 iterate 16;
#X obj 79 24 tabread \$1;
#X obj 79 -32 t f f;
#X obj 79 -74 r \$0-update;
#X msg 79 78 set \$1;
#X obj 79 -3 + \$2;
#X connect 0 0 3 0;
#X connect 1 0 0 0;
#X connect 3 0 2 1;
#X connect 4 0 6 0;
#X connect 5 0 8 0;
#X connect 6 0 9 0;
#X connect 6 1 1 0;
#X connect 7 0 4 0;
#X connect 8 0 2 0;
#X connect 9 0 5 0;
#X restore 318 141 pd update;
#X obj 408 -268 % 16;
#X obj 408 -166 s \$0-step-vol;
#X obj 408 -191 / 127;
#X obj 106 -153 s \$0-all-sliders;
#X obj 106 -131 r \$0-all-sliders;
#X obj 106 -38 t b f;
#X msg 171 12 \$2-vol-slider\$1-in;
#X obj 171 -9 pack f \$0;
#X msg 106 -178 size \$1 \$2;
#X obj 106 -230 f;
#X msg 84 -251 bang;
#X floatatom 122 -252 3 4 55 0 - - -;
#X floatatom 157 -230 3 15 73 0 - - -;
#X obj 106 -207 pack 0 0;
#X text 150 -252 width;
#X text 188 -229 height;
#X obj 106 0 list;
#X obj 106 -102 t b a;
#X obj 106 59 s;
#X obj 171 32 symbol;
#X obj 106 33 list trim;
#X obj 106 -64 iterate 16;
#N canvas 913 87 450 373 index 0;
#X msg 96 29 0;
#X msg 172 117 \$2-vol-slider\$1-in;
#X obj 172 96 pack f \$0;
#X obj 172 137 symbol;
#X obj 72 154 s;
#X obj 172 76 f;
#X floatatom 187 56 5 0 0 0 - - -;
#X msg 72 124 color \$1 \$2 \$3;
#X msg 60 29 16;
#X obj 72 100 pack 0 12 12;
#X obj 107 -99 % 16;
#X obj 154 -113 - 1;
#X obj 154 -83 % 16;
#X obj 153 -43 t b f;
#X obj 122 -127 t f f;
#X obj 108 -42 t b f;
#X floatatom 220 -15 5 0 0 0 - - -;
#X obj 120 -147 r \$0-clock;
#X connect 0 0 9 0;
#X connect 1 0 3 0;
#X connect 2 0 1 0;
#X connect 3 0 4 1;
#X connect 5 0 2 0;
#X connect 6 0 5 1;
#X connect 7 0 4 0;
#X connect 8 0 9 0;
#X connect 9 0 7 0;
#X connect 10 0 15 0;
#X connect 11 0 12 0;
#X connect 12 0 13 0;
#X connect 13 0 0 0;
#X connect 13 1 5 0;
#X connect 13 1 16 0;
#X connect 14 0 10 0;
#X connect 14 1 11 0;
#X connect 15 0 8 0;
#X connect 15 1 5 0;
#X connect 17 0 14 0;
#X restore 318 161 pd index;
#X msg 183 -272 127;
#X obj 183 -295 loadbang;
#X obj 408 -290 r \$0-clock;
#X obj 408 -216 tabread \$1;
#X obj 96 -333 inlet;
#X obj 96 -308 s \$0-clock;
#X obj 520 -147 outlet;
#X obj 520 -168 r \$0-step-vol;
#X obj 408 -240 + \$2;
#X text 149 -100 routine to send one message to all sliders;
#X obj 497 -326 inlet;
#X obj 497 -304 route update;
#X obj 497 -274 s \$0-update;
#X connect 18 0 49 0;
#X connect 20 0 19 0;
#X connect 22 0 35 0;
#X connect 23 0 34 0;
#X connect 23 1 25 0;
#X connect 24 0 37 0;
#X connect 25 0 24 0;
#X connect 26 0 21 0;
#X connect 27 0 31 0;
#X connect 28 0 27 0;
#X connect 29 0 27 1;
#X connect 30 0 31 1;
#X connect 31 0 26 0;
#X connect 34 0 38 0;
#X connect 35 0 39 0;
#X connect 35 1 34 1;
#X connect 37 0 36 1;
#X connect 38 0 36 0;
#X connect 39 0 23 0;
#X connect 41 0 21 0;
#X connect 42 0 41 0;
#X connect 43 0 18 0;
#X connect 44 0 20 0;
#X connect 45 0 46 0;
#X connect 48 0 47 0;
#X connect 49 0 44 0;
#X connect 51 0 52 0;
#X connect 52 0 53 0;
#X coords 0 -1 1 1 194 49 1 100 100;
