#N canvas 65 92 534 361 10;
#X obj 127 100 until;
#X obj 127 148 f;
#X msg 154 78 0;
#X obj 127 28 \$1;
#X obj 174 150 + 1;
#X obj 127 -40 inlet;
#X obj 127 -19 route bang float;
#X obj 127 53 t f b;
#X obj 154 239 outlet;
#X obj 127 173 t f f;
#X obj 225 216 sel;
#X obj 240 157 \$1;
#X obj 240 178 - 1;
#X obj 240 131 loadbang;
#X obj 225 239 outlet;
#X obj 167 4 t f f;
#X connect 0 0 1 0;
#X connect 1 0 4 0;
#X connect 1 0 9 0;
#X connect 2 0 1 1;
#X connect 3 0 7 0;
#X connect 4 0 1 1;
#X connect 5 0 6 0;
#X connect 6 0 3 0;
#X connect 6 1 15 0;
#X connect 7 0 0 0;
#X connect 7 1 2 0;
#X connect 9 0 10 0;
#X connect 9 1 8 0;
#X connect 10 0 14 0;
#X connect 11 0 12 0;
#X connect 12 0 10 1;
#X connect 13 0 11 0;
#X connect 15 0 3 0;
#X connect 15 1 12 0;
