#N canvas 0 0 675 694 10;
#X obj 59 102 print OSCdebug;
#X obj 59 62 netreceive 8195 1;
#X obj 59 260 netsend 1;
#X msg 59 204 connect localhost 8196;
#N canvas 423 119 655 281 banks 0;
#X obj 59 99 prepend symbol;
#X msg 59 186 1;
#X msg 99 186 2;
#X obj 59 233 outlet;
#X obj 59 127 sel /wac.lp/0/1/bank /wac.lp/0/2/bank /wac.lp/0/3/bank
/wac.lp/0/4/bank /wac.lp/0/5/bank /wac.lp/0/6/bank /wac.lp/0/7/bank
/wac.lp/0/8/bank;
#X msg 139 186 3;
#X msg 183 186 4;
#X msg 223 186 5;
#X msg 258 186 6;
#X msg 295 186 7;
#X msg 334 186 8;
#X obj 334 233 s bank;
#X obj 59 59 r fromLaunchpad;
#X connect 0 0 4 0;
#X connect 1 0 3 0;
#X connect 1 0 11 0;
#X connect 2 0 3 0;
#X connect 2 0 11 0;
#X connect 4 0 1 0;
#X connect 4 1 2 0;
#X connect 4 2 5 0;
#X connect 4 3 6 0;
#X connect 4 4 7 0;
#X connect 4 5 8 0;
#X connect 4 6 9 0;
#X connect 4 7 10 0;
#X connect 5 0 3 0;
#X connect 5 0 11 0;
#X connect 6 0 3 0;
#X connect 6 0 11 0;
#X connect 7 0 3 0;
#X connect 7 0 11 0;
#X connect 8 0 3 0;
#X connect 8 0 11 0;
#X connect 9 0 3 0;
#X connect 9 0 11 0;
#X connect 10 0 3 0;
#X connect 10 0 11 0;
#X connect 12 0 0 0;
#X restore 59 127 pd banks;
#X floatatom 59 149 5 0 0 1 Current_Bank - -;
#X obj 59 174 loadbang;
#X obj 70 234 r toLaunchpad;
#X obj 157 103 s fromLaunchpad;
#N canvas 683 0 675 694 globalmetro 1;
#X obj 190 81 / 24;
#X floatatom 190 111 5 0 0 0 - - -;
#X obj 163 145 metro;
#X obj 163 117 tgl 15 0 empty empty empty 17 7 0 10 -262144 -1 -1 1
1;
#X obj 163 175 counter;
#X obj 243 214 % 24;
#X obj 243 244 sel 0;
#X obj 280 214 % 48;
#X obj 280 244 sel 0;
#X obj 320 244 sel 0;
#X obj 320 214 % 96;
#X obj 243 274 bng 15 250 50 0 empty empty empty 17 7 0 10 -262144
-1 -1;
#X obj 280 274 bng 15 250 50 0 empty empty empty 17 7 0 10 -262144
-1 -1;
#X obj 320 274 bng 15 250 50 0 empty empty empty 17 7 0 10 -262144
-1 -1;
#X obj 205 244 sel 0;
#X obj 205 214 % 12;
#X obj 167 244 sel 0;
#X obj 167 214 % 8;
#X obj 130 244 sel 0;
#X obj 130 214 % 4;
#X obj 130 274 bng 15 250 50 0 empty empty empty 17 7 0 10 -262144
-1 -1;
#X obj 167 274 bng 15 250 50 0 empty empty empty 17 7 0 10 -262144
-1 -1;
#X obj 205 274 bng 15 250 50 0 empty empty empty 17 7 0 10 -262144
-1 -1;
#X obj 90 244 sel 0;
#X obj 90 274 bng 15 250 50 0 empty empty empty 17 7 0 10 -262144 -1
-1;
#X obj 90 214 % 2;
#X obj 50 244 sel 0;
#X obj 50 274 bng 15 250 50 0 empty empty empty 17 7 0 10 -262144 -1
-1;
#X obj 50 214 % 1;
#X obj 320 304 s globalMetro1;
#X obj 280 337 s globalMetro2;
#X obj 243 358 s globalMetro4;
#X obj 205 379 s globalMetro8;
#X obj 167 401 s globalMetro16;
#X obj 130 422 s globalMetro32;
#X obj 90 444 s globalMetro64;
#X obj 50 466 s globalMetro96;
#X obj 106 82 r transport;
#X obj 190 37 r globalTempo;
#X obj 190 58 bpm;
#X connect 0 0 1 0;
#X connect 1 0 2 1;
#X connect 2 0 4 0;
#X connect 3 0 2 0;
#X connect 4 0 5 0;
#X connect 4 0 7 0;
#X connect 4 0 10 0;
#X connect 4 0 17 0;
#X connect 4 0 19 0;
#X connect 4 0 15 0;
#X connect 4 0 25 0;
#X connect 4 0 28 0;
#X connect 5 0 6 0;
#X connect 6 0 11 0;
#X connect 7 0 8 0;
#X connect 8 0 12 0;
#X connect 9 0 13 0;
#X connect 10 0 9 0;
#X connect 11 0 31 0;
#X connect 12 0 30 0;
#X connect 13 0 29 0;
#X connect 14 0 22 0;
#X connect 15 0 14 0;
#X connect 16 0 21 0;
#X connect 17 0 16 0;
#X connect 18 0 20 0;
#X connect 19 0 18 0;
#X connect 20 0 34 0;
#X connect 21 0 33 0;
#X connect 22 0 32 0;
#X connect 23 0 24 0;
#X connect 24 0 35 0;
#X connect 25 0 23 0;
#X connect 26 0 27 0;
#X connect 27 0 36 0;
#X connect 28 0 26 0;
#X connect 37 0 3 0;
#X connect 38 0 39 0;
#X connect 39 0 0 0;
#X restore 170 145 pd globalmetro;
#X obj 341 63 tgl 30 0 transport transport Play/Stop 33 7 0 10 -4034
-1 -1 1 1;
#N canvas 540 289 450 300 bank2 1;
#N canvas 112 119 862 437 loopstep 1;
#X obj 22 44 route /wac.lp/0/2/press;
#X obj 22 71 unpack f f f;
#N canvas 398 87 934 694 loopplayer 0;
#N canvas 0 0 450 300 (subpatch) 0;
#X array \$0-low 285736 float 2;
#X coords 0 1 285736 -1 200 140 1 0 0;
#X restore 963 306 graph;
#X obj 642 301 soundfiler;
#X obj 642 225 openpanel;
#X obj 642 199 bng 15 250 50 0 empty empty empty 17 7 0 10 -262144
-1 -1;
#X floatatom 642 348 5 0 0 0 - - -;
#X obj 642 326 / 44.1;
#X obj 786 239 r globalTempo;
#X floatatom 786 303 5 0 0 0 - - -;
#X obj 786 272 * 4;
#X obj 786 330 *;
#X floatatom 787 162 5 0 0 0 Length_in_Bars - -;
#X obj 836 314 t b f;
#X floatatom 786 362 8 0 0 0 - - -;
#X obj 642 424 /;
#X obj 642 383 t b f;
#X floatatom 639 458 5 0 0 0 - - -;
#X obj 598 536 *;
#X obj 639 500 t b f;
#X floatatom 598 567 8 0 0 0 - - -;
#X obj 622 732 phasor~;
#X obj 613 682 /;
#X obj 593 645 t b f;
#X msg 582 673 1;
#X floatatom 616 706 5 0 0 0 - - -;
#X obj 605 601 / 1000;
#X obj 666 755 r samples;
#X obj 704 377 s samples;
#X obj 623 779 *~;
#X obj 469 275 f;
#X obj 469 243 spigot;
#X obj 516 209 tgl 15 0 empty empty empty 17 7 0 10 -262144 -1 -1 0
1;
#X obj 585 175 t b f;
#X obj 469 312 t b f;
#X msg 516 159 1;
#X obj 645 25 1;
#X obj 650 57 / 16;
#X floatatom 650 82 5 0 0 0 - - -;
#X floatatom 645 -22 5 0 0 0 - - -;
#X obj 645 0 t b f;
#X obj 635 103 *;
#X floatatom 639 133 5 0 0 0 - - -;
#X obj 787 216 s bars;
#X obj 836 288 r bars;
#X obj 806 187 inlet bars;
#X obj 673 174 inlet read;
#X obj 647 852 outlet~;
#X obj 501 18 inlet juggle;
#X obj 743 782 *~ 8;
#X obj 762 857 i;
#X obj 744 810 u_snapshot~;
#X obj 762 914 outlet;
#X obj 762 883 change;
#X obj 645 -74 loadbang;
#X msg 646 -45 8;
#X obj 743 650 r transport;
#X msg 753 701 0;
#X obj 750 673 sel 1 0;
#X obj 622 811 tabread4~ \$0-low;
#X obj 642 251 pack s \$0;
#X msg 642 278 read -resize \$1 \$2-low;
#X obj 303 194 r globalMetro1;
#X connect 1 0 5 0;
#X connect 1 0 26 0;
#X connect 2 0 58 0;
#X connect 3 0 2 0;
#X connect 4 0 14 0;
#X connect 4 0 16 0;
#X connect 5 0 4 0;
#X connect 6 0 8 0;
#X connect 7 0 9 0;
#X connect 8 0 7 0;
#X connect 9 0 12 0;
#X connect 10 0 41 0;
#X connect 11 0 9 0;
#X connect 11 1 9 1;
#X connect 12 0 13 0;
#X connect 13 0 15 0;
#X connect 14 0 13 0;
#X connect 14 1 13 1;
#X connect 15 0 17 0;
#X connect 16 0 18 0;
#X connect 17 0 16 0;
#X connect 17 1 16 1;
#X connect 18 0 24 0;
#X connect 19 0 27 0;
#X connect 19 0 47 0;
#X connect 20 0 23 0;
#X connect 21 0 22 0;
#X connect 21 1 20 1;
#X connect 22 0 20 0;
#X connect 23 0 19 0;
#X connect 24 0 21 0;
#X connect 25 0 27 1;
#X connect 27 0 57 0;
#X connect 28 0 32 0;
#X connect 29 0 28 0;
#X connect 30 0 29 1;
#X connect 31 0 33 0;
#X connect 31 1 28 1;
#X connect 32 0 30 0;
#X connect 32 1 19 1;
#X connect 33 0 30 0;
#X connect 34 0 35 0;
#X connect 35 0 36 0;
#X connect 36 0 39 1;
#X connect 37 0 38 0;
#X connect 38 0 34 0;
#X connect 38 1 35 1;
#X connect 39 0 31 0;
#X connect 39 0 40 0;
#X connect 42 0 11 0;
#X connect 43 0 41 0;
#X connect 44 0 2 0;
#X connect 46 0 39 0;
#X connect 47 0 49 0;
#X connect 48 0 51 0;
#X connect 49 1 48 0;
#X connect 51 0 50 0;
#X connect 52 0 53 0;
#X connect 53 0 37 0;
#X connect 54 0 56 0;
#X connect 55 0 19 0;
#X connect 56 0 23 0;
#X connect 56 1 55 0;
#X connect 57 0 45 0;
#X connect 58 0 59 0;
#X connect 59 0 1 0;
#X connect 60 0 29 0;
#X restore 169 184 pd loopplayer;
#X floatatom 22 104 5 0 0 0 - - -;
#X obj 22 18 r fromLaunchpad;
#N canvas 0 94 883 447 ledcolor 0;
#X obj 181 325 gate 3;
#X obj 93 251 sel green red orange;
#X msg 93 282 1;
#X msg 93 301 2;
#X msg 93 320 3;
#X obj 93 227 prepend symbol;
#X obj 93 202 inlet;
#X obj 258 221 inlet;
#X obj 181 413 outlet;
#X msg 364 356 send /wac.lp/0/2/led \$1 \$2 0 \$3;
#X msg 569 356 send /wac.lp/0/2/led \$1 \$2 \$3 \$3;
#X msg 181 356 send /wac.lp/0/2/led \$1 \$2 \$3;
#X connect 0 0 11 0;
#X connect 0 1 9 0;
#X connect 0 2 10 0;
#X connect 1 0 2 0;
#X connect 1 1 3 0;
#X connect 1 2 4 0;
#X connect 2 0 0 0;
#X connect 3 0 0 0;
#X connect 4 0 0 0;
#X connect 5 0 1 0;
#X connect 6 0 5 0;
#X connect 7 0 0 1;
#X connect 9 0 8 0;
#X connect 10 0 8 0;
#X connect 11 0 8 0;
#X restore 13 213 pd ledcolor;
#X obj 76 149 pack f f f;
#X obj 15 281 s toLaunchpad;
#X msg -58 181 green;
#N canvas 0 0 1920 1014 ledindex 0;
#X obj 294 351 s toLaunchpad;
#X obj 491 257 f;
#X msg 294 324 send /wac.lp/0/2/led \$1 7 1 1;
#X msg 494 324 send /wac.lp/0/2/led \$1 7 0 0;
#X obj 294 203 t f b;
#X obj 294 173 inlet;
#X connect 1 0 3 0;
#X connect 2 0 0 0;
#X connect 3 0 0 0;
#X connect 4 0 2 0;
#X connect 4 0 1 1;
#X connect 4 1 1 0;
#X connect 5 0 4 0;
#X restore 244 207 pd ledindex;
#X obj 197 68 spigot;
#X obj 152 115 == 7;
#X obj 169 160 spigot;
#X obj 168 233 throw~ masterMONO;
#X connect 0 0 1 0;
#X connect 1 0 3 0;
#X connect 1 1 6 1;
#X connect 1 1 11 0;
#X connect 1 2 6 2;
#X connect 2 0 13 0;
#X connect 2 1 9 0;
#X connect 3 0 6 0;
#X connect 3 0 12 0;
#X connect 4 0 0 0;
#X connect 5 0 7 0;
#X connect 6 0 5 1;
#X connect 8 0 5 0;
#X connect 11 0 12 1;
#X connect 12 0 2 0;
#X restore -194 -47 pd loopstep;
#X restore 513 104 pd bank2;
#N canvas 566 47 645 426 bank3 1;
#X obj 45 128 Loopstation;
#X obj 46 34 r~ \$0-input;
#X obj 44 180 throw~ masterMONO;
#N canvas 190 166 829 300 control 0;
#X obj 143 32 r fromLaunchpad;
#X obj 143 53 route /wac.lp/0/3/press;
#N canvas 524 158 450 686 rec 0;
#X obj 131 120 unpack f f f;
#X obj 232 197 sel 1;
#X obj 232 252 tgl 15 0 empty empty empty 17 7 0 10 -262144 -1 -1 0
1;
#X obj 217 286 f;
#X obj 178 473 outlet;
#X obj 170 196 + 1;
#X obj 131 88 inlet;
#X msg 217 335 rec \$1;
#X msg 237 390 buffer \$1;
#X floatatom 86 188 5 0 0 0 - - -;
#X obj 88 161 >= 8;
#X obj 106 259 sel 1;
#X obj 90 213 == 0;
#X floatatom 192 244 5 0 0 0 - - -;
#X obj 302 407 outlet;
#X connect 0 0 10 0;
#X connect 0 1 5 0;
#X connect 0 2 1 0;
#X connect 1 0 2 0;
#X connect 2 0 3 1;
#X connect 3 0 7 0;
#X connect 5 0 8 0;
#X connect 5 0 13 0;
#X connect 6 0 0 0;
#X connect 7 0 4 0;
#X connect 8 0 14 0;
#X connect 9 0 12 0;
#X connect 10 0 9 0;
#X connect 11 0 3 0;
#X connect 12 0 11 0;
#X restore 215 297 pd rec;
#X obj 110 364 outlet;
#N canvas 1159 129 718 300 modes 0;
#X obj -6 -94 inlet;
#X obj -6 -67 unpack f f f;
#X obj 364 126 sel 3;
#X obj 364 181 outlet;
#X obj 37 41 == 0;
#X obj -6 42 == 8;
#X obj -6 64 &&;
#X obj -6 91 sel 1;
#X obj 364 98 r bank;
#X obj 72 41 == 8;
#X obj 72 63 &&;
#X obj 72 90 sel 1;
#X obj 115 40 == 1;
#X obj 154 42 == 8;
#X obj 154 64 &&;
#X obj 154 91 sel 1;
#X obj 187 41 == 3;
#X obj 217 41 == 8;
#X obj 217 63 &&;
#X obj 217 90 sel 1;
#X obj 250 40 == 4;
#X msg 364 148 9;
#X msg -6 117 0;
#X msg 72 116 1;
#X msg 154 117 3;
#X msg 217 116 4;
#X connect 0 0 1 0;
#X connect 1 0 5 0;
#X connect 1 0 9 0;
#X connect 1 0 13 0;
#X connect 1 0 17 0;
#X connect 1 1 4 0;
#X connect 1 1 12 0;
#X connect 1 1 16 0;
#X connect 1 1 20 0;
#X connect 2 0 21 0;
#X connect 4 0 6 1;
#X connect 5 0 6 0;
#X connect 6 0 7 0;
#X connect 7 0 22 0;
#X connect 8 0 2 0;
#X connect 9 0 10 0;
#X connect 10 0 11 0;
#X connect 11 0 23 0;
#X connect 12 0 10 1;
#X connect 13 0 14 0;
#X connect 14 0 15 0;
#X connect 15 0 24 0;
#X connect 16 0 14 1;
#X connect 17 0 18 0;
#X connect 18 0 19 0;
#X connect 19 0 25 0;
#X connect 20 0 18 1;
#X connect 21 0 3 0;
#X connect 22 0 3 0;
#X connect 23 0 3 0;
#X connect 24 0 3 0;
#X connect 25 0 3 0;
#X restore 170 125 pd modes;
#X text 339 75 Launchpad Toggle and order forcing and switchin modes
;
#N canvas 628 118 450 686 vol 0;
#X obj 131 120 unpack f f f;
#X obj 131 331 outlet;
#X obj 165 191 + 1;
#X obj 131 88 inlet;
#X msg 165 216 buffer \$1;
#X msg 131 241 vol \$1;
#X obj 131 173 / 8;
#X obj 131 151 moses 8;
#X connect 0 0 7 0;
#X connect 0 1 2 0;
#X connect 2 0 4 0;
#X connect 3 0 0 0;
#X connect 4 0 1 0;
#X connect 5 0 1 0;
#X connect 6 0 5 0;
#X connect 7 0 6 0;
#X restore 110 297 pd vol;
#X obj 143 74 t l l;
#N canvas 149 90 719 686 speed 0;
#X obj 68 90 unpack f f f;
#X obj 50 389 outlet;
#X obj 165 191 + 1;
#X obj 68 58 inlet;
#X msg 165 216 buffer \$1;
#X obj 39 286 * 0.25;
#X obj 40 215 pow;
#X obj 32 150 t b f;
#X floatatom 39 265 5 0 0 0 - - -;
#X msg 46 340 speed \$1;
#X msg 32 181 2;
#X obj 68 136 moses 8;
#X connect 0 0 11 0;
#X connect 0 1 2 0;
#X connect 2 0 4 0;
#X connect 3 0 0 0;
#X connect 4 0 1 0;
#X connect 5 0 9 0;
#X connect 6 0 8 0;
#X connect 7 0 10 0;
#X connect 7 1 6 1;
#X connect 8 0 5 0;
#X connect 9 0 1 0;
#X connect 10 0 6 0;
#X connect 11 0 7 0;
#X restore 157 297 pd speed;
#N canvas 1263 474 450 300 overdub 0;
#X obj 75 41 inlet;
#X obj 82 261 outlet;
#X obj 75 75 unpack f f f;
#X obj 84 151 + 1;
#X msg 84 176 buffer \$1;
#X obj 158 187 f;
#X obj 126 111 sel 1;
#X obj 132 140 tgl 15 0 empty empty empty 17 7 0 10 -262144 -1 -1 0
1;
#X msg 140 219 ovd \$1;
#X floatatom -2 109 5 0 0 0 - - -;
#X obj 0 82 >= 8;
#X obj 18 180 sel 1;
#X obj 2 134 == 0;
#X obj 79 121 t f;
#X connect 0 0 2 0;
#X connect 2 0 10 0;
#X connect 2 1 13 0;
#X connect 2 2 6 0;
#X connect 3 0 4 0;
#X connect 4 0 1 0;
#X connect 5 0 8 0;
#X connect 6 0 7 0;
#X connect 7 0 5 1;
#X connect 8 0 1 0;
#X connect 9 0 12 0;
#X connect 10 0 9 0;
#X connect 11 0 5 0;
#X connect 12 0 11 0;
#X connect 13 0 3 0;
#X restore 259 297 pd overdub;
#N canvas 878 171 450 300 juggle 0;
#X obj 75 41 inlet;
#X obj 109 180 outlet;
#X obj 75 75 unpack f f f;
#X obj 109 98 + 1;
#X msg 109 123 buffer \$1;
#X obj 75 101 / 8;
#X msg 43 122 juggle \$1;
#X obj 149 148 spigot;
#X connect 0 0 2 0;
#X connect 2 0 5 0;
#X connect 2 1 3 0;
#X connect 2 2 7 1;
#X connect 3 0 4 0;
#X connect 4 0 1 0;
#X connect 5 0 6 0;
#X connect 6 0 7 0;
#X connect 7 0 1 0;
#X restore 328 298 pd juggle;
#X text 491 157 Ideas for Modes: Fine Pitch Mode \, Play Mode?;
#N canvas 550 131 642 416 menuleds 0;
#X obj 54 -166 inlet;
#X obj 199 309 s toLaunchpad;
#X obj 198 249 pack f f f;
#N canvas 529 169 450 300 colorbright 0;
#X obj 55 22 inlet;
#X obj 280 65 inlet;
#X obj 55 234 outlet;
#X obj 97 235 outlet;
#X obj 58 74 select red orange green;
#X msg 54 108 0 1;
#X msg 101 106 1 1;
#X msg 148 106 1 0;
#X obj 54 132 unpack;
#X obj 59 43 prepend symbol;
#X obj 55 185 * 1;
#X obj 93 188 * 1;
#X obj 280 93 t b f;
#X connect 0 0 9 0;
#X connect 1 0 12 0;
#X connect 4 0 5 0;
#X connect 4 1 6 0;
#X connect 4 2 7 0;
#X connect 5 0 8 0;
#X connect 6 0 8 0;
#X connect 7 0 8 0;
#X connect 8 0 10 0;
#X connect 8 1 11 0;
#X connect 9 0 4 0;
#X connect 10 0 2 0;
#X connect 11 0 3 0;
#X connect 12 0 10 0;
#X connect 12 0 11 0;
#X connect 12 1 10 1;
#X connect 12 1 11 1;
#X restore 226 197 pd colorbright;
#X msg 226 159 red;
#X msg 262 159 green;
#X msg 306 159 orange;
#X floatatom 356 159 5 0 0 0 - - -;
#X obj 189 83 sel 0 1 2 3 4;
#X obj 356 110 sel 1 0;
#X msg 105 17 0;
#X obj 357 83 tgl 15 0 empty empty empty 17 7 0 10 -262144 -1 -1 1
1;
#X msg 71 16 1;
#X msg 199 279 send /wac.lp/0/3/led 8 \$1 \$2 \$3;
#X obj 39 47 f;
#X obj 54 -61 change;
#X obj 162 64 t f f;
#X msg 356 134 3;
#X msg 391 135 1;
#X obj 54 -17 t f b f b;
#X obj 153 -199 r bank;
#X obj 153 -175 sel 3;
#X obj 153 -103 until;
#X msg 153 -127 8;
#X obj 153 -78 f;
#X obj 187 -75 + 1;
#X msg 212 -112 0;
#X obj 153 -150 t b b;
#X obj 54 -141 t f b;
#X connect 0 0 28 0;
#X connect 2 0 13 0;
#X connect 3 0 2 1;
#X connect 3 1 2 2;
#X connect 4 0 3 0;
#X connect 5 0 3 0;
#X connect 6 0 3 0;
#X connect 7 0 3 1;
#X connect 8 0 5 0;
#X connect 8 1 6 0;
#X connect 8 2 6 0;
#X connect 8 3 4 0;
#X connect 8 4 6 0;
#X connect 9 0 17 0;
#X connect 9 1 18 0;
#X connect 10 0 11 0;
#X connect 11 0 9 0;
#X connect 12 0 11 0;
#X connect 13 0 1 0;
#X connect 14 0 16 0;
#X connect 15 0 19 0;
#X connect 16 0 2 0;
#X connect 16 1 8 0;
#X connect 17 0 7 0;
#X connect 18 0 7 0;
#X connect 19 0 2 0;
#X connect 19 0 14 1;
#X connect 19 1 12 0;
#X connect 19 2 8 0;
#X connect 19 3 10 0;
#X connect 19 3 14 0;
#X connect 20 0 21 0;
#X connect 21 0 27 0;
#X connect 22 0 24 0;
#X connect 23 0 22 0;
#X connect 24 0 25 0;
#X connect 24 0 15 0;
#X connect 25 0 24 1;
#X connect 26 0 24 1;
#X connect 27 0 23 0;
#X connect 27 1 26 0;
#X connect 28 0 15 0;
#X connect 28 1 27 0;
#X restore 215 187 pd menuleds;
#X obj 110 240 gate 9 0 0 0 0 0 0;
#X obj 110 214 + 1;
#X obj 215 347 u_quantizemsg;
#X obj 290 328 r quantization;
#X obj 170 187 s mode;
#X obj 440 236 r mode;
#X obj 440 273 t b;
#X msg 440 312 report;
#X msg 287 172 send /wac.lp/0/3/clear;
#X obj 170 155 t f f b;
#X obj 287 192 s toLaunchpad;
#X connect 0 0 1 0;
#X connect 1 0 7 0;
#X connect 2 0 15 0;
#X connect 2 1 3 0;
#X connect 4 0 14 0;
#X connect 4 0 22 0;
#X connect 6 0 3 0;
#X connect 7 0 13 1;
#X connect 7 1 4 0;
#X connect 8 0 3 0;
#X connect 9 0 3 0;
#X connect 10 0 3 0;
#X connect 13 0 6 0;
#X connect 13 1 8 0;
#X connect 13 3 2 0;
#X connect 13 4 9 0;
#X connect 13 8 10 0;
#X connect 14 0 13 0;
#X connect 15 0 3 0;
#X connect 16 0 15 1;
#X connect 18 0 19 0;
#X connect 19 0 20 0;
#X connect 20 0 3 0;
#X connect 21 0 23 0;
#X connect 22 0 17 0;
#X connect 22 1 12 0;
#X connect 22 2 21 0;
#X restore 171 48 pd control;
#N canvas 426 322 971 476 ledindex 0;
#X obj 430 316 s toLaunchpad;
#X obj 327 150 inlet;
#N canvas 533 0 1379 1006 stepspos 0;
#X obj 76 33 inlet;
#X obj 488 518 outlet;
#X obj 76 61 route pos1 pos2 pos3 pos4 pos5 pos6 pos7 pos8;
#X obj 466 78 route ovd1 ovd2 ovd3 ovd4 ovd5 ovd6 ovd7 ovd8;
#N canvas 1146 539 450 300 scale 0;
#X obj 77 87 * 8;
#X obj 77 108 int;
#X obj 77 64 inlet;
#X obj 77 139 outlet;
#X connect 0 0 1 0;
#X connect 1 0 3 0;
#X connect 2 0 0 0;
#X restore 40 123 pd scale;
#N canvas 1146 539 450 300 scale 0;
#X obj 77 87 * 8;
#X obj 77 108 int;
#X obj 77 64 inlet;
#X obj 77 139 outlet;
#X connect 0 0 1 0;
#X connect 1 0 3 0;
#X connect 2 0 0 0;
#X restore 116 123 pd scale;
#N canvas 1146 539 450 300 scale 0;
#X obj 77 87 * 8;
#X obj 77 108 int;
#X obj 77 64 inlet;
#X obj 77 139 outlet;
#X connect 0 0 1 0;
#X connect 1 0 3 0;
#X connect 2 0 0 0;
#X restore 190 123 pd scale;
#N canvas 1146 539 450 300 scale 0;
#X obj 77 87 * 8;
#X obj 77 108 int;
#X obj 77 64 inlet;
#X obj 77 139 outlet;
#X connect 0 0 1 0;
#X connect 1 0 3 0;
#X connect 2 0 0 0;
#X restore 247 123 pd scale;
#N canvas 1146 539 450 300 scale 0;
#X obj 77 87 * 8;
#X obj 77 108 int;
#X obj 77 64 inlet;
#X obj 77 139 outlet;
#X connect 0 0 1 0;
#X connect 1 0 3 0;
#X connect 2 0 0 0;
#X restore 316 123 pd scale;
#N canvas 1146 539 450 300 scale 0;
#X obj 77 87 * 8;
#X obj 77 108 int;
#X obj 77 64 inlet;
#X obj 77 139 outlet;
#X connect 0 0 1 0;
#X connect 1 0 3 0;
#X connect 2 0 0 0;
#X restore 384 123 pd scale;
#N canvas 1146 539 450 300 scale 0;
#X obj 77 87 * 8;
#X obj 77 108 int;
#X obj 77 64 inlet;
#X obj 77 139 outlet;
#X connect 0 0 1 0;
#X connect 1 0 3 0;
#X connect 2 0 0 0;
#X restore 462 123 pd scale;
#N canvas 1146 539 450 300 scale 0;
#X obj 77 87 * 8;
#X obj 77 108 int;
#X obj 77 64 inlet;
#X obj 77 139 outlet;
#X connect 0 0 1 0;
#X connect 1 0 3 0;
#X connect 2 0 0 0;
#X restore 537 123 pd scale;
#X obj 57 358 print;
#X floatatom 478 31 5 0 0 0 - - -;
#X obj 157 308 lp_hledstrip 1 3 0;
#X obj 40 308 lp_hledstrip 0 3 0;
#X obj 274 308 lp_hledstrip 2 3 0;
#X obj 393 307 lp_hledstrip 3 3 0;
#X obj 515 306 lp_hledstrip 4 3 0;
#X obj 633 307 lp_hledstrip 5 3 0;
#X obj 752 306 lp_hledstrip 6 3 0;
#X obj 870 306 lp_hledstrip 7 3 0;
#X connect 0 0 2 0;
#X connect 2 0 4 0;
#X connect 2 1 5 0;
#X connect 2 2 6 0;
#X connect 2 3 7 0;
#X connect 2 4 8 0;
#X connect 2 5 9 0;
#X connect 2 6 10 0;
#X connect 2 7 11 0;
#X connect 2 8 3 0;
#X connect 3 0 13 0;
#X connect 3 0 15 1;
#X connect 3 1 14 1;
#X connect 3 2 16 1;
#X connect 3 3 17 1;
#X connect 3 4 18 1;
#X connect 3 5 19 1;
#X connect 3 6 20 1;
#X connect 3 7 21 1;
#X connect 4 0 15 0;
#X connect 5 0 14 0;
#X connect 6 0 16 0;
#X connect 7 0 17 0;
#X connect 8 0 18 0;
#X connect 9 0 19 0;
#X connect 10 0 20 0;
#X connect 11 0 21 0;
#X connect 14 0 1 0;
#X connect 15 0 1 0;
#X connect 16 0 1 0;
#X connect 17 0 1 0;
#X connect 18 0 1 0;
#X connect 19 0 1 0;
#X connect 20 0 1 0;
#X connect 21 0 1 0;
#X restore 255 231 pd stepspos;
#X obj 458 175 inlet;
#N canvas 960 0 952 1006 volled 0;
#X obj 58 -62 inlet;
#X obj 371 421 outlet;
#X obj 58 124 until;
#X obj 154 208 until;
#X obj 154 238 f;
#X msg 170 157 0;
#X obj 193 240 + 1;
#X obj 58 191 f;
#X msg 75 168 0;
#X obj 89 201 + 1;
#X obj 58 52 t f b b b;
#X obj 58 -33 route vol buffer;
#X obj 154 285 pack f f;
#X obj 79 310 pack f f;
#X msg 156 325 send /wac.lp/0/3/led \$1 \$2 0 0;
#X obj 245 239 - 1;
#X obj 58 -2 * 8;
#X obj 58 29 + 1;
#X msg 152 182 8;
#X msg 97 351 send /wac.lp/0/3/led \$1 \$2 3 0;
#X obj 272 -35 route vol1 vol2 vol3 vol4 vol5 vol6 vol7;
#N canvas 1263 172 450 300 setstatus 0;
#X obj 38 213 until;
#X obj 134 297 until;
#X obj 134 327 f;
#X msg 150 246 0;
#X obj 173 329 + 1;
#X obj 38 280 f;
#X msg 55 257 0;
#X obj 69 290 + 1;
#X obj 38 141 t f b b b;
#X obj 38 87 * 8;
#X msg 132 271 8;
#X obj 38 44 inlet;
#X msg 38 380 send /wac.lp/0/3/led \$1 0 3 0;
#X obj 38 403 outlet;
#X msg 134 351 send /wac.lp/0/3/led \$1 0 0 0;
#X obj 38 118 + 0;
#X connect 0 0 5 0;
#X connect 1 0 2 0;
#X connect 2 0 4 0;
#X connect 2 0 14 0;
#X connect 3 0 2 1;
#X connect 4 0 2 1;
#X connect 5 0 7 0;
#X connect 5 0 12 0;
#X connect 6 0 5 1;
#X connect 7 0 5 1;
#X connect 8 0 0 0;
#X connect 8 1 6 0;
#X connect 8 2 10 0;
#X connect 8 3 3 0;
#X connect 9 0 15 0;
#X connect 10 0 1 0;
#X connect 11 0 9 0;
#X connect 12 0 13 0;
#X connect 14 0 13 0;
#X connect 15 0 8 0;
#X restore 272 7 pd setstatus;
#N canvas 1263 172 450 300 setstatus 0;
#X obj 38 213 until;
#X obj 134 297 until;
#X obj 134 327 f;
#X msg 150 246 0;
#X obj 173 329 + 1;
#X obj 38 280 f;
#X msg 55 257 0;
#X obj 69 290 + 1;
#X obj 38 141 t f b b b;
#X obj 38 87 * 8;
#X obj 38 118 + 1;
#X msg 132 271 8;
#X obj 38 44 inlet;
#X obj 38 403 outlet;
#X msg 38 380 send /wac.lp/0/3/led \$1 1 3 0;
#X msg 134 351 send /wac.lp/0/3/led \$1 1 0 0;
#X connect 0 0 5 0;
#X connect 1 0 2 0;
#X connect 2 0 4 0;
#X connect 2 0 15 0;
#X connect 3 0 2 1;
#X connect 4 0 2 1;
#X connect 5 0 7 0;
#X connect 5 0 14 0;
#X connect 6 0 5 1;
#X connect 7 0 5 1;
#X connect 8 0 0 0;
#X connect 8 1 6 0;
#X connect 8 2 11 0;
#X connect 8 3 3 0;
#X connect 9 0 10 0;
#X connect 10 0 8 0;
#X connect 11 0 1 0;
#X connect 12 0 9 0;
#X connect 14 0 13 0;
#X connect 15 0 13 0;
#X restore 355 9 pd setstatus;
#N canvas 1263 172 450 300 setstatus 0;
#X obj 38 213 until;
#X obj 134 297 until;
#X obj 134 327 f;
#X msg 150 246 0;
#X obj 173 329 + 1;
#X obj 38 280 f;
#X msg 55 257 0;
#X obj 69 290 + 1;
#X obj 38 141 t f b b b;
#X obj 38 87 * 8;
#X obj 38 118 + 1;
#X msg 132 271 8;
#X obj 38 44 inlet;
#X obj 38 403 outlet;
#X msg 134 351 send /wac.lp/0/3/led \$1 2 0 0;
#X msg 38 380 send /wac.lp/0/3/led \$1 2 3 0;
#X connect 0 0 5 0;
#X connect 1 0 2 0;
#X connect 2 0 4 0;
#X connect 2 0 14 0;
#X connect 3 0 2 1;
#X connect 4 0 2 1;
#X connect 5 0 7 0;
#X connect 5 0 15 0;
#X connect 6 0 5 1;
#X connect 7 0 5 1;
#X connect 8 0 0 0;
#X connect 8 1 6 0;
#X connect 8 2 11 0;
#X connect 8 3 3 0;
#X connect 9 0 10 0;
#X connect 10 0 8 0;
#X connect 11 0 1 0;
#X connect 12 0 9 0;
#X connect 14 0 13 0;
#X connect 15 0 13 0;
#X restore 439 10 pd setstatus;
#N canvas 1263 172 450 300 setstatus 0;
#X obj 38 213 until;
#X obj 134 297 until;
#X obj 134 327 f;
#X msg 150 246 0;
#X obj 173 329 + 1;
#X obj 38 280 f;
#X msg 55 257 0;
#X obj 69 290 + 1;
#X obj 38 141 t f b b b;
#X obj 38 87 * 8;
#X obj 38 118 + 1;
#X msg 132 271 8;
#X obj 38 44 inlet;
#X obj 38 403 outlet;
#X msg 134 351 send /wac.lp/0/3/led \$1 3 0 0;
#X msg 38 380 send /wac.lp/0/3/led \$1 3 3 0;
#X connect 0 0 5 0;
#X connect 1 0 2 0;
#X connect 2 0 4 0;
#X connect 2 0 14 0;
#X connect 3 0 2 1;
#X connect 4 0 2 1;
#X connect 5 0 7 0;
#X connect 5 0 15 0;
#X connect 6 0 5 1;
#X connect 7 0 5 1;
#X connect 8 0 0 0;
#X connect 8 1 6 0;
#X connect 8 2 11 0;
#X connect 8 3 3 0;
#X connect 9 0 10 0;
#X connect 10 0 8 0;
#X connect 11 0 1 0;
#X connect 12 0 9 0;
#X connect 14 0 13 0;
#X connect 15 0 13 0;
#X restore 522 11 pd setstatus;
#N canvas 1263 172 450 300 setstatus 0;
#X obj 38 213 until;
#X obj 134 297 until;
#X obj 134 327 f;
#X msg 150 246 0;
#X obj 173 329 + 1;
#X obj 38 280 f;
#X msg 55 257 0;
#X obj 69 290 + 1;
#X obj 38 141 t f b b b;
#X obj 38 87 * 8;
#X obj 38 118 + 1;
#X msg 132 271 8;
#X obj 38 44 inlet;
#X obj 38 403 outlet;
#X msg 132 351 send /wac.lp/0/3/led \$1 4 0 0;
#X msg 38 380 send /wac.lp/0/3/led \$1 4 3 0;
#X connect 0 0 5 0;
#X connect 1 0 2 0;
#X connect 2 0 4 0;
#X connect 2 0 14 0;
#X connect 3 0 2 1;
#X connect 4 0 2 1;
#X connect 5 0 7 0;
#X connect 5 0 15 0;
#X connect 6 0 5 1;
#X connect 7 0 5 1;
#X connect 8 0 0 0;
#X connect 8 1 6 0;
#X connect 8 2 11 0;
#X connect 8 3 3 0;
#X connect 9 0 10 0;
#X connect 10 0 8 0;
#X connect 11 0 1 0;
#X connect 12 0 9 0;
#X connect 14 0 13 0;
#X connect 15 0 13 0;
#X restore 601 10 pd setstatus;
#N canvas 1263 172 450 300 setstatus 0;
#X obj 38 213 until;
#X obj 134 297 until;
#X obj 134 327 f;
#X msg 150 246 0;
#X obj 173 329 + 1;
#X obj 38 280 f;
#X msg 55 257 0;
#X obj 69 290 + 1;
#X obj 38 141 t f b b b;
#X obj 38 87 * 8;
#X obj 38 118 + 1;
#X msg 132 271 8;
#X obj 38 44 inlet;
#X obj 38 403 outlet;
#X msg 38 380 send /wac.lp/0/3/led \$1 5 3 0;
#X msg 134 351 send /wac.lp/0/3/led \$1 5 0 0;
#X connect 0 0 5 0;
#X connect 1 0 2 0;
#X connect 2 0 4 0;
#X connect 2 0 15 0;
#X connect 3 0 2 1;
#X connect 4 0 2 1;
#X connect 5 0 7 0;
#X connect 5 0 14 0;
#X connect 6 0 5 1;
#X connect 7 0 5 1;
#X connect 8 0 0 0;
#X connect 8 1 6 0;
#X connect 8 2 11 0;
#X connect 8 3 3 0;
#X connect 9 0 10 0;
#X connect 10 0 8 0;
#X connect 11 0 1 0;
#X connect 12 0 9 0;
#X connect 14 0 13 0;
#X connect 15 0 13 0;
#X restore 684 12 pd setstatus;
#N canvas 1263 172 450 300 setstatus 0;
#X obj 38 213 until;
#X obj 134 297 until;
#X obj 134 327 f;
#X msg 150 246 0;
#X obj 173 329 + 1;
#X obj 38 280 f;
#X msg 55 257 0;
#X obj 69 290 + 1;
#X obj 38 141 t f b b b;
#X obj 38 87 * 8;
#X obj 38 118 + 1;
#X msg 132 271 8;
#X obj 38 44 inlet;
#X obj 38 403 outlet;
#X msg 134 351 send /wac.lp/0/3/led \$1 6 0 0;
#X msg 38 380 send /wac.lp/0/3/led \$1 6 3 0;
#X connect 0 0 5 0;
#X connect 1 0 2 0;
#X connect 2 0 4 0;
#X connect 2 0 14 0;
#X connect 3 0 2 1;
#X connect 4 0 2 1;
#X connect 5 0 7 0;
#X connect 5 0 15 0;
#X connect 6 0 5 1;
#X connect 7 0 5 1;
#X connect 8 0 0 0;
#X connect 8 1 6 0;
#X connect 8 2 11 0;
#X connect 8 3 3 0;
#X connect 9 0 10 0;
#X connect 10 0 8 0;
#X connect 11 0 1 0;
#X connect 12 0 9 0;
#X connect 14 0 13 0;
#X connect 15 0 13 0;
#X restore 768 13 pd setstatus;
#N canvas 1263 172 450 300 setstatus 0;
#X obj 38 213 until;
#X obj 134 297 until;
#X obj 134 327 f;
#X msg 150 246 0;
#X obj 173 329 + 1;
#X obj 38 280 f;
#X msg 55 257 0;
#X obj 69 290 + 1;
#X obj 38 141 t f b b b;
#X obj 38 87 * 8;
#X obj 38 118 + 1;
#X msg 132 271 8;
#X obj 38 44 inlet;
#X obj 38 403 outlet;
#X msg 134 351 send /wac.lp/0/3/led \$1 7 0 0;
#X msg 38 380 send /wac.lp/0/3/led \$1 7 3 0;
#X connect 0 0 5 0;
#X connect 1 0 2 0;
#X connect 2 0 4 0;
#X connect 2 0 14 0;
#X connect 3 0 2 1;
#X connect 4 0 2 1;
#X connect 5 0 7 0;
#X connect 5 0 15 0;
#X connect 6 0 5 1;
#X connect 7 0 5 1;
#X connect 8 0 0 0;
#X connect 8 1 6 0;
#X connect 8 2 11 0;
#X connect 8 3 3 0;
#X connect 9 0 10 0;
#X connect 10 0 8 0;
#X connect 11 0 1 0;
#X connect 12 0 9 0;
#X connect 14 0 13 0;
#X connect 15 0 13 0;
#X restore 851 14 pd setstatus;
#X connect 0 0 20 0;
#X connect 2 0 7 0;
#X connect 3 0 4 0;
#X connect 4 0 6 0;
#X connect 4 0 12 0;
#X connect 5 0 4 1;
#X connect 6 0 4 1;
#X connect 7 0 9 0;
#X connect 7 0 13 0;
#X connect 8 0 7 1;
#X connect 9 0 7 1;
#X connect 10 0 2 0;
#X connect 10 1 8 0;
#X connect 10 2 18 0;
#X connect 10 3 5 0;
#X connect 11 0 16 0;
#X connect 11 1 15 0;
#X connect 12 0 14 0;
#X connect 13 0 19 0;
#X connect 14 0 1 0;
#X connect 15 0 12 1;
#X connect 15 0 13 1;
#X connect 16 0 17 0;
#X connect 17 0 10 0;
#X connect 18 0 3 0;
#X connect 19 0 1 0;
#X connect 20 0 21 0;
#X connect 20 1 22 0;
#X connect 20 2 23 0;
#X connect 20 3 24 0;
#X connect 20 4 25 0;
#X connect 20 5 26 0;
#X connect 20 6 27 0;
#X connect 20 7 28 0;
#X connect 21 0 1 0;
#X connect 22 0 1 0;
#X connect 23 0 1 0;
#X connect 24 0 1 0;
#X connect 25 0 1 0;
#X connect 26 0 1 0;
#X connect 27 0 1 0;
#X connect 28 0 1 0;
#X restore 430 251 pd volled;
#X obj 255 200 gate 3;
#X obj 414 201 gate 3;
#N canvas 0 0 1159 1006 speedled 0;
#X obj 68 -132 inlet;
#X obj 406 624 outlet;
#X obj -42 304 until;
#X obj 164 388 until;
#X obj 164 418 f;
#X msg 219 371 0;
#X obj 203 420 + 1;
#X obj -42 371 f;
#X obj 164 465 pack f f;
#X obj 89 490 pack f f;
#X msg 164 495 send /wac.lp/0/3/led \$1 \$2 0 0;
#X obj 209 342 - 1;
#X msg 166 362 8;
#X msg 89 537 send /wac.lp/0/3/led \$1 \$2 3 3;
#X obj 68 -103 route speed buffer;
#X obj -44 271 -;
#X obj -10 371 - 1;
#X obj 68 122 t f b b;
#X obj -52 204 t b f b;
#X obj 68 -65 * 4;
#X obj 68 168 moses 3;
#X msg -25 348 2;
#X obj 83 21 log;
#X msg 83 -4 2;
#X obj 68 44 /;
#X obj 68 -33 log;
#X text 123 -3 Log with the base of 2 to get the exponent;
#X msg -52 233 3;
#X obj 52 310 until;
#X obj 52 377 f;
#X msg 69 354 2;
#X obj 84 377 + 1;
#X obj 42 210 t f b;
#X floatatom 97 417 5 0 0 0 - - -;
#X floatatom 95 294 5 0 0 0 - - -;
#X obj 50 277 - 1;
#X obj 68 79 moses 8;
#X obj 107 -33 loadbang;
#N canvas 702 75 537 715 setstatus 0;
#X obj -32 314 until;
#X obj 174 398 until;
#X obj 174 428 f;
#X msg 229 381 0;
#X obj 213 430 + 1;
#X obj -32 381 f;
#X msg 176 372 8;
#X obj -34 281 -;
#X obj 0 381 - 1;
#X obj 78 132 t f b b;
#X obj -43 208 t b f b;
#X obj 78 -55 * 4;
#X obj 78 178 moses 3;
#X msg -15 358 2;
#X obj 93 31 log;
#X msg 93 6 2;
#X obj 78 54 /;
#X obj 78 -23 log;
#X text 133 7 Log with the base of 2 to get the exponent;
#X obj 62 320 until;
#X obj 62 387 f;
#X msg 79 364 2;
#X obj 94 387 + 1;
#X obj 52 220 t f b;
#X floatatom 107 427 5 0 0 0 - - -;
#X floatatom 105 304 5 0 0 0 - - -;
#X obj 60 287 - 1;
#X obj 78 89 moses 8;
#X obj 117 -23 loadbang;
#X obj 99 610 outlet;
#X msg 99 547 send /wac.lp/0/3/led \$1 0 3 3;
#X msg 174 505 send /wac.lp/0/3/led \$1 0 0 0;
#X obj 78 -76 inlet;
#X msg -46 246 3;
#X obj 219 352 - 1;
#X msg -36 256 3;
#X connect 0 0 5 0;
#X connect 1 0 2 0;
#X connect 2 0 4 0;
#X connect 2 0 31 0;
#X connect 3 0 2 1;
#X connect 4 0 2 1;
#X connect 5 0 8 0;
#X connect 5 0 30 0;
#X connect 6 0 1 0;
#X connect 7 0 0 0;
#X connect 8 0 5 1;
#X connect 9 0 12 0;
#X connect 9 1 6 0;
#X connect 9 2 3 0;
#X connect 10 0 33 0;
#X connect 10 1 7 1;
#X connect 10 2 13 0;
#X connect 11 0 17 0;
#X connect 12 0 10 0;
#X connect 12 1 23 0;
#X connect 13 0 5 1;
#X connect 14 0 16 1;
#X connect 15 0 14 0;
#X connect 16 0 27 0;
#X connect 17 0 16 0;
#X connect 19 0 20 0;
#X connect 20 0 22 0;
#X connect 20 0 24 0;
#X connect 20 0 30 0;
#X connect 21 0 20 1;
#X connect 22 0 20 1;
#X connect 23 0 26 0;
#X connect 23 1 21 0;
#X connect 26 0 19 0;
#X connect 26 0 25 0;
#X connect 27 0 9 0;
#X connect 28 0 15 0;
#X connect 30 0 29 0;
#X connect 31 0 29 0;
#X connect 32 0 11 0;
#X connect 33 0 7 0;
#X restore 319 -51 pd setstatus;
#N canvas 702 75 537 715 setstatus 0;
#X obj -32 314 until;
#X obj 174 398 until;
#X obj 174 428 f;
#X msg 229 381 0;
#X obj 213 430 + 1;
#X obj -32 381 f;
#X obj 174 475 pack f f;
#X obj 99 500 pack f f;
#X msg 176 372 8;
#X obj -34 281 -;
#X obj 0 381 - 1;
#X obj 78 132 t f b b;
#X obj -42 214 t b f b;
#X obj 78 -55 * 4;
#X obj 78 178 moses 3;
#X msg -15 358 2;
#X obj 93 31 log;
#X msg 93 6 2;
#X obj 78 54 /;
#X obj 78 -23 log;
#X text 133 7 Log with the base of 2 to get the exponent;
#X obj 62 320 until;
#X obj 62 387 f;
#X msg 79 364 2;
#X obj 94 387 + 1;
#X obj 52 220 t f b;
#X floatatom 107 427 5 0 0 0 - - -;
#X floatatom 105 304 5 0 0 0 - - -;
#X obj 60 287 - 1;
#X obj 78 89 moses 8;
#X obj 117 -23 loadbang;
#X obj 99 610 outlet;
#X obj 78 -76 inlet;
#X msg 174 505 send /wac.lp/0/3/led \$1 1 0 0;
#X msg 98 547 send /wac.lp/0/3/led \$1 1 3 3;
#X msg -40 243 3;
#X connect 0 0 5 0;
#X connect 1 0 2 0;
#X connect 2 0 4 0;
#X connect 2 0 6 0;
#X connect 3 0 2 1;
#X connect 4 0 2 1;
#X connect 5 0 7 0;
#X connect 5 0 10 0;
#X connect 6 0 33 0;
#X connect 7 0 34 0;
#X connect 8 0 1 0;
#X connect 9 0 0 0;
#X connect 10 0 5 1;
#X connect 11 0 14 0;
#X connect 11 1 8 0;
#X connect 11 2 3 0;
#X connect 12 0 35 0;
#X connect 12 1 9 1;
#X connect 12 2 15 0;
#X connect 13 0 19 0;
#X connect 14 0 12 0;
#X connect 14 1 25 0;
#X connect 15 0 5 1;
#X connect 16 0 18 1;
#X connect 17 0 16 0;
#X connect 18 0 29 0;
#X connect 19 0 18 0;
#X connect 21 0 22 0;
#X connect 22 0 24 0;
#X connect 22 0 7 0;
#X connect 22 0 26 0;
#X connect 23 0 22 1;
#X connect 24 0 22 1;
#X connect 25 0 28 0;
#X connect 25 1 23 0;
#X connect 28 0 21 0;
#X connect 28 0 27 0;
#X connect 29 0 11 0;
#X connect 30 0 17 0;
#X connect 32 0 13 0;
#X connect 33 0 31 0;
#X connect 34 0 31 0;
#X connect 35 0 9 0;
#X restore 405 -49 pd setstatus;
#N canvas 702 75 537 715 setstatus 0;
#X obj -32 314 until;
#X obj 174 398 until;
#X obj 174 428 f;
#X msg 229 381 0;
#X obj 213 430 + 1;
#X obj -32 381 f;
#X obj 174 475 pack f f;
#X obj 99 500 pack f f;
#X obj 219 352 - 1;
#X msg 176 372 8;
#X obj -34 281 -;
#X obj 0 381 - 1;
#X obj 78 132 t f b b;
#X obj -42 214 t b f b;
#X obj 78 -55 * 4;
#X obj 78 178 moses 3;
#X msg -15 358 2;
#X obj 93 31 log;
#X msg 93 6 2;
#X obj 78 54 /;
#X obj 78 -23 log;
#X text 133 7 Log with the base of 2 to get the exponent;
#X obj 62 320 until;
#X obj 62 387 f;
#X msg 79 364 2;
#X obj 94 387 + 1;
#X obj 52 220 t f b;
#X floatatom 107 427 5 0 0 0 - - -;
#X floatatom 105 304 5 0 0 0 - - -;
#X obj 60 287 - 1;
#X obj 78 89 moses 8;
#X obj 117 -23 loadbang;
#X obj 99 610 outlet;
#X obj 78 -76 inlet;
#X msg 174 505 send /wac.lp/0/3/led \$1 2 0 0;
#X msg 96 547 send /wac.lp/0/3/led \$1 2 3 3;
#X msg -42 243 3;
#X connect 0 0 5 0;
#X connect 1 0 2 0;
#X connect 2 0 4 0;
#X connect 2 0 6 0;
#X connect 3 0 2 1;
#X connect 4 0 2 1;
#X connect 5 0 7 0;
#X connect 5 0 11 0;
#X connect 6 0 34 0;
#X connect 7 0 35 0;
#X connect 8 0 6 1;
#X connect 8 0 7 1;
#X connect 9 0 1 0;
#X connect 10 0 0 0;
#X connect 11 0 5 1;
#X connect 12 0 15 0;
#X connect 12 1 9 0;
#X connect 12 2 3 0;
#X connect 13 0 36 0;
#X connect 13 1 10 1;
#X connect 13 2 16 0;
#X connect 14 0 20 0;
#X connect 15 0 13 0;
#X connect 15 1 26 0;
#X connect 16 0 5 1;
#X connect 17 0 19 1;
#X connect 18 0 17 0;
#X connect 19 0 30 0;
#X connect 20 0 19 0;
#X connect 22 0 23 0;
#X connect 23 0 25 0;
#X connect 23 0 7 0;
#X connect 23 0 27 0;
#X connect 24 0 23 1;
#X connect 25 0 23 1;
#X connect 26 0 29 0;
#X connect 26 1 24 0;
#X connect 29 0 22 0;
#X connect 29 0 28 0;
#X connect 30 0 12 0;
#X connect 31 0 18 0;
#X connect 33 0 14 0;
#X connect 34 0 32 0;
#X connect 35 0 32 0;
#X connect 36 0 10 0;
#X restore 487 -49 pd setstatus;
#N canvas 1032 36 537 715 setstatus 0;
#X obj -32 314 until;
#X obj 174 398 until;
#X obj 174 428 f;
#X msg 229 381 0;
#X obj 213 430 + 1;
#X obj -32 381 f;
#X obj 174 475 pack f f;
#X obj 99 500 pack f f;
#X obj 219 352 - 1;
#X msg 176 372 8;
#X obj -34 281 -;
#X obj 0 381 - 1;
#X obj 78 132 t f b b;
#X obj -42 214 t b f b;
#X obj 78 -55 * 4;
#X obj 78 178 moses 3;
#X msg -15 358 2;
#X obj 93 31 log;
#X msg 93 6 2;
#X obj 78 54 /;
#X obj 78 -23 log;
#X text 133 7 Log with the base of 2 to get the exponent;
#X obj 62 320 until;
#X obj 62 387 f;
#X msg 79 364 2;
#X obj 94 387 + 1;
#X obj 52 220 t f b;
#X floatatom 107 427 5 0 0 0 - - -;
#X floatatom 105 304 5 0 0 0 - - -;
#X obj 60 287 - 1;
#X obj 78 89 moses 8;
#X obj 117 -23 loadbang;
#X obj 99 610 outlet;
#X obj 78 -76 inlet;
#X msg 174 505 send /wac.lp/0/3/led \$1 3 0 0;
#X msg 96 547 send /wac.lp/0/3/led \$1 3 3 3;
#X msg -41 242 3;
#X connect 0 0 5 0;
#X connect 1 0 2 0;
#X connect 2 0 4 0;
#X connect 2 0 6 0;
#X connect 3 0 2 1;
#X connect 4 0 2 1;
#X connect 5 0 7 0;
#X connect 5 0 11 0;
#X connect 6 0 34 0;
#X connect 7 0 35 0;
#X connect 8 0 6 1;
#X connect 8 0 7 1;
#X connect 9 0 1 0;
#X connect 10 0 0 0;
#X connect 11 0 5 1;
#X connect 12 0 15 0;
#X connect 12 1 9 0;
#X connect 12 2 3 0;
#X connect 13 0 36 0;
#X connect 13 1 10 1;
#X connect 13 2 16 0;
#X connect 14 0 20 0;
#X connect 15 0 13 0;
#X connect 15 1 26 0;
#X connect 16 0 5 1;
#X connect 17 0 19 1;
#X connect 18 0 17 0;
#X connect 19 0 30 0;
#X connect 20 0 19 0;
#X connect 22 0 23 0;
#X connect 23 0 25 0;
#X connect 23 0 7 0;
#X connect 23 0 27 0;
#X connect 24 0 23 1;
#X connect 25 0 23 1;
#X connect 26 0 29 0;
#X connect 26 1 24 0;
#X connect 29 0 22 0;
#X connect 29 0 28 0;
#X connect 30 0 12 0;
#X connect 31 0 18 0;
#X connect 33 0 14 0;
#X connect 34 0 32 0;
#X connect 35 0 32 0;
#X connect 36 0 10 0;
#X restore 574 -50 pd setstatus;
#N canvas 702 75 537 715 setstatus 0;
#X obj -32 314 until;
#X obj 174 398 until;
#X obj 174 428 f;
#X msg 229 381 0;
#X obj 213 430 + 1;
#X obj -32 381 f;
#X obj 174 475 pack f f;
#X obj 99 500 pack f f;
#X obj 219 352 - 1;
#X msg 176 372 8;
#X obj -34 281 -;
#X obj 0 381 - 1;
#X obj 78 132 t f b b;
#X obj -42 214 t b f b;
#X obj 78 -55 * 4;
#X obj 78 178 moses 3;
#X msg -15 358 2;
#X obj 93 31 log;
#X msg 93 6 2;
#X obj 78 54 /;
#X obj 78 -23 log;
#X text 133 7 Log with the base of 2 to get the exponent;
#X obj 62 320 until;
#X obj 62 387 f;
#X msg 79 364 2;
#X obj 94 387 + 1;
#X obj 52 220 t f b;
#X floatatom 107 427 5 0 0 0 - - -;
#X floatatom 105 304 5 0 0 0 - - -;
#X obj 60 287 - 1;
#X obj 78 89 moses 8;
#X obj 117 -23 loadbang;
#X obj 99 610 outlet;
#X obj 78 -76 inlet;
#X msg 174 505 send /wac.lp/0/3/led \$1 4 0 0;
#X msg 96 547 send /wac.lp/0/3/led \$1 4 3 3;
#X msg -48 240 3;
#X connect 0 0 5 0;
#X connect 1 0 2 0;
#X connect 2 0 4 0;
#X connect 2 0 6 0;
#X connect 3 0 2 1;
#X connect 4 0 2 1;
#X connect 5 0 7 0;
#X connect 5 0 11 0;
#X connect 6 0 34 0;
#X connect 7 0 35 0;
#X connect 8 0 6 1;
#X connect 8 0 7 1;
#X connect 9 0 1 0;
#X connect 10 0 0 0;
#X connect 11 0 5 1;
#X connect 12 0 15 0;
#X connect 12 1 9 0;
#X connect 12 2 3 0;
#X connect 13 0 36 0;
#X connect 13 1 10 1;
#X connect 13 2 16 0;
#X connect 14 0 20 0;
#X connect 15 0 13 0;
#X connect 15 1 26 0;
#X connect 16 0 5 1;
#X connect 17 0 19 1;
#X connect 18 0 17 0;
#X connect 19 0 30 0;
#X connect 20 0 19 0;
#X connect 22 0 23 0;
#X connect 23 0 25 0;
#X connect 23 0 7 0;
#X connect 23 0 27 0;
#X connect 24 0 23 1;
#X connect 25 0 23 1;
#X connect 26 0 29 0;
#X connect 26 1 24 0;
#X connect 29 0 22 0;
#X connect 29 0 28 0;
#X connect 30 0 12 0;
#X connect 31 0 18 0;
#X connect 33 0 14 0;
#X connect 34 0 32 0;
#X connect 35 0 32 0;
#X connect 36 0 10 0;
#X restore 656 -47 pd setstatus;
#N canvas 702 75 537 715 setstatus 0;
#X obj -32 314 until;
#X obj 174 398 until;
#X obj 174 428 f;
#X msg 229 381 0;
#X obj 213 430 + 1;
#X obj -32 381 f;
#X obj 174 475 pack f f;
#X obj 99 500 pack f f;
#X obj 219 352 - 1;
#X msg 176 372 8;
#X obj -34 281 -;
#X obj 0 381 - 1;
#X obj 78 132 t f b b;
#X obj -42 214 t b f b;
#X obj 78 -55 * 4;
#X obj 78 178 moses 3;
#X msg -15 358 2;
#X obj 93 31 log;
#X msg 93 6 2;
#X obj 78 54 /;
#X obj 78 -23 log;
#X text 133 7 Log with the base of 2 to get the exponent;
#X obj 62 320 until;
#X obj 62 387 f;
#X msg 79 364 2;
#X obj 94 387 + 1;
#X obj 52 220 t f b;
#X floatatom 107 427 5 0 0 0 - - -;
#X floatatom 105 304 5 0 0 0 - - -;
#X obj 60 287 - 1;
#X obj 78 89 moses 8;
#X obj 117 -23 loadbang;
#X obj 99 610 outlet;
#X obj 78 -76 inlet;
#X msg 172 504 send /wac.lp/0/3/led \$1 5 0 0;
#X msg 96 547 send /wac.lp/0/3/led \$1 5 3 3;
#X msg -55 248 3;
#X connect 0 0 5 0;
#X connect 1 0 2 0;
#X connect 2 0 4 0;
#X connect 2 0 6 0;
#X connect 3 0 2 1;
#X connect 4 0 2 1;
#X connect 5 0 7 0;
#X connect 5 0 11 0;
#X connect 6 0 34 0;
#X connect 7 0 35 0;
#X connect 8 0 6 1;
#X connect 8 0 7 1;
#X connect 9 0 1 0;
#X connect 10 0 0 0;
#X connect 11 0 5 1;
#X connect 12 0 15 0;
#X connect 12 1 9 0;
#X connect 12 2 3 0;
#X connect 13 0 36 0;
#X connect 13 1 10 1;
#X connect 13 2 16 0;
#X connect 14 0 20 0;
#X connect 15 0 13 0;
#X connect 15 1 26 0;
#X connect 16 0 5 1;
#X connect 17 0 19 1;
#X connect 18 0 17 0;
#X connect 19 0 30 0;
#X connect 20 0 19 0;
#X connect 22 0 23 0;
#X connect 23 0 25 0;
#X connect 23 0 7 0;
#X connect 23 0 27 0;
#X connect 24 0 23 1;
#X connect 25 0 23 1;
#X connect 26 0 29 0;
#X connect 26 1 24 0;
#X connect 29 0 22 0;
#X connect 29 0 28 0;
#X connect 30 0 12 0;
#X connect 31 0 18 0;
#X connect 33 0 14 0;
#X connect 34 0 32 0;
#X connect 35 0 32 0;
#X connect 36 0 10 0;
#X restore 741 -47 pd setstatus;
#N canvas 702 75 537 715 setstatus 0;
#X obj -32 314 until;
#X obj 174 398 until;
#X obj 174 428 f;
#X msg 229 381 0;
#X obj 213 430 + 1;
#X obj -32 381 f;
#X obj 174 475 pack f f;
#X obj 99 500 pack f f;
#X obj 219 352 - 1;
#X msg 176 372 8;
#X obj -34 281 -;
#X obj 0 381 - 1;
#X obj 78 132 t f b b;
#X obj -42 214 t b f b;
#X obj 78 -55 * 4;
#X obj 78 178 moses 3;
#X msg -15 358 2;
#X obj 93 31 log;
#X msg 93 6 2;
#X obj 78 54 /;
#X obj 78 -23 log;
#X text 133 7 Log with the base of 2 to get the exponent;
#X obj 62 320 until;
#X obj 62 387 f;
#X msg 79 364 2;
#X obj 94 387 + 1;
#X obj 52 220 t f b;
#X floatatom 107 427 5 0 0 0 - - -;
#X floatatom 105 304 5 0 0 0 - - -;
#X obj 60 287 - 1;
#X obj 78 89 moses 8;
#X obj 117 -23 loadbang;
#X obj 99 610 outlet;
#X obj 78 -76 inlet;
#X msg 172 504 send /wac.lp/0/3/led \$1 6 0 0;
#X msg 97 547 send /wac.lp/0/3/led \$1 6 3 3;
#X msg -75 240 3;
#X connect 0 0 5 0;
#X connect 1 0 2 0;
#X connect 2 0 4 0;
#X connect 2 0 6 0;
#X connect 3 0 2 1;
#X connect 4 0 2 1;
#X connect 5 0 7 0;
#X connect 5 0 11 0;
#X connect 6 0 34 0;
#X connect 7 0 35 0;
#X connect 8 0 6 1;
#X connect 8 0 7 1;
#X connect 9 0 1 0;
#X connect 10 0 0 0;
#X connect 11 0 5 1;
#X connect 12 0 15 0;
#X connect 12 1 9 0;
#X connect 12 2 3 0;
#X connect 13 0 36 0;
#X connect 13 1 10 1;
#X connect 13 2 16 0;
#X connect 14 0 20 0;
#X connect 15 0 13 0;
#X connect 15 1 26 0;
#X connect 16 0 5 1;
#X connect 17 0 19 1;
#X connect 18 0 17 0;
#X connect 19 0 30 0;
#X connect 20 0 19 0;
#X connect 22 0 23 0;
#X connect 23 0 25 0;
#X connect 23 0 7 0;
#X connect 23 0 27 0;
#X connect 24 0 23 1;
#X connect 25 0 23 1;
#X connect 26 0 29 0;
#X connect 26 1 24 0;
#X connect 29 0 22 0;
#X connect 29 0 28 0;
#X connect 30 0 12 0;
#X connect 31 0 18 0;
#X connect 33 0 14 0;
#X connect 34 0 32 0;
#X connect 35 0 32 0;
#X connect 36 0 10 0;
#X restore 829 -50 pd setstatus;
#X obj 292 -94 route speed1 speed2 speed3 speed4 speed5 speed6 speed7
speed8;
#N canvas 702 75 537 715 setstatus 0;
#X obj -32 314 until;
#X obj 174 398 until;
#X obj 174 428 f;
#X msg 229 381 0;
#X obj 213 430 + 1;
#X obj -32 381 f;
#X obj 174 475 pack f f;
#X obj 99 500 pack f f;
#X obj 219 352 - 1;
#X msg 176 372 8;
#X obj -34 281 -;
#X obj 0 381 - 1;
#X obj 78 132 t f b b;
#X obj -42 214 t b f b;
#X obj 78 -55 * 4;
#X obj 78 178 moses 3;
#X msg -15 358 2;
#X obj 93 31 log;
#X msg 93 6 2;
#X obj 78 54 /;
#X obj 78 -23 log;
#X text 133 7 Log with the base of 2 to get the exponent;
#X obj 62 320 until;
#X obj 62 387 f;
#X msg 79 364 2;
#X obj 94 387 + 1;
#X obj 52 220 t f b;
#X floatatom 107 427 5 0 0 0 - - -;
#X floatatom 105 304 5 0 0 0 - - -;
#X obj 60 287 - 1;
#X obj 78 89 moses 8;
#X obj 117 -23 loadbang;
#X obj 99 610 outlet;
#X obj 78 -76 inlet;
#X msg 172 504 send /wac.lp/0/3/led \$1 7 0 0;
#X msg 97 547 send /wac.lp/0/3/led \$1 7 3 3;
#X msg -53 243 3;
#X connect 0 0 5 0;
#X connect 1 0 2 0;
#X connect 2 0 4 0;
#X connect 2 0 6 0;
#X connect 3 0 2 1;
#X connect 4 0 2 1;
#X connect 5 0 7 0;
#X connect 5 0 11 0;
#X connect 6 0 34 0;
#X connect 7 0 35 0;
#X connect 8 0 6 1;
#X connect 8 0 7 1;
#X connect 9 0 1 0;
#X connect 10 0 0 0;
#X connect 11 0 5 1;
#X connect 12 0 15 0;
#X connect 12 1 9 0;
#X connect 12 2 3 0;
#X connect 13 0 36 0;
#X connect 13 1 10 1;
#X connect 13 2 16 0;
#X connect 14 0 20 0;
#X connect 15 0 13 0;
#X connect 15 1 26 0;
#X connect 16 0 5 1;
#X connect 17 0 19 1;
#X connect 18 0 17 0;
#X connect 19 0 30 0;
#X connect 20 0 19 0;
#X connect 22 0 23 0;
#X connect 23 0 25 0;
#X connect 23 0 7 0;
#X connect 23 0 27 0;
#X connect 24 0 23 1;
#X connect 25 0 23 1;
#X connect 26 0 29 0;
#X connect 26 1 24 0;
#X connect 29 0 22 0;
#X connect 29 0 28 0;
#X connect 30 0 12 0;
#X connect 31 0 18 0;
#X connect 33 0 14 0;
#X connect 34 0 32 0;
#X connect 35 0 32 0;
#X connect 36 0 10 0;
#X restore 917 -51 pd setstatus;
#X floatatom 278 -37 5 0 0 0 - - -;
#X connect 0 0 45 0;
#X connect 2 0 7 0;
#X connect 3 0 4 0;
#X connect 4 0 6 0;
#X connect 4 0 8 0;
#X connect 5 0 4 1;
#X connect 6 0 4 1;
#X connect 7 0 9 0;
#X connect 7 0 16 0;
#X connect 8 0 10 0;
#X connect 9 0 13 0;
#X connect 10 0 1 0;
#X connect 11 0 8 1;
#X connect 11 0 9 1;
#X connect 12 0 3 0;
#X connect 13 0 1 0;
#X connect 14 0 19 0;
#X connect 14 1 11 0;
#X connect 15 0 2 0;
#X connect 16 0 7 1;
#X connect 17 0 20 0;
#X connect 17 1 12 0;
#X connect 17 2 5 0;
#X connect 18 0 27 0;
#X connect 18 1 15 1;
#X connect 18 2 21 0;
#X connect 19 0 25 0;
#X connect 20 0 18 0;
#X connect 20 1 32 0;
#X connect 21 0 7 1;
#X connect 22 0 24 1;
#X connect 23 0 22 0;
#X connect 24 0 36 0;
#X connect 25 0 24 0;
#X connect 27 0 15 0;
#X connect 28 0 29 0;
#X connect 29 0 31 0;
#X connect 29 0 9 0;
#X connect 29 0 33 0;
#X connect 30 0 29 1;
#X connect 31 0 29 1;
#X connect 32 0 35 0;
#X connect 32 1 30 0;
#X connect 35 0 28 0;
#X connect 35 0 34 0;
#X connect 36 0 17 0;
#X connect 37 0 23 0;
#X connect 38 0 1 0;
#X connect 39 0 1 0;
#X connect 40 0 1 0;
#X connect 41 0 1 0;
#X connect 42 0 1 0;
#X connect 43 0 1 0;
#X connect 44 0 1 0;
#X connect 45 0 38 0;
#X connect 45 0 47 0;
#X connect 45 1 39 0;
#X connect 45 2 40 0;
#X connect 45 3 41 0;
#X connect 45 4 42 0;
#X connect 45 5 43 0;
#X connect 45 6 44 0;
#X connect 45 7 46 0;
#X connect 46 0 1 0;
#X restore 504 249 pd speedled;
#X msg 257 155 1;
#X msg 294 158 0;
#X msg 377 166 1;
#X obj 257 109 sel 9 3 4;
#X obj 377 85 sel 0 1;
#X msg 462 140 0;
#X msg 414 152 2;
#X obj 373 10 r mode;
#X obj 375 41 t f b;
#X connect 1 0 5 1;
#X connect 1 0 6 1;
#X connect 2 0 0 0;
#X connect 3 0 6 1;
#X connect 4 0 0 0;
#X connect 5 0 2 0;
#X connect 6 0 4 0;
#X connect 6 1 7 0;
#X connect 7 0 0 0;
#X connect 8 0 5 0;
#X connect 9 0 5 0;
#X connect 10 0 6 0;
#X connect 11 0 8 0;
#X connect 11 1 8 0;
#X connect 11 2 8 0;
#X connect 11 3 9 0;
#X connect 12 0 10 0;
#X connect 12 1 14 0;
#X connect 12 2 13 0;
#X connect 13 0 6 0;
#X connect 14 0 6 0;
#X connect 15 0 16 0;
#X connect 16 0 12 0;
#X connect 16 0 11 0;
#X restore 108 150 pd ledindex;
#X msg 108 101 reset;
#X obj 373 78 s quantization;
#X msg 373 42 0;
#X msg 404 42 16;
#X msg 434 42 8;
#X msg 464 42 4;
#N canvas 683 0 675 694 settempo 1;
#X obj 32 89 inlet;
#X obj 32 111 route length;
#X obj 32 226 /;
#X obj 162 159 /;
#X floatatom 187 234 5 0 0 0 - - -;
#X floatatom 92 294 5 0 0 0 - - -;
#X obj 32 337 /;
#X msg 32 303 60000;
#X obj 32 265 t b f;
#X floatatom 122 93 5 0 0 0 Beats - -;
#X obj 122 185 *;
#X msg 162 135 4;
#X obj 162 112 t b f;
#X obj 122 210 *;
#X floatatom 177 194 5 0 0 0 Bars - -;
#X floatatom 187 92 5 0 0 0 Unit - -;
#X obj 131 60 unpack f f f;
#X obj 75 393 f;
#X obj 131 26 inlet;
#X obj 75 336 inlet;
#X obj 152 472 s globalTempo;
#X obj 75 472 s transport;
#X obj 75 413 t b f;
#X msg 75 441 1;
#X floatatom 187 428 5 0 0 0 - - -;
#X floatatom 136 250 5 0 0 0 - - -;
#X obj 32 190 f;
#X obj 43 158 t b f;
#X floatatom 83 222 5 0 0 0 - - -;
#X floatatom 198 273 5 0 0 0 - - -;
#X floatatom -97 179 5 0 0 0 - - -;
#X connect 0 0 1 0;
#X connect 1 0 26 0;
#X connect 1 0 30 0;
#X connect 2 0 8 0;
#X connect 3 0 10 1;
#X connect 5 0 6 1;
#X connect 6 0 17 1;
#X connect 7 0 6 0;
#X connect 8 0 7 0;
#X connect 8 1 5 0;
#X connect 9 0 10 0;
#X connect 10 0 13 0;
#X connect 11 0 3 0;
#X connect 12 0 11 0;
#X connect 12 1 3 1;
#X connect 13 0 27 0;
#X connect 13 0 29 0;
#X connect 14 0 13 1;
#X connect 15 0 12 0;
#X connect 16 0 9 0;
#X connect 16 1 15 0;
#X connect 16 2 14 0;
#X connect 17 0 22 0;
#X connect 18 0 16 0;
#X connect 19 0 17 0;
#X connect 22 0 23 0;
#X connect 22 1 20 0;
#X connect 22 1 24 0;
#X connect 23 0 21 0;
#X connect 26 0 2 0;
#X connect 26 0 28 0;
#X connect 27 0 26 0;
#X connect 27 1 2 1;
#X restore 212 318 pd settempo;
#X obj 243 214 bng 15 250 50 0 empty empty SetTempo_&_Play 17 7 0 10
-262144 -1 -1;
#X obj 275 294 pack f f f;
#X floatatom 275 257 5 0 0 2 Beats - -;
#X floatatom 310 257 5 0 0 2 Units - -;
#X floatatom 346 257 5 0 0 2 Bars - -;
#X msg 259 99 report;
#X obj 202 190 print;
#X obj 107 75 loadbang;
#X obj 374 6 loadbang;
#N canvas 1084 248 450 300 FCB1010 0;
#X obj 84 97 ctlin;
#X floatatom 45 145 5 0 0 0 - - -;
#X floatatom 91 143 5 0 0 0 - - -;
#X floatatom 140 148 5 0 0 0 - - -;
#X obj 91 196 outlet;
#X connect 0 0 1 0;
#X connect 0 1 2 0;
#X connect 0 2 3 0;
#X connect 2 0 4 0;
#X restore 462 129 pd FCB1010;
#X connect 0 0 2 0;
#X connect 0 1 4 0;
#X connect 0 1 11 0;
#X connect 1 0 0 0;
#X connect 3 0 4 1;
#X connect 3 0 0 1;
#X connect 5 0 0 1;
#X connect 7 0 6 0;
#X connect 8 0 6 0;
#X connect 9 0 6 0;
#X connect 10 0 6 0;
#X connect 12 0 11 1;
#X connect 13 0 11 2;
#X connect 14 0 13 0;
#X connect 15 0 13 1;
#X connect 16 0 13 2;
#X connect 17 0 0 1;
#X connect 19 0 5 0;
#X connect 20 0 7 0;
#X restore 513 124 pd bank3;
#X obj 62 301 catch~ masterMONO;
#X obj 175 344 s~ \$0-input;
#X obj 59 82 spigot;
#X obj 92 24 tgl 15 0 empty empty empty 17 7 0 10 -262144 -1 -1 0 1
;
#X obj 143 273 print OSCtoLaunchpad;
#X obj 143 254 spigot;
#X obj 176 229 tgl 15 0 empty empty empty 17 7 0 10 -262144 -1 -1 0
1;
#X obj 61 330 *~;
#X obj 101 351 tgl 15 0 empty empty empty 17 7 0 10 -262144 -1 -1 1
1;
#X text 573 126 Initit LEDs;
#X obj 514 83 lp_seq;
#X obj 101 322 r bypass;
#X obj 281 63 nbx 5 14 -1e+037 1e+037 0 0 globalTempo globalTempo BPM
0 -8 0 10 -262144 -1 -1 94.8251 256;
#N canvas 574 322 450 300 init 0;
#X obj 80 63 loadbang;
#X msg 80 89 \; globalTempo 120 \;;
#X connect 0 0 1 0;
#X restore 170 126 pd init;
#X obj 120 351 loadbang;
#X obj 176 305 adc~ 4;
#X obj 297 423 recorder;
#X connect 1 0 8 0;
#X connect 1 0 15 0;
#X connect 3 0 2 0;
#X connect 4 0 5 0;
#X connect 6 0 3 0;
#X connect 7 0 2 0;
#X connect 7 0 18 0;
#X connect 13 0 20 0;
#X connect 15 0 0 0;
#X connect 16 0 15 1;
#X connect 18 0 17 0;
#X connect 19 0 18 1;
#X connect 20 0 29 0;
#X connect 20 0 29 1;
#X connect 21 0 20 1;
#X connect 24 0 21 0;
#X connect 27 0 21 0;
#X connect 28 0 14 0;
