#N canvas 112 149 1122 817 10;
#X obj 59 102 print OSCdebug;
#X obj 59 62 netreceive 8195 1;
#X obj 59 260 netsend 1;
#X msg 59 204 connect localhost 8196;
#N canvas 1245 148 655 281 banks 0;
#X obj 59 99 prepend symbol;
#X msg 59 186 1;
#X msg 99 186 2;
#X obj 59 233 outlet;
#X obj 59 127 sel /wac.lp/0/1/bank /wac.lp/0/2/bank /wac.lp/0/3/bank
/wac.lp/0/4/bank /wac.lp/0/5/bank /wac.lp/0/6/bank /wac.lp/0/7/bank
/wac.lp/0/8/bank;
#X msg 139 186 3;
#X msg 183 186 4;
#X msg 223 186 5;
#X msg 258 186 6;
#X msg 295 186 7;
#X msg 334 186 8;
#X obj 334 233 s bank;
#X obj 59 59 r fromLaunchpad;
#X connect 0 0 4 0;
#X connect 1 0 3 0;
#X connect 1 0 11 0;
#X connect 2 0 3 0;
#X connect 2 0 11 0;
#X connect 4 0 1 0;
#X connect 4 1 2 0;
#X connect 4 2 5 0;
#X connect 4 3 6 0;
#X connect 4 4 7 0;
#X connect 4 5 8 0;
#X connect 4 6 9 0;
#X connect 4 7 10 0;
#X connect 5 0 3 0;
#X connect 5 0 11 0;
#X connect 6 0 3 0;
#X connect 6 0 11 0;
#X connect 7 0 3 0;
#X connect 7 0 11 0;
#X connect 8 0 3 0;
#X connect 8 0 11 0;
#X connect 9 0 3 0;
#X connect 9 0 11 0;
#X connect 10 0 3 0;
#X connect 10 0 11 0;
#X connect 12 0 0 0;
#X restore 59 127 pd banks;
#X floatatom 59 149 5 0 0 1 Current_Bank - -;
#N canvas 0 0 952 704 bank1 1;
#N canvas 849 369 533 421 indexdriver 1;
#X obj 69 172 s toLaunchpad;
#X obj 69 -28 counter;
#X msg 269 141 send /wac.lp/0/1/led \$1 7 0 0;
#X msg 69 142 send /wac.lp/0/1/led \$1 7 1 1;
#X obj 269 113 f;
#X obj 69 -4 % 8;
#X text 159 -127 Step Index LED;
#X obj 7 111 s seq-pos;
#X obj 69 15 t f b;
#X obj 169 -21 r seqlength;
#X obj 69 -69 r globalMetro16;
#X connect 1 0 5 0;
#X connect 2 0 0 0;
#X connect 3 0 0 0;
#X connect 4 0 2 0;
#X connect 5 0 7 0;
#X connect 5 0 8 0;
#X connect 8 0 4 1;
#X connect 8 0 3 0;
#X connect 8 1 4 0;
#X connect 9 0 5 1;
#X connect 10 0 1 0;
#X restore -194 -90 pd indexdriver;
#N canvas 106 314 1590 704 setsteps 1;
#X obj 204 129 route /wac.lp/0/1/press;
#X obj 204 196 unpack f f f;
#X obj 204 496 pack f f f;
#X obj 261 475 * 3;
#X obj 141 576 s toLaunchpad;
#X msg 23 492 green;
#X msg 92 492 red;
#X msg 126 493 orange;
#X obj 204 98 r fromLaunchpad;
#X obj 311 435 f;
#X obj 23 469 loadbang;
#X floatatom 404 379 5 0 0 0 - - -;
#X obj 404 403 tgl 15 0 empty empty empty 17 7 0 10 -262144 -1 -1 1
1;
#X obj 311 460 tgl 15 0 empty empty empty 17 7 0 10 -262144 -1 -1 1
1;
#X obj 311 331 t b b f f;
#X obj 311 299 spigot;
#N canvas 792 395 883 447 ledcolor 0;
#X msg 181 356 send /wac.lp/0/1/led \$1 \$2 \$3;
#X obj 181 325 gate 3;
#X obj 93 251 sel green red orange;
#X msg 93 282 1;
#X msg 93 301 2;
#X msg 93 320 3;
#X obj 93 227 prepend symbol;
#X msg 364 356 send /wac.lp/0/1/led \$1 \$2 0 \$3;
#X msg 569 356 send /wac.lp/0/1/led \$1 \$2 \$3 \$3;
#X obj 93 202 inlet;
#X obj 258 221 inlet;
#X obj 181 413 outlet;
#X connect 0 0 11 0;
#X connect 1 0 0 0;
#X connect 1 1 7 0;
#X connect 1 2 8 0;
#X connect 2 0 3 0;
#X connect 2 1 4 0;
#X connect 2 2 5 0;
#X connect 3 0 1 0;
#X connect 4 0 1 0;
#X connect 5 0 1 0;
#X connect 6 0 2 0;
#X connect 7 0 11 0;
#X connect 8 0 11 0;
#X connect 9 0 6 0;
#X connect 10 0 1 1;
#X restore 141 539 pd ledcolor;
#N canvas 385 8 885 694 fawe 0;
#N canvas 0 0 450 300 (subpatch) 0;
#X array \$0-seq0 16 float 3;
#A 0 0 0 0 0 0 0 0 0 0 0 0 0 0 0 0 0;
#X coords 0 1 16 -1 200 140 1 0 0;
#X restore -101 28 graph;
#N canvas 0 0 450 300 (subpatch) 0;
#X array \$0-seq1 16 float 3;
#A 0 0 0 1 1 0 1 0 1 0 1 1 0 0 0 1 1;
#X coords 0 1 16 -1 200 140 1 0 0;
#X restore -102 196 graph;
#N canvas 0 0 450 300 (subpatch) 0;
#X array \$0-seq2 16 float 3;
#A 0 0 1 0 0 1 0 1 1 0 0 0 0 1 1 0 0;
#X coords 0 1 16 -1 200 140 1 0 0;
#X restore -100 356 graph;
#N canvas 0 0 450 300 (subpatch) 0;
#X array \$0-seq3 16 float 3;
#A 0 0 0 1 0 0 1 1 0 0 1 0 0 0 1 0 0;
#X coords 0 1 16 -1 200 140 1 0 0;
#X restore -100 515 graph;
#N canvas 0 0 450 300 (subpatch) 0;
#X array \$0-seq4 16 float 3;
#A 0 0 0 0 0 0 0 0 0 0 0 0 0 0 0 0 0;
#X coords 0 1 16 -1 200 140 1 0 0;
#X restore 115 28 graph;
#N canvas 0 0 450 300 (subpatch) 0;
#X array \$0-seq5 16 float 3;
#A 0 0 0 0 0 0 0 0 0 0 0 0 0 0 0 0 0;
#X coords 0 1 16 -1 200 140 1 0 0;
#X restore 114 196 graph;
#N canvas 0 0 450 300 (subpatch) 0;
#X array \$0-seq6 16 float 3;
#A 0 0 0 0 0 0 0 0 0 0 0 0 0 0 0 0 0;
#X coords 0 1 16 -1 200 140 1 0 0;
#X restore 116 356 graph;
#N canvas 0 0 450 300 (subpatch) 0;
#X array \$0-seq7 16 float 3;
#A 0 0 0 0 0 0 0 0 0 0 0 0 0 0 0 0 0;
#X coords 0 1 16 -1 200 140 1 0 0;
#X restore 116 515 graph;
#X msg 381 143 \; \$2-seq0 resize \$1 \; \$2-seq1 resize \$1 \; \$2-seq2
resize \$1 \; \$2-seq3 resize \$1 \; \$2-seq4 resize \$1 \; \$2-seq5
resize \$1 \; \$2-seq6 resize \$1 \; \$2-seq7 resize \$1 \;;
#X msg 593 143 \; \$1-seq0 const 0 \; \$1-seq1 const 0 \; \$1-seq2
const 0 \; \$1-seq3 const 0 \; \$1-seq4 const 0 \; \$1-seq5 const 0
\; \$1-seq6 const 0 \; \$1-seq7 const 0 \;;
#X obj 593 107 \$0;
#X obj 381 106 pack f \$0;
#X obj 381 60 inlet;
#X obj 593 59 inlet;
#X connect 10 0 9 0;
#X connect 11 0 8 0;
#X connect 12 0 11 0;
#X connect 13 0 10 0;
#X restore 749 416 pd fawe;
#X msg 385 308 set \$2-seq\$1;
#X msg 412 287 set \$2-seq\$1;
#X obj 404 348 tabread;
#X obj 311 494 tabwrite;
#X obj 385 223 pack f \$0;
#X msg 788 363 clear;
#X obj 788 386 t b;
#X floatatom 749 341 5 0 0 0 - - -;
#X obj 275 275 + 8;
#X msg 361 192 0;
#X msg 394 192 8;
#X obj 385 253 t l l;
#X msg 587 474 send /wac.lp/0/1/clear;
#N canvas 960 0 952 1006 tabledump 0;
#X obj 30 154 f;
#X obj 89 154 + 1;
#X obj 41 366 until;
#X obj 41 419 f;
#X obj 111 420 + 1;
#X msg 41 322 8;
#X obj 55 565 tabread;
#X obj 135 669 pack f f f;
#X obj 91 859 outlet;
#X msg 125 322 set \$2-seq\$1;
#X obj 125 296 pack f \$0;
#X obj 162 560 t f f;
#X msg 108 796 send /wac.lp/0/1/led \$3 \$2 \$1;
#X msg 60 11 8;
#X msg 29 10 0;
#X obj 29 -45 inlet;
#X obj 29 37 t b f b;
#X msg 69 111 0;
#X obj 232 425 sel 1;
#X obj 41 254 spigot;
#X obj 146 232 == 0;
#X obj 42 216 t f f;
#X obj 146 202 >= 8;
#X obj 41 292 t b f b;
#X obj 80 384 f;
#X obj 237 392 >= 8;
#X obj 195 188 + 7;
#X obj 192 630 % 8;
#X obj 29 -23 sel 0 8;
#X connect 0 0 1 0;
#X connect 0 0 21 0;
#X connect 1 0 0 1;
#X connect 2 0 3 0;
#X connect 3 0 4 0;
#X connect 3 0 11 0;
#X connect 3 0 25 0;
#X connect 4 0 3 1;
#X connect 5 0 2 0;
#X connect 6 0 7 0;
#X connect 7 0 12 0;
#X connect 9 0 6 0;
#X connect 10 0 9 0;
#X connect 11 0 6 0;
#X connect 11 1 27 0;
#X connect 12 0 8 0;
#X connect 13 0 16 0;
#X connect 14 0 16 0;
#X connect 15 0 28 0;
#X connect 16 0 0 0;
#X connect 16 1 24 1;
#X connect 16 1 26 0;
#X connect 16 2 17 0;
#X connect 17 0 0 1;
#X connect 18 0 0 0;
#X connect 19 0 23 0;
#X connect 20 0 19 1;
#X connect 21 0 19 0;
#X connect 21 1 22 0;
#X connect 22 0 20 0;
#X connect 23 0 5 0;
#X connect 23 1 10 0;
#X connect 23 1 7 1;
#X connect 23 2 24 0;
#X connect 24 0 3 1;
#X connect 25 0 18 0;
#X connect 26 0 25 1;
#X connect 27 0 7 2;
#X connect 28 0 14 0;
#X connect 28 1 13 0;
#X restore 493 361 pd tabledump;
#N canvas 1159 129 718 300 modes 0;
#X obj -6 -94 inlet;
#X obj -6 -67 unpack f f f;
#X obj 364 126 sel 3;
#X obj 364 181 outlet;
#X obj 37 41 == 0;
#X obj -6 42 == 8;
#X obj -6 64 &&;
#X obj -6 91 sel 1;
#X obj 364 98 r bank;
#X obj 72 41 == 8;
#X obj 72 63 &&;
#X obj 72 90 sel 1;
#X obj 115 40 == 1;
#X obj 154 42 == 8;
#X obj 154 64 &&;
#X obj 154 91 sel 1;
#X msg 154 117 4;
#X obj 187 41 == 3;
#X obj 217 41 == 8;
#X obj 217 63 &&;
#X obj 217 90 sel 1;
#X obj 250 40 == 4;
#X msg 217 116 5;
#X msg 364 148 9;
#X msg -6 117 1;
#X msg 72 116 2;
#X connect 0 0 1 0;
#X connect 1 0 5 0;
#X connect 1 0 9 0;
#X connect 1 0 13 0;
#X connect 1 0 18 0;
#X connect 1 1 4 0;
#X connect 1 1 12 0;
#X connect 1 1 17 0;
#X connect 1 1 21 0;
#X connect 2 0 23 0;
#X connect 4 0 6 1;
#X connect 5 0 6 0;
#X connect 6 0 7 0;
#X connect 7 0 24 0;
#X connect 8 0 2 0;
#X connect 9 0 10 0;
#X connect 10 0 11 0;
#X connect 11 0 25 0;
#X connect 12 0 10 1;
#X connect 13 0 14 0;
#X connect 14 0 15 0;
#X connect 15 0 16 0;
#X connect 16 0 3 0;
#X connect 17 0 14 1;
#X connect 18 0 19 0;
#X connect 19 0 20 0;
#X connect 20 0 22 0;
#X connect 21 0 19 1;
#X connect 22 0 3 0;
#X connect 23 0 3 0;
#X connect 24 0 3 0;
#X connect 25 0 3 0;
#X restore 488 123 pd modes;
#N canvas 550 131 642 416 menuleds 0;
#X obj 54 -86 inlet;
#X obj 168 295 s toLaunchpad;
#X obj 54 -41 - 1;
#X obj 167 225 pack f f f;
#N canvas 529 169 450 300 colorbright 0;
#X obj 55 22 inlet;
#X obj 280 65 inlet;
#X obj 55 234 outlet;
#X obj 97 235 outlet;
#X obj 58 74 select red orange green;
#X msg 54 108 0 1;
#X msg 101 106 1 1;
#X msg 148 106 1 0;
#X obj 54 132 unpack;
#X obj 59 43 prepend symbol;
#X obj 55 185 * 1;
#X obj 93 188 * 1;
#X obj 280 93 t b f;
#X connect 0 0 9 0;
#X connect 1 0 12 0;
#X connect 4 0 5 0;
#X connect 4 1 6 0;
#X connect 4 2 7 0;
#X connect 5 0 8 0;
#X connect 6 0 8 0;
#X connect 7 0 8 0;
#X connect 8 0 10 0;
#X connect 8 1 11 0;
#X connect 9 0 4 0;
#X connect 10 0 2 0;
#X connect 11 0 3 0;
#X connect 12 0 10 0;
#X connect 12 0 11 0;
#X connect 12 1 10 1;
#X connect 12 1 11 1;
#X restore 226 197 pd colorbright;
#X msg 226 159 red;
#X msg 262 159 green;
#X msg 306 159 orange;
#X floatatom 356 159 5 0 0 0 - - -;
#X obj 189 83 sel 0 1 2 3 4;
#X obj 356 110 sel 1 0;
#X msg 177 0 0;
#X obj 357 83 tgl 15 0 empty empty empty 17 7 0 10 -262144 -1 -1 0
1;
#X msg 345 19 1;
#X obj 39 47 f;
#X floatatom 58 150 5 0 0 0 - - -;
#X obj 54 -61 change;
#X obj 167 43 t f f;
#X msg 356 134 3;
#X msg 391 135 1;
#X obj 54 -17 t f b f b;
#X msg 168 255 send /wac.lp/0/1/led 8 \$1 \$2 \$3;
#X connect 0 0 16 0;
#X connect 2 0 20 0;
#X connect 3 0 21 0;
#X connect 4 0 3 1;
#X connect 4 1 3 2;
#X connect 5 0 4 0;
#X connect 6 0 4 0;
#X connect 7 0 4 0;
#X connect 8 0 4 1;
#X connect 9 0 6 0;
#X connect 9 1 7 0;
#X connect 9 2 7 0;
#X connect 9 3 5 0;
#X connect 9 4 7 0;
#X connect 10 0 18 0;
#X connect 10 1 19 0;
#X connect 11 0 12 0;
#X connect 12 0 10 0;
#X connect 13 0 12 0;
#X connect 14 0 15 0;
#X connect 14 0 17 0;
#X connect 16 0 2 0;
#X connect 17 0 3 0;
#X connect 17 1 9 0;
#X connect 18 0 8 0;
#X connect 19 0 8 0;
#X connect 20 0 3 0;
#X connect 20 0 14 1;
#X connect 20 1 13 0;
#X connect 20 2 9 0;
#X connect 20 3 11 0;
#X connect 20 3 14 0;
#X connect 21 0 1 0;
#X restore 626 223 pd menuleds;
#X obj 480 163 sel 1 2;
#X obj 509 312 t f b;
#X text 841 125 CLEAN UP!!!!!;
#X floatatom 634 327 5 0 0 0 - - -;
#X floatatom 612 271 5 0 0 0 - - -;
#X obj 809 296 counter;
#X obj 812 255 t b;
#X floatatom 808 326 5 0 0 0 - - -;
#X obj 181 254 moses 8;
#X obj 517 413 print;
#X floatatom 564 163 5 0 0 0 - - -;
#X obj 664 413 s seqlength;
#X connect 0 0 1 0;
#X connect 0 0 32 0;
#X connect 1 0 42 0;
#X connect 1 1 2 1;
#X connect 1 1 22 0;
#X connect 1 2 15 1;
#X connect 2 0 16 1;
#X connect 3 0 2 2;
#X connect 5 0 16 0;
#X connect 6 0 16 0;
#X connect 7 0 16 0;
#X connect 8 0 0 0;
#X connect 9 0 13 0;
#X connect 10 0 5 0;
#X connect 11 0 12 0;
#X connect 12 0 9 1;
#X connect 13 0 3 0;
#X connect 13 0 21 0;
#X connect 14 0 9 0;
#X connect 14 1 12 0;
#X connect 14 2 21 1;
#X connect 14 3 20 0;
#X connect 15 0 14 0;
#X connect 16 0 4 0;
#X connect 18 0 21 0;
#X connect 19 0 20 0;
#X connect 20 0 11 0;
#X connect 22 0 29 0;
#X connect 23 0 24 0;
#X connect 24 0 17 1;
#X connect 25 0 17 0;
#X connect 25 0 45 0;
#X connect 26 0 15 0;
#X connect 26 0 38 0;
#X connect 27 0 26 1;
#X connect 27 0 35 0;
#X connect 28 0 26 1;
#X connect 28 0 35 0;
#X connect 29 0 18 0;
#X connect 29 1 19 0;
#X connect 30 0 4 0;
#X connect 31 0 4 0;
#X connect 31 0 43 0;
#X connect 32 0 34 0;
#X connect 32 0 44 0;
#X connect 34 0 27 0;
#X connect 34 1 28 0;
#X connect 35 0 31 0;
#X connect 35 0 37 0;
#X connect 35 1 30 0;
#X connect 38 0 40 0;
#X connect 39 0 41 0;
#X connect 40 0 39 0;
#X connect 42 0 26 0;
#X connect 42 0 2 0;
#X restore -194 -70 pd setsteps;
#N canvas 1332 162 450 300 readsteps 1;
#X floatatom -33 73 5 0 0 0 - - -;
#X obj -33 15 r seq-pos;
#X obj -33 105 sel 1;
#X obj -33 167 s_simpler;
#X floatatom 55 115 5 0 0 0 - - -;
#X obj 78 141 bng 15 250 50 0 empty empty empty 17 7 0 10 -262144 -1
-1;
#X obj 100 161 s_simpler;
#X obj 168 161 s_simpler;
#X floatatom 101 67 5 0 0 0 - - -;
#X obj 101 9 r seq-pos;
#X obj 101 99 sel 1;
#X floatatom 204 66 5 0 0 0 - - -;
#X obj 204 8 r seq-pos;
#X obj 204 92 sel 1;
#X floatatom 123 128 5 0 0 0 - - -;
#X floatatom 194 127 5 0 0 0 - - -;
#X obj 265 130 bng 15 250 50 0 empty empty empty 17 7 0 10 -262144
-1 -1;
#X obj 167 100 bng 15 250 50 0 empty empty empty 17 7 0 10 -262144
-1 -1;
#X obj -32 242 throw~ masterMONO;
#X obj -33 46 tabread \$0-seq0;
#X obj 101 40 tabread \$0-seq1;
#X obj 204 39 tabread \$0-seq2;
#X obj 298 158 s_bd;
#X obj 316 13 r seq-pos;
#X obj 316 44 tabread \$0-seq3;
#X obj 334 80 sel 1;
#X connect 0 0 2 0;
#X connect 1 0 19 0;
#X connect 2 0 3 0;
#X connect 3 0 18 0;
#X connect 4 0 3 1;
#X connect 5 0 3 2;
#X connect 6 0 18 0;
#X connect 7 0 18 0;
#X connect 8 0 10 0;
#X connect 9 0 20 0;
#X connect 10 0 6 0;
#X connect 11 0 13 0;
#X connect 12 0 21 0;
#X connect 13 0 7 0;
#X connect 14 0 6 1;
#X connect 15 0 7 1;
#X connect 16 0 7 2;
#X connect 17 0 6 2;
#X connect 19 0 0 0;
#X connect 20 0 8 0;
#X connect 21 0 11 0;
#X connect 22 0 18 0;
#X connect 23 0 24 0;
#X connect 24 0 25 0;
#X connect 25 0 22 0;
#X restore -194 -50 pd readsteps;
#X restore 513 84 pd bank1;
#X obj 59 174 loadbang;
#X obj 70 234 r toLaunchpad;
#X obj 157 103 s fromLaunchpad;
#X obj 272 154 s globalTempo;
#X obj 272 127 bpm;
#X floatatom 272 107 5 0 0 0 - - -;
#N canvas 3286 1211 1920 1014 globalmetro 0;
#X obj 190 51 inlet;
#X obj 190 81 / 24;
#X floatatom 190 111 5 0 0 0 - - -;
#X obj 163 145 metro;
#X obj 163 117 tgl 15 0 empty empty empty 17 7 0 10 -262144 -1 -1 1
1;
#X obj 163 175 counter;
#X obj 243 214 % 24;
#X obj 243 244 sel 0;
#X obj 280 214 % 48;
#X obj 280 244 sel 0;
#X obj 320 244 sel 0;
#X obj 320 214 % 96;
#X obj 243 274 bng 15 250 50 0 empty empty empty 17 7 0 10 -262144
-1 -1;
#X obj 280 274 bng 15 250 50 0 empty empty empty 17 7 0 10 -262144
-1 -1;
#X obj 320 274 bng 15 250 50 0 empty empty empty 17 7 0 10 -262144
-1 -1;
#X obj 205 244 sel 0;
#X obj 205 214 % 12;
#X obj 167 244 sel 0;
#X obj 167 214 % 8;
#X obj 130 244 sel 0;
#X obj 130 214 % 4;
#X obj 130 274 bng 15 250 50 0 empty empty empty 17 7 0 10 -262144
-1 -1;
#X obj 167 274 bng 15 250 50 0 empty empty empty 17 7 0 10 -262144
-1 -1;
#X obj 205 274 bng 15 250 50 0 empty empty empty 17 7 0 10 -262144
-1 -1;
#X obj 90 244 sel 0;
#X obj 90 274 bng 15 250 50 0 empty empty empty 17 7 0 10 -262144 -1
-1;
#X obj 90 214 % 2;
#X obj 50 244 sel 0;
#X obj 50 274 bng 15 250 50 0 empty empty empty 17 7 0 10 -262144 -1
-1;
#X obj 50 214 % 1;
#X obj 320 304 s globalMetro1;
#X obj 280 337 s globalMetro2;
#X obj 243 358 s globalMetro4;
#X obj 205 379 s globalMetro8;
#X obj 167 401 s globalMetro16;
#X obj 130 422 s globalMetro32;
#X obj 90 444 s globalMetro64;
#X obj 50 466 s globalMetro96;
#X obj 106 82 r transport;
#X connect 0 0 1 0;
#X connect 1 0 2 0;
#X connect 2 0 3 1;
#X connect 3 0 5 0;
#X connect 4 0 3 0;
#X connect 5 0 6 0;
#X connect 5 0 8 0;
#X connect 5 0 11 0;
#X connect 5 0 18 0;
#X connect 5 0 20 0;
#X connect 5 0 16 0;
#X connect 5 0 26 0;
#X connect 5 0 29 0;
#X connect 6 0 7 0;
#X connect 7 0 12 0;
#X connect 8 0 9 0;
#X connect 9 0 13 0;
#X connect 10 0 14 0;
#X connect 11 0 10 0;
#X connect 12 0 32 0;
#X connect 13 0 31 0;
#X connect 14 0 30 0;
#X connect 15 0 23 0;
#X connect 16 0 15 0;
#X connect 17 0 22 0;
#X connect 18 0 17 0;
#X connect 19 0 21 0;
#X connect 20 0 19 0;
#X connect 21 0 35 0;
#X connect 22 0 34 0;
#X connect 23 0 33 0;
#X connect 24 0 25 0;
#X connect 25 0 36 0;
#X connect 26 0 24 0;
#X connect 27 0 28 0;
#X connect 28 0 37 0;
#X connect 29 0 27 0;
#X connect 38 0 4 0;
#X restore 359 155 pd globalmetro;
#X obj 272 64 loadbang;
#X msg 272 86 120;
#X obj 330 63 s transport;
#X obj 330 41 tgl 15 0 empty empty empty 17 7 0 10 -262144 -1 -1 1
1;
#N canvas 540 289 450 300 bank2 0;
#N canvas 112 119 862 437 loopstep 0;
#X obj 22 44 route /wac.lp/0/2/press;
#X obj 22 71 unpack f f f;
#N canvas 655 246 1220 670 loopplayer 0;
#N canvas 0 0 450 300 (subpatch) 0;
#X array \$0-low 151200 float 2;
#X coords 0 1 151200 -1 200 140 1 0 0;
#X restore 963 306 graph;
#X obj 642 301 soundfiler;
#X obj 642 225 openpanel;
#X obj 642 199 bng 15 250 50 0 empty empty empty 17 7 0 10 -262144
-1 -1;
#X floatatom 642 348 5 0 0 0 - - -;
#X obj 642 326 / 44.1;
#X obj 786 239 r globalTempo;
#X floatatom 786 303 5 0 0 0 - - -;
#X obj 786 272 * 4;
#X obj 786 330 *;
#X floatatom 787 162 5 0 0 0 Length_in_Bars - -;
#X obj 836 314 t b f;
#X floatatom 786 362 8 0 0 0 - - -;
#X obj 642 424 /;
#X obj 642 383 t b f;
#X floatatom 639 458 5 0 0 0 - - -;
#X obj 598 536 *;
#X obj 639 500 t b f;
#X floatatom 598 567 8 0 0 0 - - -;
#X obj 622 732 phasor~;
#X obj 613 682 /;
#X obj 593 645 t b f;
#X msg 582 673 1;
#X floatatom 616 706 5 0 0 0 - - -;
#X obj 605 601 / 1000;
#X obj 666 755 r samples;
#X obj 704 377 s samples;
#X obj 623 779 *~;
#X obj 469 275 f;
#X obj 469 243 spigot;
#X obj 516 209 tgl 15 0 empty empty empty 17 7 0 10 -262144 -1 -1 0
1;
#X obj 585 175 t b f;
#X obj 469 312 t b f;
#X msg 516 159 1;
#X obj 645 25 1;
#X obj 650 57 / 16;
#X floatatom 650 82 5 0 0 0 - - -;
#X floatatom 645 -22 5 0 0 0 - - -;
#X obj 645 0 t b f;
#X obj 635 103 *;
#X floatatom 639 133 5 0 0 0 - - -;
#X obj 787 216 s bars;
#X obj 836 288 r bars;
#X obj 806 187 inlet bars;
#X obj 673 174 inlet read;
#X obj 647 852 outlet~;
#X obj 501 18 inlet juggle;
#X obj 743 782 *~ 8;
#X obj 762 857 i;
#X obj 744 810 u_snapshot~;
#X obj 762 914 outlet;
#X obj 762 883 change;
#X obj 645 -74 loadbang;
#X msg 646 -45 8;
#X obj 303 194 r globalMetro8;
#X obj 743 650 r transport;
#X msg 753 701 0;
#X obj 750 673 sel 1 0;
#X obj 622 811 tabread4~ \$0-low;
#X obj 642 251 pack s \$0;
#X msg 642 278 read -resize \$1 \$2-low;
#X connect 1 0 5 0;
#X connect 1 0 26 0;
#X connect 2 0 59 0;
#X connect 3 0 2 0;
#X connect 4 0 14 0;
#X connect 4 0 16 0;
#X connect 5 0 4 0;
#X connect 6 0 8 0;
#X connect 7 0 9 0;
#X connect 8 0 7 0;
#X connect 9 0 12 0;
#X connect 10 0 41 0;
#X connect 11 0 9 0;
#X connect 11 1 9 1;
#X connect 12 0 13 0;
#X connect 13 0 15 0;
#X connect 14 0 13 0;
#X connect 14 1 13 1;
#X connect 15 0 17 0;
#X connect 16 0 18 0;
#X connect 17 0 16 0;
#X connect 17 1 16 1;
#X connect 18 0 24 0;
#X connect 19 0 27 0;
#X connect 19 0 47 0;
#X connect 20 0 23 0;
#X connect 21 0 22 0;
#X connect 21 1 20 1;
#X connect 22 0 20 0;
#X connect 23 0 19 0;
#X connect 24 0 21 0;
#X connect 25 0 27 1;
#X connect 27 0 58 0;
#X connect 28 0 32 0;
#X connect 29 0 28 0;
#X connect 30 0 29 1;
#X connect 31 0 33 0;
#X connect 31 1 28 1;
#X connect 32 0 30 0;
#X connect 32 1 19 1;
#X connect 33 0 30 0;
#X connect 34 0 35 0;
#X connect 35 0 36 0;
#X connect 36 0 39 1;
#X connect 37 0 38 0;
#X connect 38 0 34 0;
#X connect 38 1 35 1;
#X connect 39 0 31 0;
#X connect 39 0 40 0;
#X connect 42 0 11 0;
#X connect 43 0 41 0;
#X connect 44 0 2 0;
#X connect 46 0 39 0;
#X connect 47 0 49 0;
#X connect 48 0 51 0;
#X connect 49 1 48 0;
#X connect 51 0 50 0;
#X connect 52 0 53 0;
#X connect 53 0 37 0;
#X connect 54 0 29 0;
#X connect 55 0 57 0;
#X connect 56 0 19 0;
#X connect 57 0 23 0;
#X connect 57 1 56 0;
#X connect 58 0 45 0;
#X connect 59 0 60 0;
#X connect 60 0 1 0;
#X restore 169 184 pd loopplayer;
#X floatatom 22 104 5 0 0 0 - - -;
#X obj 22 18 r fromLaunchpad;
#N canvas 0 94 883 447 ledcolor 0;
#X obj 181 325 gate 3;
#X obj 93 251 sel green red orange;
#X msg 93 282 1;
#X msg 93 301 2;
#X msg 93 320 3;
#X obj 93 227 prepend symbol;
#X obj 93 202 inlet;
#X obj 258 221 inlet;
#X obj 181 413 outlet;
#X msg 364 356 send /wac.lp/0/2/led \$1 \$2 0 \$3;
#X msg 569 356 send /wac.lp/0/2/led \$1 \$2 \$3 \$3;
#X msg 181 356 send /wac.lp/0/2/led \$1 \$2 \$3;
#X connect 0 0 11 0;
#X connect 0 1 9 0;
#X connect 0 2 10 0;
#X connect 1 0 2 0;
#X connect 1 1 3 0;
#X connect 1 2 4 0;
#X connect 2 0 0 0;
#X connect 3 0 0 0;
#X connect 4 0 0 0;
#X connect 5 0 1 0;
#X connect 6 0 5 0;
#X connect 7 0 0 1;
#X connect 9 0 8 0;
#X connect 10 0 8 0;
#X connect 11 0 8 0;
#X restore 13 213 pd ledcolor;
#X obj 76 149 pack f f f;
#X obj 15 281 s toLaunchpad;
#X msg -58 181 green;
#N canvas 0 0 1920 1014 ledindex 0;
#X obj 294 351 s toLaunchpad;
#X obj 491 257 f;
#X msg 294 324 send /wac.lp/0/2/led \$1 7 1 1;
#X msg 494 324 send /wac.lp/0/2/led \$1 7 0 0;
#X obj 294 203 t f b;
#X obj 294 173 inlet;
#X connect 1 0 3 0;
#X connect 2 0 0 0;
#X connect 3 0 0 0;
#X connect 4 0 2 0;
#X connect 4 0 1 1;
#X connect 4 1 1 0;
#X connect 5 0 4 0;
#X restore 244 207 pd ledindex;
#X obj 197 68 spigot;
#X obj 152 115 == 7;
#X obj 169 160 spigot;
#X obj 168 233 throw~ masterMONO;
#X connect 0 0 1 0;
#X connect 1 0 3 0;
#X connect 1 1 6 1;
#X connect 1 1 11 0;
#X connect 1 2 6 2;
#X connect 2 0 13 0;
#X connect 2 1 9 0;
#X connect 3 0 6 0;
#X connect 3 0 12 0;
#X connect 4 0 0 0;
#X connect 5 0 7 0;
#X connect 6 0 5 1;
#X connect 8 0 5 0;
#X connect 11 0 12 1;
#X connect 12 0 2 0;
#X restore -194 -47 pd loopstep;
#X restore 513 104 pd bank2;
#N canvas 149 127 645 426 bank3 1;
#X obj 45 128 Loopstation;
#X obj 46 34 r~ \$0-input;
#X obj 44 180 throw~ masterMONO;
#N canvas 326 176 829 300 control 1;
#X obj 143 32 r fromLaunchpad;
#X obj 143 53 route /wac.lp/0/3/press;
#N canvas 524 158 450 686 rec 1;
#X obj 131 120 unpack f f f;
#X obj 232 197 sel 1;
#X obj 232 252 tgl 15 0 empty empty empty 17 7 0 10 -262144 -1 -1 0
1;
#X obj 217 286 f;
#X obj 178 473 outlet;
#X obj 170 196 + 1;
#X obj 131 88 inlet;
#X msg 217 335 rec \$1;
#X msg 178 374 buffer \$1;
#X floatatom 86 188 5 0 0 0 - - -;
#X obj 88 161 >= 8;
#X obj 106 259 sel 1;
#X obj 90 213 == 0;
#X connect 0 0 10 0;
#X connect 0 1 5 0;
#X connect 0 2 1 0;
#X connect 1 0 2 0;
#X connect 2 0 3 1;
#X connect 3 0 7 0;
#X connect 5 0 8 0;
#X connect 6 0 0 0;
#X connect 7 0 4 0;
#X connect 8 0 4 0;
#X connect 9 0 12 0;
#X connect 10 0 9 0;
#X connect 11 0 3 0;
#X connect 12 0 11 0;
#X restore 215 247 pd rec;
#X obj 110 302 outlet;
#N canvas 1159 129 718 300 modes 1;
#X obj -6 -94 inlet;
#X obj -6 -67 unpack f f f;
#X obj 364 126 sel 3;
#X obj 364 181 outlet;
#X obj 37 41 == 0;
#X obj -6 42 == 8;
#X obj -6 64 &&;
#X obj -6 91 sel 1;
#X obj 364 98 r bank;
#X obj 72 41 == 8;
#X obj 72 63 &&;
#X obj 72 90 sel 1;
#X obj 115 40 == 1;
#X obj 154 42 == 8;
#X obj 154 64 &&;
#X obj 154 91 sel 1;
#X obj 187 41 == 3;
#X obj 217 41 == 8;
#X obj 217 63 &&;
#X obj 217 90 sel 1;
#X obj 250 40 == 4;
#X msg 364 148 9;
#X msg -6 117 0;
#X msg 72 116 1;
#X msg 154 117 3;
#X msg 217 116 4;
#X connect 0 0 1 0;
#X connect 1 0 5 0;
#X connect 1 0 9 0;
#X connect 1 0 13 0;
#X connect 1 0 17 0;
#X connect 1 1 4 0;
#X connect 1 1 12 0;
#X connect 1 1 16 0;
#X connect 1 1 20 0;
#X connect 2 0 21 0;
#X connect 4 0 6 1;
#X connect 5 0 6 0;
#X connect 6 0 7 0;
#X connect 7 0 22 0;
#X connect 8 0 2 0;
#X connect 9 0 10 0;
#X connect 10 0 11 0;
#X connect 11 0 23 0;
#X connect 12 0 10 1;
#X connect 13 0 14 0;
#X connect 14 0 15 0;
#X connect 15 0 24 0;
#X connect 16 0 14 1;
#X connect 17 0 18 0;
#X connect 18 0 19 0;
#X connect 19 0 25 0;
#X connect 20 0 18 1;
#X connect 21 0 3 0;
#X connect 22 0 3 0;
#X connect 23 0 3 0;
#X connect 24 0 3 0;
#X connect 25 0 3 0;
#X restore 170 125 pd modes;
#X text 339 75 Launchpad Toggle and order forcing and switchin modes
;
#N canvas 1140 493 450 686 vol 0;
#X obj 131 120 unpack f f f;
#X obj 131 331 outlet;
#X obj 165 191 + 1;
#X obj 131 88 inlet;
#X msg 165 216 buffer \$1;
#X msg 131 241 vol \$1;
#X obj 131 173 / 8;
#X obj 131 151 moses 8;
#X connect 0 0 7 0;
#X connect 0 1 2 0;
#X connect 2 0 4 0;
#X connect 3 0 0 0;
#X connect 4 0 1 0;
#X connect 5 0 1 0;
#X connect 6 0 5 0;
#X connect 7 0 6 0;
#X restore 110 247 pd vol;
#X obj 143 74 t l l;
#X obj 170 152 outlet;
#N canvas 149 90 719 686 speed 0;
#X obj 68 90 unpack f f f;
#X obj 50 389 outlet;
#X obj 165 191 + 1;
#X obj 68 58 inlet;
#X msg 165 216 buffer \$1;
#X obj 39 286 * 0.25;
#X obj 40 215 pow;
#X obj 32 150 t b f;
#X floatatom 39 265 5 0 0 0 - - -;
#X msg 46 340 speed \$1;
#X msg 32 181 2;
#X obj 68 136 moses 8;
#X connect 0 0 11 0;
#X connect 0 1 2 0;
#X connect 2 0 4 0;
#X connect 3 0 0 0;
#X connect 4 0 1 0;
#X connect 5 0 9 0;
#X connect 6 0 8 0;
#X connect 7 0 10 0;
#X connect 7 1 6 1;
#X connect 8 0 5 0;
#X connect 9 0 1 0;
#X connect 10 0 6 0;
#X connect 11 0 7 0;
#X restore 157 247 pd speed;
#N canvas 1263 474 450 300 overdub 1;
#X obj 75 41 inlet;
#X obj 82 261 outlet;
#X obj 75 75 unpack f f f;
#X obj 84 151 + 1;
#X msg 84 176 buffer \$1;
#X obj 158 187 f;
#X obj 126 111 sel 1;
#X obj 132 140 tgl 15 0 empty empty empty 17 7 0 10 -262144 -1 -1 0
1;
#X msg 140 219 ovd \$1;
#X floatatom -2 109 5 0 0 0 - - -;
#X obj 0 82 >= 8;
#X obj 18 180 sel 1;
#X obj 2 134 == 0;
#X obj 79 121 t f;
#X connect 0 0 2 0;
#X connect 2 0 10 0;
#X connect 2 1 13 0;
#X connect 2 2 6 0;
#X connect 3 0 4 0;
#X connect 4 0 1 0;
#X connect 5 0 8 0;
#X connect 6 0 7 0;
#X connect 7 0 5 1;
#X connect 8 0 1 0;
#X connect 9 0 12 0;
#X connect 10 0 9 0;
#X connect 11 0 5 0;
#X connect 12 0 11 0;
#X connect 13 0 3 0;
#X restore 259 247 pd overdub;
#N canvas 878 171 450 300 juggle 0;
#X obj 75 41 inlet;
#X obj 109 180 outlet;
#X obj 75 75 unpack f f f;
#X obj 109 98 + 1;
#X msg 109 123 buffer \$1;
#X obj 75 101 / 8;
#X msg 43 122 juggle \$1;
#X obj 149 148 spigot;
#X connect 0 0 2 0;
#X connect 2 0 5 0;
#X connect 2 1 3 0;
#X connect 2 2 7 1;
#X connect 3 0 4 0;
#X connect 4 0 1 0;
#X connect 5 0 6 0;
#X connect 6 0 7 0;
#X connect 7 0 1 0;
#X restore 328 248 pd juggle;
#X text 491 157 Ideas for Modes: Fine Pitch Mode \, Play Mode?;
#N canvas 550 131 642 416 menuleds 1;
#X obj 54 -86 inlet;
#X obj 199 309 s toLaunchpad;
#X obj 198 249 pack f f f;
#N canvas 529 169 450 300 colorbright 0;
#X obj 55 22 inlet;
#X obj 280 65 inlet;
#X obj 55 234 outlet;
#X obj 97 235 outlet;
#X obj 58 74 select red orange green;
#X msg 54 108 0 1;
#X msg 101 106 1 1;
#X msg 148 106 1 0;
#X obj 54 132 unpack;
#X obj 59 43 prepend symbol;
#X obj 55 185 * 1;
#X obj 93 188 * 1;
#X obj 280 93 t b f;
#X connect 0 0 9 0;
#X connect 1 0 12 0;
#X connect 4 0 5 0;
#X connect 4 1 6 0;
#X connect 4 2 7 0;
#X connect 5 0 8 0;
#X connect 6 0 8 0;
#X connect 7 0 8 0;
#X connect 8 0 10 0;
#X connect 8 1 11 0;
#X connect 9 0 4 0;
#X connect 10 0 2 0;
#X connect 11 0 3 0;
#X connect 12 0 10 0;
#X connect 12 0 11 0;
#X connect 12 1 10 1;
#X connect 12 1 11 1;
#X restore 226 197 pd colorbright;
#X msg 226 159 red;
#X msg 262 159 green;
#X msg 306 159 orange;
#X floatatom 356 159 5 0 0 0 - - -;
#X obj 189 83 sel 0 1 2 3 4;
#X obj 356 110 sel 1 0;
#X msg 177 0 0;
#X obj 357 83 tgl 15 0 empty empty empty 17 7 0 10 -262144 -1 -1 1
1;
#X msg 345 19 1;
#X msg 199 279 send /wac.lp/0/3/led 8 \$1 \$2 \$3;
#X obj 39 47 f;
#X floatatom 58 150 5 0 0 0 - - -;
#X obj 54 -61 change;
#X obj 167 43 t f f;
#X msg 356 134 3;
#X msg 391 135 1;
#X obj 54 -17 t f b f b;
#X connect 0 0 16 0;
#X connect 2 0 13 0;
#X connect 3 0 2 1;
#X connect 3 1 2 2;
#X connect 4 0 3 0;
#X connect 5 0 3 0;
#X connect 6 0 3 0;
#X connect 7 0 3 1;
#X connect 8 0 5 0;
#X connect 8 1 6 0;
#X connect 8 2 6 0;
#X connect 8 3 4 0;
#X connect 8 4 6 0;
#X connect 9 0 18 0;
#X connect 9 1 19 0;
#X connect 10 0 11 0;
#X connect 11 0 9 0;
#X connect 12 0 11 0;
#X connect 13 0 1 0;
#X connect 14 0 15 0;
#X connect 14 0 17 0;
#X connect 16 0 20 0;
#X connect 17 0 2 0;
#X connect 17 1 8 0;
#X connect 18 0 7 0;
#X connect 19 0 7 0;
#X connect 20 0 2 0;
#X connect 20 0 14 1;
#X connect 20 1 12 0;
#X connect 20 2 8 0;
#X connect 20 3 10 0;
#X connect 20 3 14 0;
#X restore 255 158 pd menuleds;
#X obj 110 190 gate 9 0 0 0 0 0 0;
#X obj 110 164 + 1;
#X floatatom 292 201 5 0 0 0 - - -;
#X connect 0 0 1 0;
#X connect 1 0 7 0;
#X connect 2 0 3 0;
#X connect 4 0 8 0;
#X connect 4 0 13 0;
#X connect 4 0 15 0;
#X connect 6 0 3 0;
#X connect 7 0 14 1;
#X connect 7 1 4 0;
#X connect 9 0 3 0;
#X connect 10 0 3 0;
#X connect 11 0 3 0;
#X connect 14 0 6 0;
#X connect 14 1 9 0;
#X connect 14 3 2 0;
#X connect 14 4 10 0;
#X connect 14 4 16 0;
#X connect 14 8 11 0;
#X connect 15 0 14 0;
#X restore 108 56 pd control;
#N canvas 866 319 971 476 ledindex 1;
#X obj 430 316 s toLaunchpad;
#X obj 327 150 inlet;
#N canvas 533 0 1379 1006 stepspos 1;
#X obj 76 33 inlet;
#X obj 488 518 outlet;
#X obj 76 61 route pos1 pos2 pos3 pos4 pos5 pos6 pos7 pos8;
#X obj 466 78 route ovd1 ovd2 ovd3 ovd4 ovd5 ovd6 ovd7 ovd8;
#N canvas 1146 539 450 300 scale 0;
#X obj 77 87 * 8;
#X obj 77 108 int;
#X obj 77 64 inlet;
#X obj 77 139 outlet;
#X connect 0 0 1 0;
#X connect 1 0 3 0;
#X connect 2 0 0 0;
#X restore 40 123 pd scale;
#N canvas 1146 539 450 300 scale 0;
#X obj 77 87 * 8;
#X obj 77 108 int;
#X obj 77 64 inlet;
#X obj 77 139 outlet;
#X connect 0 0 1 0;
#X connect 1 0 3 0;
#X connect 2 0 0 0;
#X restore 116 123 pd scale;
#N canvas 1146 539 450 300 scale 0;
#X obj 77 87 * 8;
#X obj 77 108 int;
#X obj 77 64 inlet;
#X obj 77 139 outlet;
#X connect 0 0 1 0;
#X connect 1 0 3 0;
#X connect 2 0 0 0;
#X restore 190 123 pd scale;
#N canvas 1146 539 450 300 scale 0;
#X obj 77 87 * 8;
#X obj 77 108 int;
#X obj 77 64 inlet;
#X obj 77 139 outlet;
#X connect 0 0 1 0;
#X connect 1 0 3 0;
#X connect 2 0 0 0;
#X restore 247 123 pd scale;
#N canvas 1146 539 450 300 scale 0;
#X obj 77 87 * 8;
#X obj 77 108 int;
#X obj 77 64 inlet;
#X obj 77 139 outlet;
#X connect 0 0 1 0;
#X connect 1 0 3 0;
#X connect 2 0 0 0;
#X restore 316 123 pd scale;
#N canvas 1146 539 450 300 scale 0;
#X obj 77 87 * 8;
#X obj 77 108 int;
#X obj 77 64 inlet;
#X obj 77 139 outlet;
#X connect 0 0 1 0;
#X connect 1 0 3 0;
#X connect 2 0 0 0;
#X restore 384 123 pd scale;
#N canvas 1146 539 450 300 scale 0;
#X obj 77 87 * 8;
#X obj 77 108 int;
#X obj 77 64 inlet;
#X obj 77 139 outlet;
#X connect 0 0 1 0;
#X connect 1 0 3 0;
#X connect 2 0 0 0;
#X restore 462 123 pd scale;
#N canvas 1146 539 450 300 scale 0;
#X obj 77 87 * 8;
#X obj 77 108 int;
#X obj 77 64 inlet;
#X obj 77 139 outlet;
#X connect 0 0 1 0;
#X connect 1 0 3 0;
#X connect 2 0 0 0;
#X restore 537 123 pd scale;
#X obj 40 308 lp_hledstrip 0 3 0;
#X obj 57 358 print;
#X floatatom 478 31 5 0 0 0 - - -;
#X obj 157 308 lp_hledstrip 1 3 0;
#X obj 274 308 lp_hledstrip 2 3 0;
#X obj 393 307 lp_hledstrip 3 3 0;
#X obj 515 306 lp_hledstrip 4 3 0;
#X obj 633 307 lp_hledstrip 5 3 0;
#X obj 752 306 lp_hledstrip 6 3 0;
#X obj 870 306 lp_hledstrip 7 3 0;
#X connect 0 0 2 0;
#X connect 2 0 4 0;
#X connect 2 1 5 0;
#X connect 2 2 6 0;
#X connect 2 3 7 0;
#X connect 2 4 8 0;
#X connect 2 5 9 0;
#X connect 2 6 10 0;
#X connect 2 7 11 0;
#X connect 2 8 3 0;
#X connect 3 0 12 1;
#X connect 3 0 14 0;
#X connect 3 1 15 1;
#X connect 3 2 16 1;
#X connect 3 3 17 1;
#X connect 3 4 18 1;
#X connect 3 5 19 1;
#X connect 3 6 20 1;
#X connect 3 7 21 1;
#X connect 4 0 12 0;
#X connect 5 0 15 0;
#X connect 6 0 16 0;
#X connect 7 0 17 0;
#X connect 8 0 18 0;
#X connect 9 0 19 0;
#X connect 10 0 20 0;
#X connect 11 0 21 0;
#X connect 12 0 1 0;
#X connect 15 0 1 0;
#X connect 16 0 1 0;
#X connect 17 0 1 0;
#X connect 18 0 1 0;
#X connect 19 0 1 0;
#X connect 20 0 1 0;
#X connect 21 0 1 0;
#X restore 294 230 pd stepspos;
#X obj 458 175 inlet;
#N canvas 960 0 952 1006 volled 0;
#X obj 58 -62 inlet;
#X obj 97 399 outlet;
#X obj 58 124 until;
#X obj 154 208 until;
#X obj 154 238 f;
#X msg 209 191 0;
#X obj 193 240 + 1;
#X obj 58 191 f;
#X msg 75 168 0;
#X obj 89 201 + 1;
#X obj 58 52 t f b b b;
#X obj 58 -33 route vol buffer;
#X obj 154 285 pack f f;
#X obj 79 310 pack f f;
#X msg 156 325 send /wac.lp/0/3/led \$1 \$2 0 0;
#X obj 199 162 - 1;
#X obj 58 -2 * 8;
#X obj 58 29 + 1;
#X msg 156 182 8;
#X msg 97 351 send /wac.lp/0/3/led \$1 \$2 3 0;
#X connect 0 0 11 0;
#X connect 2 0 7 0;
#X connect 3 0 4 0;
#X connect 4 0 6 0;
#X connect 4 0 12 0;
#X connect 5 0 4 1;
#X connect 6 0 4 1;
#X connect 7 0 9 0;
#X connect 7 0 13 0;
#X connect 8 0 7 1;
#X connect 9 0 7 1;
#X connect 10 0 2 0;
#X connect 10 1 8 0;
#X connect 10 2 18 0;
#X connect 10 3 5 0;
#X connect 11 0 16 0;
#X connect 11 1 15 0;
#X connect 12 0 14 0;
#X connect 13 0 19 0;
#X connect 14 0 1 0;
#X connect 15 0 12 1;
#X connect 15 0 13 1;
#X connect 16 0 17 0;
#X connect 17 0 10 0;
#X connect 18 0 3 0;
#X connect 19 0 1 0;
#X restore 430 251 pd volled;
#X obj 294 197 gate 3;
#X obj 414 201 gate 3;
#X obj 377 48 inlet;
#N canvas 988 0 555 748 speedled 0;
#X obj 68 -132 inlet;
#X obj 89 585 outlet;
#X obj -42 304 until;
#X obj 164 388 until;
#X obj 164 418 f;
#X msg 219 371 0;
#X obj 203 420 + 1;
#X obj -42 371 f;
#X obj 164 465 pack f f;
#X obj 89 490 pack f f;
#X msg 164 495 send /wac.lp/0/3/led \$1 \$2 0 0;
#X obj 209 342 - 1;
#X msg 166 362 8;
#X msg 89 537 send /wac.lp/0/3/led \$1 \$2 3 3;
#X obj 68 -103 route speed buffer;
#X obj -44 271 -;
#X obj -10 371 - 1;
#X obj 68 122 t f b b;
#X obj -52 204 t b f b;
#X obj 68 -65 * 4;
#X obj 68 168 moses 3;
#X msg -25 348 2;
#X obj 83 21 log;
#X msg 83 -4 2;
#X obj 68 44 /;
#X obj 68 -33 log;
#X text 123 -3 Log with the base of 2 to get the exponent;
#X msg -52 233 3;
#X obj 52 310 until;
#X obj 52 377 f;
#X msg 69 354 2;
#X obj 84 377 + 1;
#X obj 42 210 t f b;
#X floatatom 97 417 5 0 0 0 - - -;
#X floatatom 95 294 5 0 0 0 - - -;
#X obj 50 277 - 1;
#X obj 68 79 moses 8;
#X obj 107 -33 loadbang;
#X connect 0 0 14 0;
#X connect 2 0 7 0;
#X connect 3 0 4 0;
#X connect 4 0 6 0;
#X connect 4 0 8 0;
#X connect 5 0 4 1;
#X connect 6 0 4 1;
#X connect 7 0 9 0;
#X connect 7 0 16 0;
#X connect 8 0 10 0;
#X connect 9 0 13 0;
#X connect 10 0 1 0;
#X connect 11 0 8 1;
#X connect 11 0 9 1;
#X connect 12 0 3 0;
#X connect 13 0 1 0;
#X connect 14 0 19 0;
#X connect 14 1 11 0;
#X connect 15 0 2 0;
#X connect 16 0 7 1;
#X connect 17 0 20 0;
#X connect 17 1 12 0;
#X connect 17 2 5 0;
#X connect 18 0 27 0;
#X connect 18 1 15 1;
#X connect 18 2 21 0;
#X connect 19 0 25 0;
#X connect 20 0 18 0;
#X connect 20 1 32 0;
#X connect 21 0 7 1;
#X connect 22 0 24 1;
#X connect 23 0 22 0;
#X connect 24 0 36 0;
#X connect 25 0 24 0;
#X connect 27 0 15 0;
#X connect 28 0 29 0;
#X connect 29 0 31 0;
#X connect 29 0 9 0;
#X connect 29 0 33 0;
#X connect 30 0 29 1;
#X connect 31 0 29 1;
#X connect 32 0 35 0;
#X connect 32 1 30 0;
#X connect 35 0 28 0;
#X connect 35 0 34 0;
#X connect 36 0 17 0;
#X connect 37 0 23 0;
#X restore 504 249 pd speedled;
#X msg 257 155 1;
#X msg 294 158 0;
#X msg 377 166 1;
#X obj 257 109 sel 9 3 4;
#X obj 377 85 sel 0 1;
#X msg 462 140 0;
#X msg 414 152 2;
#X connect 1 0 5 1;
#X connect 2 0 0 0;
#X connect 3 0 6 1;
#X connect 4 0 0 0;
#X connect 5 0 2 0;
#X connect 6 0 4 0;
#X connect 6 1 8 0;
#X connect 7 0 12 0;
#X connect 7 0 13 0;
#X connect 8 0 0 0;
#X connect 9 0 5 0;
#X connect 10 0 5 0;
#X connect 11 0 6 0;
#X connect 12 0 9 0;
#X connect 12 1 9 0;
#X connect 12 2 9 0;
#X connect 12 3 10 0;
#X connect 13 0 11 0;
#X connect 13 1 15 0;
#X connect 13 2 14 0;
#X connect 14 0 6 0;
#X connect 15 0 6 0;
#X restore 211 182 pd ledindex;
#X msg 329 76 reset;
#X floatatom 230 63 5 0 0 0 - - -;
#X obj 210 242 print;
#X connect 0 0 2 0;
#X connect 0 1 4 0;
#X connect 1 0 0 0;
#X connect 3 0 0 1;
#X connect 3 0 4 2;
#X connect 3 1 4 1;
#X connect 3 1 6 0;
#X connect 5 0 0 1;
#X restore 513 124 pd bank3;
#X obj 62 301 catch~ masterMONO;
#X obj 61 361 dac~;
#X obj 175 304 adc~ 1;
#X obj 175 344 s~ \$0-input;
#X obj 59 82 spigot;
#X obj 92 24 tgl 15 0 empty empty empty 17 7 0 10 -262144 -1 -1 0 1
;
#X obj 143 273 print OSCtoLaunchpad;
#X obj 143 254 spigot;
#X obj 176 229 tgl 15 0 empty empty empty 17 7 0 10 -262144 -1 -1 0
1;
#X obj 61 330 *~;
#X obj 136 359 tgl 15 0 empty empty empty 17 7 0 10 -262144 -1 -1 1
1;
#X text 573 126 Initit LEDs;
#X connect 1 0 9 0;
#X connect 1 0 24 0;
#X connect 3 0 2 0;
#X connect 4 0 5 0;
#X connect 7 0 3 0;
#X connect 8 0 2 0;
#X connect 8 0 27 0;
#X connect 11 0 13 0;
#X connect 11 0 10 0;
#X connect 12 0 11 0;
#X connect 14 0 15 0;
#X connect 15 0 12 0;
#X connect 17 0 16 0;
#X connect 20 0 29 0;
#X connect 22 0 23 0;
#X connect 24 0 0 0;
#X connect 25 0 24 1;
#X connect 27 0 26 0;
#X connect 28 0 27 1;
#X connect 29 0 21 0;
#X connect 29 0 21 1;
#X connect 30 0 29 1;
