#N canvas 801 75 952 1006 10;
#X obj 110 76 catch~ masterout;
#X obj 27 -15 s~ input;
#X obj 421 -67 s \$0-overdub;
#X obj 421 -90 tgl 15 0 empty empty empty 17 7 0 10 -262144 -1 -1 0
1;
#X obj 501 -67 s \$0-play;
#X obj 501 -91 tgl 15 0 empty empty empty 17 7 0 10 -262144 -1 -1 0
1;
#N canvas 960 0 952 1006 record 0;
#X obj 368 128 table \$0-temp;
#X obj 68 177 inlet~;
#X msg 242 123 start;
#X msg 304 130 stop;
#X obj 261 265 timer;
#X obj 242 173 t b b b;
#X obj 242 97 sel 1 0;
#X obj 69 254 tabwrite~ \$0-temp;
#X obj 261 297 s \$0-length;
#X msg 492 80 \; \$2-temp resize \$1;
#X obj 492 52 pack f \$0;
#X obj 492 -9 inlet;
#X obj 492 32 * 44100;
#X obj 492 12 * 60;
#X obj 350 10 r \$0-rec;
#X obj 427 327 arraycopy;
#X obj 389 255 \$0;
#X msg 389 289 copy \$1-temp;
#X obj 304 168 t b b;
#X obj 478 261 \$0;
#X obj 478 227 loadbang;
#X obj 541 228 bng 15 250 50 0 empty empty empty 17 7 0 10 -262144
-1 -1;
#X obj 324 350 pack f \$0;
#X msg 324 412 \; \$2-buffer resize \$1;
#X obj 368 149 table \$0-buffer;
#X obj 403 219 bng 15 250 50 0 empty empty empty 17 7 0 10 -262144
-1 -1;
#X msg 555 324;
#X msg 478 289 symbol \$1-buffer;
#X obj 380 180 t b b;
#X obj 334 318 * 44.1;
#X connect 1 0 7 0;
#X connect 2 0 5 0;
#X connect 3 0 7 0;
#X connect 3 0 18 0;
#X connect 4 0 8 0;
#X connect 4 0 29 0;
#X connect 5 0 7 0;
#X connect 5 1 4 0;
#X connect 6 0 2 0;
#X connect 6 1 3 0;
#X connect 10 0 9 0;
#X connect 11 0 13 0;
#X connect 12 0 10 0;
#X connect 13 0 12 0;
#X connect 14 0 6 0;
#X connect 16 0 17 0;
#X connect 17 0 15 0;
#X connect 18 0 28 0;
#X connect 18 1 4 1;
#X connect 19 0 27 0;
#X connect 20 0 19 0;
#X connect 21 0 19 0;
#X connect 22 0 23 0;
#X connect 25 0 16 0;
#X connect 27 0 15 1;
#X connect 28 0 16 0;
#X connect 28 1 19 0;
#X connect 29 0 22 0;
#X restore 527 29 pd record;
#X floatatom 578 2 5 0 0 1 Set_Size_of_temporarry_array - -;
#X obj 28 -96 inlet~;
#X obj 366 -67 s \$0-rec;
#X obj 366 -90 tgl 15 0 empty empty empty 17 7 0 10 -258113 -1 -1 0
1;
#X obj 528 -23 r~ input;
#X obj 109 115 outlet~;
#X msg 438 101 0;
#X msg 467 101 0.5;
#X obj 183 -57 route /wac.lp/0/1/press;
#X obj 183 -29 unpack f f f;
#X obj 237 16 f;
#X obj 180 -93 netreceive 8195 1;
#X obj 185 19 sel 1 2;
#X obj 281 23 f;
#X obj 240 50 sel 1;
#X obj 296 60 sel 1;
#X obj 83 -50 s fromlaunchpad;
#X obj 564 -91 bng 15 250 50 0 empty empty empty 17 7 0 10 -262144
-1 -1;
#X obj 564 -67 s \$0-sync;
#X obj 313 -317 route /wac.lp/0/1/press;
#X obj 313 -289 unpack f f f;
#X obj 382 -206 sel 1 0;
#X obj 315 -241 sel 0;
#X obj 367 -244 f;
#X obj 181 -348 r fromlaunchpad;
#N canvas 533 251 949 716 play 1;
#X obj 81 136 phasor~;
#X obj 81 239 *~;
#X obj 135 201 r \$0-length;
#X obj 82 267 tabread4~ \$0-buffer;
#X obj 81 2 r \$0-length;
#X obj 81 33 / 1000;
#X obj 81 82 1;
#X obj 81 103 /;
#X obj 135 222 * 44.1;
#X obj 465 456 +~;
#X obj 489 370 r~ input;
#X obj 488 426 *~;
#X obj 653 293 r \$0-overdub;
#X msg 424 335 start;
#X obj 424 310 edge~;
#X obj 425 278 expr~ $v1<0.5;
#X obj 424 532 tabwrite~ \$0-buffer;
#X msg 120 111 0;
#X obj 182 49 r \$0-sync;
#X obj 81 60 t b f b;
#X msg 299 71 0;
#X obj 299 40 sel 1 0;
#X obj 299 1 r \$0-rec;
#X obj 81 340 throw~ masterout;
#X obj 260 106 inlet juggle;
#X msg 539 335 start \$1;
#X obj 653 351 sel 1 0;
#X msg 662 388 stop;
#X obj 424 379 spigot;
#X text 652 273 OVERDUB Logic;
#X text 355 95 Playback;
#X obj 554 257 Snapshot~ 1;
#X obj 539 305 f;
#X connect 0 0 1 0;
#X connect 0 0 15 0;
#X connect 1 0 3 0;
#X connect 1 0 31 0;
#X connect 2 0 8 0;
#X connect 3 0 9 0;
#X connect 3 0 23 0;
#X connect 4 0 5 0;
#X connect 5 0 19 0;
#X connect 6 0 7 0;
#X connect 7 0 0 0;
#X connect 8 0 1 1;
#X connect 9 0 16 0;
#X connect 10 0 11 0;
#X connect 11 0 9 1;
#X connect 12 0 11 1;
#X connect 12 0 26 0;
#X connect 12 0 28 1;
#X connect 13 0 28 0;
#X connect 14 0 13 0;
#X connect 15 0 14 0;
#X connect 17 0 0 1;
#X connect 18 0 17 0;
#X connect 19 0 6 0;
#X connect 19 1 7 1;
#X connect 19 2 17 0;
#X connect 20 0 0 0;
#X connect 21 0 20 0;
#X connect 22 0 21 0;
#X connect 24 0 0 1;
#X connect 25 0 16 0;
#X connect 26 0 32 0;
#X connect 26 1 27 0;
#X connect 27 0 16 0;
#X connect 28 0 16 0;
#X connect 31 0 32 1;
#X connect 32 0 25 0;
#X restore 527 55 pd play;
#X obj 433 20 metro 200;
#X floatatom 479 -8 5 0 0 0 - - -;
#X obj 436 -6 tgl 15 0 empty empty empty 17 7 0 10 -262144 -1 -1 1
1;
#X obj 405 65 gate 2;
#X obj 388 20 tgl 15 0 empty empty empty 17 7 0 10 -262144 -1 -1 0
1;
#X obj 382 40 + 1;
#X connect 0 0 12 0;
#X connect 3 0 2 0;
#X connect 5 0 4 0;
#X connect 7 0 6 1;
#X connect 8 0 1 0;
#X connect 8 0 12 0;
#X connect 10 0 9 0;
#X connect 11 0 6 0;
#X connect 13 0 32 0;
#X connect 14 0 32 0;
#X connect 15 0 16 0;
#X connect 16 0 19 0;
#X connect 16 2 17 1;
#X connect 16 2 20 1;
#X connect 17 0 21 0;
#X connect 18 0 15 0;
#X connect 18 0 23 0;
#X connect 19 0 17 0;
#X connect 19 1 20 0;
#X connect 20 0 22 0;
#X connect 21 0 3 0;
#X connect 22 0 5 0;
#X connect 24 0 25 0;
#X connect 26 0 27 0;
#X connect 27 0 29 0;
#X connect 27 2 30 1;
#X connect 28 0 10 0;
#X connect 29 0 30 0;
#X connect 30 0 28 0;
#X connect 31 0 26 0;
#X connect 33 0 36 1;
#X connect 34 0 33 1;
#X connect 35 0 33 0;
#X connect 36 0 13 0;
#X connect 36 1 14 0;
#X connect 37 0 38 0;
#X connect 38 0 36 0;
