#N canvas 65 54 1301 714 10;
#X obj 402 -1 s \$0-overdub;
#X obj 402 -24 tgl 15 0 empty empty empty 17 7 0 10 -262144 -1 -1 0
1;
#X obj 482 -1 s \$0-play;
#N canvas 65 92 1301 686 record 0;
#X obj 368 128 table \$0-temp;
#X obj 68 177 inlet~;
#X msg 304 130 stop;
#X obj 261 265 timer;
#X obj 242 97 sel 1 0;
#X obj 69 254 tabwrite~ \$0-temp;
#X msg 492 80 \; \$2-temp resize \$1;
#X obj 492 52 pack f \$0;
#X obj 492 -9 inlet;
#X obj 492 32 * 44100;
#X obj 492 12 * 60;
#X obj 242 70 r \$0-rec;
#X obj 427 327 arraycopy;
#X obj 427 264 \$0;
#X msg 427 293 copy \$1-temp;
#X obj 369 336 * 44.1;
#X msg 242 123 start;
#X obj 242 173 t a b b;
#X obj 317 505 pack f \$0;
#X obj 261 567 s;
#X obj 317 476 r \$0-buffer;
#X obj 369 400 pack f \$0 f;
#X msg 369 423 \; \$2-buffer\$3 resize \$1;
#X obj 516 265 pack f \$0;
#X obj 531 216 r \$0-buffer;
#X msg 516 293 symbol \$2-buffer\$1;
#X msg 317 543 symbol \$2-length\$1;
#X obj 516 237 f;
#X obj 304 168 t b b b;
#X text 50 27 Records into very long temporarry array and than transvers
it to an real buffer for playback;
#X obj 314 233 \$0;
#X obj 324 205 bng 15 250 50 0 empty empty empty 17 7 0 10 -262144
-1 -1;
#X msg 314 259 \; \$1-temp const 0;
#X obj 396 378 % 64;
#X obj 369 357 t f f;
#X obj 369 378 -;
#X obj 171 158 print;
#X obj 145 566 s \$0-length0;
#X connect 1 0 5 0;
#X connect 2 0 5 0;
#X connect 2 0 28 0;
#X connect 3 0 15 0;
#X connect 3 0 19 0;
#X connect 3 0 37 0;
#X connect 4 0 16 0;
#X connect 4 1 2 0;
#X connect 7 0 6 0;
#X connect 8 0 10 0;
#X connect 9 0 7 0;
#X connect 10 0 9 0;
#X connect 11 0 4 0;
#X connect 13 0 14 0;
#X connect 14 0 12 0;
#X connect 15 0 34 0;
#X connect 16 0 17 0;
#X connect 16 0 36 0;
#X connect 17 0 5 0;
#X connect 17 1 3 0;
#X connect 17 2 30 0;
#X connect 18 0 26 0;
#X connect 20 0 18 0;
#X connect 20 0 21 2;
#X connect 21 0 22 0;
#X connect 23 0 25 0;
#X connect 24 0 27 1;
#X connect 25 0 12 1;
#X connect 26 0 19 1;
#X connect 27 0 23 0;
#X connect 28 0 13 0;
#X connect 28 1 27 0;
#X connect 28 2 3 1;
#X connect 30 0 32 0;
#X connect 33 0 21 0;
#X connect 34 0 35 0;
#X connect 34 1 33 0;
#X connect 35 0 21 0;
#X restore 206 -154 pd record;
#X floatatom 257 -181 5 0 0 1 Set_Size_of_temporarry_array - -;
#X obj 205 -209 inlet~;
#X obj 347 -1 s \$0-rec;
#X obj 347 -24 tgl 15 0 empty empty empty 17 7 0 10 -258113 -1 -1 0
1;
#X obj 206 -15 outlet~;
#X obj 275 -224 loadbang;
#X msg 275 -202 1;
#N canvas 282 121 918 458 create 0;
#X obj 103 -19 r \$0-rec;
#X obj 103 84 sel 1;
#X obj 157 172 f;
#X obj 172 4 r \$0-buffer;
#X obj 277 147 f;
#X obj 157 195 pack f \$0 f;
#X obj 276 178 + 20;
#X msg 292 118 0;
#N canvas 1306 45 466 604 indexfilter 0;
#X obj 24 214 tabwrite \$0-check;
#X obj 320 90 table \$0-check;
#X obj 45 63 inlet;
#X obj 139 214 tabread \$0-check;
#X obj 139 256 outlet;
#X obj 139 235 == 0;
#X msg 249 246 \; \$2-check resize \$1;
#X obj 249 215 pack f \$0;
#X msg 24 158 1;
#X obj 45 101 t b f f f;
#X msg 251 154 \; \$1-check const 0;
#X obj 251 133 \$0;
#X obj 251 89 r \$0-reset;
#N canvas 629 257 450 300 highest 0;
#X obj 161 118 >;
#X obj 116 190 f;
#X obj 161 167 sel 1;
#X obj 161 144 tgl 15 0 empty empty empty 17 7 0 10 -262144 -1 -1 0
1;
#X msg 49 143 0;
#X obj 49 118 loadbang;
#X obj 131 51 inlet;
#X obj 116 234 outlet;
#X obj 182 51 inlet;
#X text 254 112 Passes value only if it is higher than the highest
value received in its left inlet since the last reset;
#X connect 0 0 3 0;
#X connect 1 0 0 1;
#X connect 1 0 7 0;
#X connect 2 0 1 0;
#X connect 3 0 2 0;
#X connect 4 0 1 0;
#X connect 5 0 4 0;
#X connect 6 0 1 1;
#X connect 6 0 0 0;
#X connect 8 0 5 0;
#X restore 145 160 pd highest;
#X text 20 23 Filter out already created tables \, so that you don't
create 2 instances of the same buffer;
#X obj 109 141 - 1;
#X obj 78 155 - 1;
#X connect 2 0 9 0;
#X connect 3 0 5 0;
#X connect 5 0 4 0;
#X connect 7 0 6 0;
#X connect 8 0 0 0;
#X connect 9 0 8 0;
#X connect 9 1 16 0;
#X connect 9 2 15 0;
#X connect 9 3 13 0;
#X connect 11 0 10 0;
#X connect 12 0 11 0;
#X connect 12 0 13 1;
#X connect 13 0 7 0;
#X connect 15 0 3 0;
#X connect 16 0 0 1;
#X restore 183 66 pd indexfilter;
#X obj 103 58 spigot;
#X obj 183 37 f;
#X obj 119 24 sel 1;
#X obj 292 94 r \$0-reset;
#X obj -15 306 pack f \$0 f;
#X obj -15 260 f;
#X obj 103 107 t b b b b;
#X obj 18 260 + 80;
#X obj -42 201 t b b;
#X obj -42 414 s;
#X msg -26 387 symbol \$2-initgui\$3;
#X obj 103 4 change;
#X text 492 25 Let you dynamically create tables and playback modules
;
#X msg 157 217 \; pd-\$2-tables obj 120 \$3 table \$2-buffer\$1;
#X msg 423 212 \; pd-\$2-playback obj 120 \$3 loopplayback \$2 \$1
;
#X obj 120 249 pack \$0 f;
#X msg 120 273 \; pd-\$1-playback obj 240 \$2 u_dummy;
#X msg -15 326 \; pd-\$2-gui obj 0 \$1 loop_gui \$2 \$3;
#X connect 0 0 20 0;
#X connect 1 0 15 0;
#X connect 2 0 5 0;
#X connect 3 0 2 1;
#X connect 3 0 13 2;
#X connect 3 0 10 1;
#X connect 4 0 6 0;
#X connect 5 0 22 0;
#X connect 5 0 23 0;
#X connect 6 0 4 1;
#X connect 6 0 5 2;
#X connect 6 0 24 1;
#X connect 7 0 4 1;
#X connect 7 0 14 1;
#X connect 8 0 9 1;
#X connect 9 0 1 0;
#X connect 10 0 8 0;
#X connect 11 0 10 0;
#X connect 12 0 7 0;
#X connect 13 0 26 0;
#X connect 13 0 19 0;
#X connect 14 0 16 0;
#X connect 14 0 13 0;
#X connect 15 0 17 0;
#X connect 15 1 24 0;
#X connect 15 2 2 0;
#X connect 15 3 4 0;
#X connect 16 0 14 1;
#X connect 17 0 18 0;
#X connect 17 1 14 0;
#X connect 19 0 18 1;
#X connect 20 0 11 0;
#X connect 20 0 9 0;
#X connect 24 0 25 0;
#X restore 206 -135 pd create;
#X obj 558 0 s \$0-buffer;
#X floatatom 558 -30 5 0 0 1 REcord_into_Buffer_Number_#1 - -;
#X obj 347 158 s;
#X obj 402 162 s;
#X obj 482 169 s;
#X msg 362 110 symbol \$2-rec\$1;
#X obj 558 43 pack f \$0;
#X msg 417 130 symbol \$2-overdub\$1;
#X msg 497 149 symbol \$2-play\$1;
#X obj 274 -154 bng 15 250 50 0 empty empty empty 17 7 0 10 -262144
-1 -1;
#N canvas 5 354 450 300 reset 0;
#X obj 288 82 s \$0-reset;
#X obj 288 58 bng 15 250 50 0 empty empty empty 17 7 0 10 -262144 -1
-1;
#X obj 71 41 inlet;
#X obj 71 83 \$0;
#X msg 179 183 \; pd-\$1-playback clear;
#X msg 315 183 \; pd-\$1-tables clear;
#X msg 71 183 \; pd-\$1-gui clear;
#X connect 1 0 0 0;
#X connect 2 0 1 0;
#X connect 2 0 3 0;
#X connect 3 0 5 0;
#X connect 3 0 4 0;
#X connect 3 0 6 0;
#X restore 274 -134 pd reset;
#X obj 331 237 r \$0-pos;
#X obj 331 294 outlet;
#X obj 687 -219 inlet;
#X obj 602 174 s;
#X msg 617 154 symbol \$2-juggle\$1;
#X obj 750 179 s;
#X msg 765 155 symbol \$2-vol\$1;
#X obj 863 181 s;
#X obj 453 237 r \$0-vol;
#X obj 386 237 r \$0-speed;
#X msg 878 157 symbol \$2-speed\$1;
#X obj 240 -34 s~ \$0-input;
#X obj 508 238 r \$0-ovd;
#X obj 569 -132 s \$0-report;
#X obj 569 -153 bng 15 250 50 0 empty empty empty 17 7 0 10 -262144
-1 -1;
#X obj 687 -189 route buffer rec ovd play juggle vol speed report reset
;
#X obj 643 256 \$0;
#X obj 643 237 r \$0-report;
#X obj 643 277 prepend identifier;
#X obj 567 238 r \$0-length;
#X obj 765 236 r \$0-length;
#X msg 765 277 length \$1;
#X obj 481 -27 tgl 15 0 empty empty empty 17 7 0 10 -262144 -1 -1 0
1;
#N canvas 629 379 563 300 \$0-playback 0;
#X obj 120 20 loopplayback 5812 0;
#X obj 240 20 u_dummy;
#X restore 207 -96 pd \$0-playback;
#N canvas 314 92 450 300 \$0-tables 0;
#X obj 120 20 table 5812-buffer0;
#X restore 207 -115 pd \$0-tables;
#N canvas 32 373 450 300 \$0-gui 0;
#X obj 0 0 loop_gui 5812 0;
#X coords 0 -1 1 1 200 400 2 0 0;
#X restore 1 -207 pd \$0-gui;
#X obj 252 30 u_snapshot~;
#X obj 205 -60 catch~ \$0-masterout;
#X connect 1 0 0 0;
#X connect 1 0 15 0;
#X connect 4 0 3 1;
#X connect 5 0 8 0;
#X connect 5 0 3 0;
#X connect 5 0 34 0;
#X connect 7 0 6 0;
#X connect 7 0 14 0;
#X connect 9 0 10 0;
#X connect 10 0 4 0;
#X connect 13 0 12 0;
#X connect 13 0 18 0;
#X connect 17 0 14 1;
#X connect 18 0 17 0;
#X connect 18 0 19 0;
#X connect 18 0 20 0;
#X connect 18 0 27 0;
#X connect 18 0 29 0;
#X connect 18 0 33 0;
#X connect 19 0 15 1;
#X connect 20 0 16 1;
#X connect 21 0 22 0;
#X connect 23 0 24 0;
#X connect 25 0 38 0;
#X connect 27 0 26 1;
#X connect 29 0 28 1;
#X connect 31 0 24 0;
#X connect 32 0 24 0;
#X connect 33 0 30 1;
#X connect 35 0 24 0;
#X connect 37 0 36 0;
#X connect 38 0 13 0;
#X connect 38 1 7 0;
#X connect 38 2 1 0;
#X connect 38 3 45 0;
#X connect 38 4 26 0;
#X connect 38 5 28 0;
#X connect 38 6 30 0;
#X connect 38 7 37 0;
#X connect 38 8 21 0;
#X connect 39 0 41 0;
#X connect 40 0 39 0;
#X connect 41 0 24 0;
#X connect 42 0 24 0;
#X connect 43 0 44 0;
#X connect 44 0 24 0;
#X connect 45 0 2 0;
#X connect 45 0 16 0;
#X connect 50 0 8 0;
#X connect 50 0 49 0;
