#N canvas 0 0 1221 1006 10;
#X msg 600 165 rec \$1;
#X obj 600 133 tgl 15 0 empty empty empty 17 7 0 10 -262144 -1 -1 0
1;
#X msg 530 164 buffer \$1;
#X obj 530 142 nbx 5 14 -1e+037 1e+037 0 0 empty empty empty 0 -8 0
10 -262144 -1 -1 0 256;
#X obj 467 228 Loopstation;
#X obj 466 329 dac~;
#X msg 649 166 ovd \$1;
#X obj 649 135 tgl 15 0 empty empty empty 17 7 0 10 -262144 -1 -1 0
1;
#X msg 698 167 speed \$1;
#X msg 984 177 reset;
#X msg 1039 177 report;
#X msg 803 176 juggle \$1;
#X msg 876 175 play \$1;
#X obj 876 128 tgl 15 0 empty empty empty 17 7 0 10 -262144 -1 -1 0
1;
#X obj 516 49 s_loopplayer;
#X obj 516 14 tgl 15 0 empty empty empty 17 7 0 10 -262144 -1 -1 0
1;
#X obj 550 14 tgl 15 0 empty empty empty 17 7 0 10 -262144 -1 -1 0
1;
#X obj 585 13 bng 15 250 50 0 empty empty empty 17 7 0 10 -262144 -1
-1;
#X msg 803 129 0.5;
#X msg 838 129 0.1;
#X msg 701 130 1;
#X msg 729 131 2;
#X msg 768 131 4;
#X obj 467 51 adc~ 1;
#X msg 932 175 vol \$1;
#X floatatom 932 130 5 0 0 0 - - -;
#X msg 698 106 -1;
#N canvas 770 93 450 300 switch 0;
#X obj 54 46 inlet~;
#X obj 102 45 inlet~;
#X obj 145 45 inlet;
#X obj 130 100 *~;
#X obj 55 101 *~;
#X obj 145 72 ==;
#X obj 55 136 outlet~;
#X connect 0 0 4 0;
#X connect 1 0 3 0;
#X connect 2 0 4 1;
#X connect 2 0 5 0;
#X connect 3 0 6 0;
#X connect 4 0 6 0;
#X connect 5 0 3 1;
#X restore 467 122 pd switch;
#N canvas 181 406 500 420 REFERENCE 0;
#X text 4 16 Name: Loopstation;
#X text 2 46 Summary: Loopstation with multiple buffers for recording
and playback(maximim of buffer depends on your RAM).;
#X text 3 87 Inlet 0: Signal in that you want to record;
#X text 4 105 Inlet 1: messages. buffer<int>:Number of buffer you want
to control with the other messages. rec<bool>:start/stop recording
into buffer. ovd<bool>:overdub recording in specified buffer. speed<float>:speed
of sample. doubles every power of 2 juggle<float:0 \, 1>:Retrigger
Sample from this positon. play<bool>:start/stop playback vol<float:0
\, 1>:Volume of buffer. reset:delet all buffers and initalize module.
report:report set values from all buffer from the right outlet.;
#X text 4 213 Outlet 0: Signal-Output;
#X text 4 234 Outlet 1: Report current set parameters of all buffers
\, paramter is followed by buffer number without space. Available Parameters:
pos \, speed \, vol \, ovd \, length identifier;
#X text 1 296 Description: Loopstation is a dynamic Looper \, that
lets you create buffers to record and playback sound or data dynamically.
The maximum of buffers if specified by your size of RAM. You can also
overdub for each loop and change its speed(also reverse) and volume.
Loopstation lets you also juggle through the recorded sample.;
#X coords 0 -1 1 1 365 370 1 0 0;
#X restore 18 19 pd REFERENCE;
#X obj 530 271 route pos0 pos1;
#X floatatom 530 300 5 0 0 0 - - -;
#X floatatom 576 302 5 0 0 0 - - -;
#X obj 984 87 loadbang;
#X connect 0 0 4 1;
#X connect 1 0 0 0;
#X connect 2 0 4 1;
#X connect 3 0 2 0;
#X connect 4 0 5 0;
#X connect 4 0 5 1;
#X connect 4 1 29 0;
#X connect 6 0 4 1;
#X connect 7 0 6 0;
#X connect 8 0 4 1;
#X connect 9 0 4 1;
#X connect 10 0 4 1;
#X connect 11 0 4 1;
#X connect 12 0 4 1;
#X connect 13 0 12 0;
#X connect 14 0 27 1;
#X connect 15 0 14 0;
#X connect 16 0 14 1;
#X connect 17 0 14 2;
#X connect 18 0 11 0;
#X connect 19 0 11 0;
#X connect 20 0 8 0;
#X connect 21 0 8 0;
#X connect 22 0 8 0;
#X connect 23 0 27 0;
#X connect 24 0 4 1;
#X connect 25 0 24 0;
#X connect 26 0 8 0;
#X connect 27 0 4 0;
#X connect 29 0 30 0;
#X connect 29 1 31 0;
#X connect 32 0 9 0;
