#N canvas 0 0 952 1006 10;
#X obj 91 146 phasor~;
#X obj 91 249 *~;
#X obj 91 -68 / 1000;
#X obj 91 -17 1;
#X obj 91 4 /;
#X obj 145 232 * 44.1;
#X obj 475 466 +~;
#X obj 499 380 r~ input;
#X obj 498 436 *~;
#X msg 434 345 start;
#X obj 434 320 edge~;
#X obj 435 288 expr~ $v1<0.5;
#X msg 130 121 0;
#X obj 91 -39 t b f b;
#X msg 309 81 0;
#X obj 309 50 sel 1 0;
#X obj 91 375 throw~ masterout;
#X msg 549 345 start \$1;
#X obj 663 361 sel 1 0;
#X msg 672 398 stop;
#X obj 434 389 spigot;
#X text 662 283 OVERDUB Logic;
#X text 365 105 Playback;
#X obj 564 267 Snapshot~ 1;
#X obj 549 315 f;
#X obj 517 -71 sel 1 0;
#X obj 517 -34 t b b;
#X obj 518 1 spigot;
#X msg 455 -55 0;
#X obj 739 409 bng 15 250 50 0 empty empty empty 17 7 0 10 -262144
-1 -1;
#X obj 218 37 t b f;
#X obj 91 -97 r \$1-length\$2;
#X obj 309 11 r \$1-rec\$2;
#X obj 516 -101 r \$1-play\$2;
#X obj 663 303 r \$1-overdub\$2;
#X obj 145 211 r \$1-length\$2;
#X obj 92 277 tabread4~ \$1-buffer\$2;
#X obj 434 542 tabwrite~ \$1-buffer\$2;
#X obj 218 68 * 1;
#X obj 91 342 *~;
#X obj 106 301 r \$1-vol\$2;
#X obj 106 321 sig~ 1;
#X obj 218 11 r \$1-speed\$2;
#X obj 168 129 r \$1-juggle\$2;
#X connect 0 0 1 0;
#X connect 0 0 11 0;
#X connect 1 0 23 0;
#X connect 1 0 36 0;
#X connect 2 0 13 0;
#X connect 3 0 4 0;
#X connect 4 0 38 0;
#X connect 5 0 1 1;
#X connect 6 0 37 0;
#X connect 7 0 8 0;
#X connect 8 0 6 1;
#X connect 9 0 20 0;
#X connect 10 0 9 0;
#X connect 11 0 10 0;
#X connect 12 0 0 1;
#X connect 13 0 3 0;
#X connect 13 1 4 1;
#X connect 13 2 12 0;
#X connect 14 0 0 0;
#X connect 15 0 14 0;
#X connect 17 0 37 0;
#X connect 18 0 24 0;
#X connect 18 0 29 0;
#X connect 18 1 19 0;
#X connect 19 0 37 0;
#X connect 20 0 37 0;
#X connect 23 0 24 1;
#X connect 24 0 17 0;
#X connect 25 0 26 0;
#X connect 25 1 19 0;
#X connect 25 1 28 0;
#X connect 26 0 27 0;
#X connect 26 1 3 0;
#X connect 27 0 24 0;
#X connect 28 0 0 0;
#X connect 30 0 38 0;
#X connect 30 1 38 1;
#X connect 31 0 2 0;
#X connect 32 0 15 0;
#X connect 33 0 25 0;
#X connect 34 0 8 1;
#X connect 34 0 18 0;
#X connect 34 0 27 1;
#X connect 34 0 20 1;
#X connect 35 0 5 0;
#X connect 36 0 6 0;
#X connect 36 0 39 0;
#X connect 38 0 0 0;
#X connect 39 0 16 0;
#X connect 40 0 41 0;
#X connect 41 0 39 1;
#X connect 42 0 30 0;
#X connect 43 0 0 1;
