#N canvas 466 38 952 1006 10;
#X obj 110 76 catch~ masterout;
#X obj 27 -15 s~ input;
#X obj 421 -67 s \$0-overdub;
#X obj 421 -90 tgl 15 0 empty empty empty 17 7 0 10 -262144 -1 -1 0
1;
#X obj 501 -67 s \$0-play;
#X obj 501 -91 tgl 15 0 empty empty empty 17 7 0 10 -262144 -1 -1 0
1;
#N canvas 960 0 952 1006 record 1;
#X obj 368 128 table \$0-temp;
#X obj 68 177 inlet~;
#X msg 304 130 stop;
#X obj 261 265 timer;
#X obj 242 97 sel 1 0;
#X obj 69 254 tabwrite~ \$0-temp;
#X obj 261 340 s \$0-length;
#X msg 492 80 \; \$2-temp resize \$1;
#X obj 492 52 pack f \$0;
#X obj 492 -9 inlet;
#X obj 492 32 * 44100;
#X obj 492 12 * 60;
#X obj 242 70 r \$0-rec;
#X obj 427 327 arraycopy;
#X obj 427 264 \$0;
#X msg 427 293 copy \$1-temp;
#X obj 304 168 t b b;
#X obj 516 265 \$0;
#X obj 369 370 pack f \$0;
#X msg 369 393 \; \$2-buffer resize \$1;
#X obj 368 149 table \$0-buffer;
#X msg 516 293 symbol \$1-buffer;
#X obj 427 241 t b b;
#X obj 369 337 * 44.1;
#X msg 242 123 start;
#X obj 242 173 t a b b;
#X connect 1 0 5 0;
#X connect 2 0 5 0;
#X connect 2 0 16 0;
#X connect 3 0 6 0;
#X connect 3 0 23 0;
#X connect 4 0 24 0;
#X connect 4 1 2 0;
#X connect 8 0 7 0;
#X connect 9 0 11 0;
#X connect 10 0 8 0;
#X connect 11 0 10 0;
#X connect 12 0 4 0;
#X connect 14 0 15 0;
#X connect 15 0 13 0;
#X connect 16 0 22 0;
#X connect 16 1 3 1;
#X connect 17 0 21 0;
#X connect 18 0 19 0;
#X connect 21 0 13 1;
#X connect 22 0 14 0;
#X connect 22 1 17 0;
#X connect 23 0 18 0;
#X connect 24 0 25 0;
#X connect 25 0 5 0;
#X connect 25 1 3 0;
#X restore 527 29 pd record;
#X floatatom 578 2 5 0 0 1 Set_Size_of_temporarry_array - -;
#X obj 28 -96 inlet~;
#X obj 366 -67 s \$0-rec;
#X obj 366 -90 tgl 15 0 empty empty empty 17 7 0 10 -258113 -1 -1 0
1;
#X obj 528 -23 r~ input;
#X obj 109 115 outlet~;
#N canvas 212 191 949 716 play 0;
#X obj 81 136 phasor~;
#X obj 81 239 *~;
#X obj 135 201 r \$0-length;
#X obj 82 267 tabread4~ \$0-buffer;
#X obj 81 2 r \$0-length;
#X obj 81 33 / 1000;
#X obj 81 82 1;
#X obj 81 103 /;
#X obj 135 222 * 44.1;
#X obj 465 456 +~;
#X obj 489 370 r~ input;
#X obj 488 426 *~;
#X obj 653 293 r \$0-overdub;
#X msg 424 335 start;
#X obj 424 310 edge~;
#X obj 425 278 expr~ $v1<0.5;
#X obj 424 532 tabwrite~ \$0-buffer;
#X msg 120 111 0;
#X obj 81 60 t b f b;
#X msg 299 71 0;
#X obj 299 40 sel 1 0;
#X obj 299 1 r \$0-rec;
#X obj 81 340 throw~ masterout;
#X obj 260 106 inlet juggle;
#X msg 539 335 start \$1;
#X obj 653 351 sel 1 0;
#X msg 662 388 stop;
#X obj 424 379 spigot;
#X text 652 273 OVERDUB Logic;
#X text 355 95 Playback;
#X obj 554 257 Snapshot~ 1;
#X obj 539 305 f;
#X obj 506 99 r \$0-play;
#X obj 507 129 sel 1 0;
#X obj 507 166 t b b;
#X obj 508 201 spigot;
#X msg 445 145 0;
#X obj 729 399 bng 15 250 50 0 empty empty empty 17 7 0 10 -262144
-1 -1;
#X obj 439 41 inlet;
#X obj 444 69 *;
#X obj 523 32 t b f;
#X obj 50 87 bng 15 250 50 0 empty empty empty 17 7 0 10 -262144 -1
-1;
#X floatatom 445 101 5 0 0 0 - - -;
#X connect 0 0 1 0;
#X connect 0 0 15 0;
#X connect 1 0 3 0;
#X connect 1 0 30 0;
#X connect 2 0 8 0;
#X connect 3 0 9 0;
#X connect 3 0 22 0;
#X connect 4 0 5 0;
#X connect 5 0 18 0;
#X connect 6 0 7 0;
#X connect 7 0 39 0;
#X connect 8 0 1 1;
#X connect 9 0 16 0;
#X connect 10 0 11 0;
#X connect 11 0 9 1;
#X connect 12 0 11 1;
#X connect 12 0 25 0;
#X connect 12 0 35 1;
#X connect 12 0 27 1;
#X connect 13 0 27 0;
#X connect 14 0 13 0;
#X connect 15 0 14 0;
#X connect 17 0 0 1;
#X connect 18 0 6 0;
#X connect 18 1 7 1;
#X connect 18 2 17 0;
#X connect 19 0 0 0;
#X connect 20 0 19 0;
#X connect 21 0 20 0;
#X connect 23 0 0 1;
#X connect 24 0 16 0;
#X connect 25 0 31 0;
#X connect 25 0 37 0;
#X connect 25 1 26 0;
#X connect 26 0 16 0;
#X connect 27 0 16 0;
#X connect 30 0 31 1;
#X connect 31 0 24 0;
#X connect 32 0 33 0;
#X connect 33 0 34 0;
#X connect 33 1 26 0;
#X connect 33 1 36 0;
#X connect 34 0 35 0;
#X connect 34 1 6 0;
#X connect 35 0 31 0;
#X connect 36 0 0 0;
#X connect 38 0 40 0;
#X connect 39 0 0 0;
#X connect 39 0 42 0;
#X connect 40 0 39 0;
#X connect 40 1 39 1;
#X connect 41 0 18 0;
#X restore 527 75 pd play;
#X floatatom 584 59 5 0 0 0 - - -;
#X obj 596 -41 loadbang;
#X msg 596 -19 1;
#N canvas 631 16 871 376 launchpad 1;
#X obj 388 -280 route /wac.lp/0/1/press;
#X obj 388 -252 unpack f f f;
#X obj 382 -193 f;
#X obj 385 -316 netreceive 8195 1;
#X obj 382 -223 sel 1 2;
#X obj 486 -200 f;
#X obj 382 -166 sel 1;
#X obj 501 -163 sel 1;
#X obj 288 -273 s fromlaunchpad;
#X obj 133 -317 route /wac.lp/0/1/press;
#X obj 133 -289 unpack f f f;
#X obj 202 -206 sel 1 0;
#X obj 135 -241 sel 0;
#X obj 187 -244 f;
#X obj 175 -146 outlet;
#X obj 341 -103 outlet;
#X obj 496 -102 outlet;
#X connect 0 0 1 0;
#X connect 1 0 4 0;
#X connect 1 2 2 1;
#X connect 1 2 5 1;
#X connect 2 0 6 0;
#X connect 3 0 0 0;
#X connect 3 0 8 0;
#X connect 3 0 9 0;
#X connect 4 0 2 0;
#X connect 4 1 5 0;
#X connect 5 0 7 0;
#X connect 6 0 15 0;
#X connect 7 0 16 0;
#X connect 9 0 10 0;
#X connect 10 0 12 0;
#X connect 10 2 13 1;
#X connect 11 0 14 0;
#X connect 12 0 13 0;
#X connect 13 0 11 0;
#X restore 366 -167 pd launchpad;
#N canvas 8 104 450 300 create 1;
#X msg 107 177 \; pd obj table \$2-buffer\$1;
#X obj 107 157 pack f \$0;
#X obj 62 82 r \$0-rec;
#X obj 62 112 sel 1;
#X obj 107 129 f;
#X obj 122 94 r \$0-buffer;
#X msg 111 222 \; pd obj loopplayback \$1;
#X connect 1 0 0 0;
#X connect 2 0 3 0;
#X connect 3 0 4 0;
#X connect 4 0 1 0;
#X connect 5 0 4 1;
#X restore 527 96 pd create;
#X obj 577 -66 s \$0-buffer;
#X floatatom 577 -96 5 0 0 1 REcord_into_Buffer_Number_#1 - -;
#N canvas 1095 147 450 300 tables 1;
#X restore 528 119 pd tables;
#X obj 652 109 loopplayback;
#X connect 0 0 12 0;
#X connect 3 0 2 0;
#X connect 5 0 4 0;
#X connect 7 0 6 1;
#X connect 8 0 1 0;
#X connect 8 0 12 0;
#X connect 10 0 9 0;
#X connect 11 0 6 0;
#X connect 14 0 13 1;
#X connect 15 0 16 0;
#X connect 16 0 7 0;
#X connect 17 0 10 0;
#X connect 17 1 3 0;
#X connect 17 2 5 0;
#X connect 20 0 19 0;
