#N canvas 960 0 952 1006 10;
#X obj 110 76 catch~ masterout;
#X obj 27 -15 s~ input;
#X obj 421 -67 s \$0-overdub;
#X obj 421 -90 tgl 15 0 empty empty empty 17 7 0 10 -262144 -1 -1 0
1;
#X obj 501 -67 s \$0-play;
#X obj 501 -91 tgl 15 0 empty empty empty 17 7 0 10 -262144 -1 -1 1
1;
#N canvas 960 0 952 1006 record 0;
#X obj 368 128 table \$0-temp;
#X obj 68 177 inlet~;
#X msg 304 130 stop;
#X obj 261 265 timer;
#X obj 242 97 sel 1 0;
#X obj 69 254 tabwrite~ \$0-temp;
#X msg 492 80 \; \$2-temp resize \$1;
#X obj 492 52 pack f \$0;
#X obj 492 -9 inlet;
#X obj 492 32 * 44100;
#X obj 492 12 * 60;
#X obj 242 70 r \$0-rec;
#X obj 427 327 arraycopy;
#X obj 427 264 \$0;
#X msg 427 293 copy \$1-temp;
#X obj 369 337 * 44.1;
#X msg 242 123 start;
#X obj 242 173 t a b b;
#X obj 317 505 pack f \$0;
#X obj 261 567 s;
#X obj 317 476 r \$0-buffer;
#X obj 369 370 pack f \$0 f;
#X msg 369 393 \; \$2-buffer\$3 resize \$1;
#X obj 516 265 pack f \$0;
#X obj 531 216 r \$0-buffer;
#X msg 516 293 symbol \$2-buffer\$1;
#X msg 317 543 symbol \$2-length\$1;
#X obj 516 237 f;
#X obj 304 168 t b b b;
#X text 50 27 Records into very long temporarry array and than transvers
it to an real buffer for playback;
#X connect 1 0 5 0;
#X connect 2 0 5 0;
#X connect 2 0 28 0;
#X connect 3 0 15 0;
#X connect 3 0 19 0;
#X connect 4 0 16 0;
#X connect 4 1 2 0;
#X connect 7 0 6 0;
#X connect 8 0 10 0;
#X connect 9 0 7 0;
#X connect 10 0 9 0;
#X connect 11 0 4 0;
#X connect 13 0 14 0;
#X connect 14 0 12 0;
#X connect 15 0 21 0;
#X connect 16 0 17 0;
#X connect 17 0 5 0;
#X connect 17 1 3 0;
#X connect 18 0 26 0;
#X connect 20 0 18 0;
#X connect 20 0 21 2;
#X connect 21 0 22 0;
#X connect 23 0 25 0;
#X connect 24 0 27 1;
#X connect 25 0 12 1;
#X connect 26 0 19 1;
#X connect 27 0 23 0;
#X connect 28 0 13 0;
#X connect 28 1 27 0;
#X connect 28 2 3 1;
#X restore 516 190 pd record;
#X floatatom 567 163 5 0 0 1 Set_Size_of_temporarry_array - -;
#X obj 28 -96 inlet~;
#X obj 366 -67 s \$0-rec;
#X obj 366 -90 tgl 15 0 empty empty empty 17 7 0 10 -258113 -1 -1 0
1;
#X obj 517 138 r~ input;
#X obj 109 115 outlet~;
#X obj 585 120 loadbang;
#X msg 585 142 1;
#N canvas 631 16 871 376 launchpad 0;
#X obj 388 -280 route /wac.lp/0/1/press;
#X obj 388 -252 unpack f f f;
#X obj 382 -193 f;
#X obj 385 -316 netreceive 8195 1;
#X obj 382 -223 sel 1 2;
#X obj 486 -200 f;
#X obj 382 -166 sel 1;
#X obj 501 -163 sel 1;
#X obj 288 -273 s fromlaunchpad;
#X obj 133 -317 route /wac.lp/0/1/press;
#X obj 133 -289 unpack f f f;
#X obj 202 -206 sel 1 0;
#X obj 135 -241 sel 0;
#X obj 187 -244 f;
#X obj 175 -146 outlet;
#X obj 341 -103 outlet;
#X obj 496 -102 outlet;
#X connect 0 0 1 0;
#X connect 1 0 4 0;
#X connect 1 2 2 1;
#X connect 1 2 5 1;
#X connect 2 0 6 0;
#X connect 3 0 0 0;
#X connect 3 0 8 0;
#X connect 3 0 9 0;
#X connect 4 0 2 0;
#X connect 4 1 5 0;
#X connect 5 0 7 0;
#X connect 6 0 15 0;
#X connect 7 0 16 0;
#X connect 9 0 10 0;
#X connect 10 0 12 0;
#X connect 10 2 13 1;
#X connect 11 0 14 0;
#X connect 12 0 13 0;
#X connect 13 0 11 0;
#X restore 366 -167 pd launchpad;
#N canvas 275 372 918 458 create 1;
#X obj 103 -19 r \$0-rec;
#X obj 103 84 sel 1;
#X obj 157 172 f;
#X obj 172 4 r \$0-buffer;
#X obj 277 147 f;
#X msg 411 212 \; pd-playback obj 120 \$3 loopplayback \$2 \$1;
#X obj 157 195 pack f \$0 f;
#X obj 276 178 + 20;
#X msg 157 217 \; pd-tables obj 120 \$3 table \$2-buffer\$1;
#X obj 120 249 f;
#X msg 120 273 \; pd-playback obj 240 \$1 u_dummy;
#X msg 292 118 0;
#N canvas 382 20 450 300 indexfilter 0;
#X obj 24 214 tabwrite \$0-check;
#X obj 320 90 table \$0-check;
#X obj 73 87 inlet;
#X obj 139 214 tabread \$0-check;
#X obj 139 256 outlet;
#X obj 139 235 == 0;
#X msg 249 246 \; \$2-check resize \$1;
#X obj 249 215 pack f \$0;
#X msg 24 158 1;
#X obj 73 109 t b f f f;
#X msg 251 154 \; \$1-check const 0;
#X obj 251 133 \$0;
#X obj 251 89 r \$0-reset;
#X connect 2 0 9 0;
#X connect 3 0 5 0;
#X connect 5 0 4 0;
#X connect 7 0 6 0;
#X connect 8 0 0 0;
#X connect 9 0 8 0;
#X connect 9 1 0 1;
#X connect 9 2 3 0;
#X connect 9 3 7 0;
#X connect 11 0 10 0;
#X connect 12 0 11 0;
#X restore 183 66 pd indexfilter;
#X obj 103 58 spigot;
#X obj 183 97 tgl 15 0 empty empty empty 17 7 0 10 -262144 -1 -1 0
1;
#X obj 183 37 f;
#X obj 121 12 sel 1;
#X obj 292 94 r \$0-reset;
#X obj -15 306 pack f \$0 f;
#X obj -15 260 f;
#X obj 103 107 t b b b b;
#X obj 18 260 + 80;
#X msg -15 326 \; pd-gui obj 0 \$1 loop_gui \$2 \$3;
#X obj -42 201 t b b;
#X obj -42 414 s;
#X msg -26 387 symbol \$2-initgui\$3;
#X connect 0 0 13 0;
#X connect 0 0 16 0;
#X connect 1 0 20 0;
#X connect 2 0 6 0;
#X connect 3 0 2 1;
#X connect 3 0 15 0;
#X connect 3 0 18 2;
#X connect 4 0 7 0;
#X connect 6 0 8 0;
#X connect 6 0 5 0;
#X connect 7 0 4 1;
#X connect 7 0 6 2;
#X connect 7 0 9 1;
#X connect 9 0 10 0;
#X connect 11 0 4 1;
#X connect 11 0 19 1;
#X connect 12 0 13 1;
#X connect 12 0 14 0;
#X connect 13 0 1 0;
#X connect 15 0 12 0;
#X connect 16 0 15 0;
#X connect 17 0 11 0;
#X connect 18 0 22 0;
#X connect 18 0 25 0;
#X connect 19 0 21 0;
#X connect 19 0 18 0;
#X connect 20 0 23 0;
#X connect 20 1 9 0;
#X connect 20 2 2 0;
#X connect 20 3 4 0;
#X connect 21 0 19 1;
#X connect 23 0 24 0;
#X connect 23 1 19 0;
#X connect 25 0 24 1;
#X restore 516 209 pd create;
#X obj 577 -66 s \$0-buffer;
#X floatatom 577 -96 5 0 0 1 REcord_into_Buffer_Number_#1 - -;
#X obj 347 40 s;
#X obj 417 -9 s;
#X obj 475 -3 s;
#X msg 362 10 symbol \$2-rec\$1;
#X obj 604 -21 pack f \$0;
#X msg 430 -28 symbol \$2-overdub\$1;
#X msg 490 -43 symbol \$2-play\$1;
#X obj 94 -96 bng 15 250 50 0 empty empty empty 17 7 0 10 -262144 -1
-1;
#N canvas 0 0 563 300 playback 0;
#X obj 120 20 loopplayback 1003 1;
#X obj 240 20 u_dummy;
#X obj 120 40 loopplayback 1003 2;
#X obj 240 40 u_dummy;
#X restore 517 248 pd playback;
#N canvas 323 0 450 300 tables 0;
#X obj 120 20 table 1003-buffer1;
#X obj 120 40 table 1003-buffer2;
#X restore 517 229 pd tables;
#N canvas 1375 354 450 300 reset 0;
#X obj 303 182 s \$0-reset;
#X obj 303 158 bng 15 250 50 0 empty empty empty 17 7 0 10 -262144
-1 -1;
#X msg 71 182 \; pd-tables clear;
#X msg 179 183 \; pd-playback clear;
#X obj 71 141 inlet;
#X msg 71 223 \; pd-gui clear;
#X connect 1 0 0 0;
#X connect 4 0 1 0;
#X connect 4 0 3 0;
#X connect 4 0 2 0;
#X connect 4 0 5 0;
#X restore 94 -76 pd reset;
#N canvas 1402 373 450 300 gui 0;
#X obj 0 0 loop_gui 1003 1;
#X obj 0 80 loop_gui 1003 2;
#X coords 0 -1 1 1 200 400 2 0 0;
#X restore 246 75 pd gui;
#X obj 517 268 r \$0-rec1;
#X obj 527 312 tgl 15 0 empty empty empty 17 7 0 10 -262144 -1 -1 0
1;
#X connect 0 0 12 0;
#X connect 3 0 2 0;
#X connect 3 0 20 0;
#X connect 5 0 4 0;
#X connect 5 0 21 0;
#X connect 7 0 6 1;
#X connect 8 0 1 0;
#X connect 8 0 12 0;
#X connect 10 0 9 0;
#X connect 10 0 19 0;
#X connect 11 0 6 0;
#X connect 13 0 14 0;
#X connect 14 0 7 0;
#X connect 15 0 10 0;
#X connect 15 1 3 0;
#X connect 15 2 5 0;
#X connect 18 0 17 0;
#X connect 18 0 23 0;
#X connect 22 0 19 1;
#X connect 23 0 22 0;
#X connect 23 0 24 0;
#X connect 23 0 25 0;
#X connect 24 0 20 1;
#X connect 25 0 21 1;
#X connect 26 0 29 0;
#X connect 31 0 32 0;
