#N canvas 0 0 1154 601 10;
#X obj 91 146 phasor~;
#X obj 91 249 *~;
#X obj 91 43 / 1000;
#X obj 91 92 1;
#X obj 91 113 /;
#X obj 145 232 * 44.1;
#X obj 475 466 +~;
#X obj 499 380 r~ input;
#X obj 498 436 *~;
#X msg 434 345 start;
#X obj 434 320 edge~;
#X obj 435 288 expr~ $v1<0.5;
#X obj 434 542 tabwrite~ \$0-buffer;
#X msg 130 121 0;
#X obj 91 70 t b f b;
#X msg 309 81 0;
#X obj 309 50 sel 1 0;
#X obj 91 350 throw~ masterout;
#X obj 270 116 inlet juggle;
#X msg 549 345 start \$1;
#X obj 663 361 sel 1 0;
#X msg 672 398 stop;
#X obj 434 389 spigot;
#X text 662 283 OVERDUB Logic;
#X text 365 105 Playback;
#X obj 564 267 Snapshot~ 1;
#X obj 549 315 f;
#X obj 517 139 sel 1 0;
#X obj 517 176 t b b;
#X obj 518 211 spigot;
#X msg 455 155 0;
#X obj 739 409 bng 15 250 50 0 empty empty empty 17 7 0 10 -262144
-1 -1;
#X obj 449 51 inlet;
#X obj 454 79 *;
#X obj 533 42 t b f;
#X obj 60 97 bng 15 250 50 0 empty empty empty 17 7 0 10 -262144 -1
-1;
#X floatatom 455 111 5 0 0 0 - - -;
#X obj 91 12 r \$1-length\$2;
#X obj 309 11 r \$1-rec\$2;
#X obj 516 109 r \$1-play\$2;
#X obj 663 303 r \$1-overdub\$2;
#X obj 145 211 r \$1-length\$2;
#X obj 92 277 tabread4~ \$1-buffer\$2;
#X connect 0 0 1 0;
#X connect 0 0 11 0;
#X connect 1 0 25 0;
#X connect 1 0 42 0;
#X connect 2 0 14 0;
#X connect 3 0 4 0;
#X connect 4 0 33 0;
#X connect 5 0 1 1;
#X connect 6 0 12 0;
#X connect 7 0 8 0;
#X connect 8 0 6 1;
#X connect 9 0 22 0;
#X connect 10 0 9 0;
#X connect 11 0 10 0;
#X connect 13 0 0 1;
#X connect 14 0 3 0;
#X connect 14 1 4 1;
#X connect 14 2 13 0;
#X connect 15 0 0 0;
#X connect 16 0 15 0;
#X connect 18 0 0 1;
#X connect 19 0 12 0;
#X connect 20 0 26 0;
#X connect 20 0 31 0;
#X connect 20 1 21 0;
#X connect 21 0 12 0;
#X connect 22 0 12 0;
#X connect 25 0 26 1;
#X connect 26 0 19 0;
#X connect 27 0 28 0;
#X connect 27 1 21 0;
#X connect 27 1 30 0;
#X connect 28 0 29 0;
#X connect 28 1 3 0;
#X connect 29 0 26 0;
#X connect 30 0 0 0;
#X connect 32 0 34 0;
#X connect 33 0 0 0;
#X connect 33 0 36 0;
#X connect 34 0 33 0;
#X connect 34 1 33 1;
#X connect 35 0 14 0;
#X connect 37 0 2 0;
#X connect 38 0 16 0;
#X connect 39 0 27 0;
#X connect 40 0 8 1;
#X connect 40 0 20 0;
#X connect 40 0 29 1;
#X connect 40 0 22 1;
#X connect 41 0 5 0;
#X connect 42 0 6 0;
#X connect 42 0 17 0;
