#N canvas 303 268 974 1006 10;
#X obj 91 146 phasor~;
#X obj 92 211 *~;
#X obj 91 -68 / 1000;
#X obj 91 -17 1;
#X obj 91 4 /;
#X obj 145 197 * 44.1;
#X obj 535 466 +~;
#X obj 558 436 *~;
#X msg 494 345 start;
#X obj 494 320 edge~;
#X obj 495 288 expr~ $v1<0.5;
#X msg 130 121 0;
#X obj 91 -39 t b f b;
#X msg 309 81 0;
#X obj 309 50 sel 1 0;
#X msg 609 345 start \$1;
#X obj 723 361 sel 1 0;
#X msg 732 398 stop;
#X obj 494 389 spigot;
#X text 770 206 OVERDUB Logic;
#X text 112 -140 Playback;
#X obj 624 267 Snapshot~ 1;
#X obj 609 315 f;
#X obj 517 -71 sel 1 0;
#X obj 517 -34 t b b;
#X obj 518 1 spigot;
#X msg 455 -55 0;
#X obj 218 37 t b f;
#X obj 91 -97 r \$1-length\$2;
#X obj 309 11 r \$1-rec\$2;
#X obj 516 -101 r \$1-play\$2;
#X obj 723 303 r \$1-overdub\$2;
#X obj 145 173 r \$1-length\$2;
#X obj 92 277 tabread4~ \$1-buffer\$2;
#X obj 494 542 tabwrite~ \$1-buffer\$2;
#X obj 218 68 * 1;
#X obj 91 382 *~;
#X obj 106 317 r \$1-vol\$2;
#X obj 106 337 sig~ 1;
#X obj 218 11 r \$1-speed\$2;
#X obj 168 129 r \$1-juggle\$2;
#X obj -8 262 change;
#X obj -8 216 Snapshot~ 100;
#X obj -8 284 prepend pos\$2;
#X obj -8 305 s \$1-pos;
#X obj 151 420 s \$1-vol;
#X obj 151 397 prepend vol\$2;
#X obj 105 360 *~;
#X obj 258 151 s \$1-speed;
#X obj 258 129 prepend speed\$2;
#X obj 795 398 s \$1-ovd;
#X obj 559 380 r~ \$1-input;
#X obj 795 373 prepend ovd\$2;
#X obj 151 344 r \$1-report;
#X obj 151 368 f;
#X obj 258 100 f;
#X obj 384 83 r \$1-report;
#X obj 795 323 r \$1-report;
#X obj 795 347 f;
#X obj 230 228 f;
#X obj 230 273 s \$1-length;
#X obj 230 251 prepend length\$2;
#X obj 91 455 throw~ \$1-masterout;
#X connect 0 0 1 0;
#X connect 0 0 10 0;
#X connect 0 0 42 0;
#X connect 1 0 21 0;
#X connect 1 0 33 0;
#X connect 2 0 12 0;
#X connect 3 0 4 0;
#X connect 4 0 35 0;
#X connect 5 0 1 1;
#X connect 5 0 59 0;
#X connect 6 0 34 0;
#X connect 7 0 6 1;
#X connect 8 0 18 0;
#X connect 9 0 8 0;
#X connect 10 0 9 0;
#X connect 11 0 0 1;
#X connect 12 0 3 0;
#X connect 12 1 4 1;
#X connect 12 2 11 0;
#X connect 13 0 0 0;
#X connect 14 0 13 0;
#X connect 15 0 34 0;
#X connect 16 0 22 0;
#X connect 16 1 17 0;
#X connect 17 0 34 0;
#X connect 18 0 34 0;
#X connect 21 0 22 1;
#X connect 22 0 15 0;
#X connect 23 0 24 0;
#X connect 23 1 17 0;
#X connect 23 1 26 0;
#X connect 24 0 25 0;
#X connect 24 1 3 0;
#X connect 25 0 22 0;
#X connect 26 0 0 0;
#X connect 27 0 35 0;
#X connect 27 1 35 1;
#X connect 28 0 2 0;
#X connect 29 0 14 0;
#X connect 30 0 23 0;
#X connect 31 0 7 1;
#X connect 31 0 16 0;
#X connect 31 0 25 1;
#X connect 31 0 18 1;
#X connect 31 0 58 0;
#X connect 32 0 5 0;
#X connect 33 0 6 0;
#X connect 33 0 36 0;
#X connect 35 0 0 0;
#X connect 36 0 62 0;
#X connect 37 0 38 0;
#X connect 37 0 54 0;
#X connect 38 0 47 0;
#X connect 38 0 47 1;
#X connect 39 0 27 0;
#X connect 39 0 55 0;
#X connect 40 0 0 1;
#X connect 41 0 43 0;
#X connect 42 0 41 0;
#X connect 43 0 44 0;
#X connect 46 0 45 0;
#X connect 47 0 36 1;
#X connect 49 0 48 0;
#X connect 51 0 7 0;
#X connect 52 0 50 0;
#X connect 53 0 54 0;
#X connect 54 0 46 0;
#X connect 55 0 49 0;
#X connect 56 0 55 0;
#X connect 56 0 59 0;
#X connect 57 0 58 0;
#X connect 58 0 52 0;
#X connect 59 0 61 0;
#X connect 61 0 60 0;
