#N canvas 235 99 598 396 10;
#X obj 247 175 f;
#X obj 50 138 t f b;
#N canvas 184 184 450 300 colorbright 0;
#X obj 55 22 inlet;
#X obj 254 104 inlet;
#X obj 54 202 outlet;
#X obj 96 203 outlet;
#X obj 58 74 select red orange green;
#X msg 54 108 0 1;
#X msg 101 106 1 1;
#X msg 148 106 1 0;
#X obj 54 132 unpack;
#X obj 59 43 prepend symbol;
#X obj 54 153 * 1;
#X obj 92 156 * 1;
#X obj 254 132 t b f;
#X connect 0 0 9 0;
#X connect 1 0 12 0;
#X connect 4 0 5 0;
#X connect 4 1 6 0;
#X connect 4 2 7 0;
#X connect 5 0 8 0;
#X connect 6 0 8 0;
#X connect 7 0 8 0;
#X connect 8 0 10 0;
#X connect 8 1 11 0;
#X connect 9 0 4 0;
#X connect 10 0 2 0;
#X connect 11 0 3 0;
#X connect 12 0 10 0;
#X connect 12 0 11 0;
#X connect 12 1 10 1;
#X connect 12 1 11 1;
#X restore 109 176 pd colorbright;
#X msg 109 138 red;
#X msg 145 138 green;
#X msg 185 137 orange;
#X obj 50 116 inlet;
#X obj 50 261 outlet;
#X obj 109 83 inlet;
#X obj 109 106 sel 1 0;
#X obj 50 204 pack f f f \$1 \$2 \$3;
#X obj 267 205 pack f \$1 \$2 \$3;
#X floatatom 275 137 5 0 0 0 - - -;
#X obj 238 136 3;
#X msg 50 234 send /wac.lp/\$6/\$5/led \$1 \$4 \$2 \$3;
#X msg 267 234 send /wac.lp/\$4/\$3/led \$1 \$2 0 0;
#X obj 173 68 loadbang;
#X msg 173 89 0;
#X connect 0 0 11 0;
#X connect 1 0 0 1;
#X connect 1 0 10 0;
#X connect 1 1 0 0;
#X connect 2 0 10 1;
#X connect 2 1 10 2;
#X connect 3 0 2 0;
#X connect 4 0 2 0;
#X connect 5 0 2 0;
#X connect 6 0 1 0;
#X connect 8 0 9 0;
#X connect 9 0 3 0;
#X connect 9 0 13 0;
#X connect 9 1 5 0;
#X connect 9 1 13 0;
#X connect 10 0 14 0;
#X connect 11 0 15 0;
#X connect 12 0 2 1;
#X connect 13 0 2 1;
#X connect 14 0 7 0;
#X connect 15 0 7 0;
#X connect 16 0 17 0;
#X connect 17 0 9 0;
