#N canvas 0 0 657 497 10;
#N canvas 70 233 688 421 indexdriver 0;
#X obj 69 192 s toLaunchpad;
#X msg 269 161 send /wac.lp/0/1/led \$1 7 0 0;
#X msg 69 162 send /wac.lp/0/1/led \$1 7 1 1;
#X obj 269 133 f;
#X text 272 -130 Step Index LED;
#X obj 69 59 t f b;
#X obj 69 -150 inlet;
#X obj 190 -26 &&;
#X obj 69 -107 t f f f;
#X obj 69 -9 spigot;
#X obj 188 -52 <= 8;
#X obj 220 -52 >= 8;
#X obj 209 -149 inlet;
#X obj 69 38 % 8;
#X obj 209 -124 * 8;
#X obj 240 -90 - 8;
#X obj 69 -129 + 1;
#X obj 69 15 - 1;
#X text 282 -65 Check if values are in the range of current page;
#X text 282 -55 If not close spigot;
#X connect 1 0 0 0;
#X connect 2 0 0 0;
#X connect 3 0 1 0;
#X connect 5 0 3 1;
#X connect 5 0 2 0;
#X connect 5 1 3 0;
#X connect 6 0 16 0;
#X connect 7 0 9 1;
#X connect 8 0 9 0;
#X connect 8 1 10 0;
#X connect 8 2 11 0;
#X connect 9 0 17 0;
#X connect 10 0 7 0;
#X connect 11 0 7 1;
#X connect 12 0 14 0;
#X connect 13 0 5 0;
#X connect 14 0 10 1;
#X connect 14 0 15 0;
#X connect 15 0 11 1;
#X connect 16 0 8 0;
#X connect 17 0 13 0;
#X restore 173 140 pd indexdriver;
#N canvas 274 5 952 1006 setsteps 1;
#X obj 205 173 unpack f f f;
#X obj 205 616 pack f f f;
#X obj 142 714 s toLaunchpad;
#X msg 142 641 green;
#X obj 311 435 f;
#X obj 142 618 loadbang;
#X obj 311 460 tgl 15 0 empty empty empty 17 7 0 10 -262144 -1 -1 3
3;
#X obj 311 331 t b b f f;
#X obj 311 299 spigot;
#N canvas 792 395 883 447 ledcolor 0;
#X msg 181 356 send /wac.lp/0/1/led \$1 \$2 \$3;
#X obj 181 325 gate 3;
#X obj 93 251 sel green red orange;
#X msg 93 282 1;
#X msg 93 301 2;
#X msg 93 320 3;
#X obj 93 227 prepend symbol;
#X msg 364 356 send /wac.lp/0/1/led \$1 \$2 0 \$3;
#X msg 569 356 send /wac.lp/0/1/led \$1 \$2 \$3 \$3;
#X obj 93 202 inlet;
#X obj 258 221 inlet;
#X obj 181 413 outlet;
#X connect 0 0 11 0;
#X connect 1 0 0 0;
#X connect 1 1 7 0;
#X connect 1 2 8 0;
#X connect 2 0 3 0;
#X connect 2 1 4 0;
#X connect 2 2 5 0;
#X connect 3 0 1 0;
#X connect 4 0 1 0;
#X connect 5 0 1 0;
#X connect 6 0 2 0;
#X connect 7 0 11 0;
#X connect 8 0 11 0;
#X connect 9 0 6 0;
#X connect 10 0 1 1;
#X restore 142 677 pd ledcolor;
#X msg 385 308 set \$2-seq\$1;
#X msg 412 287 set \$2-seq\$1;
#X obj 404 348 tabread;
#X obj 311 505 tabwrite;
#X obj 385 223 pack f \$0;
#X obj 311 273 + 8;
#X msg 326 183 0;
#X msg 359 183 8;
#X obj 385 253 t l l;
#X msg 720 284 send /wac.lp/0/1/clear;
#N canvas 960 0 952 1006 tabledump 0;
#X obj 30 154 f;
#X obj 89 154 + 1;
#X obj 41 366 until;
#X obj 41 419 f;
#X obj 111 420 + 1;
#X msg 41 322 8;
#X obj 55 565 tabread;
#X obj 135 669 pack f f f;
#X obj 108 837 outlet;
#X msg 125 322 set \$2-seq\$1;
#X obj 125 296 pack f \$0;
#X obj 162 560 t f f;
#X msg 108 796 send /wac.lp/0/1/led \$3 \$2 \$1;
#X msg 60 11 8;
#X msg 29 10 0;
#X obj 29 -45 inlet;
#X obj 29 37 t b f b;
#X msg 69 111 0;
#X obj 232 425 sel 1;
#X obj 41 254 spigot;
#X obj 146 232 == 0;
#X obj 42 216 t f f;
#X obj 146 202 >= 8;
#X obj 41 292 t b f b;
#X obj 80 384 f;
#X obj 237 392 >= 8;
#X obj 195 188 + 7;
#X obj 192 630 % 8;
#X obj 29 -23 sel 0 8;
#X msg 44 619 2;
#X msg 92 623 3;
#X obj 44 595 sel 1 0;
#X msg 75 655 0;
#X connect 0 0 1 0;
#X connect 0 0 21 0;
#X connect 1 0 0 1;
#X connect 2 0 3 0;
#X connect 3 0 4 0;
#X connect 3 0 11 0;
#X connect 3 0 25 0;
#X connect 4 0 3 1;
#X connect 5 0 2 0;
#X connect 6 0 31 0;
#X connect 7 0 12 0;
#X connect 9 0 6 0;
#X connect 10 0 9 0;
#X connect 11 0 6 0;
#X connect 11 1 27 0;
#X connect 12 0 8 0;
#X connect 13 0 16 0;
#X connect 14 0 16 0;
#X connect 15 0 28 0;
#X connect 16 0 0 0;
#X connect 16 1 24 1;
#X connect 16 1 26 0;
#X connect 16 2 17 0;
#X connect 17 0 0 1;
#X connect 18 0 0 0;
#X connect 19 0 23 0;
#X connect 20 0 19 1;
#X connect 21 0 19 0;
#X connect 21 1 22 0;
#X connect 22 0 20 0;
#X connect 23 0 5 0;
#X connect 23 1 10 0;
#X connect 23 1 7 1;
#X connect 23 2 24 0;
#X connect 24 0 3 1;
#X connect 25 0 18 0;
#X connect 26 0 25 1;
#X connect 27 0 7 2;
#X connect 28 0 14 0;
#X connect 28 1 13 0;
#X connect 29 0 7 0;
#X connect 30 0 7 0;
#X connect 31 0 29 0;
#X connect 31 1 32 0;
#X connect 31 2 30 0;
#X connect 32 0 7 0;
#X restore 694 252 pd tabledump;
#N canvas 550 131 642 416 menuleds 0;
#X obj 54 -86 inlet;
#X obj 168 295 s toLaunchpad;
#X obj 54 -41 - 1;
#X obj 167 225 pack f f f;
#N canvas 529 169 450 300 colorbright 0;
#X obj 55 22 inlet;
#X obj 280 65 inlet;
#X obj 55 234 outlet;
#X obj 97 235 outlet;
#X obj 58 74 select red orange green;
#X msg 54 108 0 1;
#X msg 101 106 1 1;
#X msg 148 106 1 0;
#X obj 54 132 unpack;
#X obj 59 43 prepend symbol;
#X obj 55 185 * 1;
#X obj 93 188 * 1;
#X obj 280 93 t b f;
#X connect 0 0 9 0;
#X connect 1 0 12 0;
#X connect 4 0 5 0;
#X connect 4 1 6 0;
#X connect 4 2 7 0;
#X connect 5 0 8 0;
#X connect 6 0 8 0;
#X connect 7 0 8 0;
#X connect 8 0 10 0;
#X connect 8 1 11 0;
#X connect 9 0 4 0;
#X connect 10 0 2 0;
#X connect 11 0 3 0;
#X connect 12 0 10 0;
#X connect 12 0 11 0;
#X connect 12 1 10 1;
#X connect 12 1 11 1;
#X restore 226 197 pd colorbright;
#X msg 226 159 red;
#X msg 262 159 green;
#X msg 306 159 orange;
#X floatatom 356 159 5 0 0 0 - - -;
#X obj 189 83 sel 0 1 2 3 4;
#X obj 356 110 sel 1 0;
#X msg 177 0 0;
#X obj 357 83 tgl 15 0 empty empty empty 17 7 0 10 -262144 -1 -1 0
1;
#X msg 345 19 1;
#X obj 39 47 f;
#X floatatom 58 150 5 0 0 0 - - -;
#X obj 54 -61 change;
#X obj 167 43 t f f;
#X msg 356 134 3;
#X msg 391 135 1;
#X obj 54 -17 t f b f b;
#X msg 168 255 send /wac.lp/0/1/led 8 \$1 \$2 \$3;
#X connect 0 0 16 0;
#X connect 2 0 20 0;
#X connect 3 0 21 0;
#X connect 4 0 3 1;
#X connect 4 1 3 2;
#X connect 5 0 4 0;
#X connect 6 0 4 0;
#X connect 7 0 4 0;
#X connect 8 0 4 1;
#X connect 9 0 6 0;
#X connect 9 1 7 0;
#X connect 9 2 7 0;
#X connect 9 3 5 0;
#X connect 9 4 7 0;
#X connect 10 0 18 0;
#X connect 10 1 19 0;
#X connect 11 0 12 0;
#X connect 12 0 10 0;
#X connect 13 0 12 0;
#X connect 14 0 15 0;
#X connect 14 0 17 0;
#X connect 16 0 2 0;
#X connect 17 0 3 0;
#X connect 17 1 9 0;
#X connect 18 0 8 0;
#X connect 19 0 8 0;
#X connect 20 0 3 0;
#X connect 20 0 14 1;
#X connect 20 1 13 0;
#X connect 20 2 9 0;
#X connect 20 3 11 0;
#X connect 20 3 14 0;
#X connect 21 0 1 0;
#X restore 567 244 pd menuleds;
#X obj 694 200 t f b;
#X text 841 125 CLEAN UP!!!!!;
#X obj 205 256 moses 8;
#X obj 205 115 inlet;
#X obj 326 120 inlet;
#X obj 471 484 f;
#X obj 564 418 r \$0-accentstrength;
#X obj 326 154 sel 1 2;
#X obj 713 377 r \$0-mode;
#X obj 711 427 tgl 15 0 empty empty empty 17 7 0 10 -262144 -1 -1 1
1;
#X obj 713 448 sel 1 0;
#X obj 713 407 sel 2;
#X floatatom 782 409 5 0 0 0 - - -;
#X msg 1059 465 4;
#X obj 1096 528 tgl 15 0 empty empty empty 17 7 0 10 -262144 -1 -1
0 4;
#X obj 1058 513 bng 15 250 50 0 empty empty empty 17 7 0 10 -262144
-1 -1;
#X floatatom 1096 557 5 0 0 0 - - -;
#X obj 262 533 sel 1 0;
#X msg 293 570 0;
#X msg 321 570 3;
#X msg 262 570 2;
#X obj 442 379 sel 1;
#X obj 442 434 tgl 15 0 empty empty empty 17 7 0 10 -262144 -1 -1 0
1;
#X msg 442 405 1;
#X msg 469 405 0;
#X obj 442 455 sel 1 0;
#X msg 442 483 1;
#X msg 649 497 0;
#X obj 549 460 f;
#X floatatom 595 469 5 0 0 0 - - -;
#X obj 439 730 sel 1;
#X floatatom 442 675 5 0 0 0 - - -;
#X floatatom 479 773 5 0 0 0 - - -;
#X floatatom 407 770 5 0 0 0 - - -;
#X obj 424 813 bng 15 250 50 0 empty empty empty 17 7 0 10 -262144
-1 -1;
#X obj 491 806 bng 15 250 50 0 empty empty empty 17 7 0 10 -262144
-1 -1;
#X obj 542 774 counter;
#X obj 372 777 counter;
#X connect 0 0 24 0;
#X connect 0 1 1 1;
#X connect 0 1 14 0;
#X connect 0 2 8 1;
#X connect 1 0 9 1;
#X connect 3 0 9 0;
#X connect 4 0 6 0;
#X connect 5 0 3 0;
#X connect 6 0 39 0;
#X connect 6 0 13 0;
#X connect 7 0 4 0;
#X connect 7 1 44 0;
#X connect 7 2 13 1;
#X connect 7 3 12 0;
#X connect 8 0 7 0;
#X connect 9 0 2 0;
#X connect 10 0 13 0;
#X connect 11 0 12 0;
#X connect 12 0 43 0;
#X connect 14 0 18 0;
#X connect 15 0 8 0;
#X connect 16 0 15 1;
#X connect 16 0 22 0;
#X connect 17 0 15 1;
#X connect 17 0 22 0;
#X connect 18 0 10 0;
#X connect 18 1 11 0;
#X connect 19 0 2 0;
#X connect 20 0 2 0;
#X connect 22 0 20 0;
#X connect 22 1 19 0;
#X connect 24 0 15 0;
#X connect 24 0 1 0;
#X connect 25 0 0 0;
#X connect 26 0 29 0;
#X connect 27 0 4 1;
#X connect 28 0 50 1;
#X connect 29 0 16 0;
#X connect 29 1 17 0;
#X connect 30 0 33 0;
#X connect 30 0 34 0;
#X connect 31 0 32 0;
#X connect 32 0 50 0;
#X connect 32 1 49 0;
#X connect 33 0 31 0;
#X connect 35 0 36 0;
#X connect 36 0 38 0;
#X connect 37 0 36 0;
#X connect 39 0 42 0;
#X connect 39 1 40 0;
#X connect 39 2 41 0;
#X connect 40 0 1 2;
#X connect 41 0 1 2;
#X connect 42 0 1 2;
#X connect 43 0 45 0;
#X connect 43 1 46 0;
#X connect 44 0 47 0;
#X connect 45 0 44 0;
#X connect 46 0 44 0;
#X connect 47 0 48 0;
#X connect 47 1 27 0;
#X connect 48 0 4 1;
#X connect 49 0 27 1;
#X connect 50 0 27 1;
#X connect 51 0 50 1;
#X connect 52 0 55 0;
#X connect 52 0 59 0;
#X connect 52 1 58 0;
#X connect 53 0 52 0;
#X connect 58 0 57 0;
#X connect 59 0 56 0;
#X restore 165 61 pd setsteps;
#N canvas -4 -4 1920 1014 readsteps 0;
#X floatatom -33 73 5 0 0 0 - - -;
#X obj -33 176 s_simpler;
#X floatatom 72 122 5 0 0 0 - - -;
#X obj 95 161 bng 15 250 50 0 empty empty empty 17 7 0 10 -262144 -1
-1;
#X obj -34 262 throw~ masterMONO;
#X obj -33 46 tabread \$0-seq0;
#X obj 622 176 s_bd;
#X obj -33 -16 inlet;
#X obj -34 224 *~;
#X obj -6 143 f;
#X obj -33 123 t f b;
#X obj -18 199 sig~;
#X floatatom 127 73 5 0 0 0 - - -;
#X obj 127 99 sel 1;
#X obj 127 176 s_simpler;
#X floatatom 232 122 5 0 0 0 - - -;
#X obj 255 161 bng 15 250 50 0 empty empty empty 17 7 0 10 -262144
-1 -1;
#X obj 126 262 throw~ masterMONO;
#X obj 126 224 *~;
#X obj 154 143 f;
#X obj 127 123 t f b;
#X obj 142 199 sig~;
#X floatatom 287 73 5 0 0 0 - - -;
#X obj 287 99 sel 1;
#X obj 287 176 s_simpler;
#X floatatom 392 122 5 0 0 0 - - -;
#X obj 415 161 bng 15 250 50 0 empty empty empty 17 7 0 10 -262144
-1 -1;
#X obj 286 262 throw~ masterMONO;
#X obj 286 224 *~;
#X obj 314 143 f;
#X obj 287 123 t f b;
#X obj 302 199 sig~;
#X floatatom 447 73 5 0 0 0 - - -;
#X obj 447 99 sel 1;
#X obj 447 176 s_simpler;
#X floatatom 552 122 5 0 0 0 - - -;
#X obj 575 161 bng 15 250 50 0 empty empty empty 17 7 0 10 -262144
-1 -1;
#X obj 446 262 throw~ masterMONO;
#X obj 446 224 *~;
#X obj 474 143 f;
#X obj 447 123 t f b;
#X obj 462 199 sig~;
#X obj 127 46 tabread \$0-seq1;
#X obj 287 46 tabread \$0-seq2;
#X obj 447 48 tabread \$0-seq3;
#X obj -33 95 sel 0;
#X floatatom 631 67 5 0 0 0 - - -;
#X obj 630 218 *~;
#X obj 658 137 f;
#X obj 646 193 sig~;
#X obj 631 42 tabread \$0-seq4;
#X obj 630 257 throw~ masterMONO;
#X floatatom 697 173 5 0 0 0 - - -;
#X obj 631 92 sel 0;
#X obj 610 110 t b b;
#X connect 0 0 9 1;
#X connect 0 0 45 0;
#X connect 1 0 8 0;
#X connect 2 0 1 1;
#X connect 3 0 1 2;
#X connect 5 0 0 0;
#X connect 6 0 47 0;
#X connect 7 0 5 0;
#X connect 7 0 42 0;
#X connect 7 0 43 0;
#X connect 7 0 44 0;
#X connect 7 0 50 0;
#X connect 8 0 4 0;
#X connect 9 0 11 0;
#X connect 10 0 1 0;
#X connect 10 1 9 0;
#X connect 11 0 8 1;
#X connect 12 0 13 0;
#X connect 12 0 19 1;
#X connect 13 0 20 0;
#X connect 14 0 18 0;
#X connect 15 0 14 1;
#X connect 16 0 14 2;
#X connect 18 0 17 0;
#X connect 19 0 21 0;
#X connect 20 0 14 0;
#X connect 20 1 19 0;
#X connect 21 0 18 1;
#X connect 22 0 23 0;
#X connect 22 0 29 1;
#X connect 23 0 30 0;
#X connect 24 0 28 0;
#X connect 25 0 24 1;
#X connect 26 0 24 2;
#X connect 28 0 27 0;
#X connect 29 0 31 0;
#X connect 30 0 24 0;
#X connect 30 1 29 0;
#X connect 31 0 28 1;
#X connect 32 0 33 0;
#X connect 32 0 39 1;
#X connect 33 0 40 0;
#X connect 34 0 38 0;
#X connect 35 0 34 1;
#X connect 36 0 34 2;
#X connect 38 0 37 0;
#X connect 39 0 41 0;
#X connect 40 0 34 0;
#X connect 40 1 39 0;
#X connect 41 0 38 1;
#X connect 42 0 12 0;
#X connect 43 0 22 0;
#X connect 44 0 32 0;
#X connect 45 1 10 0;
#X connect 46 0 48 1;
#X connect 46 0 53 0;
#X connect 47 0 51 0;
#X connect 48 0 49 0;
#X connect 48 0 52 0;
#X connect 49 0 47 1;
#X connect 50 0 46 0;
#X connect 53 1 54 0;
#X connect 54 0 6 0;
#X connect 54 1 48 0;
#X restore 150 169 pd readsteps;
#X obj 165 -55 route /wac.lp/0/1/press;
#X obj 165 -86 r fromLaunchpad;
#N canvas 1159 129 718 421 modes 1;
#X obj -6 -94 inlet;
#X obj -4 -65 unpack f f f;
#X obj 364 126 sel 3;
#X obj 364 199 outlet;
#X obj 37 41 == 0;
#X obj -6 42 == 8;
#X obj -6 64 &&;
#X obj -6 91 sel 1;
#X obj 364 98 r bank;
#X obj 72 41 == 8;
#X obj 72 63 &&;
#X obj 72 90 sel 1;
#X obj 115 40 == 1;
#X obj 154 42 == 8;
#X obj 154 64 &&;
#X obj 154 91 sel 1;
#X obj 217 41 == 8;
#X obj 217 63 &&;
#X obj 217 90 sel 1;
#X obj 250 40 == 4;
#X msg 364 148 9;
#X msg -6 117 0;
#X msg 72 116 1;
#X msg 154 117 2;
#X msg 217 116 3;
#X obj 364 175 spigot;
#X obj 412 200 s \$0-mode;
#X obj 187 41 == 2;
#X connect 0 0 1 0;
#X connect 1 0 5 0;
#X connect 1 0 9 0;
#X connect 1 0 13 0;
#X connect 1 0 16 0;
#X connect 1 1 4 0;
#X connect 1 1 12 0;
#X connect 1 1 19 0;
#X connect 1 1 27 0;
#X connect 1 2 25 1;
#X connect 2 0 20 0;
#X connect 4 0 6 1;
#X connect 5 0 6 0;
#X connect 6 0 7 0;
#X connect 7 0 21 0;
#X connect 8 0 2 0;
#X connect 9 0 10 0;
#X connect 10 0 11 0;
#X connect 11 0 22 0;
#X connect 12 0 10 1;
#X connect 13 0 14 0;
#X connect 14 0 15 0;
#X connect 15 0 23 0;
#X connect 16 0 17 0;
#X connect 17 0 18 0;
#X connect 18 0 24 0;
#X connect 19 0 17 1;
#X connect 20 0 25 0;
#X connect 21 0 25 0;
#X connect 22 0 25 0;
#X connect 23 0 25 0;
#X connect 24 0 25 0;
#X connect 25 0 3 0;
#X connect 25 0 26 0;
#X connect 27 0 14 1;
#X restore 254 -31 pd modes;
#X msg 401 -15 clear;
#X obj 401 8 t b;
#X floatatom 344 -37 5 0 0 1 Length_of_Sequence - -;
#N canvas 551 0 885 694 sequenz 0;
#N canvas 0 0 450 300 (subpatch) 0;
#X array \$0-seq0 16 float 3;
#A 0 1 0 0 3 0 0 3 0 0 0 3 0 1 1 0 3;
#X coords 0 2 16 0 200 140 1 0 0;
#X restore -101 28 graph;
#N canvas 0 0 450 300 (subpatch) 0;
#X array \$0-seq1 16 float 3;
#A 0 0 0 0 0 0 0 0 0 0 0 0 0 0 0 0 0;
#X coords 0 2 16 0 200 140 1 0 0;
#X restore -102 196 graph;
#N canvas 0 0 450 300 (subpatch) 0;
#X array \$0-seq2 16 float 3;
#A 0 0 0 0 0 0 0 0 0 0 0 0 0 0 0 0 0;
#X coords 0 2 16 0 200 140 1 0 0;
#X restore -100 356 graph;
#N canvas 0 0 450 300 (subpatch) 0;
#X array \$0-seq3 16 float 3;
#A 0 0 0 0 0 0 0 0 0 0 0 0 0 1 0 0 0;
#X coords 0 2 16 0 200 140 1 0 0;
#X restore -100 515 graph;
#N canvas 0 0 450 300 (subpatch) 0;
#X array \$0-seq4 16 float 3;
#A 0 0 1 0 0 0 3 0 0 0 3 0 0 1 0 0 0;
#X coords 0 2 16 0 200 140 1 0 0;
#X restore 115 28 graph;
#N canvas 0 0 450 300 (subpatch) 0;
#X array \$0-seq5 16 float 3;
#A 0 0 0 0 0 0 0 0 0 0 0 0 0 0 0 0 0;
#X coords 0 2 16 0 200 140 1 0 0;
#X restore 114 196 graph;
#N canvas 0 0 450 300 (subpatch) 0;
#X array \$0-seq6 16 float 3;
#A 0 0 0 0 0 0 0 0 0 0 0 0 0 0 0 0 0;
#X coords 0 2 16 0 200 140 1 0 0;
#X restore 116 356 graph;
#N canvas 0 0 450 300 (subpatch) 0;
#X array \$0-seq7 16 float 3;
#A 0 0 0 0 0 0 0 0 0 0 0 0 0 0 0 0 0;
#X coords 0 2 16 0 200 140 1 0 0;
#X restore 116 515 graph;
#X msg 381 143 \; \$2-seq0 resize \$1 \; \$2-seq1 resize \$1 \; \$2-seq2
resize \$1 \; \$2-seq3 resize \$1 \; \$2-seq4 resize \$1 \; \$2-seq5
resize \$1 \; \$2-seq6 resize \$1 \; \$2-seq7 resize \$1 \;;
#X msg 593 143 \; \$1-seq0 const 0 \; \$1-seq1 const 0 \; \$1-seq2
const 0 \; \$1-seq3 const 0 \; \$1-seq4 const 0 \; \$1-seq5 const 0
\; \$1-seq6 const 0 \; \$1-seq7 const 0 \;;
#X obj 593 107 \$0;
#X obj 381 106 pack f \$0;
#X obj 381 60 inlet;
#X obj 593 59 inlet;
#X obj 451 106 s \$0-seqlength;
#X connect 10 0 9 0;
#X connect 11 0 8 0;
#X connect 12 0 11 0;
#X connect 12 0 14 0;
#X connect 13 0 10 0;
#X restore 344 38 pd sequenz;
#N canvas 878 178 622 458 pages 0;
#X obj 109 103 inlet;
#X obj 109 418 outlet;
#X obj 109 131 sel 0 1;
#X obj 109 216 f;
#X msg 141 160 1;
#X obj 109 246 +;
#X obj 109 190 t b f;
#X obj 232 194 inlet;
#X obj 109 271 t f f f;
#X obj 109 359 spigot;
#X obj 232 216 / 8;
#X obj 232 260 int;
#X obj 232 237 + 0.999;
#X text 189 171 Rounds Sequnzelength in steps to maximum of pages;
#X msg 109 160 -1;
#X obj 159 299 <= 0;
#X obj 128 327 &&;
#X obj 128 298 >= 1;
#X text 149 100 Page Up/ Page Down;
#X connect 0 0 2 0;
#X connect 2 0 14 0;
#X connect 2 1 4 0;
#X connect 3 0 5 0;
#X connect 4 0 6 0;
#X connect 5 0 8 0;
#X connect 6 0 3 0;
#X connect 6 1 5 1;
#X connect 7 0 10 0;
#X connect 8 0 9 0;
#X connect 8 1 17 0;
#X connect 8 2 15 0;
#X connect 9 0 1 0;
#X connect 9 0 3 1;
#X connect 10 0 12 0;
#X connect 11 0 15 1;
#X connect 12 0 11 0;
#X connect 14 0 6 0;
#X connect 15 0 16 1;
#X connect 16 0 9 1;
#X connect 17 0 16 0;
#X restore 254 13 pd pages;
#N canvas 302 97 450 300 seqclock 0;
#X obj 122 10 counter;
#X obj 122 34 % 8;
#X obj 72 77 s seq-pos;
#X obj 222 17 r seqlength;
#X obj 122 -31 r globalMetro16;
#X obj 221 -31 r globalMetro32;
#X obj 22 -30 r globalMetro8;
#X obj 143 78 outlet;
#X connect 0 0 1 0;
#X connect 1 0 2 0;
#X connect 1 0 7 0;
#X connect 3 0 1 1;
#X connect 4 0 0 0;
#X restore 150 113 pd seqclock;
#X floatatom 476 7 5 0 0 0 - - -;
#X obj 476 35 s \$0-accentstrength;
#X connect 3 0 5 0;
#X connect 3 0 1 0;
#X connect 4 0 3 0;
#X connect 5 0 10 0;
#X connect 6 0 7 0;
#X connect 7 0 9 1;
#X connect 8 0 9 0;
#X connect 8 0 10 1;
#X connect 10 0 1 1;
#X connect 10 0 0 1;
#X connect 11 0 0 0;
#X connect 11 0 2 0;
#X connect 12 0 13 0;
