#N canvas 646 146 513 356 10;
#X obj 38 217 *~;
#X obj 107 218 *~;
#X obj 38 217 *~;
#X obj 178 220 *~;
#X obj 252 223 *~;
#N canvas 258 93 450 300 table 0;
#X obj 99 35 loadbang;
#X obj 99 82 100;
#X obj 99 104 until;
#X obj 99 126 f;
#X obj 130 127 + 1;
#X obj 99 171 / 50;
#X obj 99 193 * 3.1459;
#X obj 99 215 sin;
#X obj 99 237 max;
#X msg 169 83 0;
#X obj 99 58 t b b;
#X obj 99 259 tabwrite \$0-curve;
#X obj 273 112 table \$0-curve;
#X obj 99 149 t f f;
#X connect 0 0 10 0;
#X connect 1 0 2 0;
#X connect 2 0 3 0;
#X connect 3 0 4 0;
#X connect 3 0 13 0;
#X connect 4 0 3 1;
#X connect 5 0 6 0;
#X connect 6 0 7 0;
#X connect 7 0 8 0;
#X connect 8 0 11 0;
#X connect 9 0 3 1;
#X connect 10 0 1 0;
#X connect 10 1 9 0;
#X connect 13 0 5 0;
#X connect 13 1 11 1;
#X restore 41 41 pd table;
#N canvas 366 175 450 300 pan 0;
#X obj 95 68 inlet;
#X floatatom 95 90 5 0 0 0 - - -, f 5;
#X obj 95 167 tabread \$0-curve;
#X obj 95 133 mod 100;
#X obj 95 201 outlet;
#X obj 95 109 + 25;
#X connect 0 0 1 0;
#X connect 1 0 5 0;
#X connect 2 0 4 0;
#X connect 3 0 2 0;
#X connect 5 0 3 0;
#X restore 55 143 pd pan;
#N canvas 366 175 450 300 pan 0;
#X obj 95 68 inlet;
#X floatatom 95 90 5 0 0 0 - - -, f 5;
#X obj 95 167 tabread \$0-curve;
#X obj 95 133 mod 100;
#X obj 95 201 outlet;
#X obj 95 109 + 0;
#X connect 0 0 1 0;
#X connect 1 0 5 0;
#X connect 2 0 4 0;
#X connect 3 0 2 0;
#X connect 5 0 3 0;
#X restore 125 144 pd pan;
#N canvas 366 175 450 300 pan 0;
#X obj 95 68 inlet;
#X floatatom 95 90 5 0 0 0 - - -, f 5;
#X obj 95 167 tabread \$0-curve;
#X obj 95 133 mod 100;
#X obj 95 201 outlet;
#X obj 95 109 + 75;
#X connect 0 0 1 0;
#X connect 1 0 5 0;
#X connect 2 0 4 0;
#X connect 3 0 2 0;
#X connect 5 0 3 0;
#X restore 198 144 pd pan;
#N canvas 366 175 450 300 pan 0;
#X obj 95 68 inlet;
#X floatatom 95 90 5 0 0 0 - - -, f 5;
#X obj 95 167 tabread \$0-curve;
#X obj 95 133 mod 100;
#X obj 95 201 outlet;
#X obj 95 109 + 50;
#X connect 0 0 1 0;
#X connect 1 0 5 0;
#X connect 2 0 4 0;
#X connect 3 0 2 0;
#X connect 5 0 3 0;
#X restore 270 151 pd pan;
#X obj 39 113 inlet~;
#X obj 107 112 inlet~;
#X obj 179 110 inlet~;
#X obj 251 108 inlet~;
#X obj 37 269 outlet~;
#X obj 269 73 inlet;
#X obj 55 195 line~;
#X obj 124 192 line~;
#X obj 197 194 line~;
#X obj 269 199 line~;
#X msg 55 170 \$1 100;
#X msg 124 166 \$1 100;
#X msg 197 169 \$1 100;
#X msg 272 174 \$1 100;
#X connect 0 0 14 0;
#X connect 1 0 14 0;
#X connect 3 0 14 0;
#X connect 4 0 14 0;
#X connect 6 0 20 0;
#X connect 7 0 21 0;
#X connect 8 0 22 0;
#X connect 9 0 23 0;
#X connect 10 0 0 0;
#X connect 11 0 1 0;
#X connect 12 0 3 0;
#X connect 13 0 4 0;
#X connect 15 0 9 0;
#X connect 15 0 8 0;
#X connect 15 0 7 0;
#X connect 15 0 6 0;
#X connect 16 0 0 1;
#X connect 17 0 1 1;
#X connect 18 0 3 1;
#X connect 19 0 4 1;
#X connect 20 0 16 0;
#X connect 21 0 17 0;
#X connect 22 0 18 0;
#X connect 23 0 19 0;
