#N canvas 254 136 822 503 10;
#X obj 102 32 inlet~;
#X obj 102 257 outlet~;
#X obj 309 31 inlet;
#X obj 103 225 *~;
#X obj 309 55 s \$0-pan;
#N canvas 0 0 450 300 pan 0;
#X obj 118 200 tabread \$0-curve;
#X obj 118 175 mod 100;
#X obj 118 117 r \$0-pan;
#X obj 118 148 +;
#X obj 117 228 outlet;
#X connect 0 0 4 0;
#X connect 1 0 0 0;
#X connect 2 0 3 0;
#X connect 3 0 1 0;
#X restore 118 202 pd pan;
#X obj 168 258 outlet~;
#X obj 169 226 *~;
#N canvas 0 0 450 300 pan 0;
#X obj 118 200 tabread \$0-curve;
#X obj 118 175 mod 100;
#X obj 118 117 r \$0-pan;
#X obj 117 228 outlet;
#X obj 118 148 + 25;
#X connect 0 0 3 0;
#X connect 1 0 0 0;
#X connect 2 0 4 0;
#X connect 4 0 1 0;
#X restore 184 203 pd pan;
#X obj 238 258 outlet~;
#X obj 239 226 *~;
#N canvas 0 0 450 300 pan 0;
#X obj 118 200 tabread \$0-curve;
#X obj 118 175 mod 100;
#X obj 118 117 r \$0-pan;
#X obj 117 228 outlet;
#X obj 118 148 + 50;
#X connect 0 0 3 0;
#X connect 1 0 0 0;
#X connect 2 0 4 0;
#X connect 4 0 1 0;
#X restore 254 203 pd pan;
#X obj 298 258 outlet~;
#X obj 299 226 *~;
#N canvas 0 0 450 300 pan 0;
#X obj 118 200 tabread \$0-curve;
#X obj 118 175 mod 100;
#X obj 118 117 r \$0-pan;
#X obj 117 228 outlet;
#X obj 118 148 + 75;
#X connect 0 0 3 0;
#X connect 1 0 0 0;
#X connect 2 0 4 0;
#X connect 4 0 1 0;
#X restore 314 203 pd pan;
#N canvas 501 123 688 365 table 0;
#X obj 141 60 loadbang;
#X obj 141 107 until;
#X obj 141 136 f;
#X obj 168 136 + 1;
#X obj 143 284 tabwrite \$0-curve;
#X obj 142 160 t f f;
#X obj 143 211 * 3.1459;
#X obj 143 232 sin;
#X obj 143 186 / 50;
#X obj 143 35 table \$0-curve;
#X obj 376 121 until;
#X obj 376 150 f;
#X obj 403 150 + 1;
#X obj 375 278 tabwrite \$0-curve;
#X obj 377 174 t f f;
#X obj 378 225 * 3.1459;
#X obj 378 246 sin;
#X obj 378 200 / 50;
#X obj 376 96 100;
#X obj 376 68 bng 15 250 50 0 empty empty empty 17 7 0 10 -262144 -1
-1;
#X obj 115 59 bng 15 250 50 0 empty empty empty 17 7 0 10 -262144 -1
-1;
#X obj 141 82 100;
#X obj 144 257 max;
#X connect 0 0 21 0;
#X connect 1 0 2 0;
#X connect 2 0 3 0;
#X connect 2 0 5 0;
#X connect 3 0 2 1;
#X connect 5 0 8 0;
#X connect 5 1 4 1;
#X connect 6 0 7 0;
#X connect 7 0 22 0;
#X connect 8 0 6 0;
#X connect 10 0 11 0;
#X connect 11 0 12 0;
#X connect 11 0 14 0;
#X connect 12 0 11 1;
#X connect 14 0 17 0;
#X connect 14 1 13 1;
#X connect 15 0 16 0;
#X connect 16 0 13 0;
#X connect 17 0 15 0;
#X connect 18 0 10 0;
#X connect 19 0 18 0;
#X connect 20 0 21 0;
#X connect 21 0 1 0;
#X connect 22 0 4 0;
#X restore 13 26 pd table;
#X connect 0 0 3 0;
#X connect 0 0 7 0;
#X connect 0 0 10 0;
#X connect 0 0 13 0;
#X connect 2 0 4 0;
#X connect 3 0 1 0;
#X connect 5 0 3 1;
#X connect 7 0 6 0;
#X connect 8 0 7 1;
#X connect 10 0 9 0;
#X connect 11 0 10 1;
#X connect 13 0 12 0;
#X connect 14 0 13 1;
