#N canvas 0 0 952 1006 10;
#X obj 49 135 adc~ 1;
#X msg 222 43 start;
#X msg 284 50 stop;
#X obj 249 397 phasor~;
#X obj 249 183 timer;
#X floatatom 249 205 5 0 0 0 - - -;
#X obj 249 308 /;
#X obj 249 277 1;
#X obj 249 249 t b f;
#X obj 249 226 / 1000;
#X obj 249 560 dac~;
#X obj 222 93 t b b b;
#X obj 348 251 0;
#X obj 249 335 t f b;
#X msg 288 362 0;
#X obj 250 427 *~;
#X obj 369 329 * 44.1;
#X obj 153 -113 netreceive 8195 1;
#X obj 153 -87 route /wac.lp/0/1/press;
#X obj 153 -59 unpack f f f;
#X obj 222 -36 sel 1 0;
#X obj 222 -11 tgl 15 0 empty empty empty 17 7 0 10 -262144 -1 -1 0
1;
#X obj 222 17 sel 1 0;
#X obj 284 88 t b;
#X obj 517 -5 table \$0-temp;
#X obj 49 174 tabwrite~ \$0-temp;
#X obj 254 455 tabread4~ \$0-temp;
#X obj 21 198 throw~ masterout;
#X obj 95 479 catch~ masterout;
#X obj 533 727 tabwrite~ \$0-temp;
#X obj 536 650 +~;
#X obj 88 240 s~ input;
#X obj 720 578 r~ input;
#X obj 719 634 *~;
#X obj 734 611 r \$0-overdub;
#X msg 369 383 \; \$2-temp resize \$1;
#X obj 369 360 pack f \$0;
#X obj 302 -10 s \$0-overdub;
#X obj 302 -33 tgl 15 0 empty empty empty 17 7 0 10 -262144 -1 -1 0
1;
#X msg 535 276 stop;
#X msg 626 534 start;
#X obj 630 503 edge~;
#X obj 631 471 expr~ $v1<0.5;
#X obj 388 -6 s \$0-play;
#X obj 441 156 r \$0-play;
#X obj 441 180 sel 1 0;
#X obj 387 -30 tgl 15 0 empty empty empty 17 7 0 10 -262144 -1 -1 0
1;
#X msg 147 360 0.5;
#X obj 626 573 spigot;
#X msg 761 684 start;
#X obj 769 657 sel 1 0;
#X msg 812 690 stop;
#X connect 0 0 25 0;
#X connect 0 0 27 0;
#X connect 0 0 31 0;
#X connect 1 0 11 0;
#X connect 2 0 23 0;
#X connect 2 0 25 0;
#X connect 3 0 15 0;
#X connect 3 0 42 0;
#X connect 4 0 5 0;
#X connect 5 0 9 0;
#X connect 5 0 16 0;
#X connect 6 0 13 0;
#X connect 7 0 6 0;
#X connect 8 0 7 0;
#X connect 8 1 6 1;
#X connect 9 0 8 0;
#X connect 11 0 25 0;
#X connect 11 1 4 0;
#X connect 11 2 12 0;
#X connect 11 2 39 0;
#X connect 12 0 3 0;
#X connect 13 0 3 0;
#X connect 13 1 14 0;
#X connect 14 0 3 1;
#X connect 15 0 26 0;
#X connect 16 0 15 1;
#X connect 16 0 36 0;
#X connect 17 0 18 0;
#X connect 18 0 19 0;
#X connect 19 2 20 0;
#X connect 20 0 21 0;
#X connect 21 0 22 0;
#X connect 22 0 1 0;
#X connect 22 1 2 0;
#X connect 23 0 4 1;
#X connect 26 0 10 0;
#X connect 26 0 10 1;
#X connect 26 0 30 0;
#X connect 28 0 10 0;
#X connect 28 0 10 1;
#X connect 30 0 29 0;
#X connect 32 0 33 0;
#X connect 33 0 30 1;
#X connect 34 0 33 1;
#X connect 34 0 48 1;
#X connect 34 0 50 0;
#X connect 36 0 35 0;
#X connect 38 0 37 0;
#X connect 39 0 29 0;
#X connect 40 0 48 0;
#X connect 41 0 40 0;
#X connect 42 0 41 0;
#X connect 44 0 45 0;
#X connect 45 0 5 0;
#X connect 45 1 39 0;
#X connect 45 1 12 0;
#X connect 46 0 43 0;
#X connect 47 0 3 1;
#X connect 48 0 29 0;
#X connect 49 0 29 0;
#X connect 50 0 49 0;
#X connect 50 1 51 0;
#X connect 51 0 29 0;
