#N canvas 65 81 705 300 10;
#X obj 12 254 dac~;
#X floatatom 11 135 5 0 0 0 - - -, f 5;
#X floatatom 39 162 5 0 0 0 - - -, f 5;
#X obj 171 153 sig~, f 5;
#X floatatom 171 131 5 0 0 0 - - -, f 5;
#X floatatom 217 157 5 0 0 0 - - -, f 5;
#X obj 11 201 s_4osc;
#X text 10 5 Saw \, Square \, Triangle \, Sine Oscillator;
#X text 12 30 Inputs:;
#X text 12 46 Midi-Note:Float:0-127;
#X text 10 60 Cents:Float:0-100;
#X text 10 73 Frequency: signal~;
#X text 9 86 Volume: signal~;
#X text 10 100 Morph: float:0-100;
#X obj 97 167 *~;
#X obj 97 126 osc~ 1;
#X floatatom 128 152 5 0 0 0 - - -, f 5;
#X connect 1 0 6 0;
#X connect 2 0 6 1;
#X connect 3 0 6 3;
#X connect 4 0 3 0;
#X connect 5 0 6 4;
#X connect 6 0 0 0;
#X connect 6 0 0 1;
#X connect 14 0 6 2;
#X connect 15 0 14 0;
#X connect 16 0 14 1;
