#N canvas 928 223 632 726 10;
#X obj 108 246 osc~;
#N canvas 494 106 689 480 triangle 0;
#X obj 69 338 outlet~;
#X obj 129 76 * -1;
#X obj 69 103 phasor~;
#X obj 69 125 *~ 2;
#X obj 69 147 -~ 1;
#X obj 68 230 +~;
#X obj 130 104 phasor~;
#X obj 130 126 *~ 2;
#X obj 130 148 -~ 1;
#X obj 68 181 clip~ 0 1;
#X obj 141 185 clip~ 0 1;
#X msg 212 76 0;
#X obj 212 48 loadbang;
#X obj 70 43 inlet~;
#X connect 1 0 6 0;
#X connect 2 0 3 0;
#X connect 3 0 4 0;
#X connect 4 0 9 0;
#X connect 5 0 0 0;
#X connect 6 0 7 0;
#X connect 7 0 8 0;
#X connect 8 0 10 0;
#X connect 9 0 5 0;
#X connect 10 0 5 1;
#X connect 11 0 6 1;
#X connect 11 0 2 1;
#X connect 12 0 11 0;
#X connect 13 0 1 0;
#X connect 13 0 2 0;
#X restore 148 247 pd triangle;
#N canvas 65 89 450 300 pulse 0;
#X obj 148 101 phasor~;
#X obj 145 253 outlet~;
#X obj 208 103 phasor~;
#X obj 207 60 *~ -1;
#X msg 288 64 0;
#X msg 330 77 0.5;
#X obj 288 32 bng 15 250 50 0 empty empty empty 17 7 0 10 -262144 -1
-1;
#X obj 147 148 +~;
#X obj 146 192 -~ 1;
#X obj 288 9 loadbang;
#X obj 148 25 inlet~;
#X obj 349 50 inlet;
#X connect 0 0 7 0;
#X connect 2 0 7 1;
#X connect 3 0 2 0;
#X connect 4 0 0 1;
#X connect 5 0 2 1;
#X connect 6 0 4 0;
#X connect 6 0 5 0;
#X connect 7 0 8 0;
#X connect 8 0 1 0;
#X connect 9 0 6 0;
#X connect 10 0 0 0;
#X connect 10 0 3 0;
#X restore 237 248 pd pulse;
#N canvas 65 81 450 300 saw 0;
#X obj 128 103 phasor~;
#X obj 128 169 outlet~;
#X obj 128 147 -~ 1;
#X obj 128 125 *~ 2;
#X obj 128 48 inlet~;
#X connect 0 0 3 0;
#X connect 2 0 1 0;
#X connect 3 0 2 0;
#X connect 4 0 0 0;
#X restore 305 249 pd saw;
#X obj 108 457 outlet~;
#X floatatom 456 336 5 0 75 0 Morph - -, f 5;
#X obj 106 137 +;
#X floatatom 106 62 5 0 0 0 Fine - -, f 5;
#X obj 106 36 inlet;
#X obj 456 300 inlet;
#X obj 106 104 t b f;
#X obj 34 51 inlet;
#X obj 106 164 mtof;
#X obj 249 37 inlet~;
#X obj 108 212 +~;
#X obj 127 189 sig~;
#X obj 107 81 / 100;
#X obj 328 368 inlet~;
#X obj 108 429 *~;
#N canvas 65 89 450 300 4ch_crossfade 0;
#X obj 38 217 *~;
#X obj 107 218 *~;
#X obj 38 217 *~;
#X obj 178 220 *~;
#X obj 252 223 *~;
#N canvas 258 93 450 300 table 0;
#X obj 99 35 loadbang;
#X obj 99 82 100;
#X obj 99 104 until;
#X obj 99 126 f;
#X obj 130 127 + 1;
#X obj 99 171 / 50;
#X obj 99 193 * 3.1459;
#X obj 99 215 sin;
#X obj 99 237 max;
#X msg 169 83 0;
#X obj 99 58 t b b;
#X obj 99 259 tabwrite \$0-curve;
#X obj 273 112 table \$0-curve;
#X obj 99 149 t f f;
#X connect 0 0 10 0;
#X connect 1 0 2 0;
#X connect 2 0 3 0;
#X connect 3 0 4 0;
#X connect 3 0 13 0;
#X connect 4 0 3 1;
#X connect 5 0 6 0;
#X connect 6 0 7 0;
#X connect 7 0 8 0;
#X connect 8 0 11 0;
#X connect 9 0 3 1;
#X connect 10 0 1 0;
#X connect 10 1 9 0;
#X connect 13 0 5 0;
#X connect 13 1 11 1;
#X restore 41 41 pd table;
#N canvas 366 175 450 300 pan 0;
#X obj 95 68 inlet;
#X floatatom 95 90 5 0 0 0 - - -, f 5;
#X obj 95 167 tabread \$0-curve;
#X obj 95 133 mod 100;
#X obj 95 201 outlet;
#X obj 95 109 + 25;
#X connect 0 0 1 0;
#X connect 1 0 5 0;
#X connect 2 0 4 0;
#X connect 3 0 2 0;
#X connect 5 0 3 0;
#X restore 55 143 pd pan;
#N canvas 366 175 450 300 pan 0;
#X obj 95 68 inlet;
#X floatatom 95 90 5 0 0 0 - - -, f 5;
#X obj 95 167 tabread \$0-curve;
#X obj 95 133 mod 100;
#X obj 95 201 outlet;
#X obj 95 109 + 0;
#X connect 0 0 1 0;
#X connect 1 0 5 0;
#X connect 2 0 4 0;
#X connect 3 0 2 0;
#X connect 5 0 3 0;
#X restore 125 144 pd pan;
#N canvas 366 175 450 300 pan 0;
#X obj 95 68 inlet;
#X floatatom 95 90 5 0 0 0 - - -, f 5;
#X obj 95 167 tabread \$0-curve;
#X obj 95 133 mod 100;
#X obj 95 201 outlet;
#X obj 95 109 + 75;
#X connect 0 0 1 0;
#X connect 1 0 5 0;
#X connect 2 0 4 0;
#X connect 3 0 2 0;
#X connect 5 0 3 0;
#X restore 198 144 pd pan;
#N canvas 366 175 450 300 pan 0;
#X obj 95 68 inlet;
#X floatatom 95 90 5 0 0 0 - - -, f 5;
#X obj 95 167 tabread \$0-curve;
#X obj 95 133 mod 100;
#X obj 95 201 outlet;
#X obj 95 109 + 50;
#X connect 0 0 1 0;
#X connect 1 0 5 0;
#X connect 2 0 4 0;
#X connect 3 0 2 0;
#X connect 5 0 3 0;
#X restore 270 151 pd pan;
#X obj 39 113 inlet~;
#X obj 107 112 inlet~;
#X obj 179 110 inlet~;
#X obj 251 108 inlet~;
#X obj 37 269 outlet~;
#X obj 269 73 inlet;
#X obj 55 195 line~;
#X obj 124 192 line~;
#X obj 197 194 line~;
#X obj 269 199 line~;
#X msg 55 170 \$1 100;
#X msg 124 166 \$1 100;
#X msg 197 169 \$1 100;
#X msg 272 174 \$1 100;
#X connect 0 0 14 0;
#X connect 1 0 14 0;
#X connect 3 0 14 0;
#X connect 4 0 14 0;
#X connect 6 0 20 0;
#X connect 7 0 21 0;
#X connect 8 0 22 0;
#X connect 9 0 23 0;
#X connect 10 0 0 0;
#X connect 11 0 1 0;
#X connect 12 0 3 0;
#X connect 13 0 4 0;
#X connect 15 0 9 0;
#X connect 15 0 8 0;
#X connect 15 0 7 0;
#X connect 15 0 6 0;
#X connect 16 0 0 1;
#X connect 17 0 1 1;
#X connect 18 0 3 1;
#X connect 19 0 4 1;
#X connect 20 0 16 0;
#X connect 21 0 17 0;
#X connect 22 0 18 0;
#X connect 23 0 19 0;
#X restore 107 349 pd 4ch_crossfade;
#X msg 375 297 0;
#X obj 375 272 loadbang;
#X connect 0 0 19 0;
#X connect 1 0 19 1;
#X connect 2 0 19 2;
#X connect 3 0 19 3;
#X connect 5 0 19 4;
#X connect 6 0 12 0;
#X connect 7 0 16 0;
#X connect 8 0 7 0;
#X connect 9 0 5 0;
#X connect 10 0 6 0;
#X connect 10 1 6 1;
#X connect 11 0 6 0;
#X connect 12 0 15 0;
#X connect 13 0 14 0;
#X connect 14 0 0 0;
#X connect 14 0 1 0;
#X connect 14 0 2 0;
#X connect 14 0 3 0;
#X connect 15 0 14 1;
#X connect 16 0 10 0;
#X connect 17 0 18 1;
#X connect 18 0 4 0;
#X connect 19 0 18 0;
#X connect 20 0 19 4;
#X connect 21 0 20 0;
#X coords 0 -1 1 1 120 1 1 0 0;
