#N canvas 943 203 632 726 10;
#X obj 108 246 osc~;
#N canvas 515 78 689 480 triangle 0;
#X obj 69 338 outlet~;
#X obj 128 48 inlet;
#X obj 129 76 * -1;
#X obj 69 103 phasor~;
#X obj 69 125 *~ 2;
#X obj 69 147 -~ 1;
#X obj 68 230 +~;
#X obj 130 104 phasor~;
#X obj 130 126 *~ 2;
#X obj 130 148 -~ 1;
#X obj 68 181 clip~ 0 1;
#X obj 141 185 clip~ 0 1;
#X msg 212 76 0;
#X obj 212 48 loadbang;
#X connect 1 0 2 0;
#X connect 1 0 3 0;
#X connect 2 0 7 0;
#X connect 3 0 4 0;
#X connect 4 0 5 0;
#X connect 5 0 10 0;
#X connect 6 0 0 0;
#X connect 7 0 8 0;
#X connect 8 0 9 0;
#X connect 9 0 11 0;
#X connect 10 0 6 0;
#X connect 11 0 6 1;
#X connect 12 0 7 1;
#X connect 12 0 3 1;
#X connect 13 0 12 0;
#X restore 148 247 pd triangle;
#N canvas 0 50 450 300 pulse 0;
#X obj 148 101 phasor~;
#X obj 145 253 outlet~;
#X obj 148 25 inlet;
#X obj 208 103 phasor~;
#X obj 207 60 *~ -1;
#X msg 288 64 0;
#X msg 326 65 0.5;
#X obj 288 32 bng 15 250 50 0 empty empty empty 17 7 0 10 -262144 -1
-1;
#X obj 147 148 +~;
#X obj 146 192 -~ 1;
#X obj 288 9 loadbang;
#X connect 0 0 8 0;
#X connect 2 0 0 0;
#X connect 2 0 4 0;
#X connect 3 0 8 1;
#X connect 4 0 3 0;
#X connect 5 0 0 1;
#X connect 6 0 3 1;
#X connect 7 0 5 0;
#X connect 7 0 6 0;
#X connect 8 0 9 0;
#X connect 9 0 1 0;
#X connect 10 0 7 0;
#X restore 237 248 pd pulse;
#N canvas 0 50 450 300 saw 0;
#X obj 128 103 phasor~;
#X obj 128 48 inlet;
#X obj 128 169 outlet~;
#X obj 128 147 -~ 1;
#X obj 128 125 *~ 2;
#X connect 0 0 4 0;
#X connect 1 0 0 0;
#X connect 3 0 2 0;
#X connect 4 0 3 0;
#X restore 305 249 pd saw;
#X obj 108 457 outlet~;
#X floatatom 278 318 5 0 75 0 Morph - -;
#X obj 108 429 *~ 0.7;
#X obj 108 152 +;
#X floatatom 108 77 5 0 0 0 Fine - -;
#X obj 108 51 inlet;
#X obj 278 282 inlet;
#X obj 108 119 t b f;
#X obj 107 332 m_4ch_crossfade;
#X obj 34 51 inlet;
#X floatatom 34 76 5 0 0 0 Freq - -;
#X obj 328 368 inlet;
#X floatatom 328 390 5 0 0 0 Amp - -;
#X obj 370 368 r \$0-amp;
#X obj 153 49 r \$0-fine;
#X obj -40 52 r \$0-freq;
#X obj 334 280 r \$0-morph;
#X obj 108 179 mtof;
#X obj 108 96 / 127;
#X obj 226 49 inlet;
#X obj 108 212 +;
#X obj 226 181 t b f;
#X floatatom 48 247 5 0 0 0 - - -;
#X obj 417 279 loadbang;
#X msg 417 301 0;
#X obj 34 11 loadbang;
#X obj -33 157 inlet~;
#X connect 0 0 12 0;
#X connect 1 0 12 1;
#X connect 2 0 12 2;
#X connect 3 0 12 3;
#X connect 5 0 12 4;
#X connect 6 0 4 0;
#X connect 7 0 21 0;
#X connect 8 0 22 0;
#X connect 9 0 8 0;
#X connect 10 0 5 0;
#X connect 11 0 7 0;
#X connect 11 1 7 1;
#X connect 12 0 6 0;
#X connect 13 0 14 0;
#X connect 14 0 7 0;
#X connect 15 0 16 0;
#X connect 16 0 6 1;
#X connect 17 0 16 0;
#X connect 18 0 8 0;
#X connect 19 0 14 0;
#X connect 20 0 5 0;
#X connect 21 0 24 0;
#X connect 22 0 11 0;
#X connect 23 0 25 0;
#X connect 24 0 0 0;
#X connect 24 0 26 0;
#X connect 24 0 1 0;
#X connect 24 0 2 0;
#X connect 24 0 3 0;
#X connect 25 0 24 0;
#X connect 25 1 24 1;
#X connect 27 0 28 0;
#X connect 28 0 5 0;
#X connect 29 0 14 0;
#X connect 30 0 0 0;
#X coords 0 -1 1 1 120 1 1 0 0;
