#N canvas 519 85 1370 704 10;
#N canvas 0 50 450 300 (subpatch) 0;
#X array body 100 float 3;
#A 0 0.999999 0.992857 0.971429 0.957143 0.928571 0.907143 0.885714
0.864286 0.842857 0.828572 0.807143 0.785715 0.778572 0.764286 0.742858
0.728572 0.714286 0.692858 0.685715 0.664286 0.653572 0.642858 0.621429
0.614286 0.607144 0.596429 0.585715 0.571429 0.560715 0.550001 0.542858
0.535715 0.521429 0.514287 0.507144 0.500001 0.492858 0.478572 0.47143
0.464287 0.457144 0.435715 0.428572 0.417858 0.407144 0.400001 0.392858
0.385715 0.378573 0.37143 0.357144 0.350001 0.335715 0.328573 0.32143
0.300001 0.300001 0.292858 0.257143 0.264286 0.264286 0.257143 0.242857
0.239286 0.235714 0.228571 0.214286 0.2 0.196429 0.185714 0.178571
0.171429 0.164286 0.160714 0.15 0.15 0.135714 0.128572 0.128572 0.125
0.121429 0.114286 0.107143 0.1 0.0928573 0.0880954 0.0833335 0.0785716
0.0785716 0.0714287 0.0642859 0.0607145 0.057143 0.057143 0.057143
0.0535716 0.0500002 0.0500002 0.0428573 -0.00714261;
#X coords 0 1 99 0 200 140 1 0 0;
#X restore 825 90 graph;
#X obj 86 72 bng 15 250 50 0 empty empty empty 17 7 0 10 -262144 -1
-1;
#N canvas 678 296 450 300 pop 0;
#X obj 118 123 vline~;
#X obj 120 192 osc~;
#X obj 117 153 *~ 2000;
#X obj 219 178 +~ 1000;
#X obj 121 263 outlet~;
#X obj 122 225 *~;
#X floatatom 210 126 5 0 0 0 - - -, f 5;
#X floatatom 256 133 5 0 0 0 - - -, f 5;
#X obj 118 42 inlet;
#X floatatom 169 38 5 0 0 0 - - -, f 5;
#X msg 118 103 1 0 \, 0 \$1 0;
#X obj 119 72 1;
#X connect 0 0 2 0;
#X connect 0 0 5 1;
#X connect 1 0 5 0;
#X connect 2 0 3 0;
#X connect 3 0 1 0;
#X connect 5 0 4 0;
#X connect 6 0 2 1;
#X connect 7 0 3 1;
#X connect 8 0 11 0;
#X connect 9 0 11 1;
#X connect 10 0 0 0;
#X connect 11 0 10 0;
#X restore 340 87 pd pop;
#X obj 271 398 vsl 15 128 0 1 0 0 empty empty empty 0 -9 0 10 -262144
-1 -1 12700 1;
#X floatatom 317 233 5 0 0 0 - - -, f 5;
#N canvas 1193 238 679 493 body 0;
#X obj 90 162 tabread~ body;
#X obj 91 99 vline~;
#X msg 91 69 0 0 \, 1 \$1 0;
#X floatatom 202 197 5 0 0 2 BodyFreq - -, f 5;
#X obj 91 134 *~ 100;
#X obj 76 420 *~;
#X obj 277 93 vline~;
#X msg 282 70 1 0 \, 0 \$1 0;
#X obj 278 133 *~;
#X obj 90 190 clip~ 0 1;
#X obj -17 232 noise~;
#X obj 78 297 vcf~;
#X floatatom 158 262 5 0 0 0 - - -, f 5;
#X obj 77 398 *~;
#X obj 78 321 vcf~;
#X floatatom 164 288 5 0 0 0 Noise - -, f 5;
#X obj 78 345 *~ 515;
#X obj 91 -37 inlet;
#X obj 75 444 outlet~;
#X obj 210 376 inlet;
#X obj 280 46 500;
#X obj 91 45 120;
#X obj 91 215 *~ 120;
#X obj 91 243 +~ 50;
#X msg 300 251 500;
#X obj 300 231 loadbang;
#X msg 319 274 0.1;
#X obj 298 -18 r \$0-length;
#X obj 105 21 r \$0-hardness;
#X obj 385 174 r \$0-sweep;
#X connect 0 0 9 0;
#X connect 1 0 4 0;
#X connect 2 0 1 0;
#X connect 3 0 23 1;
#X connect 4 0 0 0;
#X connect 5 0 18 0;
#X connect 6 0 8 0;
#X connect 6 0 8 1;
#X connect 7 0 6 0;
#X connect 8 0 5 1;
#X connect 9 0 22 0;
#X connect 10 0 11 0;
#X connect 11 0 14 0;
#X connect 12 0 11 2;
#X connect 13 0 5 0;
#X connect 14 0 16 0;
#X connect 15 0 14 2;
#X connect 16 0 13 0;
#X connect 17 0 20 0;
#X connect 17 0 21 0;
#X connect 19 0 13 1;
#X connect 20 0 7 0;
#X connect 21 0 2 0;
#X connect 22 0 23 0;
#X connect 23 0 11 1;
#X connect 23 0 14 1;
#X connect 24 0 12 0;
#X connect 25 0 24 0;
#X connect 25 0 26 0;
#X connect 26 0 15 0;
#X connect 27 0 20 1;
#X connect 28 0 21 1;
#X connect 29 0 22 1;
#X restore 86 176 pd body;
#N canvas 421 343 450 300 dist 0;
#X obj 139 131 *~;
#X obj 139 81 clip~ 0 1;
#X obj 55 81 clip~ -1 0;
#X obj 55 106 *~ -1;
#X obj 55 130 *~;
#X obj 55 241 -~ 1;
#X obj 139 176 *~ -1;
#X obj 139 273 +~ 1;
#X obj 139 153 expr~ exp(-($v1*1000)/100);
#X obj 55 215 expr~ exp(-($v1*1000)/100);
#X obj 139 308 /~;
#X obj 127 56 inlet~;
#X obj 139 370 outlet~;
#X obj 200 256 expr~ 1 - exp(-($v1*1000)/100);
#X obj 312 92 pack f 50;
#X obj 312 113 vline~;
#X obj 312 51 inlet;
#X connect 0 0 8 0;
#X connect 1 0 0 0;
#X connect 2 0 3 0;
#X connect 3 0 4 0;
#X connect 4 0 9 0;
#X connect 5 0 7 0;
#X connect 6 0 7 0;
#X connect 7 0 10 0;
#X connect 8 0 6 0;
#X connect 9 0 5 0;
#X connect 10 0 12 0;
#X connect 11 0 2 0;
#X connect 11 0 1 0;
#X connect 13 0 10 1;
#X connect 14 0 15 0;
#X connect 15 0 4 1;
#X connect 15 0 0 1;
#X connect 15 0 13 0;
#X connect 16 0 14 0;
#X restore 87 478 pd dist;
#X floatatom 133 453 5 0 0 0 - - -, f 5;
#X obj 86 498 outlet~;
#X obj 86 -3 inlet;
#X obj 87 290 *~ 1;
#X msg 266 366 1;
#X obj 248 338 loadbang;
#X msg 134 430 0.01;
#X obj 504 3 inlet;
#X obj 504 27 u_dispatch \$0 \$1 dist;
#X obj 504 49 u_dispatch \$0 \$1 length;
#X obj 159 405 r \$0-dist;
#X obj 504 73 u_dispatch \$0 \$1 sweep;
#X obj 504 97 u_dispatch \$0 \$1 hardness;
#X obj 341 161 *~ 2;
#X obj 390 87 r \$0-hardness;
#X obj 390 113 / 300;
#X floatatom 409 155 5 0 0 0 - - -, f 5;
#X connect 1 0 2 0;
#X connect 1 0 5 0;
#X connect 2 0 20 0;
#X connect 3 0 5 1;
#X connect 5 0 10 0;
#X connect 6 0 8 0;
#X connect 7 0 6 1;
#X connect 9 0 1 0;
#X connect 10 0 6 0;
#X connect 11 0 3 0;
#X connect 12 0 11 0;
#X connect 12 0 13 0;
#X connect 13 0 7 0;
#X connect 14 0 15 0;
#X connect 15 0 16 0;
#X connect 16 0 18 0;
#X connect 17 0 7 0;
#X connect 18 0 19 0;
#X connect 20 0 10 0;
#X connect 21 0 22 0;
#X connect 22 0 20 1;
#X connect 22 0 23 0;
