#N canvas 0 0 1370 704 10;
#N canvas 0 0 450 300 (subpatch) 0;
#X array body 100 float 3;
#A 0 1.06071 0.946422 0.903564 0.860707 0.846421 0.81785 0.803564 0.789278
0.760707 0.746421 0.724993 0.703564 0.674992 0.653564 0.632135 0.617849
0.582135 0.567849 0.539278 0.532135 0.517849 0.49642 0.467849 0.44642
0.424992 0.417849 0.39642 0.382134 0.367849 0.353563 0.339277 0.317849
0.310706 0.29642 0.29642 0.282134 0.278563 0.274991 0.264277 0.253563
0.249991 0.24642 0.235706 0.224991 0.220229 0.215467 0.210706 0.205944
0.201182 0.19642 0.189277 0.182134 0.167848 0.160705 0.153563 0.14642
0.139277 0.132134 0.124991 0.12142 0.117848 0.113086 0.108324 0.103562
0.0964196 0.0892767 0.0821338 0.0797529 0.0773719 0.0749909 0.0696338
0.0642766 0.0589195 0.0535623 0.047848 0.0421337 0.0364194 0.0307051
0.0249908 0.0196337 0.0142765 0.00891936 0.00356221 0.000705058 -0.00215209
-0.00500924 -0.00786639 -0.0107235 -0.014295 -0.0178664 -0.0202474
-0.0226283 -0.0250093 -0.0250093 -0.0250093 -0.0250093 -0.0250093 -0.0250093
-0.0250093 -0.0250093;
#X coords 0 1 99 0 200 140 1 0 0;
#X restore 555 76 graph;
#X obj 78 74 bng 15 250 50 0 empty empty empty 17 7 0 10 -262144 -1
-1;
#N canvas 681 292 450 300 pop 0;
#X obj 118 123 vline~;
#X obj 120 192 osc~;
#X obj 117 153 *~ 2000;
#X obj 219 178 +~ 1000;
#X obj 121 263 outlet~;
#X obj 122 225 *~;
#X floatatom 210 126 5 0 0 0 - - -;
#X floatatom 256 133 5 0 0 0 - - -;
#X obj 119 72 f;
#X obj 118 42 inlet;
#X floatatom 169 38 5 0 0 0 - - -;
#X msg 118 103 1 0 \, 0 \$1 0;
#X connect 0 0 2 0;
#X connect 0 0 5 1;
#X connect 1 0 5 0;
#X connect 2 0 3 0;
#X connect 3 0 1 0;
#X connect 5 0 4 0;
#X connect 6 0 2 1;
#X connect 7 0 3 1;
#X connect 8 0 11 0;
#X connect 9 0 8 0;
#X connect 10 0 8 1;
#X connect 11 0 0 0;
#X restore 340 118 pd pop;
#X obj 341 161 *~;
#X floatatom 356 139 5 0 0 0 - - -;
#X obj 268 401 vsl 15 128 0 1 0 0 empty empty empty 0 -9 0 10 -262144
-1 -1 12700 1;
#X obj 338 401 vsl 15 128 0 1 0 0 empty empty empty 0 -9 0 10 -262144
-1 -1 0 1;
#X floatatom 317 233 5 0 0 0 - - -;
#N canvas 773 312 450 300 (subpatch) 0;
#X restore 415 118 pd;
#N canvas 1118 239 679 493 body 0;
#X obj 90 162 tabread~ body;
#X obj 91 99 vline~;
#X msg 91 69 0 0 \, 1 \$1 0;
#X floatatom 151 17 5 0 0 2 SweepLen - -;
#X floatatom 203 143 5 0 0 2 Sweep - -;
#X floatatom 202 197 5 0 0 2 BodyFreq - -;
#X obj 91 134 *~ 100;
#X obj 98 418 *~;
#X obj 277 93 vline~;
#X floatatom 300 19 5 0 0 2 KickLength - -;
#X msg 282 70 1 0 \, 0 \$1 0;
#X obj 278 133 *~;
#X obj 90 190 clip~ 0 1;
#X obj -17 232 noise~;
#X obj 87 297 vcf~;
#X floatatom 158 262 5 0 0 0 - - -;
#X obj 102 376 *~;
#X obj 87 321 vcf~;
#X floatatom 164 288 5 0 0 0 Noise - -;
#X obj 92 345 *~ 515;
#X obj 76 13 inlet;
#X obj 101 444 outlet~;
#X obj 210 376 inlet;
#X obj 450 21 inlet;
#X obj 280 46 500;
#X obj 91 45 120;
#X obj 91 215 *~ 120;
#X obj 91 243 +~ 50;
#X msg 300 251 500;
#X obj 300 231 loadbang;
#X msg 319 274 0.1;
#X connect 0 0 12 0;
#X connect 1 0 6 0;
#X connect 2 0 1 0;
#X connect 3 0 25 1;
#X connect 4 0 26 1;
#X connect 5 0 27 1;
#X connect 6 0 0 0;
#X connect 7 0 21 0;
#X connect 8 0 11 0;
#X connect 8 0 11 1;
#X connect 9 0 24 1;
#X connect 10 0 8 0;
#X connect 11 0 7 1;
#X connect 12 0 26 0;
#X connect 13 0 14 0;
#X connect 14 0 17 0;
#X connect 15 0 14 2;
#X connect 16 0 7 0;
#X connect 17 0 19 0;
#X connect 18 0 17 2;
#X connect 19 0 16 0;
#X connect 20 0 24 0;
#X connect 20 0 25 0;
#X connect 22 0 16 1;
#X connect 23 0 24 1;
#X connect 24 0 10 0;
#X connect 25 0 2 0;
#X connect 26 0 27 0;
#X connect 27 0 14 1;
#X connect 27 0 17 1;
#X connect 28 0 15 0;
#X connect 29 0 28 0;
#X connect 29 0 30 0;
#X connect 30 0 18 0;
#X restore 86 176 pd body;
#N canvas 421 343 450 300 dist 0;
#X obj 139 131 *~;
#X obj 139 81 clip~ 0 1;
#X obj 55 81 clip~ -1 0;
#X obj 55 106 *~ -1;
#X obj 55 130 *~;
#X obj 55 241 -~ 1;
#X obj 139 176 *~ -1;
#X obj 139 273 +~ 1;
#X obj 139 153 expr~ exp(-($v1*1000)/100);
#X obj 55 215 expr~ exp(-($v1*1000)/100);
#X obj 139 308 /~;
#X obj 127 56 inlet~;
#X obj 139 370 outlet~;
#X obj 200 256 expr~ 1 - exp(-($v1*1000)/100);
#X obj 312 92 pack f 50;
#X obj 312 113 vline~;
#X obj 312 51 inlet;
#X connect 0 0 8 0;
#X connect 1 0 0 0;
#X connect 2 0 3 0;
#X connect 3 0 4 0;
#X connect 4 0 9 0;
#X connect 5 0 7 0;
#X connect 6 0 7 0;
#X connect 7 0 10 0;
#X connect 8 0 6 0;
#X connect 9 0 5 0;
#X connect 10 0 12 0;
#X connect 11 0 2 0;
#X connect 11 0 1 0;
#X connect 13 0 10 1;
#X connect 14 0 15 0;
#X connect 15 0 4 1;
#X connect 15 0 0 1;
#X connect 15 0 13 0;
#X connect 16 0 14 0;
#X restore 87 348 pd dist;
#X floatatom 126 320 5 0 0 0 - - -;
#X obj 86 498 outlet~;
#X obj 78 -1 inlet;
#X floatatom 175 144 5 0 0 0 - - -;
#X obj 87 290 *~ 1;
#X msg 266 366 1;
#X obj 248 338 loadbang;
#X obj 189 207 u_snapshot~;
#X msg 196 337 0.01;
#X connect 1 0 2 0;
#X connect 1 0 9 0;
#X connect 2 0 3 0;
#X connect 3 0 15 0;
#X connect 4 0 3 1;
#X connect 5 0 9 1;
#X connect 6 0 3 1;
#X connect 9 0 15 0;
#X connect 9 0 18 0;
#X connect 10 0 12 0;
#X connect 11 0 10 1;
#X connect 13 0 1 0;
#X connect 14 0 9 2;
#X connect 15 0 10 0;
#X connect 16 0 5 0;
#X connect 17 0 16 0;
#X connect 17 0 19 0;
#X connect 19 0 11 0;
