#N canvas 596 133 1227 694 10;
#X msg -525 -7 hanning;
#X msg -468 -7 decay;
#X msg -423 -7 attack;
#X obj -525 39 s \$0-envelope;
#X floatatom -525 61 5 0 1 0 - - -;
#X obj -526 128 s \$0-metrospeed;
#X obj -525 84 s \$0-grainlength;
#X floatatom -244 -135 5 0 0 0 - - -;
#N canvas 649 189 696 439 buffer 0;
#X obj 184 203 soundfiler;
#X obj 184 91 openpanel;
#X msg -220 108 set \$1;
#X msg -220 132 C:/Users/Moritz/Documents/Musikmaschine/Samples/Recordings/Zoom Field Recordings/Instruments/Flügel/STE-001.wav
;
#X floatatom 184 224 20 0 0 0 - - -;
#X obj -220 83 loadbang;
#X obj 184 245 s \$0-samples;
#X obj 184 69 inlet;
#X obj 247 91 table \$0-buffer;
#X obj 229 131 \$0;
#X msg 184 182 read -resize \$1 \$2-buffer;
#X obj 184 153 pack s 0;
#X obj 184 114 t s b;
#X connect 0 0 4 0;
#X connect 1 0 2 0;
#X connect 1 0 12 0;
#X connect 2 0 3 0;
#X connect 3 0 11 0;
#X connect 4 0 6 0;
#X connect 5 0 3 0;
#X connect 7 0 1 0;
#X connect 9 0 11 1;
#X connect 10 0 0 0;
#X connect 11 0 10 0;
#X connect 12 0 11 0;
#X connect 12 1 9 0;
#X restore -202 -106 pd buffer;
#X obj -202 -135 bng 15 250 50 0 empty empty Read 17 7 0 10 -262144
-1 -1;
#X obj -525 -77 r \$0-samples;
#X floatatom -525 -28 5 0 0 0 - - -;
#X obj -525 -51 / 44100;
#X obj -524 -100 s \$0-grainvoices;
#X floatatom -524 -121 5 0 32 0 - - -;
#X obj -524 221 s \$0-pan;
#X floatatom -524 195 5 0 1 0 - - -;
#X obj -278 -44 send~ \$0-pos;
#X obj -525 274 s \$0-amp;
#X floatatom -525 245 5 0 0 0 - - -;
#X obj -525 426 catch~ \$0-out_L;
#X obj -426 426 catch~ \$0-out_R;
#N canvas 530 181 381 387 metro 1;
#X obj -340 -8 f;
#X obj -340 15 + 1;
#X obj -340 -38 bng 15 250 50 0 empty empty empty 17 7 0 10 -262144
-1 -1;
#X floatatom -340 38 5 0 0 0 - - -;
#X msg -301 -25 0;
#X obj -303 37 sel 6;
#X obj -266 -25 r \$0-grainvoices;
#X obj -266 -1 t b f;
#X obj -340 183 send;
#X obj -340 102 t b f;
#X obj -319 126 pack 0 \$0;
#X msg -319 155 symbol \$2-voice\$1-metro;
#X obj -340 -64 metro;
#X obj -313 -95 r \$0-metrospeed;
#X obj -220 1 s \$0-metro;
#X obj -173 -136 inlet;
#X obj -190 98 outlet;
#X obj -358 -121 r \$0-metro;
#X floatatom -222 -65 5 0 0 0 - - -;
#X obj -111 -33 counter;
#X floatatom -121 -6 5 0 0 0 - - -;
#X obj -143 -75 tgl 15 0 empty empty empty 17 7 0 10 -262144 -1 -1
0 1;
#X obj -264 -126 print meatro;
#X connect 0 0 1 0;
#X connect 1 0 0 1;
#X connect 1 0 3 0;
#X connect 2 0 0 0;
#X connect 2 0 14 0;
#X connect 3 0 5 0;
#X connect 3 0 9 0;
#X connect 3 0 16 0;
#X connect 4 0 0 1;
#X connect 5 0 4 0;
#X connect 6 0 7 0;
#X connect 7 0 4 0;
#X connect 7 1 5 1;
#X connect 9 0 8 0;
#X connect 9 1 10 0;
#X connect 10 0 11 0;
#X connect 11 0 8 1;
#X connect 12 0 2 0;
#X connect 12 0 19 0;
#X connect 13 0 12 1;
#X connect 13 0 18 0;
#X connect 15 0 2 0;
#X connect 17 0 21 0;
#X connect 17 0 22 0;
#X connect 19 0 20 0;
#X connect 21 0 12 0;
#X restore -405 -110 pd metro;
#X obj -405 83 s \$0-panrnd;
#X obj -257 83 s \$0-amprnd;
#X obj -330 83 s \$0-posrnd;
#X floatatom -405 59 5 0 0 0 - - -;
#X floatatom -330 60 5 0 0 0 - - -;
#X floatatom -257 61 5 0 0 0 - - -;
#N canvas 755 70 188 301 voices 0;
#X obj -301 -48 s_grainvoice \$0 voice1;
#X obj -301 412 s_grainvoice \$0 voice24;
#X obj -301 372 s_grainvoice \$0 voice22;
#X obj -301 312 s_grainvoice \$0 voice19;
#X obj -301 52 s_grainvoice \$0 voice6;
#X obj -301 432 s_grainvoice \$0 voice25;
#X obj -301 112 s_grainvoice \$0 voice9;
#X obj -301 572 s_grainvoice \$0 voice32;
#X obj -301 -8 s_grainvoice \$0 voice3;
#X obj -301 -28 s_grainvoice \$0 voice2;
#X obj -301 12 s_grainvoice \$0 voice4;
#X obj -301 32 s_grainvoice \$0 voice5;
#X obj -301 72 s_grainvoice \$0 voice7;
#X obj -301 92 s_grainvoice \$0 voice8;
#X obj -301 132 s_grainvoice \$0 voice10;
#X obj -301 152 s_grainvoice \$0 voice11;
#X obj -301 172 s_grainvoice \$0 voice12;
#X obj -301 192 s_grainvoice \$0 voice13;
#X obj -301 212 s_grainvoice \$0 voice14;
#X obj -301 232 s_grainvoice \$0 voice15;
#X obj -301 252 s_grainvoice \$0 voice16;
#X obj -301 272 s_grainvoice \$0 voice17;
#X obj -301 292 s_grainvoice \$0 voice18;
#X obj -301 332 s_grainvoice \$0 voice20;
#X obj -301 352 s_grainvoice \$0 voice21;
#X obj -301 392 s_grainvoice \$0 voice23;
#X obj -301 452 s_grainvoice \$0 voice26;
#X obj -301 472 s_grainvoice \$0 voice27;
#X obj -301 492 s_grainvoice \$0 voice28;
#X obj -301 512 s_grainvoice \$0 voice29;
#X obj -301 532 s_grainvoice \$0 voice30;
#X obj -301 552 s_grainvoice \$0 voice31;
#X restore -525 341 pd voices;
#X obj -405 -130 bng 15 250 50 0 empty empty empty 17 7 0 10 -262144
-1 -1;
#X obj -436 350 s \$0-pitch;
#X floatatom -480 305 5 0 0 0 - - -;
#X obj -426 454 outlet~;
#X obj -525 454 outlet~;
#X obj -14 -167 inlet;
#X obj -525 149 tgl 15 0 empty empty empty 17 7 0 10 -262144 -1 -1
0 1;
#X floatatom -526 107 5 0 0 0 - - -;
#X text -523 500 by morast 2013;
#X text -532 489 grainclouds;
#X obj -523 364 dsp;
#X floatatom -485 398 5 0 0 0 - - -;
#X floatatom -523 397 5 0 0 0 - - -;
#X obj -202 -162 inlet;
#X obj -436 275 - 60;
#X obj -436 253 r \$0-midipitch;
#X obj -436 321 +;
#X obj -436 295 t b f;
#X floatatom -351 339 5 0 0 0 - - -;
#X obj -244 -115 sig~;
#X obj -278 -163 inlet~;
#X obj -306 286 s \$0-direction;
#X msg -306 254 fwd;
#X msg -276 254 rev;
#N canvas 97 136 556 300 init 0;
#X obj 228 57 loadbang;
#X obj 228 81 \$0;
#X obj 348 78 bng 15 250 50 0 empty empty empty 17 7 0 10 -262144 -1
-1;
#X msg 228 108 \; \$1-grainvoices 8 \; \$1-envelope hanning \; \$1-grainlength
0.1 \; \$1-metrospeed 100 \; \$1-ON 0 \; \$1-pan 0.5 \; \$1-amp 1 \;
\$1-pitch 0 \; \$1-panrnd 0 \; \$1-posrnd 0 \; \$1-amprnd 0 \; \$1-direction
fwd \;;
#X obj 378 153 print robert;
#X connect 0 0 1 0;
#X connect 1 0 3 0;
#X connect 2 0 1 0;
#X connect 3 0 4 0;
#X restore -406 -90 pd init;
#X obj -384 -132 r \$0-graintrigger;
#X obj -525 172 s \$0-metro;
#X obj -405 -161 inlet;
#X obj -317 460 u_snapshot~;
#X obj -134 232 r \$0-grainlength;
#X floatatom -133 270 5 0 0 0 - - -;
#X obj -320 113 r \$0-posrnd;
#X floatatom -304 170 5 0 0 0 - - -;
#X obj -102 14 route posrnd;
#X floatatom -94 40 5 0 0 0 - - -;
#X obj -14 77 u_dispatch \$0 \$1 metro;
#X obj -14 125 u_dispatch \$0 \$1 posrnd;
#X obj -14 -142 u_dispatch \$0 \$1 grainvoices;
#X obj -14 -118 u_dispatch \$0 \$1 grainlength;
#X obj -14 -92 u_dispatch \$0 \$1 metrospeed;
#X obj -14 -68 u_dispatch \$0 \$1 pan;
#X obj -14 -42 u_dispatch \$0 \$1 direction;
#X obj -14 -18 u_dispatch \$0 \$1 amp;
#X obj -14 8 u_dispatch \$0 \$1 envelope;
#X obj -14 32 u_dispatch \$0 \$1 pitch;
#X obj -14 55 u_dispatch \$0 \$1 midipitch;
#X obj -14 102 u_dispatch \$0 \$1 panrnd;
#X obj -14 152 u_dispatch \$0 \$1 amprnd;
#X obj -197 168 r \$0-metro;
#X obj -201 197 print toig;
#X obj 168 -143 u_load \$0 \$1;
#X connect 0 0 3 0;
#X connect 1 0 3 0;
#X connect 2 0 3 0;
#X connect 4 0 6 0;
#X connect 7 0 49 0;
#X connect 9 0 8 0;
#X connect 10 0 12 0;
#X connect 12 0 11 0;
#X connect 14 0 13 0;
#X connect 16 0 15 0;
#X connect 19 0 18 0;
#X connect 20 0 34 0;
#X connect 21 0 33 0;
#X connect 21 0 58 0;
#X connect 26 0 23 0;
#X connect 27 0 25 0;
#X connect 28 0 24 0;
#X connect 30 0 22 0;
#X connect 32 0 46 0;
#X connect 35 0 67 0;
#X connect 36 0 56 0;
#X connect 37 0 5 0;
#X connect 40 0 42 0;
#X connect 40 1 41 0;
#X connect 43 0 9 0;
#X connect 44 0 47 0;
#X connect 45 0 44 0;
#X connect 46 0 31 0;
#X connect 46 0 48 0;
#X connect 47 0 46 0;
#X connect 47 1 46 1;
#X connect 49 0 17 0;
#X connect 50 0 17 0;
#X connect 52 0 51 0;
#X connect 53 0 51 0;
#X connect 55 0 22 0;
#X connect 57 0 30 0;
#X connect 59 0 60 0;
#X connect 61 0 62 0;
#X connect 63 0 64 0;
#X connect 65 0 76 0;
#X connect 66 0 77 0;
#X connect 67 0 68 0;
#X connect 68 0 69 0;
#X connect 69 0 70 0;
#X connect 70 0 71 0;
#X connect 71 0 72 0;
#X connect 72 0 73 0;
#X connect 73 0 74 0;
#X connect 74 0 75 0;
#X connect 75 0 65 0;
#X connect 76 0 66 0;
#X connect 78 0 79 0;
