#N canvas 91 82 1227 686 10;
#X msg -525 -7 hanning;
#X msg -468 -7 decay;
#X msg -423 -7 attack;
#X obj -525 39 s \$0-envelope;
#X floatatom -525 61 5 0 1 0 - - -;
#X obj -526 128 s \$0-metrospeed;
#X obj -525 84 s \$0-grainlength;
#N canvas 289 165 861 439 buffer 0;
#X obj 154 203 soundfiler;
#X obj 154 91 openpanel;
#X msg -250 108 set \$1;
#X msg -250 132 /home/morast/Documents/samples/cello.wav;
#X floatatom 154 224 20 0 0 0 - - -;
#X obj -250 83 loadbang;
#X obj 154 245 s \$0-samples;
#X obj 154 69 inlet;
#X obj 199 131 \$0;
#X obj 154 153 pack s 0;
#X obj 154 114 t s b;
#X obj 397 38 r \$0-buffer;
#X obj 397 131 arraysize;
#X obj 448 88 prepend symbol;
#X obj 217 91 table \$0-table;
#X msg 154 182 read -resize \$1 \$2-table;
#X obj 397 71 t b a;
#X connect 0 0 4 0;
#X connect 1 0 2 0;
#X connect 1 0 10 0;
#X connect 2 0 3 0;
#X connect 3 0 9 0;
#X connect 4 0 6 0;
#X connect 5 0 3 0;
#X connect 7 0 1 0;
#X connect 8 0 9 1;
#X connect 9 0 15 0;
#X connect 10 0 9 0;
#X connect 10 1 8 0;
#X connect 11 0 16 0;
#X connect 12 0 4 0;
#X connect 13 0 12 1;
#X connect 15 0 0 0;
#X connect 16 0 12 0;
#X connect 16 1 13 0;
#X restore -202 -106 pd buffer;
#X obj -202 -135 bng 15 250 50 0 empty empty Read 17 7 0 10 -262144
-1 -1;
#X obj -525 -77 r \$0-samples;
#X floatatom -525 -28 5 0 0 0 - - -;
#X obj -525 -51 / 44100;
#X obj -524 -100 s \$0-grainvoices;
#X floatatom -524 -121 5 0 32 0 - - -;
#X obj -524 221 s \$0-pan;
#X floatatom -524 195 5 0 1 0 - - -;
#X obj -278 -44 send~ \$0-pos;
#X floatatom -525 245 5 0 0 0 - - -;
#X obj -525 426 catch~ \$0-out_L;
#X obj -426 426 catch~ \$0-out_R;
#N canvas 235 301 381 387 metro 1;
#X obj -340 -8 f;
#X obj -340 15 + 1;
#X obj -340 -38 bng 15 250 50 0 empty empty empty 17 7 0 10 -262144
-1 -1;
#X floatatom -340 38 5 0 0 0 - - -;
#X msg -301 -25 0;
#X obj -303 37 sel 6;
#X obj -168 -173 r \$0-grainvoices;
#X obj -266 -1 t b f;
#X obj -340 183 send;
#X obj -340 102 t b f;
#X obj -319 126 pack 0 \$0;
#X obj -340 -64 metro;
#X obj -407 -138 inlet;
#X obj -190 98 outlet;
#X obj -340 -139 tgl 15 0 empty empty empty 17 7 0 10 -262144 -1 -1
1 1;
#X obj -220 1 s \$0-metro;
#X obj -340 -173 r \$0-metroON;
#X obj -260 -173 r \$0-grainsize;
#X obj -260 -145 /;
#X obj -168 -139 t b f;
#X msg -319 155 symbol \$2-\$1-metro;
#X obj -260 -118 > 0;
#X obj -260 -96 change;
#X obj -313 -93 +;
#X obj -178 -110 r \$0-gap;
#X obj -178 -82 t b f;
#X connect 0 0 1 0;
#X connect 1 0 0 1;
#X connect 1 0 3 0;
#X connect 2 0 0 0;
#X connect 2 0 15 0;
#X connect 3 0 5 0;
#X connect 3 0 9 0;
#X connect 3 0 13 0;
#X connect 4 0 0 1;
#X connect 5 0 4 0;
#X connect 6 0 7 0;
#X connect 6 0 19 0;
#X connect 7 0 4 0;
#X connect 7 1 5 1;
#X connect 9 0 8 0;
#X connect 9 1 10 0;
#X connect 10 0 20 0;
#X connect 11 0 2 0;
#X connect 12 0 2 0;
#X connect 14 0 11 0;
#X connect 16 0 14 0;
#X connect 17 0 18 0;
#X connect 18 0 23 0;
#X connect 18 0 21 0;
#X connect 19 0 18 0;
#X connect 19 1 18 1;
#X connect 20 0 8 1;
#X connect 21 0 22 0;
#X connect 22 0 14 0;
#X connect 23 0 11 1;
#X connect 24 0 25 0;
#X connect 25 0 23 0;
#X connect 25 1 23 1;
#X restore -405 -110 pd metro;
#X obj -405 83 s \$0-panrnd;
#X obj -257 83 s \$0-amprnd;
#X obj -330 83 s \$0-posrnd;
#X floatatom -405 59 5 0 0 0 - - -;
#X floatatom -330 60 5 0 0 0 - - -;
#X floatatom -257 61 5 0 0 0 - - -;
#N canvas 576 172 308 596 voices 0;
#X obj -301 -48 s_grainvoice \$0 1;
#X obj -301 -28 s_grainvoice \$0 2;
#X obj -301 -7 s_grainvoice \$0 3;
#X obj -301 12 s_grainvoice \$0 4;
#X obj -301 32 s_grainvoice \$0 5;
#X obj -301 52 s_grainvoice \$0 6;
#X obj -301 72 s_grainvoice \$0 7;
#X obj -301 92 s_grainvoice \$0 8;
#X obj -301 112 s_grainvoice \$0 9;
#X obj -302 132 s_grainvoice \$0 10;
#X obj -301 152 s_grainvoice \$0 11;
#X obj -301 172 s_grainvoice \$0 12;
#X obj -301 192 s_grainvoice \$0 13;
#X obj -301 212 s_grainvoice \$0 14;
#X obj -301 232 s_grainvoice \$0 15;
#X obj -301 252 s_grainvoice \$0 16;
#X obj -301 272 s_grainvoice \$0 17;
#X obj -301 292 s_grainvoice \$0 18;
#X obj -301 312 s_grainvoice \$0 19;
#X obj -301 332 s_grainvoice \$0 20;
#X obj -301 352 s_grainvoice \$0 21;
#X obj -301 372 s_grainvoice \$0 22;
#X obj -301 392 s_grainvoice \$0 23;
#X obj -301 413 s_grainvoice \$0 24;
#X obj -301 432 s_grainvoice \$0 25;
#X obj -301 452 s_grainvoice \$0 26;
#X obj -301 472 s_grainvoice \$0 27;
#X obj -301 492 s_grainvoice \$0 28;
#X obj -301 512 s_grainvoice \$0 29;
#X obj -301 532 s_grainvoice \$0 30;
#X obj -301 552 s_grainvoice \$0 31;
#X obj -301 572 s_grainvoice \$0 32;
#X restore -406 -71 pd voices;
#X obj -405 -130 bng 15 250 50 0 empty empty empty 17 7 0 10 -262144
-1 -1;
#X obj -436 350 s \$0-pitch;
#X obj -426 454 outlet~;
#X obj -525 454 outlet~;
#X obj -14 -167 inlet;
#X obj -525 149 tgl 15 0 empty empty empty 17 7 0 10 -262144 -1 -1
0 1;
#X floatatom -526 107 5 0 0 0 - - -;
#X text -523 500 by morast 2013;
#X text -532 489 grainclouds;
#X obj -202 -162 inlet;
#X obj -436 275 - 60;
#X obj -436 253 r \$0-midipitch;
#X obj -436 321 +;
#X obj -436 295 t b f;
#X obj -278 -163 inlet~;
#X obj -306 286 s \$0-direction;
#X msg -306 254 fwd;
#X msg -276 254 rev;
#N canvas 85 156 556 300 init 0;
#X obj 228 57 loadbang;
#X obj 228 81 \$0;
#X obj 327 40 bng 15 250 50 0 empty empty empty 17 7 0 10 -262144 -1
-1;
#X msg 228 108 \; \$1-grainvoices 8 \; \$1-envelope hanning \; \$1-grainlength
0.1 \; \$1-metrospeed 100 \; \$1-metro 0 \; \$1-pan 0 \; \$1-amp 1
\; \$1-pitch 0 \; \$1-midipitch 60 \; \$1-panrnd 0 \; \$1-posrnd 0
\; \$1-amprnd 0.1 \; \$1-direction fwd \; \$1-grainsize 60 \;;
#X connect 0 0 1 0;
#X connect 1 0 3 0;
#X connect 2 0 1 0;
#X restore -406 -90 pd init;
#X obj -384 -132 r \$0-graintrigger;
#X obj -405 -161 inlet;
#X obj -14 96 u_dispatch \$0 \$1 posrnd;
#X obj -14 -142 u_dispatch \$0 \$1 grainvoices;
#X obj -14 -97 u_dispatch \$0 \$1 pan;
#X obj -14 -71 u_dispatch \$0 \$1 direction;
#X obj -14 -47 u_dispatch \$0 \$1 amp;
#X obj -14 -21 u_dispatch \$0 \$1 envelope;
#X obj -14 3 u_dispatch \$0 \$1 pitch;
#X obj -14 26 u_dispatch \$0 \$1 midipitch;
#X obj -14 73 u_dispatch \$0 \$1 panrnd;
#X obj -14 123 u_dispatch \$0 \$1 amprnd;
#X obj 168 -143 u_load \$0 \$1;
#X obj -525 172 s \$0-metroON;
#X obj -14 48 u_dispatch \$0 \$1 metroON;
#X obj -525 274 s \$0-amp;
#X floatatom -480 305 5 0 0 0 - - -;
#X obj -14 -118 u_dispatch \$0 \$1 grainsize;
#N canvas 166 286 450 300 bufferRoute 0;
#X obj -20 7 inlet;
#X obj -20 52 route buffer;
#X obj -20 74 s \$0-buffer;
#X obj -17 96 outlet;
#X connect 0 0 1 0;
#X connect 1 0 2 0;
#X connect 1 1 3 0;
#X restore -14 147 pd bufferRoute;
#X obj -14 174 u_dispatch \$0 \$1 gap;
#X connect 0 0 3 0;
#X connect 1 0 3 0;
#X connect 2 0 3 0;
#X connect 4 0 6 0;
#X connect 8 0 7 0;
#X connect 9 0 11 0;
#X connect 11 0 10 0;
#X connect 13 0 12 0;
#X connect 15 0 14 0;
#X connect 17 0 62 0;
#X connect 18 0 31 0;
#X connect 19 0 30 0;
#X connect 24 0 21 0;
#X connect 25 0 23 0;
#X connect 26 0 22 0;
#X connect 28 0 20 0;
#X connect 32 0 50 0;
#X connect 33 0 60 0;
#X connect 34 0 5 0;
#X connect 37 0 8 0;
#X connect 38 0 41 0;
#X connect 39 0 38 0;
#X connect 40 0 29 0;
#X connect 41 0 40 0;
#X connect 41 1 40 1;
#X connect 42 0 16 0;
#X connect 44 0 43 0;
#X connect 45 0 43 0;
#X connect 47 0 20 0;
#X connect 48 0 28 0;
#X connect 49 0 58 0;
#X connect 50 0 64 0;
#X connect 51 0 52 0;
#X connect 52 0 53 0;
#X connect 53 0 54 0;
#X connect 54 0 55 0;
#X connect 55 0 56 0;
#X connect 56 0 61 0;
#X connect 57 0 49 0;
#X connect 58 0 65 0;
#X connect 61 0 57 0;
#X connect 63 0 40 0;
#X connect 64 0 51 0;
#X connect 65 0 66 0;
