#N canvas 596 133 810 694 10;
#X msg -525 -7 hanning;
#X msg -468 -7 decay;
#X msg -423 -7 attack;
#X obj -525 39 s \$0-envelope;
#X floatatom -525 61 5 0 1 0 - - -;
#X obj -526 127 s \$0-metrospeed;
#X obj -525 84 s \$0-grainlength;
#X floatatom -300 -139 5 0 0 0 - - -;
#N canvas 649 189 696 439 buffer 0;
#X obj 184 203 soundfiler;
#X obj 184 91 openpanel;
#X msg -220 108 set \$1;
#X msg -220 132 C:/Users/Moritz/Documents/Musikmaschine/Samples/Recordings/Zoom Field Recordings/Guitare Drones and Fridge(April 2011)/080103-000.wav
;
#X floatatom 184 224 20 0 0 0 - - -;
#X obj -220 83 loadbang;
#X obj 184 245 s \$0-samples;
#X obj 184 69 inlet;
#X obj 247 91 table \$0-buffer;
#X obj 229 131 \$0;
#X msg 184 182 read -resize \$1 \$2-buffer;
#X obj 184 153 pack s 0;
#X obj 184 114 t s b;
#X connect 0 0 4 0;
#X connect 1 0 2 0;
#X connect 1 0 12 0;
#X connect 2 0 3 0;
#X connect 3 0 11 0;
#X connect 4 0 6 0;
#X connect 5 0 3 0;
#X connect 7 0 1 0;
#X connect 9 0 11 1;
#X connect 10 0 0 0;
#X connect 11 0 10 0;
#X connect 12 0 11 0;
#X connect 12 1 9 0;
#X restore -448 217 pd buffer;
#X obj -448 188 bng 15 250 50 0 empty empty Read 17 7 0 10 -262144
-1 -1;
#X obj -525 -77 r \$0-samples;
#X floatatom -525 -28 5 0 0 0 - - -;
#X obj -525 -51 / 44100;
#X obj -524 -100 s \$0-grainvoices;
#X floatatom -524 -121 5 0 32 0 - - -;
#X obj -524 221 s \$0-pan;
#X floatatom -524 195 5 0 1 0 - - -;
#X obj -334 -48 send~ \$0-pos;
#X obj -525 274 s \$0-amp;
#X floatatom -525 245 5 0 0 0 - - -;
#X obj -525 426 catch~ \$0-out_L;
#X obj -426 426 catch~ \$0-out_R;
#N canvas 822 119 381 387 metro 1;
#X obj -340 -8 f;
#X obj -340 15 + 1;
#X obj -340 -38 bng 15 250 50 0 empty empty empty 17 7 0 10 -262144
-1 -1;
#X floatatom -340 38 5 0 0 0 - - -;
#X msg -301 -25 0;
#X obj -303 37 sel 6;
#X obj -266 -25 r \$0-grainvoices;
#X obj -266 -1 t b f;
#X obj -340 183 send;
#X obj -340 102 t b f;
#X obj -319 126 pack 0 \$0;
#X msg -319 155 symbol \$2-voice\$1-metro;
#X obj -340 -64 metro;
#X obj -340 -98 tgl 15 0 empty empty empty 17 7 0 10 -262144 -1 -1
1 1;
#X obj -313 -95 r \$0-metrospeed;
#X obj -220 1 s \$0-metro;
#X obj -358 -121 r \$0-ON;
#X obj -173 -136 inlet;
#X obj -190 98 outlet;
#X connect 0 0 1 0;
#X connect 1 0 0 1;
#X connect 1 0 3 0;
#X connect 2 0 0 0;
#X connect 2 0 15 0;
#X connect 3 0 5 0;
#X connect 3 0 9 0;
#X connect 3 0 18 0;
#X connect 4 0 0 1;
#X connect 5 0 4 0;
#X connect 6 0 7 0;
#X connect 7 0 4 0;
#X connect 7 1 5 1;
#X connect 9 0 8 0;
#X connect 9 1 10 0;
#X connect 10 0 11 0;
#X connect 11 0 8 1;
#X connect 12 0 2 0;
#X connect 13 0 12 0;
#X connect 14 0 12 1;
#X connect 16 0 13 0;
#X connect 17 0 2 0;
#X restore -257 393 pd metro;
#X obj -525 172 s \$0-ON;
#X obj -110 -56 s \$0-panrnd;
#X obj 38 -56 s \$0-amprnd;
#X obj -35 -56 s \$0-posrnd;
#X floatatom -110 -80 5 0 0 0 - - -;
#X floatatom -35 -79 5 0 0 0 - - -;
#X floatatom 38 -78 5 0 0 0 - - -;
#N canvas 755 70 188 337 voices 1;
#X obj -301 -48 s_grainvoice \$0 voice1;
#X obj -301 412 s_grainvoice \$0 voice24;
#X obj -301 372 s_grainvoice \$0 voice22;
#X obj -301 312 s_grainvoice \$0 voice19;
#X obj -301 52 s_grainvoice \$0 voice6;
#X obj -301 432 s_grainvoice \$0 voice25;
#X obj -301 112 s_grainvoice \$0 voice9;
#X obj -301 572 s_grainvoice \$0 voice32;
#X obj -301 -8 s_grainvoice \$0 voice3;
#X obj -301 -28 s_grainvoice \$0 voice2;
#X obj -301 12 s_grainvoice \$0 voice4;
#X obj -301 32 s_grainvoice \$0 voice5;
#X obj -301 72 s_grainvoice \$0 voice7;
#X obj -301 92 s_grainvoice \$0 voice8;
#X obj -301 132 s_grainvoice \$0 voice10;
#X obj -301 152 s_grainvoice \$0 voice11;
#X obj -301 172 s_grainvoice \$0 voice12;
#X obj -301 192 s_grainvoice \$0 voice13;
#X obj -301 212 s_grainvoice \$0 voice14;
#X obj -301 232 s_grainvoice \$0 voice15;
#X obj -301 252 s_grainvoice \$0 voice16;
#X obj -301 272 s_grainvoice \$0 voice17;
#X obj -301 292 s_grainvoice \$0 voice18;
#X obj -301 332 s_grainvoice \$0 voice20;
#X obj -301 352 s_grainvoice \$0 voice21;
#X obj -301 392 s_grainvoice \$0 voice23;
#X obj -301 452 s_grainvoice \$0 voice26;
#X obj -301 472 s_grainvoice \$0 voice27;
#X obj -301 492 s_grainvoice \$0 voice28;
#X obj -301 512 s_grainvoice \$0 voice29;
#X obj -301 532 s_grainvoice \$0 voice30;
#X obj -301 552 s_grainvoice \$0 voice31;
#X restore -525 341 pd voices;
#X obj -257 373 bng 15 250 50 0 empty empty empty 17 7 0 10 -262144
-1 -1;
#X obj -436 350 s \$0-pitch;
#X floatatom -480 305 5 0 0 0 - - -;
#X obj -426 454 outlet~;
#X obj -525 454 outlet~;
#X obj 132 -90 inlet;
#X obj -525 149 tgl 15 0 empty empty empty 17 7 0 10 -262144 -1 -1
0 1;
#X floatatom -526 107 5 0 0 0 - - -;
#N canvas 103 175 683 409 dispatcher 0;
#X obj -508 -1 route grainvoices grainenvelope grainlength;
#X obj -508 62 s \$0-grainvoices;
#X obj -423 40 s \$0-envelope;
#X obj -338 24 s \$0-grainlength;
#X obj -509 91 route metrospeed metro pan amp pitch;
#X obj -509 141 s \$0-metrospeed;
#X obj -352 142 s \$0-pan;
#X obj -294 142 s \$0-amp;
#X obj -404 142 s \$0-ON;
#X obj -237 142 s \$0-pitch;
#X obj -508 -27 inlet;
#X text -186 -17 Dispatches incoming messages and sends them to the
right destinations;
#X obj -321 340;
#X obj -510 216 s \$0-panrnd;
#X obj -362 216 s \$0-amprnd;
#X obj -435 216 s \$0-posrnd;
#X obj -288 216 s \$0-midipitch;
#X obj -193 218 s \$0-direction;
#X obj -511 172 route panrnd posrnd amprnd midipitch direction;
#X connect 0 0 1 0;
#X connect 0 1 2 0;
#X connect 0 2 3 0;
#X connect 0 3 4 0;
#X connect 4 0 5 0;
#X connect 4 1 8 0;
#X connect 4 2 6 0;
#X connect 4 3 7 0;
#X connect 4 4 9 0;
#X connect 4 5 18 0;
#X connect 10 0 0 0;
#X connect 18 0 13 0;
#X connect 18 1 15 0;
#X connect 18 2 14 0;
#X connect 18 3 16 0;
#X connect 18 4 17 0;
#X restore 132 -55 pd dispatcher;
#X text -523 500 by morast 2013;
#X text -532 489 grainclouds;
#X obj -523 364 dsp;
#X floatatom -485 398 5 0 0 0 - - -;
#X floatatom -523 397 5 0 0 0 - - -;
#X obj -448 161 inlet;
#X obj -436 275 - 60;
#X obj -436 253 r \$0-midipitch;
#X obj -436 321 +;
#X obj -436 295 t b f;
#X floatatom -351 339 5 0 0 0 - - -;
#X obj -300 -119 sig~;
#X obj -334 -167 inlet~;
#X obj -306 286 s \$0-direction;
#X msg -306 254 fwd;
#X msg -276 254 rev;
#N canvas 97 136 450 300 init 1;
#X obj 228 57 loadbang;
#X obj 228 81 \$0;
#X obj 348 78 bng 15 250 50 0 empty empty empty 17 7 0 10 -262144 -1
-1;
#X msg 228 108 \; \$1-grainvoices 8 \; \$1-envelope hanning \; \$1-grainlength
0.1 \; \$1-metrospeed 100 \; \$1-ON 0 \; \$1-pan 0.5 \; \$1-amp 1 \;
\$1-pitch 0 \; \$1-panrnd 0 \; \$1-posrnd 0 \; \$1-amprnd 0 \; \$1-direction
fwd \;;
#X obj 378 153 print robert;
#X connect 0 0 1 0;
#X connect 1 0 3 0;
#X connect 2 0 1 0;
#X connect 3 0 4 0;
#X restore -224 29 pd init;
#X obj -236 371 r \$0-graintrigger;
#X connect 0 0 3 0;
#X connect 1 0 3 0;
#X connect 2 0 3 0;
#X connect 4 0 6 0;
#X connect 7 0 51 0;
#X connect 9 0 8 0;
#X connect 10 0 12 0;
#X connect 12 0 11 0;
#X connect 14 0 13 0;
#X connect 16 0 15 0;
#X connect 19 0 18 0;
#X connect 20 0 35 0;
#X connect 21 0 34 0;
#X connect 27 0 24 0;
#X connect 28 0 26 0;
#X connect 29 0 25 0;
#X connect 31 0 22 0;
#X connect 33 0 48 0;
#X connect 36 0 39 0;
#X connect 37 0 23 0;
#X connect 38 0 5 0;
#X connect 42 0 44 0;
#X connect 42 1 43 0;
#X connect 45 0 9 0;
#X connect 46 0 49 0;
#X connect 47 0 46 0;
#X connect 48 0 32 0;
#X connect 48 0 50 0;
#X connect 49 0 48 0;
#X connect 49 1 48 1;
#X connect 51 0 17 0;
#X connect 52 0 17 0;
#X connect 54 0 53 0;
#X connect 55 0 53 0;
#X connect 57 0 22 0;
