#N canvas 83 121 950 563 10;
#N canvas 0 0 987 586 del 0;
#X obj 164 87 inlet~;
#X obj 290 86 inlet~;
#X obj 291 117 vd~ \$0-del1;
#X obj 399 86 inlet;
#X obj 189 187 outlet~;
#X obj 583 82 inlet;
#X msg 411 291 0.998849;
#X obj 290 186 lop~ 10000;
#X obj 399 123 clip -1 1;
#X obj 164 261 delwrite~ \$0-del1 500;
#X obj 484 100 block~ 8;
#X obj 290 148 *~ 0.85;
#X connect 0 0 9 0;
#X connect 0 0 4 0;
#X connect 1 0 2 0;
#X connect 2 0 11 0;
#X connect 3 0 8 0;
#X connect 5 0 7 1;
#X connect 7 0 9 0;
#X connect 8 0 11 1;
#X connect 11 0 7 0;
#X connect 11 0 4 0;
#X restore 156 275 pd del;
#X obj 156 443 outlet~;
#X obj 580 144 u_dispatch \$0 feedback;
#X obj 580 165 u_dispatch \$0 lpfreq;
#X obj 580 118 inlet;
#X obj 324 193 r \$0-feedback;
#X obj 429 194 r \$0-lpfreq;
#X obj 580 188 u_dispatch \$0 delay;
#X obj 322 110 r \$0-delay;
#N canvas 673 147 559 435 comb1 0;
#X obj 278 114 *;
#X obj 99 36 inlet~;
#X obj 299 57 inlet;
#X obj 98 310 outlet~;
#X obj 299 84 t b f;
#X obj 278 29 r \$0-delay;
#X obj 159 257 r \$0-lpfreq;
#X obj 99 286 lop~ 1000;
#X msg 360 53 0.2;
#X obj 360 27 loadbang;
#N canvas 314 253 843 340 addsmp 0;
#X obj 152 91 samplerate~;
#X obj 152 135 swap 1000;
#X obj 152 163 /;
#X obj 152 42 loadbang;
#X msg 164 68 bang;
#X obj 71 42 inlet~;
#X obj 71 235 outlet~;
#X obj 71 205 +~ 0;
#X text 245 48 add the duration of one sample to incoming signal. Use
in front of [vd~];
#X connect 0 0 1 0;
#X connect 1 0 2 0;
#X connect 1 1 2 1;
#X connect 2 0 7 1;
#X connect 3 0 0 0;
#X connect 4 0 0 0;
#X connect 5 0 7 0;
#X connect 7 0 6 0;
#X restore 278 174 pd addsmp;
#N canvas 0 0 450 300 dw 0;
#X obj 111 71 delwrite~ \$0-comb1 500;
#X obj 99 38 inlet~;
#X obj 98 127 outlet~;
#X connect 1 0 0 0;
#X connect 1 0 2 0;
#X restore 98 68 pd dw;
#N canvas 0 0 450 300 dr 0;
#X obj 168 103 inlet~;
#X obj 243 100 inlet~;
#X obj 243 137 vd~ \$0-comb1;
#X obj 166 205 outlet~;
#X obj 167 167 -~;
#X connect 0 0 4 0;
#X connect 1 0 2 0;
#X connect 2 0 4 1;
#X connect 4 0 3 0;
#X restore 98 235 pd dr;
#X connect 0 0 10 0;
#X connect 1 0 11 0;
#X connect 2 0 4 0;
#X connect 4 0 0 0;
#X connect 4 1 0 1;
#X connect 5 0 0 0;
#X connect 6 0 7 1;
#X connect 7 0 3 0;
#X connect 8 0 4 0;
#X connect 9 0 8 0;
#X connect 10 0 12 1;
#X connect 11 0 12 0;
#X connect 12 0 7 0;
#X restore 155 188 pd comb1;
#N canvas 320 76 795 504 comb2 0;
#X obj 278 114 *;
#X obj 98 36 inlet~;
#X obj 299 57 inlet;
#X obj 98 260 outlet~;
#X obj 299 84 t b f;
#X obj 278 29 r \$0-delay;
#X msg 360 53 0.2;
#X obj 360 27 loadbang;
#N canvas 314 253 843 340 addsmp 0;
#X obj 152 91 samplerate~;
#X obj 152 135 swap 1000;
#X obj 152 163 /;
#X obj 152 42 loadbang;
#X msg 164 68 bang;
#X obj 71 42 inlet~;
#X obj 71 235 outlet~;
#X obj 71 205 +~ 0;
#X text 245 48 add the duration of one sample to incoming signal. Use
in front of [vd~];
#X connect 0 0 1 0;
#X connect 1 0 2 0;
#X connect 1 1 2 1;
#X connect 2 0 7 1;
#X connect 3 0 0 0;
#X connect 4 0 0 0;
#X connect 5 0 7 0;
#X connect 7 0 6 0;
#X restore 278 144 pd addsmp;
#N canvas 0 0 450 300 dw 0;
#X obj 99 38 inlet~;
#X obj 98 127 outlet~;
#X obj 111 71 delwrite~ \$0-comb2 500;
#X connect 0 0 1 0;
#X connect 0 0 2 0;
#X restore 98 64 pd dw;
#N canvas 0 0 450 300 dr 0;
#X obj 168 103 inlet~;
#X obj 243 100 inlet~;
#X obj 166 205 outlet~;
#X obj 167 167 -~;
#X obj 243 137 vd~ \$0-comb2;
#X connect 0 0 3 0;
#X connect 1 0 4 0;
#X connect 3 0 2 0;
#X connect 4 0 3 1;
#X restore 98 231 pd dr;
#X connect 0 0 8 0;
#X connect 1 0 9 0;
#X connect 2 0 4 0;
#X connect 4 0 0 0;
#X connect 4 1 0 1;
#X connect 5 0 0 0;
#X connect 6 0 4 0;
#X connect 7 0 6 0;
#X connect 8 0 10 1;
#X connect 9 0 10 0;
#X connect 10 0 3 0;
#X restore 156 359 pd comb2;
#X obj 580 251 u_dispatch \$0 pluckpos;
#X obj 208 166 r \$0-pluckpos;
#X obj 580 274 u_dispatch \$0 pickuppos;
#X obj 209 332 r \$0-pickuppos;
#X obj 580 210 u_dispatch \$0 freq;
#X obj 580 230 u_dispatch \$0 pitch;
#N canvas 0 0 586 367 conversions 0;
#X obj 50 85 swap 1000;
#X obj 50 115 /;
#X text 133 84 delay time can be set as frequency as well.;
#X obj 50 144 s \$0-delay;
#X obj 50 56 r \$0-freq;
#X obj 46 195 r \$0-pitch;
#X obj 46 221 mtof;
#X obj 46 246 s \$0-freq;
#X connect 0 0 1 0;
#X connect 0 1 1 1;
#X connect 1 0 3 0;
#X connect 4 0 0 0;
#X connect 5 0 6 0;
#X connect 6 0 7 0;
#X restore 583 429 pd conversions;
#X obj 322 166 vline~;
#X msg 322 143 \$1 5;
#X obj 155 217 *~ 0.5;
#X obj 156 386 *~ 0.5;
#X text 294 38 This isn't finished yet!;
#X obj 429 220 s \$0-freq;
#N canvas 172 83 586 377 LICENSE-GPL 0;
#X text 57 88 This program is free software: you can redistribute it
and/or modify it under the terms of the GNU General Public License
as published by the Free Software Foundation \, either version 3 of
the License \, or (at your option) any later version.;
#X text 58 168 This program is distributed in the hope that it will
be useful \, but WITHOUT ANY WARRANTY \; without even the implied warranty
of MERCHANTABILITY or FITNESS FOR A PARTICULAR PURPOSE. See the GNU
General Public License for more details.;
#X text 57 261 You should have received a copy of the GNU General Public
License along with this program. If not \, see <http://www.gnu.org/licenses/>.
;
#X text 61 54 Copyright (C) 2009 \, Reality Jockey Ltd.;
#X text 60 325 See the file LICENSE.txt for the full license text.
;
#X restore 612 39 pd LICENSE-GPL;
#X obj 155 136 inlet~;
#X connect 0 0 10 0;
#X connect 2 0 3 0;
#X connect 3 0 7 0;
#X connect 4 0 2 0;
#X connect 5 0 0 2;
#X connect 6 0 0 3;
#X connect 7 0 15 0;
#X connect 8 0 19 0;
#X connect 9 0 20 0;
#X connect 10 0 21 0;
#X connect 11 0 13 0;
#X connect 12 0 9 1;
#X connect 14 0 10 1;
#X connect 15 0 16 0;
#X connect 16 0 11 0;
#X connect 18 0 0 1;
#X connect 19 0 18 0;
#X connect 20 0 0 0;
#X connect 21 0 1 0;
#X connect 25 0 9 0;
