#N canvas 954 21 679 475 10;
#X obj 246 186 s_loopplayer;
#X obj 315 153 bng 15 250 50 0 empty empty Read_File 17 7 0 10 -262144
-1 -1;
#X obj 246 231 dac~;
#X msg 198 96 1;
#X msg 230 97 0;
#X obj 280 135 tgl 15 0 empty empty Loping_ON/OFF 17 7 0 10 -262144
-1 -1 1 1;
#X obj 198 136 tgl 15 0 empty empty Play/Stop 17 7 0 10 -262144 -1
-1 1 1;
#X text 195 78 Send 1 to retrigger;
#X text -61 89 Simple Stereo Loop and Sample Player. Reads files directly
from disk(readsf~);
#X connect 0 0 2 0;
#X connect 0 1 2 1;
#X connect 1 0 0 2;
#X connect 3 0 6 0;
#X connect 4 0 6 0;
#X connect 5 0 0 1;
#X connect 6 0 0 0;
