#N canvas 0 0 1366 702 10;
#N canvas 198 73 644 437 buffer 0;
#X obj 339 6 table \$0-buffer;
#X obj 77 170 soundfiler;
#X msg 77 102 read -resize \$1 \$2-buffer;
#X obj 77 26 openpanel;
#X obj 77 77 pack s \$0;
#X floatatom 77 203 5 0 0 0 - - -;
#X obj 112 205 s \$0-samples;
#X obj 77 -2 inlet;
#X msg 232 43 set \$1;
#X msg 290 60 0;
#X obj 290 102 outlet;
#X obj 146 -2 inlet;
#X connect 1 0 5 0;
#X connect 1 0 6 0;
#X connect 2 0 1 0;
#X connect 3 0 4 0;
#X connect 3 0 8 0;
#X connect 4 0 2 0;
#X connect 7 0 3 0;
#X connect 8 0 9 0;
#X connect 9 0 4 0;
#X connect 9 0 10 0;
#X connect 11 0 4 0;
#X connect 11 0 8 0;
#X restore 71 167 pd buffer;
#X obj 261 211 / 44100;
#X obj 261 190 r \$0-samples;
#X floatatom 261 235 5 0 0 0 - - -;
#X obj 71 141 bng 15 250 50 0 empty empty empty 17 7 0 10 -262144 -1
-1;
#X obj 261 326 s \$0-amp;
#X floatatom 261 304 5 0 0 0 - - -;
#X obj 445 329 s \$0-looplength;
#X obj 322 329 s \$0-pos;
#X floatatom 445 307 5 0 0 0 - - -;
#X floatatom 322 310 5 0 0 0 - - -;
#N canvas 280 0 874 704 samplevoice 0;
#X obj 174 199 phasor~;
#X obj 173 259 *~;
#X floatatom 175 110 7 0 0 0 - - -;
#X obj 261 193 r \$0-samples;
#X obj 173 466 tabread4~ \$0-buffer;
#X obj 173 548 *~;
#X obj 186 488 r \$0-amp;
#X obj 186 508 sig~;
#X obj 187 527 lop~ 1;
#X obj 225 203 sig~;
#X obj 225 177 tgl 15 0 empty empty empty 17 7 0 10 -262144 -1 -1 1
1;
#X obj 175 88 /;
#X obj 175 21 r \$0-samples;
#X obj 175 42 t b f;
#X obj 175 64 44100;
#X obj 173 385 *~;
#X obj 173 362 wrap~;
#X obj 173 337 /~;
#X obj 260 319 *~;
#X obj 261 219 sig~;
#X floatatom 291 220 5 0 0 0 - - -;
#X obj 291 242 sig~;
#X obj 469 269 sig~;
#X floatatom 469 246 5 0 0 0 - - -;
#X obj 455 320 *~;
#X obj 172 406 +~;
#X obj 469 293 lop~ 200;
#X obj 291 164 r \$0-looplength;
#X obj 469 205 r \$0-pos;
#X floatatom 514 269 5 0 0 0 - - -;
#X floatatom 257 8 5 0 0 0 - - -;
#X floatatom 257 114 5 0 0 0 - - -;
#X obj 257 27 / 12;
#X obj 257 93 pow 2;
#X obj 257 47 t b f;
#X msg 257 70 2;
#X obj 175 131 sig~;
#X obj 175 151 *~;
#X obj 257 135 sig~;
#X obj 172 571 outlet~;
#X obj 434 424 u_snapshot~ 50;
#X obj 175 177 *~;
#X obj 387 115 sig~;
#X obj 387 90 inlet;
#X obj 515 469 / 44100;
#X floatatom 515 489 5 0 0 0 - - -;
#X obj 515 511 outlet;
#X obj -136 270 vline~;
#X obj 58 95 / 44.1;
#X floatatom 58 120 5 0 0 0 - - -;
#X floatatom -105 66 5 0 0 0 - - -;
#X floatatom 18 67 5 0 0 0 - - -;
#X obj -136 69 bng 15 250 50 0 empty empty empty 17 7 0 10 -262144
-1 -1;
#X obj 7 162 -;
#X obj 7 136 t b f;
#X obj 7 194 *;
#X obj -136 111 t b b;
#X obj -119 155 f;
#X obj -136 135 f;
#X obj 8 249 *;
#X obj 18 218 t b f;
#X obj 58 144 t b f;
#X obj 130 407 *~;
#X obj 128 313 sig~;
#X obj 128 285 == 0;
#X obj -136 191 pack 0 0 0;
#X msg -136 233 \$2 \$3 \, \$1 \$3 \$3;
#X obj 130 362 *~;
#X obj 18 31 r \$0-looplength;
#X obj -106 30 r \$0-pos;
#X obj -136 6 inlet;
#X obj 173 435 *~;
#X obj 225 156 r \$0-switch;
#X obj -69 522 vline~;
#X obj 41 517 *~;
#X obj -74 405 pack 0 0 0 0;
#X obj 1 437 0;
#X obj -86 363 t b b;
#X msg -74 487 \$3 \$2 \, 0 \$4 \$2;
#X obj -50 372 unpack 0 0 0;
#X obj -50 335 r \$0-adsr;
#X obj 257 -15 r \$0-pitch;
#X floatatom 24 285 5 0 0 0 - - -;
#X obj 315 621 u_snapshot~ 50;
#X obj -10 542 +~;
#X obj 55 489 tgl 15 0 empty \$0-endless Endless 17 7 0 10 -262144
-1 -1 1 1;
#X connect 0 0 1 0;
#X connect 1 0 17 0;
#X connect 2 0 36 0;
#X connect 3 0 19 0;
#X connect 4 0 74 1;
#X connect 5 0 39 0;
#X connect 6 0 7 0;
#X connect 7 0 8 0;
#X connect 8 0 5 1;
#X connect 9 0 71 1;
#X connect 10 0 9 0;
#X connect 10 0 64 0;
#X connect 11 0 2 0;
#X connect 12 0 13 0;
#X connect 12 0 48 0;
#X connect 13 0 14 0;
#X connect 13 1 11 1;
#X connect 14 0 11 0;
#X connect 15 0 25 0;
#X connect 16 0 15 0;
#X connect 17 0 16 0;
#X connect 18 0 17 1;
#X connect 18 0 15 1;
#X connect 19 0 18 0;
#X connect 19 0 1 1;
#X connect 19 0 24 0;
#X connect 19 0 67 1;
#X connect 20 0 21 0;
#X connect 21 0 18 1;
#X connect 22 0 26 0;
#X connect 23 0 22 0;
#X connect 24 0 25 1;
#X connect 25 0 71 0;
#X connect 26 0 24 1;
#X connect 27 0 20 0;
#X connect 28 0 23 0;
#X connect 29 0 26 1;
#X connect 30 0 32 0;
#X connect 31 0 38 0;
#X connect 31 0 60 0;
#X connect 32 0 34 0;
#X connect 33 0 31 0;
#X connect 34 0 35 0;
#X connect 34 1 33 1;
#X connect 35 0 33 0;
#X connect 36 0 37 0;
#X connect 37 0 41 0;
#X connect 38 0 37 1;
#X connect 40 1 44 0;
#X connect 41 0 0 0;
#X connect 42 0 41 1;
#X connect 43 0 42 0;
#X connect 44 0 45 0;
#X connect 45 0 46 0;
#X connect 47 0 67 0;
#X connect 47 0 83 0;
#X connect 48 0 49 0;
#X connect 49 0 61 0;
#X connect 50 0 54 0;
#X connect 50 0 57 1;
#X connect 50 0 58 1;
#X connect 51 0 53 0;
#X connect 51 0 65 1;
#X connect 52 0 56 0;
#X connect 52 0 77 0;
#X connect 53 0 55 0;
#X connect 54 0 53 0;
#X connect 54 1 53 1;
#X connect 55 0 59 0;
#X connect 56 0 58 0;
#X connect 56 1 57 0;
#X connect 57 0 47 0;
#X connect 58 0 65 0;
#X connect 59 0 65 2;
#X connect 59 0 82 0;
#X connect 60 0 59 0;
#X connect 60 1 59 1;
#X connect 61 0 55 0;
#X connect 61 1 55 1;
#X connect 62 0 40 0;
#X connect 62 0 4 0;
#X connect 63 0 62 1;
#X connect 64 0 63 0;
#X connect 65 0 66 0;
#X connect 66 0 47 0;
#X connect 67 0 62 0;
#X connect 68 0 51 0;
#X connect 69 0 50 0;
#X connect 70 0 52 0;
#X connect 71 0 4 0;
#X connect 71 0 40 0;
#X connect 72 0 10 0;
#X connect 73 0 74 0;
#X connect 73 0 84 0;
#X connect 74 0 5 0;
#X connect 75 0 78 0;
#X connect 76 0 73 0;
#X connect 77 0 75 0;
#X connect 77 1 76 0;
#X connect 78 0 73 0;
#X connect 79 0 75 1;
#X connect 79 1 75 2;
#X connect 79 2 75 3;
#X connect 80 0 79 0;
#X connect 81 0 30 0;
#X connect 84 0 74 0;
#X connect 85 0 84 1;
#X restore 12 324 pd samplevoice;
#X obj 263 169 s \$0-lb;
#X obj 263 146 bng 15 250 50 0 empty empty empty 17 7 0 10 -262144
-1 -1;
#X obj 12 219 bng 15 250 50 0 empty empty Trigger 17 7 0 10 -262144
-1 -1;
#X obj 405 409 s \$0-switch;
#X obj 405 389 tgl 15 0 empty empty empty 17 7 0 10 -262144 -1 -1 1
1;
#X floatatom 260 387 5 0 0 2 A - -;
#X floatatom 336 388 5 0 0 2 R - -;
#X floatatom 300 388 5 0 0 2 S - -;
#X obj 260 439 pack 0 0 0;
#X obj 300 407 t b f;
#X obj 336 407 t b f;
#X obj 260 463 s \$0-adsr;
#X obj 13 353 outlet~;
#X obj 378 329 s \$0-pitch;
#X floatatom 378 308 5 0 0 0 - - -;
#X obj 261 277 route Amp Position Pitch Loop;
#X obj 298 233 outlet;
#X obj 93 353 outlet;
#X obj 261 256 inlet;
#X obj 259 351 route Attack Sustain Release Mode;
#X obj 12 156 inlet;
#X obj 71 118 inlet;
#X msg 605 117 Amp \$1;
#X msg 605 158 Position \$1;
#X msg 605 199 Pitch \$1;
#X msg 605 240 Loop \$1;
#X msg 605 281 Attack \$1;
#X msg 605 321 Sustain \$1;
#X msg 604 361 Release \$1;
#X msg 603 401 Mode \$1;
#X floatatom 605 55 5 0 0 2 Amp - -;
#X floatatom 641 56 5 0 0 2 Position - -;
#X floatatom 692 56 5 0 0 2 Pitch - -;
#X floatatom 728 55 5 0 0 2 Loop - -;
#X floatatom 604 90 5 0 0 2 Attack - -;
#X floatatom 645 89 5 0 0 2 Sustain - -;
#X floatatom 690 89 5 0 0 2 Release - -;
#X obj 733 87 tgl 15 0 empty empty Mode 17 7 0 10 -262144 -1 -1 1 1
;
#X obj 605 139 u_save.me.mmb \$1-Amp \$2;
#X obj 606 178 u_save.me.mmb \$1-Position \$2;
#X obj 605 220 u_save.me.mmb \$1-Pitch \$2;
#X obj 605 261 u_save.me.mmb \$1-Loop \$2;
#X obj 605 301 u_save.me.mmb \$1-Attack \$2;
#X obj 605 341 u_save.me.mmb \$1-Sustain \$2;
#X obj 602 419 u_save.me.mmb \$1-Mode \$2;
#X obj 603 381 u_save.me.mmb \$1-Release \$2;
#X obj 522 146 s \$0-route;
#X obj 301 256 r \$0-route;
#X obj 126 240 -;
#X obj 126 216 t b f;
#X obj 71 188 r \$0-pos;
#X obj 126 188 r \$0-looplength;
#X obj 126 282 sel 0 1;
#X msg 157 305 1;
#X msg 126 305 -1;
#X obj 126 262 >= 0;
#X obj 260 487 route load;
#X obj 133 167 outlet;
#X obj 728 24 tgl 15 0 \$0-endless \$0-endlessIn Endless 17 7 0 10
-262144 -1 -1 1 1;
#X obj 603 443 u_save.me.mmb \$1-Endless \$2;
#X obj 603 476 s \$0-endlessIn;
#X obj 770 426 r \$0-endless;
#X connect 0 0 69 0;
#X connect 1 0 3 0;
#X connect 1 0 28 0;
#X connect 2 0 1 0;
#X connect 4 0 0 0;
#X connect 6 0 5 0;
#X connect 9 0 7 0;
#X connect 10 0 8 0;
#X connect 11 0 24 0;
#X connect 11 1 29 0;
#X connect 13 0 12 0;
#X connect 14 0 11 0;
#X connect 16 0 15 0;
#X connect 17 0 20 0;
#X connect 18 0 22 0;
#X connect 19 0 21 0;
#X connect 20 0 23 0;
#X connect 21 0 20 0;
#X connect 21 1 20 1;
#X connect 22 0 20 0;
#X connect 22 1 20 2;
#X connect 26 0 25 0;
#X connect 27 0 6 0;
#X connect 27 1 10 0;
#X connect 27 2 26 0;
#X connect 27 3 9 0;
#X connect 27 4 31 0;
#X connect 30 0 27 0;
#X connect 31 0 17 0;
#X connect 31 1 19 0;
#X connect 31 2 18 0;
#X connect 31 3 16 0;
#X connect 31 4 68 0;
#X connect 32 0 14 0;
#X connect 33 0 4 0;
#X connect 34 0 58 0;
#X connect 35 0 58 0;
#X connect 36 0 58 0;
#X connect 37 0 58 0;
#X connect 38 0 58 0;
#X connect 39 0 58 0;
#X connect 40 0 58 0;
#X connect 41 0 58 0;
#X connect 42 0 34 0;
#X connect 42 0 50 0;
#X connect 43 0 35 0;
#X connect 43 0 51 0;
#X connect 44 0 36 0;
#X connect 44 0 52 0;
#X connect 45 0 37 0;
#X connect 45 0 53 0;
#X connect 46 0 38 0;
#X connect 46 0 54 0;
#X connect 47 0 39 0;
#X connect 47 0 55 0;
#X connect 48 0 40 0;
#X connect 48 0 57 0;
#X connect 49 0 41 0;
#X connect 49 0 56 0;
#X connect 50 0 42 0;
#X connect 51 0 43 0;
#X connect 52 0 44 0;
#X connect 53 0 45 0;
#X connect 54 0 46 0;
#X connect 55 0 47 0;
#X connect 56 0 49 0;
#X connect 57 0 48 0;
#X connect 59 0 27 0;
#X connect 60 0 67 0;
#X connect 61 0 60 0;
#X connect 61 1 60 1;
#X connect 62 0 60 0;
#X connect 63 0 61 0;
#X connect 64 0 66 0;
#X connect 64 1 65 0;
#X connect 65 0 11 1;
#X connect 66 0 11 1;
#X connect 67 0 64 0;
#X connect 68 0 0 1;
#X connect 71 0 72 0;
#X connect 73 0 71 0;
#X coords 0 -1 1 1 200 90 1 600 20;
