#N canvas 0 0 952 1006 10;
#N canvas 198 73 644 437 buffer 0;
#X obj 339 6 table \$0-buffer;
#X obj 77 170 soundfiler;
#X msg 77 83 read -resize \$1 \$2-buffer;
#X obj 77 25 openpanel;
#X msg 174 159 read -resize C:/Users/Moritz/Documents/dev/tanz_dhmd/Epilog/particles_ligeti
Project/Samples/Recorded/0005 1-Audio.wav 1038-buffer;
#X obj 77 58 pack s \$0;
#X floatatom 77 203 5 0 0 0 - - -;
#X obj 112 205 s \$0-samples;
#X obj 77 -2 inlet;
#X msg 174 112 set read \$1 \$2 \$3;
#X connect 1 0 6 0;
#X connect 1 0 7 0;
#X connect 2 0 1 0;
#X connect 2 0 9 0;
#X connect 3 0 5 0;
#X connect 5 0 2 0;
#X connect 8 0 3 0;
#X connect 9 0 4 0;
#X restore 22 293 pd buffer;
#X obj 22 314 tgl 15 0 empty empty empty 17 7 0 10 -262144 -1 -1 0
1;
#X msg 22 337 \; pd dsp \$1;
#X obj 21 212 / 44100;
#X obj 21 191 r \$0-samples;
#X floatatom 21 236 5 0 0 0 - - -;
#X obj 22 267 bng 15 250 50 0 empty empty empty 17 7 0 10 -262144 -1
-1;
#X obj 21 168 s \$0-amp;
#X floatatom 21 146 5 0 0 0 - - -;
#X obj 21 400 s \$0-looplength;
#X obj 21 439 s \$0-pos;
#X floatatom 21 378 5 0 0 0 - - -;
#X floatatom 21 420 5 0 0 0 - - -;
#N canvas 960 0 952 1006 samplevoice 1;
#X obj 54 199 phasor~;
#X obj 53 259 *~;
#X floatatom 55 110 7 0 0 0 - - -;
#X obj 141 193 r \$0-samples;
#X obj 53 426 tabread4~ \$0-buffer;
#X obj 53 508 *~;
#X obj 66 448 r \$0-amp;
#X obj 66 468 sig~;
#X obj 67 487 lop~ 1;
#X obj 54 236 *~;
#X obj 105 203 sig~;
#X obj 105 177 tgl 15 0 empty empty empty 17 7 0 10 -262144 -1 -1 0
1;
#X obj 55 88 /;
#X obj 55 21 r \$0-samples;
#X obj 55 42 t b f;
#X obj 55 64 44100;
#X obj 53 385 *~;
#X obj 53 362 wrap~;
#X obj 53 337 /~;
#X obj 140 319 *~;
#X obj 141 219 sig~;
#X floatatom 171 220 5 0 0 0 - - -;
#X obj 171 242 sig~;
#X obj 349 269 sig~;
#X floatatom 349 246 5 0 0 0 - - -;
#X obj 335 320 *~;
#X obj 52 406 +~;
#X obj 349 293 lop~ 200;
#X obj 171 167 r \$0-looplength;
#X obj 349 205 r \$0-pos;
#X floatatom 427 259 5 0 0 0 - - -;
#X floatatom 137 8 5 0 0 0 - - -;
#X floatatom 137 115 5 0 0 0 - - -;
#X obj 137 27 / 12;
#X obj 137 93 pow 2;
#X obj 137 47 t b f;
#X msg 137 70 2;
#X obj 55 131 sig~;
#X obj 55 151 *~;
#X obj 137 135 sig~;
#X obj 219 451 inlet;
#X obj 137 -25 inlet;
#X obj 52 531 outlet~;
#X obj 105 156 r \$0-lb;
#X obj 314 404 u_snapshot~ 50;
#X connect 0 0 9 0;
#X connect 1 0 18 0;
#X connect 2 0 37 0;
#X connect 3 0 20 0;
#X connect 4 0 5 0;
#X connect 5 0 42 0;
#X connect 6 0 7 0;
#X connect 7 0 8 0;
#X connect 8 0 5 1;
#X connect 9 0 1 0;
#X connect 10 0 9 1;
#X connect 11 0 10 0;
#X connect 12 0 2 0;
#X connect 13 0 14 0;
#X connect 14 0 15 0;
#X connect 14 1 12 1;
#X connect 15 0 12 0;
#X connect 16 0 26 0;
#X connect 17 0 16 0;
#X connect 18 0 17 0;
#X connect 19 0 18 1;
#X connect 19 0 16 1;
#X connect 20 0 19 0;
#X connect 20 0 1 1;
#X connect 20 0 25 0;
#X connect 21 0 22 0;
#X connect 22 0 19 1;
#X connect 23 0 27 0;
#X connect 24 0 23 0;
#X connect 25 0 26 1;
#X connect 26 0 4 0;
#X connect 27 0 25 1;
#X connect 28 0 21 0;
#X connect 29 0 24 0;
#X connect 30 0 27 1;
#X connect 31 0 33 0;
#X connect 32 0 39 0;
#X connect 33 0 35 0;
#X connect 34 0 32 0;
#X connect 35 0 36 0;
#X connect 35 1 34 1;
#X connect 36 0 34 0;
#X connect 37 0 38 0;
#X connect 38 0 0 0;
#X connect 38 0 44 0;
#X connect 39 0 38 1;
#X connect 40 0 7 0;
#X connect 41 0 31 0;
#X connect 43 0 11 0;
#X restore 215 217 pd samplevoice;
#X obj 214 598 dac~;
#X obj 215 327 *~;
#X floatatom 309 320 5 0 0 0 - - -;
#X floatatom 215 174 5 -48 48 0 - - -;
#X floatatom 296 175 5 0 2 0 - - -;
#N canvas 0 0 1920 1014 samplevoice 0;
#X obj 54 199 phasor~;
#X obj 53 259 *~;
#X floatatom 55 110 7 0 0 0 - - -;
#X obj 141 193 r \$0-samples;
#X obj 53 426 tabread4~ \$0-buffer;
#X obj 53 508 *~;
#X obj 66 448 r \$0-amp;
#X obj 66 468 sig~;
#X obj 67 487 lop~ 1;
#X obj 54 236 *~;
#X obj 105 203 sig~;
#X obj 105 177 tgl 15 0 empty empty empty 17 7 0 10 -262144 -1 -1 0
1;
#X obj 55 88 /;
#X obj 55 21 r \$0-samples;
#X obj 55 42 t b f;
#X obj 55 64 44100;
#X obj 53 385 *~;
#X obj 53 362 wrap~;
#X obj 53 337 /~;
#X obj 140 319 *~;
#X obj 141 219 sig~;
#X floatatom 171 220 5 0 0 0 - - -;
#X obj 171 242 sig~;
#X obj 349 269 sig~;
#X floatatom 349 246 5 0 0 0 - - -;
#X obj 335 320 *~;
#X obj 52 406 +~;
#X obj 349 293 lop~ 200;
#X obj 171 167 r \$0-looplength;
#X obj 349 205 r \$0-pos;
#X floatatom 427 259 5 0 0 0 - - -;
#X floatatom 137 8 5 0 0 0 - - -;
#X floatatom 137 115 5 0 0 0 - - -;
#X obj 137 27 / 12;
#X obj 137 93 pow 2;
#X obj 137 47 t b f;
#X msg 137 70 2;
#X obj 55 131 sig~;
#X obj 55 151 *~;
#X obj 137 135 sig~;
#X obj 219 451 inlet;
#X obj 137 -25 inlet;
#X obj 52 531 outlet~;
#X obj 105 156 r \$0-lb;
#X connect 0 0 9 0;
#X connect 1 0 18 0;
#X connect 2 0 37 0;
#X connect 3 0 20 0;
#X connect 4 0 5 0;
#X connect 5 0 42 0;
#X connect 6 0 7 0;
#X connect 7 0 8 0;
#X connect 8 0 5 1;
#X connect 9 0 1 0;
#X connect 10 0 9 1;
#X connect 11 0 10 0;
#X connect 12 0 2 0;
#X connect 13 0 14 0;
#X connect 14 0 15 0;
#X connect 14 1 12 1;
#X connect 15 0 12 0;
#X connect 16 0 26 0;
#X connect 17 0 16 0;
#X connect 18 0 17 0;
#X connect 19 0 18 1;
#X connect 19 0 16 1;
#X connect 20 0 19 0;
#X connect 20 0 1 1;
#X connect 20 0 25 0;
#X connect 21 0 22 0;
#X connect 22 0 19 1;
#X connect 23 0 27 0;
#X connect 24 0 23 0;
#X connect 25 0 26 1;
#X connect 26 0 4 0;
#X connect 27 0 25 1;
#X connect 28 0 21 0;
#X connect 29 0 24 0;
#X connect 30 0 27 1;
#X connect 31 0 33 0;
#X connect 32 0 39 0;
#X connect 33 0 35 0;
#X connect 34 0 32 0;
#X connect 35 0 36 0;
#X connect 35 1 34 1;
#X connect 36 0 34 0;
#X connect 37 0 38 0;
#X connect 38 0 0 0;
#X connect 39 0 38 1;
#X connect 40 0 7 0;
#X connect 41 0 31 0;
#X connect 43 0 11 0;
#X restore 362 217 pd samplevoice;
#X floatatom 362 174 5 -48 48 0 - - -;
#X floatatom 443 175 5 0 2 0 - - -;
#N canvas 0 0 1920 1014 samplevoice 0;
#X obj 54 199 phasor~;
#X obj 53 259 *~;
#X floatatom 55 110 7 0 0 0 - - -;
#X obj 141 193 r \$0-samples;
#X obj 53 426 tabread4~ \$0-buffer;
#X obj 53 508 *~;
#X obj 66 448 r \$0-amp;
#X obj 66 468 sig~;
#X obj 67 487 lop~ 1;
#X obj 54 236 *~;
#X obj 105 203 sig~;
#X obj 105 177 tgl 15 0 empty empty empty 17 7 0 10 -262144 -1 -1 0
1;
#X obj 55 88 /;
#X obj 55 21 r \$0-samples;
#X obj 55 42 t b f;
#X obj 55 64 44100;
#X obj 53 385 *~;
#X obj 53 362 wrap~;
#X obj 53 337 /~;
#X obj 140 319 *~;
#X obj 141 219 sig~;
#X floatatom 171 220 5 0 0 0 - - -;
#X obj 171 242 sig~;
#X obj 349 269 sig~;
#X floatatom 349 246 5 0 0 0 - - -;
#X obj 335 320 *~;
#X obj 52 406 +~;
#X obj 349 293 lop~ 200;
#X obj 171 167 r \$0-looplength;
#X obj 349 205 r \$0-pos;
#X floatatom 427 259 5 0 0 0 - - -;
#X floatatom 137 8 5 0 0 0 - - -;
#X floatatom 137 115 5 0 0 0 - - -;
#X obj 137 27 / 12;
#X obj 137 93 pow 2;
#X obj 137 47 t b f;
#X msg 137 70 2;
#X obj 55 131 sig~;
#X obj 55 151 *~;
#X obj 137 135 sig~;
#X obj 219 451 inlet;
#X obj 137 -25 inlet;
#X obj 52 531 outlet~;
#X obj 105 156 r \$0-lb;
#X connect 0 0 9 0;
#X connect 1 0 18 0;
#X connect 2 0 37 0;
#X connect 3 0 20 0;
#X connect 4 0 5 0;
#X connect 5 0 42 0;
#X connect 6 0 7 0;
#X connect 7 0 8 0;
#X connect 8 0 5 1;
#X connect 9 0 1 0;
#X connect 10 0 9 1;
#X connect 11 0 10 0;
#X connect 12 0 2 0;
#X connect 13 0 14 0;
#X connect 14 0 15 0;
#X connect 14 1 12 1;
#X connect 15 0 12 0;
#X connect 16 0 26 0;
#X connect 17 0 16 0;
#X connect 18 0 17 0;
#X connect 19 0 18 1;
#X connect 19 0 16 1;
#X connect 20 0 19 0;
#X connect 20 0 1 1;
#X connect 20 0 25 0;
#X connect 21 0 22 0;
#X connect 22 0 19 1;
#X connect 23 0 27 0;
#X connect 24 0 23 0;
#X connect 25 0 26 1;
#X connect 26 0 4 0;
#X connect 27 0 25 1;
#X connect 28 0 21 0;
#X connect 29 0 24 0;
#X connect 30 0 27 1;
#X connect 31 0 33 0;
#X connect 32 0 39 0;
#X connect 33 0 35 0;
#X connect 34 0 32 0;
#X connect 35 0 36 0;
#X connect 35 1 34 1;
#X connect 36 0 34 0;
#X connect 37 0 38 0;
#X connect 38 0 0 0;
#X connect 39 0 38 1;
#X connect 40 0 7 0;
#X connect 41 0 31 0;
#X connect 43 0 11 0;
#X restore 492 217 pd samplevoice;
#X floatatom 492 174 5 -48 48 0 - - -;
#X floatatom 573 175 5 0 2 0 - - -;
#N canvas 0 0 1920 1014 samplevoice 0;
#X obj 54 199 phasor~;
#X obj 53 259 *~;
#X floatatom 55 110 7 0 0 0 - - -;
#X obj 141 193 r \$0-samples;
#X obj 53 426 tabread4~ \$0-buffer;
#X obj 53 508 *~;
#X obj 66 448 r \$0-amp;
#X obj 66 468 sig~;
#X obj 67 487 lop~ 1;
#X obj 54 236 *~;
#X obj 105 203 sig~;
#X obj 105 177 tgl 15 0 empty empty empty 17 7 0 10 -262144 -1 -1 0
1;
#X obj 55 88 /;
#X obj 55 21 r \$0-samples;
#X obj 55 42 t b f;
#X obj 55 64 44100;
#X obj 53 385 *~;
#X obj 53 362 wrap~;
#X obj 53 337 /~;
#X obj 140 319 *~;
#X obj 141 219 sig~;
#X floatatom 171 220 5 0 0 0 - - -;
#X obj 171 242 sig~;
#X obj 349 269 sig~;
#X floatatom 349 246 5 0 0 0 - - -;
#X obj 335 320 *~;
#X obj 52 406 +~;
#X obj 349 293 lop~ 200;
#X obj 171 167 r \$0-looplength;
#X obj 349 205 r \$0-pos;
#X floatatom 427 259 5 0 0 0 - - -;
#X floatatom 137 8 5 0 0 0 - - -;
#X floatatom 137 115 5 0 0 0 - - -;
#X obj 137 27 / 12;
#X obj 137 93 pow 2;
#X obj 137 47 t b f;
#X msg 137 70 2;
#X obj 55 131 sig~;
#X obj 55 151 *~;
#X obj 137 135 sig~;
#X obj 219 451 inlet;
#X obj 137 -25 inlet;
#X obj 52 531 outlet~;
#X obj 105 156 r \$0-lb;
#X connect 0 0 9 0;
#X connect 1 0 18 0;
#X connect 2 0 37 0;
#X connect 3 0 20 0;
#X connect 4 0 5 0;
#X connect 5 0 42 0;
#X connect 6 0 7 0;
#X connect 7 0 8 0;
#X connect 8 0 5 1;
#X connect 9 0 1 0;
#X connect 10 0 9 1;
#X connect 11 0 10 0;
#X connect 12 0 2 0;
#X connect 13 0 14 0;
#X connect 14 0 15 0;
#X connect 14 1 12 1;
#X connect 15 0 12 0;
#X connect 16 0 26 0;
#X connect 17 0 16 0;
#X connect 18 0 17 0;
#X connect 19 0 18 1;
#X connect 19 0 16 1;
#X connect 20 0 19 0;
#X connect 20 0 1 1;
#X connect 20 0 25 0;
#X connect 21 0 22 0;
#X connect 22 0 19 1;
#X connect 23 0 27 0;
#X connect 24 0 23 0;
#X connect 25 0 26 1;
#X connect 26 0 4 0;
#X connect 27 0 25 1;
#X connect 28 0 21 0;
#X connect 29 0 24 0;
#X connect 30 0 27 1;
#X connect 31 0 33 0;
#X connect 32 0 39 0;
#X connect 33 0 35 0;
#X connect 34 0 32 0;
#X connect 35 0 36 0;
#X connect 35 1 34 1;
#X connect 36 0 34 0;
#X connect 37 0 38 0;
#X connect 38 0 0 0;
#X connect 39 0 38 1;
#X connect 40 0 7 0;
#X connect 41 0 31 0;
#X connect 43 0 11 0;
#X restore 622 217 pd samplevoice;
#X floatatom 622 174 5 -48 48 0 - - -;
#X floatatom 703 175 5 0 2 0 - - -;
#N canvas 0 0 1920 1014 samplevoice 0;
#X obj 54 199 phasor~;
#X obj 53 259 *~;
#X floatatom 55 110 7 0 0 0 - - -;
#X obj 141 193 r \$0-samples;
#X obj 53 426 tabread4~ \$0-buffer;
#X obj 53 508 *~;
#X obj 66 448 r \$0-amp;
#X obj 66 468 sig~;
#X obj 67 487 lop~ 1;
#X obj 54 236 *~;
#X obj 105 203 sig~;
#X obj 105 177 tgl 15 0 empty empty empty 17 7 0 10 -262144 -1 -1 0
1;
#X obj 55 88 /;
#X obj 55 21 r \$0-samples;
#X obj 55 42 t b f;
#X obj 55 64 44100;
#X obj 53 385 *~;
#X obj 53 362 wrap~;
#X obj 53 337 /~;
#X obj 140 319 *~;
#X obj 141 219 sig~;
#X floatatom 171 220 5 0 0 0 - - -;
#X obj 171 242 sig~;
#X obj 349 269 sig~;
#X floatatom 349 246 5 0 0 0 - - -;
#X obj 335 320 *~;
#X obj 52 406 +~;
#X obj 349 293 lop~ 200;
#X obj 171 167 r \$0-looplength;
#X obj 349 205 r \$0-pos;
#X floatatom 427 259 5 0 0 0 - - -;
#X floatatom 137 8 5 0 0 0 - - -;
#X floatatom 137 115 5 0 0 0 - - -;
#X obj 137 27 / 12;
#X obj 137 93 pow 2;
#X obj 137 47 t b f;
#X msg 137 70 2;
#X obj 55 131 sig~;
#X obj 55 151 *~;
#X obj 137 135 sig~;
#X obj 219 451 inlet;
#X obj 137 -25 inlet;
#X obj 52 531 outlet~;
#X obj 105 156 r \$0-lb;
#X connect 0 0 9 0;
#X connect 1 0 18 0;
#X connect 2 0 37 0;
#X connect 3 0 20 0;
#X connect 4 0 5 0;
#X connect 5 0 42 0;
#X connect 6 0 7 0;
#X connect 7 0 8 0;
#X connect 8 0 5 1;
#X connect 9 0 1 0;
#X connect 10 0 9 1;
#X connect 11 0 10 0;
#X connect 12 0 2 0;
#X connect 13 0 14 0;
#X connect 14 0 15 0;
#X connect 14 1 12 1;
#X connect 15 0 12 0;
#X connect 16 0 26 0;
#X connect 17 0 16 0;
#X connect 18 0 17 0;
#X connect 19 0 18 1;
#X connect 19 0 16 1;
#X connect 20 0 19 0;
#X connect 20 0 1 1;
#X connect 20 0 25 0;
#X connect 21 0 22 0;
#X connect 22 0 19 1;
#X connect 23 0 27 0;
#X connect 24 0 23 0;
#X connect 25 0 26 1;
#X connect 26 0 4 0;
#X connect 27 0 25 1;
#X connect 28 0 21 0;
#X connect 29 0 24 0;
#X connect 30 0 27 1;
#X connect 31 0 33 0;
#X connect 32 0 39 0;
#X connect 33 0 35 0;
#X connect 34 0 32 0;
#X connect 35 0 36 0;
#X connect 35 1 34 1;
#X connect 36 0 34 0;
#X connect 37 0 38 0;
#X connect 38 0 0 0;
#X connect 39 0 38 1;
#X connect 40 0 7 0;
#X connect 41 0 31 0;
#X connect 43 0 11 0;
#X restore 757 217 pd samplevoice;
#X floatatom 757 174 5 -48 48 0 - - -;
#X floatatom 838 175 5 0 2 0 - - -;
#N canvas 0 0 1920 1014 samplevoice 0;
#X obj 54 199 phasor~;
#X obj 53 259 *~;
#X floatatom 55 110 7 0 0 0 - - -;
#X obj 141 193 r \$0-samples;
#X obj 53 426 tabread4~ \$0-buffer;
#X obj 53 508 *~;
#X obj 66 448 r \$0-amp;
#X obj 66 468 sig~;
#X obj 67 487 lop~ 1;
#X obj 54 236 *~;
#X obj 105 203 sig~;
#X obj 105 177 tgl 15 0 empty empty empty 17 7 0 10 -262144 -1 -1 0
1;
#X obj 55 88 /;
#X obj 55 21 r \$0-samples;
#X obj 55 42 t b f;
#X obj 55 64 44100;
#X obj 53 385 *~;
#X obj 53 362 wrap~;
#X obj 53 337 /~;
#X obj 140 319 *~;
#X obj 141 219 sig~;
#X floatatom 171 220 5 0 0 0 - - -;
#X obj 171 242 sig~;
#X obj 349 269 sig~;
#X floatatom 349 246 5 0 0 0 - - -;
#X obj 335 320 *~;
#X obj 52 406 +~;
#X obj 349 293 lop~ 200;
#X obj 171 167 r \$0-looplength;
#X obj 349 205 r \$0-pos;
#X floatatom 427 259 5 0 0 0 - - -;
#X floatatom 137 8 5 0 0 0 - - -;
#X floatatom 137 115 5 0 0 0 - - -;
#X obj 137 27 / 12;
#X obj 137 93 pow 2;
#X obj 137 47 t b f;
#X msg 137 70 2;
#X obj 55 131 sig~;
#X obj 55 151 *~;
#X obj 137 135 sig~;
#X obj 219 451 inlet;
#X obj 137 -25 inlet;
#X obj 52 531 outlet~;
#X obj 105 156 r \$0-lb;
#X connect 0 0 9 0;
#X connect 1 0 18 0;
#X connect 2 0 37 0;
#X connect 3 0 20 0;
#X connect 4 0 5 0;
#X connect 5 0 42 0;
#X connect 6 0 7 0;
#X connect 7 0 8 0;
#X connect 8 0 5 1;
#X connect 9 0 1 0;
#X connect 10 0 9 1;
#X connect 11 0 10 0;
#X connect 12 0 2 0;
#X connect 13 0 14 0;
#X connect 14 0 15 0;
#X connect 14 1 12 1;
#X connect 15 0 12 0;
#X connect 16 0 26 0;
#X connect 17 0 16 0;
#X connect 18 0 17 0;
#X connect 19 0 18 1;
#X connect 19 0 16 1;
#X connect 20 0 19 0;
#X connect 20 0 1 1;
#X connect 20 0 25 0;
#X connect 21 0 22 0;
#X connect 22 0 19 1;
#X connect 23 0 27 0;
#X connect 24 0 23 0;
#X connect 25 0 26 1;
#X connect 26 0 4 0;
#X connect 27 0 25 1;
#X connect 28 0 21 0;
#X connect 29 0 24 0;
#X connect 30 0 27 1;
#X connect 31 0 33 0;
#X connect 32 0 39 0;
#X connect 33 0 35 0;
#X connect 34 0 32 0;
#X connect 35 0 36 0;
#X connect 35 1 34 1;
#X connect 36 0 34 0;
#X connect 37 0 38 0;
#X connect 38 0 0 0;
#X connect 39 0 38 1;
#X connect 40 0 7 0;
#X connect 41 0 31 0;
#X connect 43 0 11 0;
#X restore 877 217 pd samplevoice;
#X floatatom 877 174 5 -48 48 0 - - -;
#X floatatom 958 175 5 0 2 0 - - -;
#X obj 68 54 s \$0-lb;
#X obj 72 11 bng 15 250 50 0 empty empty empty 17 7 0 10 -262144 -1
-1;
#X obj 37 37;
#X obj 510 377 freeverb~;
#X obj 510 404 *~;
#X obj 561 403 *~;
#X floatatom 612 363 5 0 0 0 - - -;
#X obj 623 394 sig~;
#X msg 775 292 roomsize \$1;
#X msg 775 337 damping \$1;
#X msg 775 381 width \$1;
#X msg 775 425 wet \$1;
#X msg 775 469 dry \$1;
#X obj 787 446 hsl 60 18 0 1 0 1 empty empty dry 2 9 1 12 -225271 -1
-1 0 0;
#X obj 787 402 hsl 60 18 0 1 0 1 empty empty wet 2 9 1 12 -225271 -1
-1 5900 0;
#X obj 787 358 hsl 60 18 0 1 0 1 empty empty width 2 9 1 12 -262131
-1 -1 5700 0;
#X obj 787 314 hsl 60 18 0 2 0 1 empty empty damping 2 9 1 12 -261689
-1 -1 700 0;
#X obj 787 269 hsl 60 18 0.11 1.1 0 1 empty empty roomsize 2 9 1 12
-261689 -1 -1 5300 0;
#X floatatom 757 273 3 0 0 0 - - -;
#X floatatom 757 318 3 0 0 0 - - -;
#X floatatom 757 363 3 0 0 0 - - -;
#X floatatom 757 406 3 0 0 0 - - -;
#X floatatom 757 450 3 0 0 0 - - -;
#X obj 289 536 *~;
#X obj 394 590 *~;
#X floatatom 579 530 5 0 0 0 - - -;
#X connect 1 0 2 0;
#X connect 3 0 5 0;
#X connect 4 0 3 0;
#X connect 6 0 0 0;
#X connect 8 0 7 0;
#X connect 11 0 9 0;
#X connect 12 0 10 0;
#X connect 13 0 15 0;
#X connect 15 0 37 0;
#X connect 15 0 37 1;
#X connect 15 0 57 0;
#X connect 15 0 58 0;
#X connect 16 0 15 1;
#X connect 17 0 13 0;
#X connect 18 0 13 1;
#X connect 19 0 15 0;
#X connect 20 0 19 0;
#X connect 21 0 19 1;
#X connect 22 0 15 0;
#X connect 23 0 22 0;
#X connect 24 0 22 1;
#X connect 25 0 15 0;
#X connect 26 0 25 0;
#X connect 27 0 25 1;
#X connect 28 0 15 0;
#X connect 29 0 28 0;
#X connect 30 0 28 1;
#X connect 31 0 15 0;
#X connect 32 0 31 0;
#X connect 33 0 31 1;
#X connect 35 0 34 0;
#X connect 37 0 38 0;
#X connect 37 1 39 0;
#X connect 38 0 57 0;
#X connect 39 0 58 0;
#X connect 40 0 41 0;
#X connect 41 0 38 1;
#X connect 41 0 39 1;
#X connect 42 0 37 0;
#X connect 43 0 37 0;
#X connect 44 0 37 0;
#X connect 45 0 37 0;
#X connect 46 0 37 0;
#X connect 47 0 46 0;
#X connect 47 0 56 0;
#X connect 48 0 45 0;
#X connect 48 0 55 0;
#X connect 49 0 44 0;
#X connect 49 0 54 0;
#X connect 50 0 43 0;
#X connect 50 0 53 0;
#X connect 51 0 42 0;
#X connect 51 0 52 0;
#X connect 57 0 14 0;
#X connect 58 0 14 1;
#X connect 59 0 58 1;
#X connect 59 0 57 1;
