#N canvas 673 362 952 686 10;
#N canvas 1269 191 644 437 buffer 0;
#X obj 325 171 table \$0-buffer;
#X obj 77 230 soundfiler;
#X msg 77 170 read -resize \$1 \$2-buffer;
#X obj 77 116 openpanel;
#X obj 77 145 pack s \$0;
#X obj 77 254 s \$0-samples;
#X obj 77 -2 inlet;
#X obj 77 21 route bang;
#X obj 298 74 s \$0-set-buffer;
#X obj 85 57 symbol \$0-buffer;
#X connect 1 0 5 0;
#X connect 2 0 1 0;
#X connect 3 0 4 0;
#X connect 4 0 2 0;
#X connect 6 0 7 0;
#X connect 7 0 3 0;
#X connect 7 0 9 0;
#X connect 7 1 8 0;
#X connect 9 0 8 0;
#X restore 413 212 pd buffer;
#X obj 555 213 / 44100;
#X obj 546 192 r \$0-samples;
#N canvas 909 326 952 686 samplevoice 1;
#X obj 52 520 tabread4~ \$0-buffer;
#X obj 72 81 r \$0-samples;
#X obj 167 35 / 12;
#X obj 167 101 pow 2;
#X obj 167 55 t b f;
#X msg 167 78 2;
#X obj 167 -40 inlet;
#X obj 51 562 outlet~;
#X obj 53 453 vline~;
#X obj 72 111 / 44.1;
#X obj 53 167 *;
#X obj 53 486 *~;
#X msg 53 431 0 0 \, 1 \$1 1;
#X obj 167 13 * -1;
#X obj 283 82 sel 0;
#X msg 283 139 set \$0-buffer;
#X msg 383 211 set \$1;
#X obj 283 36 loadbang;
#X obj 441 138 s \$0-samples;
#X obj 350 99 t b b;
#X obj 283 57 symbol \$1;
#X obj 383 186 symbol \$1;
#X obj 441 27 r \$0-set-buffer;
#X obj 441 54 t b a;
#X obj 522 93 symbol;
#X obj 53 292 spigot, f 9;
#X obj 117 239 r \$0-loop;
#X obj 167 -15 unpack f f;
#X obj 224 57 / 127;
#X obj 52 542 *~;
#X obj 224 121 sig~;
#X obj 234 166 *~;
#X obj 181 423 bang;
#X obj 219 491 counter;
#X floatatom 216 534 5 0 0 0 - - -, f 5;
#X obj 53 248 delay;
#X obj 53 269 f;
#X obj 53 192 t f f, f 10;
#X obj 53 217 t b f f;
#X obj 441 117 array size \$1;
#X connect 0 0 29 0;
#X connect 1 0 9 0;
#X connect 1 0 11 1;
#X connect 2 0 4 0;
#X connect 3 0 10 0;
#X connect 4 0 5 0;
#X connect 4 1 3 1;
#X connect 5 0 3 0;
#X connect 6 0 27 0;
#X connect 8 0 11 0;
#X connect 9 0 10 1;
#X connect 10 0 37 0;
#X connect 11 0 0 0;
#X connect 12 0 8 0;
#X connect 13 0 2 0;
#X connect 14 0 15 0;
#X connect 14 1 19 0;
#X connect 15 0 0 0;
#X connect 16 0 0 0;
#X connect 17 0 20 0;
#X connect 19 0 39 0;
#X connect 19 1 21 0;
#X connect 20 0 14 0;
#X connect 21 0 16 0;
#X connect 22 0 23 0;
#X connect 23 0 39 0;
#X connect 23 1 24 0;
#X connect 23 1 21 0;
#X connect 24 0 39 1;
#X connect 25 0 12 0;
#X connect 25 0 32 0;
#X connect 25 0 38 0;
#X connect 26 0 25 1;
#X connect 27 0 13 0;
#X connect 27 1 28 0;
#X connect 28 0 30 0;
#X connect 29 0 7 0;
#X connect 30 0 31 0;
#X connect 30 0 31 1;
#X connect 31 0 29 1;
#X connect 32 0 33 0;
#X connect 33 0 34 0;
#X connect 35 0 36 0;
#X connect 36 0 25 0;
#X connect 37 0 38 0;
#X connect 37 1 12 0;
#X connect 38 0 35 0;
#X connect 38 1 36 1;
#X connect 38 2 35 1;
#X connect 39 0 18 0;
#X restore 237 202 pd samplevoice;
#X floatatom 958 175 5 0 2 0 - - -, f 5;
#X obj 413 151 inlet;
#X obj 238 232 outlet~;
#X obj 237 150 inlet;
#X obj 555 237 outlet;
#X obj 413 190 route buffer loop;
#X obj 485 213 s \$0-loop;
#X connect 1 0 8 0;
#X connect 2 0 1 0;
#X connect 3 0 6 0;
#X connect 5 0 9 0;
#X connect 7 0 3 0;
#X connect 9 0 0 0;
#X connect 9 1 10 0;
