#N canvas 1014 268 613 421 10;
#X obj 36 255 s_simpler;
#X obj 36 308 dac~;
#X text 22 8 Simple Monopghonic Mono Sample Player/Trigger. What else
do ya need? As i pull my triggerfinger!;
#X msg 96 224 buffer;
#X msg 36 208 0 127;
#X text 20 44 Args: Buffer Name(optional) \, let you use another buffer
than the internal one;
#X text 21 81 Inputs:;
#X text 20 96 1: Message Pair: Pitch(0-127) \, Velocity(0-127);
#X text 20 110 2: Message: buffer(will simply open a dialog to load
a sample into the internal buffer);
#X text 20 137 buffer + name: makes simpler use a external buffer;
#X text 20 152 loop: bool: set looping on or off;
#X msg 172 223 loop \$1;
#X obj 172 203 tgl 15 0 empty empty empty 17 7 0 10 -262144 -1 -1 1
1;
#N canvas 0 50 450 250 (subpatch) 0;
#X array ext-buffer 4553 float 2;
#X coords 0 1 4553 -1 200 140 1;
#X restore 365 219 graph;
#X msg 96 182 buffer ext-buffer;
#X msg 34 183 0 0;
#X msg 44 231 1 127;
#X connect 0 0 1 0;
#X connect 0 0 1 1;
#X connect 3 0 0 1;
#X connect 4 0 0 0;
#X connect 11 0 0 1;
#X connect 12 0 11 0;
#X connect 14 0 0 1;
#X connect 15 0 0 0;
#X connect 16 0 0 0;
