#N canvas 65 87 952 686 10;
#N canvas 240 308 644 437 buffer 0;
#X obj 250 111 table \$0-buffer;
#X obj 77 170 soundfiler;
#X msg 77 110 read -resize \$1 \$2-buffer;
#X obj 77 56 openpanel;
#X obj 77 85 pack s \$0;
#X obj 77 194 s \$0-samples;
#X obj 77 -2 inlet;
#X obj 77 21 route bang;
#X obj 153 53 s \$0-set-buffer;
#X connect 1 0 5 0;
#X connect 2 0 1 0;
#X connect 3 0 4 0;
#X connect 4 0 2 0;
#X connect 6 0 7 0;
#X connect 7 0 3 0;
#X connect 7 1 8 0;
#X restore 413 192 pd buffer;
#X obj 546 213 / 44100;
#X obj 546 192 r \$0-samples;
#N canvas 65 92 952 686 samplevoice 0;
#X floatatom 54 102 7 0 0 0 - - -;
#X obj 52 250 tabread4~ \$0-buffer;
#X obj 54 13 r \$0-samples;
#X obj 137 27 / 12;
#X obj 137 93 pow 2;
#X obj 137 47 t b f;
#X msg 137 70 2;
#X obj 137 -18 inlet;
#X obj 51 289 outlet~;
#X obj 53 183 vline~;
#X obj 54 43 / 44.1;
#X obj 87 140 *;
#X obj 137 140 t b f;
#X obj 53 216 *~;
#X msg 53 161 0 0 \, 1 \$1 1;
#X obj 137 5 * -1;
#X obj 253 74 sel 0;
#X msg 253 131 set \$0-buffer;
#X msg 348 142 set \$1;
#X obj 253 28 loadbang;
#X obj 411 109 arraysize \$1;
#X obj 411 130 s \$0-samples;
#X obj 321 91 t b b;
#X obj 253 49 symbol \$1;
#X obj 348 117 symbol \$1;
#X obj 411 19 r \$0-set-buffer;
#X obj 411 46 t b a;
#X obj 480 89 symbol;
#X connect 0 0 11 0;
#X connect 1 0 8 0;
#X connect 2 0 10 0;
#X connect 2 0 13 1;
#X connect 3 0 5 0;
#X connect 4 0 12 0;
#X connect 5 0 6 0;
#X connect 5 1 4 1;
#X connect 6 0 4 0;
#X connect 7 0 15 0;
#X connect 9 0 13 0;
#X connect 10 0 0 0;
#X connect 11 0 14 0;
#X connect 12 0 11 0;
#X connect 12 1 11 1;
#X connect 13 0 1 0;
#X connect 14 0 9 0;
#X connect 15 0 3 0;
#X connect 16 0 17 0;
#X connect 16 1 22 0;
#X connect 17 0 1 0;
#X connect 18 0 1 0;
#X connect 19 0 23 0;
#X connect 20 0 21 0;
#X connect 22 0 20 0;
#X connect 22 1 24 0;
#X connect 23 0 16 0;
#X connect 24 0 18 0;
#X connect 25 0 26 0;
#X connect 26 0 20 0;
#X connect 26 1 27 0;
#X connect 26 1 24 0;
#X connect 27 0 20 1;
#X restore 237 202 pd samplevoice;
#X floatatom 318 174 5 -48 48 0 - - -;
#X floatatom 958 175 5 0 2 0 - - -;
#X obj 413 151 inlet;
#X obj 238 232 outlet~;
#X obj 318 150 inlet;
#X obj 546 237 outlet;
#X obj 355 150 loadbang;
#X obj 413 170 route buffer;
#X connect 1 0 9 0;
#X connect 2 0 1 0;
#X connect 3 0 7 0;
#X connect 4 0 3 0;
#X connect 6 0 11 0;
#X connect 8 0 4 0;
#X connect 10 0 4 0;
#X connect 11 0 0 0;
