#N canvas 0 0 952 1006 10;
#N canvas 198 73 644 437 buffer 0;
#X obj 339 6 table \$0-buffer;
#X obj 77 170 soundfiler;
#X msg 77 83 read -resize \$1 \$2-buffer;
#X obj 77 25 openpanel;
#X msg 174 159 read -resize C:/Users/Moritz/Documents/Musikmaschine/Drumbanks/hihats-1/hihat01.wav
1038-buffer;
#X obj 77 58 pack s \$0;
#X floatatom 77 203 5 0 0 0 - - -;
#X obj 112 205 s \$0-samples;
#X obj 77 -2 inlet;
#X msg 174 112 set read \$1 \$2 \$3;
#X connect 1 0 6 0;
#X connect 1 0 7 0;
#X connect 2 0 1 0;
#X connect 2 0 9 0;
#X connect 3 0 5 0;
#X connect 5 0 2 0;
#X connect 8 0 3 0;
#X connect 9 0 4 0;
#X restore 383 192 pd buffer;
#X obj 21 212 / 44100;
#X obj 21 191 r \$0-samples;
#X floatatom 21 236 5 0 0 0 - - -;
#X obj 383 172 bng 15 250 50 0 empty empty empty 17 7 0 10 -262144
-1 -1;
#N canvas 960 0 952 1006 samplevoice 0;
#X floatatom 54 102 7 0 0 0 - - -;
#X obj 52 250 tabread4~ \$0-buffer;
#X obj 54 13 r \$0-samples;
#X floatatom 137 8 5 0 0 0 - - -;
#X floatatom 137 115 5 0 0 0 - - -;
#X obj 137 27 / 12;
#X obj 137 93 pow 2;
#X obj 137 47 t b f;
#X msg 137 70 2;
#X obj 137 -25 inlet;
#X obj 51 289 outlet~;
#X obj 53 183 vline~;
#X obj 54 138 f;
#X obj 5 107 inlet;
#X obj 54 43 / 44.1;
#X obj 87 140 *;
#X obj 137 140 t b f;
#X obj 330 363 u_snapshot~ 50;
#X obj 314 157 u_snapshot~ 50;
#X obj 53 216 *~;
#X msg 53 161 0 0 \, 1 \$1 1;
#X connect 0 0 15 0;
#X connect 1 0 10 0;
#X connect 1 0 17 0;
#X connect 2 0 14 0;
#X connect 2 0 19 1;
#X connect 3 0 5 0;
#X connect 4 0 16 0;
#X connect 5 0 7 0;
#X connect 6 0 4 0;
#X connect 7 0 8 0;
#X connect 7 1 6 1;
#X connect 8 0 6 0;
#X connect 9 0 3 0;
#X connect 11 0 19 0;
#X connect 12 0 20 0;
#X connect 13 0 12 0;
#X connect 14 0 0 0;
#X connect 15 0 12 1;
#X connect 16 0 15 0;
#X connect 16 1 15 1;
#X connect 19 0 1 0;
#X connect 19 0 18 0;
#X connect 20 0 11 0;
#X restore 237 202 pd samplevoice;
#X floatatom 318 174 5 -48 48 0 - - -;
#X floatatom 958 175 5 0 2 0 - - -;
#X obj 383 149 inlet;
#X obj 238 232 outlet~;
#X obj 237 177 bng 15 250 50 0 empty empty empty 17 7 0 10 -262144
-1 -1;
#X obj 237 153 inlet;
#X obj 318 150 inlet;
#X connect 1 0 3 0;
#X connect 2 0 1 0;
#X connect 4 0 0 0;
#X connect 5 0 9 0;
#X connect 6 0 5 1;
#X connect 8 0 4 0;
#X connect 10 0 5 0;
#X connect 11 0 10 0;
#X connect 12 0 6 0;
