#N canvas 511 474 556 437 10;
#X floatatom 193 83 5 0 0 0 - - -, f 5;
#X floatatom 232 83 5 0 0 0 - - -, f 5;
#X obj 128 80 bng 15 250 50 0 empty empty empty 17 7 0 10 -262144 -1
-1;
#X obj 128 266 dac~;
#X msg 137 16 0;
#X msg 187 53 0.5;
#N canvas 488 206 450 300 metronom 1;
#X obj 104 133 noise~;
#X obj 138 181 vline~;
#X msg 140 157 1 0 \, 0 100 0;
#X obj 104 205 *~;
#X obj 140 106 metro;
#X obj 166 56 u_bpmtoms;
#X obj 140 76 tgl 15 0 empty empty empty 17 7 0 10 -262144 -1 -1 1
1;
#X obj 160 31 inlet;
#X obj 105 236 outlet~;
#X obj 93 48 t b;
#X msg 93 74 1;
#X obj 86 18 inlet;
#X connect 0 0 3 0;
#X connect 1 0 3 1;
#X connect 2 0 1 0;
#X connect 3 0 8 0;
#X connect 4 0 2 0;
#X connect 5 0 4 1;
#X connect 6 0 4 0;
#X connect 7 0 5 0;
#X connect 7 0 9 0;
#X connect 9 0 10 0;
#X connect 10 0 6 0;
#X connect 11 0 6 0;
#X restore 271 136 pd metronom;
#X obj 300 56 t b;
#X msg 310 86 1;
#X obj 128 136 s_syncsampler;
#X msg 353 80 0;
#X obj 476 127 s_simpler;
#X msg 555 62 buffer;
#X msg 476 82 0 127;
#X obj 640 60 tgl 15 0 empty empty empty 17 7 0 10 -262144 -1 -1 0
1;
#X msg 608 112 loop \$1;
#X connect 0 0 6 1;
#X connect 0 0 9 2;
#X connect 1 0 9 3;
#X connect 2 0 9 0;
#X connect 4 0 7 0;
#X connect 4 0 9 1;
#X connect 5 0 9 1;
#X connect 7 0 8 0;
#X connect 8 0 6 0;
#X connect 9 0 3 0;
#X connect 9 0 3 1;
#X connect 10 0 6 0;
#X connect 11 0 3 0;
#X connect 11 0 3 1;
#X connect 12 0 11 1;
#X connect 13 0 11 0;
#X connect 14 0 15 0;
#X connect 15 0 11 1;
