#N canvas 1155 393 1855 999 10;
#X obj 28 105 soundfiler;
#X obj 28 33 openpanel;
#X floatatom 28 152 5 0 0 0 - - -, f 5;
#X obj 28 130 / 44.1;
#X obj 216 111 *;
#X floatatom 469 69 5 0 0 0 Length_in_Bars - -, f 5;
#X obj 266 95 t b f;
#X floatatom 216 143 8 0 0 0 - - -, f 8;
#X obj 72 231 /;
#X obj 60 187 t b f;
#X floatatom 69 265 5 0 0 0 - - -, f 5;
#X obj 28 343 *;
#X obj 69 307 t b f;
#X floatatom 28 374 8 0 0 0 - - -, f 8;
#X obj 28 527 phasor~;
#X obj 28 475 /;
#X obj 28 427 t b f;
#X msg 28 451 1;
#X floatatom 28 499 5 0 0 0 - - -, f 5;
#X obj 28 394 / 1000;
#X obj 29 574 *~;
#X obj 28 638 outlet~;
#X obj 44 549 r \$0-samples;
#X obj 569 125 table \$0-buffer;
#X obj 28 606 tabread4~ \$0-buffer;
#X obj 82 129 s \$0-samples;
#X obj 469 26 inlet;
#X obj 216 15 inlet;
#X obj 28 13 inlet;
#X obj 67 505 inlet;
#X obj 28 57 pack s \$0;
#X msg 28 82 read -resize \$1 \$2-buffer;
#X obj 216 70 * 16;
#X obj 469 123 s \$0-bars;
#X obj 266 69 r \$0-bars;
#X floatatom 275 43 5 0 0 0 - - -, f 5;
#X connect 0 0 3 0;
#X connect 0 0 25 0;
#X connect 1 0 30 0;
#X connect 2 0 9 0;
#X connect 2 0 11 0;
#X connect 3 0 2 0;
#X connect 4 0 7 0;
#X connect 5 0 33 0;
#X connect 6 0 4 0;
#X connect 6 1 4 1;
#X connect 7 0 8 0;
#X connect 8 0 10 0;
#X connect 9 0 8 0;
#X connect 9 1 8 1;
#X connect 10 0 12 0;
#X connect 11 0 13 0;
#X connect 12 0 11 0;
#X connect 12 1 11 1;
#X connect 13 0 19 0;
#X connect 14 0 20 0;
#X connect 15 0 18 0;
#X connect 16 0 17 0;
#X connect 16 1 15 1;
#X connect 17 0 15 0;
#X connect 18 0 14 0;
#X connect 19 0 16 0;
#X connect 20 0 24 0;
#X connect 22 0 20 1;
#X connect 24 0 21 0;
#X connect 26 0 5 0;
#X connect 27 0 32 0;
#X connect 27 0 35 0;
#X connect 28 0 1 0;
#X connect 29 0 14 1;
#X connect 30 0 31 0;
#X connect 31 0 0 0;
#X connect 32 0 4 0;
#X connect 34 0 6 0;
