#N canvas 367 29 1366 702 10;
#X obj 184 205 soundfiler;
#X obj 184 66 bng 15 250 50 0 empty empty empty 17 7 0 10 -262144 -1
-1;
#X obj 184 91 openpanel;
#X msg -220 108 set \$1;
#X obj 397 119 phasor~;
#X floatatom 397 94 5 0 0 0 - - -;
#X obj 413 142 r \$0-samples;
#X obj 184 227 s \$0-samples;
#X obj 398 164 *~;
#X obj 397 356 +~;
#X obj 540 296 *~ 256;
#X obj 396 509 *~;
#X obj 397 314 samphold~;
#X obj 541 146 phasor~;
#X floatatom 541 122 5 0 0 0 - - -;
#X obj 573 178 expr (1/$f1);
#X floatatom 573 200 5 0 0 0 - - -;
#X obj 573 223 * 44100;
#X obj 573 252 min;
#X obj 633 235 r \$0-samples;
#X obj 184 36 route load pitch;
#X obj 397 66 inlet;
#X obj 546 20 inlet;
#X msg -220 132 C:/Users/Moritz/Documents/Musikmaschine/Beatz/Classic Breaks/50_ways_to_leave_your_lover.wav
;
#X obj 395 590 outlet~;
#X obj 247 91 table \$0-buffer;
#X obj 184 162 pack s \$0;
#X obj 396 407 tabread4~ \$0-buffer;
#X obj 184 10 inlet;
#X msg 184 184 read -resize \$1 \$2-buffer;
#X text 577 121 Windowlength = Retrigger Speed;
#X obj 916 306 *~ 256;
#X obj 917 199 +~ 0.5;
#X obj 916 219 wrap~;
#X obj 781 371 +~;
#X obj 781 329 samphold~;
#X obj 780 422 tabread4~ \$0-buffer;
#X obj 780 509 *~;
#X obj 540 446 -~ 0.5;
#X obj 540 470 *~ 0.5;
#X obj 540 493 cos~;
#X obj 916 445 -~ 0.5;
#X obj 916 469 *~ 0.5;
#X obj 916 492 cos~;
#X text 837 163 2nd phase shifted by 180 Degrees;
#X text 426 246 First Phase;
#X obj 540 101 / 1000;
#X msg 540 77 1000;
#X obj 546 41 t b f;
#X connect 0 0 7 0;
#X connect 1 0 2 0;
#X connect 2 0 3 0;
#X connect 2 0 26 0;
#X connect 3 0 23 0;
#X connect 4 0 8 0;
#X connect 5 0 4 0;
#X connect 6 0 8 1;
#X connect 8 0 12 0;
#X connect 8 0 35 0;
#X connect 9 0 27 0;
#X connect 10 0 9 1;
#X connect 10 0 12 1;
#X connect 11 0 24 0;
#X connect 12 0 9 0;
#X connect 13 0 10 0;
#X connect 13 0 32 0;
#X connect 13 0 38 0;
#X connect 14 0 13 0;
#X connect 14 0 15 0;
#X connect 15 0 16 0;
#X connect 16 0 17 0;
#X connect 17 0 18 0;
#X connect 18 0 10 1;
#X connect 18 0 31 1;
#X connect 19 0 18 1;
#X connect 20 0 1 0;
#X connect 21 0 5 0;
#X connect 22 0 48 0;
#X connect 23 0 26 0;
#X connect 26 0 29 0;
#X connect 27 0 11 0;
#X connect 28 0 20 0;
#X connect 29 0 0 0;
#X connect 31 0 35 1;
#X connect 31 0 34 1;
#X connect 32 0 33 0;
#X connect 33 0 31 0;
#X connect 33 0 41 0;
#X connect 34 0 36 0;
#X connect 35 0 34 0;
#X connect 36 0 37 0;
#X connect 37 0 24 0;
#X connect 38 0 39 0;
#X connect 39 0 40 0;
#X connect 40 0 11 1;
#X connect 41 0 42 0;
#X connect 42 0 43 0;
#X connect 43 0 37 1;
#X connect 46 0 14 0;
#X connect 47 0 46 0;
#X connect 48 0 47 0;
#X connect 48 1 46 1;
