#N canvas 427 273 1366 702 10;
#X obj 184 205 soundfiler;
#X obj 184 66 bng 15 250 50 0 empty empty empty 17 7 0 10 -262144 -1
-1;
#X obj 184 91 openpanel;
#X msg -220 108 set \$1;
#X obj 397 119 phasor~;
#X floatatom 397 94 5 0 0 0 - - -, f 5;
#X obj 424 144 r \$0-samples;
#X obj 184 227 s \$0-samples;
#X obj 398 164 *~;
#X obj 397 356 +~;
#X obj 540 296 *~ 256;
#X obj 396 509 *~;
#X obj 397 314 samphold~;
#X obj 541 146 phasor~;
#X floatatom 541 122 5 0 0 0 - - -, f 5;
#X obj 573 178 expr (1/$f1);
#X floatatom 573 200 5 0 0 0 - - -, f 5;
#X obj 573 223 * 44100;
#X obj 573 252 min;
#X obj 633 235 r \$0-samples;
#X obj 397 -37 inlet;
#X obj 546 20 inlet;
#X msg -220 132 /home/morast/Documents/samples/cello.wav;
#X obj 395 590 outlet~;
#X obj 259 91 table \$0-buffer;
#X obj 184 162 pack s \$0;
#X obj 396 407 tabread4~ \$0-buffer;
#X obj 184 -10 inlet;
#X msg 184 184 read -resize \$1 \$2-buffer;
#X text 577 121 Windowlength = Retrigger Speed;
#X obj 916 306 *~ 256;
#X obj 917 199 +~ 0.5;
#X obj 916 219 wrap~;
#X obj 781 371 +~;
#X obj 781 329 samphold~;
#X obj 780 422 tabread4~ \$0-buffer;
#X obj 780 509 *~;
#X obj 540 446 -~ 0.5;
#X obj 540 470 *~ 0.5;
#X obj 540 493 cos~;
#X obj 916 445 -~ 0.5;
#X obj 916 469 *~ 0.5;
#X obj 916 492 cos~;
#X text 837 163 2nd phase shifted by 180 Degrees;
#X text 426 246 First Phase;
#X obj 540 101 / 1000;
#X msg 540 77 1000;
#X obj 546 41 t b f;
#X obj 442 -170 r \$0-samples;
#X obj 442 -62 / 44.1;
#X obj 481 -119 samplerate~;
#X obj 481 -144 loadbang;
#X obj 481 -98 / 1000;
#X obj 442 0 / 1000;
#X msg 442 -20 1000;
#X obj 442 -40 t b f;
#X floatatom 442 20 5 0 0 0 - - -, f 5;
#X obj 397 67 * 2;
#X obj 397 1 / 100;
#X obj -62 324 sel 0;
#X msg -62 381 set \$0-buffer;
#X msg 37 453 set \$1;
#X obj -62 278 loadbang;
#X obj 96 359 arraysize \$1;
#X obj 96 380 s \$0-samples;
#X obj 5 341 t b b;
#X obj -62 299 symbol \$1;
#X obj 37 428 symbol \$1;
#X obj 96 269 r \$0-set-buffer;
#X obj 96 296 t b a;
#X obj 177 335 symbol;
#X obj -62 509 s \$0-buffer-set;
#X obj 547 369 r \$0-buffer-set;
#X obj 938 371 r \$0-buffer-set;
#X obj 184 16 route load;
#X obj 251 69 s \$0-set-buffer;
#X obj 264 41 symbol \$0-buffer;
#X obj 184 40 route bang;
#X connect 0 0 7 0;
#X connect 1 0 2 0;
#X connect 1 0 76 0;
#X connect 2 0 3 0;
#X connect 2 0 25 0;
#X connect 3 0 22 0;
#X connect 4 0 8 0;
#X connect 5 0 4 0;
#X connect 6 0 8 1;
#X connect 8 0 12 0;
#X connect 8 0 34 0;
#X connect 9 0 26 0;
#X connect 10 0 9 1;
#X connect 10 0 12 1;
#X connect 11 0 23 0;
#X connect 12 0 9 0;
#X connect 13 0 10 0;
#X connect 13 0 31 0;
#X connect 13 0 37 0;
#X connect 14 0 13 0;
#X connect 14 0 15 0;
#X connect 15 0 16 0;
#X connect 16 0 17 0;
#X connect 17 0 18 0;
#X connect 18 0 10 1;
#X connect 18 0 30 1;
#X connect 19 0 18 1;
#X connect 20 0 58 0;
#X connect 21 0 47 0;
#X connect 22 0 25 0;
#X connect 25 0 28 0;
#X connect 26 0 11 0;
#X connect 27 0 74 0;
#X connect 28 0 0 0;
#X connect 30 0 34 1;
#X connect 30 0 33 1;
#X connect 31 0 32 0;
#X connect 32 0 30 0;
#X connect 32 0 40 0;
#X connect 33 0 35 0;
#X connect 34 0 33 0;
#X connect 35 0 36 0;
#X connect 36 0 23 0;
#X connect 37 0 38 0;
#X connect 38 0 39 0;
#X connect 39 0 11 1;
#X connect 40 0 41 0;
#X connect 41 0 42 0;
#X connect 42 0 36 1;
#X connect 45 0 14 0;
#X connect 46 0 45 0;
#X connect 47 0 46 0;
#X connect 47 1 45 1;
#X connect 48 0 49 0;
#X connect 49 0 55 0;
#X connect 50 0 52 0;
#X connect 51 0 50 0;
#X connect 52 0 49 1;
#X connect 53 0 56 0;
#X connect 54 0 53 0;
#X connect 55 0 54 0;
#X connect 55 1 53 1;
#X connect 56 0 57 1;
#X connect 57 0 5 0;
#X connect 58 0 57 0;
#X connect 59 0 60 0;
#X connect 59 1 65 0;
#X connect 60 0 71 0;
#X connect 61 0 71 0;
#X connect 62 0 66 0;
#X connect 63 0 64 0;
#X connect 65 0 63 0;
#X connect 65 1 67 0;
#X connect 66 0 59 0;
#X connect 67 0 61 0;
#X connect 68 0 69 0;
#X connect 69 0 63 0;
#X connect 69 1 70 0;
#X connect 69 1 67 0;
#X connect 70 0 63 1;
#X connect 72 0 26 0;
#X connect 73 0 35 0;
#X connect 74 0 77 0;
#X connect 76 0 75 0;
#X connect 77 0 1 0;
#X connect 77 1 75 0;
