#N canvas 788 0 952 1006 10;
#X obj 39 125 adc~ 1;
#X msg 212 49 start;
#X msg 274 55 stop;
#X obj 241 387 phasor~;
#X obj 242 173 timer;
#X floatatom 242 195 5 0 0 0 - - -;
#X obj 242 298 /;
#X obj 242 267 1;
#X obj 242 239 t b f;
#X obj 242 216 / 1000;
#X obj 240 505 dac~;
#X obj 191 84 t b b b;
#X obj 338 241 0;
#X obj 244 325 t f b;
#X msg 298 347 0;
#X obj 242 417 *~;
#X obj 359 319 * 44.1;
#X obj 209 -41 netreceive 8195 1;
#X obj 221 -15 route /wac.lp/0/1/press;
#X obj 232 13 unpack f f f;
#X obj 335 29 sel 1 0;
#X obj 335 55 tgl 15 0 empty empty empty 17 7 0 10 -262144 -1 -1 0
1;
#X obj 335 83 sel 1 0;
#X obj 304 148 t b;
#X msg 392 363 \; sem resize \$1;
#X floatatom 462 323 5 0 0 0 - - -;
#X obj 507 -15 table \$0-temp;
#X obj 39 164 tabwrite~ \$0-temp;
#X obj 241 441 tabread4~ \$0-temp;
#X connect 0 0 10 0;
#X connect 0 0 10 1;
#X connect 0 0 27 0;
#X connect 1 0 11 0;
#X connect 2 0 23 0;
#X connect 2 0 27 0;
#X connect 3 0 15 0;
#X connect 4 0 5 0;
#X connect 5 0 9 0;
#X connect 5 0 16 0;
#X connect 6 0 13 0;
#X connect 7 0 6 0;
#X connect 8 0 7 0;
#X connect 8 1 6 1;
#X connect 9 0 8 0;
#X connect 11 0 27 0;
#X connect 11 1 4 0;
#X connect 11 2 12 0;
#X connect 12 0 3 0;
#X connect 13 0 3 0;
#X connect 13 1 14 0;
#X connect 14 0 3 1;
#X connect 15 0 28 0;
#X connect 16 0 15 1;
#X connect 16 0 24 0;
#X connect 16 0 25 0;
#X connect 17 0 18 0;
#X connect 18 0 19 0;
#X connect 19 2 20 0;
#X connect 20 0 21 0;
#X connect 21 0 22 0;
#X connect 22 0 1 0;
#X connect 22 1 2 0;
#X connect 23 0 4 1;
#X connect 28 0 10 0;
#X connect 28 0 10 1;
