#N canvas -4 -4 1920 1014 10;
#X obj 105 244 s globalTempo;
#X floatatom 93 203 5 0 0 0 - - -;
#X obj 253 194 metro;
#X obj 253 154 tgl 15 0 empty empty empty 17 7 0 10 -262144 -1 -1 1
1;
#X obj 280 170 r globalTempo;
#X obj 319 620 dac~ 1 2;
#X obj 612 801 tabread4~ low;
#N canvas 0 0 450 300 (subpatch) 0;
#X array low 1.20102e+006 float 2;
#X coords 0 1 1.20102e+006 -1 200 140 1;
#X restore 953 296 graph;
#X obj 632 291 soundfiler;
#X obj 632 245 openpanel;
#X msg 632 268 read -resize \$1 low;
#X obj 632 219 bng 15 250 50 0 empty empty empty 17 7 0 10 -262144
-1 -1;
#X floatatom 632 338 5 0 0 0 - - -;
#X obj 632 316 / 44.1;
#X text 151 214 MS of 1 beat;
#X obj 105 118 bpm;
#X floatatom 105 88 5 0 0 0 - - -;
#X obj 776 229 r globalTempo;
#X floatatom 776 293 5 0 0 0 - - -;
#X obj 776 262 * 4;
#X obj 776 320 *;
#X obj 826 278 r measures;
#X obj 777 206 s measures;
#X floatatom 777 152 5 0 0 0 Length_in_Bars - -;
#X obj 826 304 t b f;
#X floatatom 776 352 8 0 0 0 - - -;
#X obj 632 414 /;
#X obj 632 373 t b f;
#X floatatom 629 448 5 0 0 0 - - -;
#X obj 588 526 *;
#X obj 629 490 t b f;
#X floatatom 588 557 8 0 0 0 - - -;
#X obj 612 722 phasor~;
#X obj 603 672 /;
#X obj 583 635 t b f;
#X msg 572 663 1;
#X floatatom 606 696 5 0 0 0 - - -;
#X obj 595 591 / 1000;
#X obj 656 745 r samples;
#X obj 694 367 s samples;
#X obj 613 769 *~;
#X floatatom 783 780 8 0 0 0 - - -;
#X obj 262 343 vline~;
#X msg 253 292 1 0 \, 0 100 0;
#X obj 318 381 *~;
#X obj 332 352 noise~;
#X obj 459 265 f;
#X obj 459 233 spigot;
#X obj 506 199 tgl 15 0 empty empty empty 17 7 0 10 -262144 -1 -1 0
1;
#X obj 575 165 t b f;
#X obj 459 302 t b f;
#X msg 506 149 1;
#X obj 1013 550 /;
#X msg 1021 587 set \$1;
#X msg 1070 685 4.16667;
#X msg 1025 612 322.581;
#X msg 1002 481 60000;
#X obj 1076 471 t b f;
#X floatatom 1078 448 5 0 0 0 - - -;
#X obj 144 169 env~;
#X obj 145 148 phasor~;
#X obj 157 188 > 0.01;
#X obj 198 294 sel 1;
#X obj 174 352 bng 15 250 50 0 empty empty empty 17 7 0 10 -262144
-1 -1;
#X obj 643 31 1;
#X obj 648 63 / 16;
#X floatatom 700 76 5 0 0 0 - - -;
#X floatatom 693 -22 5 0 0 0 - - -;
#X obj 671 3 t b f;
#X obj 625 93 *;
#X msg 456 63 1;
#X msg 493 65 2;
#X msg 523 66 3;
#X msg 557 68 4;
#X floatatom 629 123 5 0 0 0 - - -;
#X msg 414 63 0;
#X msg 588 67 5;
#X obj 63 473 osc~;
#X obj 95 414 tabread4~ bass;
#N canvas 0 0 450 300 (subpatch) 0;
#X array bass 100 float 3;
#A 0 0.96331 0.791885 0.756172 0.684745 0.666889 0.649032 0.627604
0.59189 0.574034 0.556177 0.527606 0.48475 0.466894 0.449037 0.427609
0.406181 0.370467 0.349039 0.329992 0.310945 0.291898 0.274041 0.256185
0.234756 0.213328 0.184758 0.166901 0.149044 0.13833 0.127616 0.113331
0.0990456 0.0704748 0.0633322 0.0419041 0.0204761 0.00619071 -0.00809465
-0.0152373 -0.02238 -0.02238 -0.02238 -0.0295227 -0.0295227 -0.0295227
-0.0295227 -0.0295227 -0.0295227 -0.0295227 -0.0295227 -0.0295227 -0.0295227
-0.0295227 -0.0188087 -0.00809465 -0.00452331 -0.000951966 0.0133334
0.0276188 0.0561895 0.0704748 0.106188 0.120474 0.149044 0.166901 0.184758
0.199043 0.213328 0.249042 0.27047 0.291898 0.309755 0.327611 0.352611
0.37761 0.399038 0.420466 0.441894 0.463322 0.48475 0.506178 0.627604
0.641889 0.656175 0.663317 0.67046 0.676412 0.682364 0.688317 0.694269
0.700221 0.706173 0.706173 0.706173 0.706173 0.706173 0.706173 0.706173
0.706173 0.663317;
#X coords 0 1 99 0 200 140 1 0 0;
#X restore 28 530 graph;
#X obj 193 479 *~;
#X obj 50 365 vline~;
#X obj 64 391 *~ 100;
#X obj 63 444 *~ 200;
#X msg 42 334 0 0 \, 1 100 0;
#X floatatom 225 427 5 0 0 0 - - -;
#X connect 1 0 0 0;
#X connect 2 0 43 0;
#X connect 2 0 47 0;
#X connect 2 0 84 0;
#X connect 3 0 2 0;
#X connect 4 0 2 1;
#X connect 6 0 5 0;
#X connect 6 0 5 1;
#X connect 8 0 13 0;
#X connect 8 0 39 0;
#X connect 9 0 10 0;
#X connect 10 0 8 0;
#X connect 11 0 9 0;
#X connect 12 0 27 0;
#X connect 12 0 29 0;
#X connect 13 0 12 0;
#X connect 15 0 1 0;
#X connect 15 1 60 0;
#X connect 16 0 15 0;
#X connect 17 0 19 0;
#X connect 18 0 20 0;
#X connect 19 0 18 0;
#X connect 20 0 25 0;
#X connect 21 0 24 0;
#X connect 23 0 22 0;
#X connect 24 0 20 0;
#X connect 24 1 20 1;
#X connect 25 0 26 0;
#X connect 26 0 28 0;
#X connect 27 0 26 0;
#X connect 27 1 26 1;
#X connect 28 0 30 0;
#X connect 29 0 31 0;
#X connect 30 0 29 0;
#X connect 30 1 29 1;
#X connect 31 0 37 0;
#X connect 32 0 40 0;
#X connect 33 0 36 0;
#X connect 34 0 35 0;
#X connect 34 1 33 1;
#X connect 35 0 33 0;
#X connect 36 0 32 0;
#X connect 37 0 34 0;
#X connect 38 0 40 1;
#X connect 38 0 41 0;
#X connect 40 0 6 0;
#X connect 42 0 44 0;
#X connect 43 0 42 0;
#X connect 44 0 5 0;
#X connect 44 0 5 1;
#X connect 45 0 44 1;
#X connect 46 0 50 0;
#X connect 47 0 46 0;
#X connect 48 0 47 1;
#X connect 49 0 51 0;
#X connect 49 1 46 1;
#X connect 50 0 48 0;
#X connect 50 1 32 1;
#X connect 51 0 48 0;
#X connect 52 0 53 0;
#X connect 53 0 55 0;
#X connect 56 0 52 0;
#X connect 57 0 56 0;
#X connect 57 1 52 1;
#X connect 58 0 57 0;
#X connect 59 0 61 0;
#X connect 60 0 59 0;
#X connect 61 0 62 0;
#X connect 62 0 42 0;
#X connect 62 0 63 0;
#X connect 64 0 65 0;
#X connect 65 0 66 0;
#X connect 66 0 69 1;
#X connect 67 0 68 0;
#X connect 68 0 64 0;
#X connect 68 1 65 1;
#X connect 69 0 49 0;
#X connect 69 0 74 0;
#X connect 70 0 69 0;
#X connect 71 0 69 0;
#X connect 72 0 69 0;
#X connect 73 0 69 0;
#X connect 75 0 69 0;
#X connect 76 0 69 0;
#X connect 77 0 80 0;
#X connect 78 0 83 0;
#X connect 80 0 5 0;
#X connect 80 0 5 1;
#X connect 81 0 82 0;
#X connect 82 0 78 0;
#X connect 83 0 77 0;
#X connect 84 0 81 0;
#X connect 85 0 80 1;
