#N canvas 0 0 556 437 10;
#X obj 128 136 timesyncedsampler;
#X floatatom 193 83 5 0 0 0 - - -;
#X floatatom 232 83 5 0 0 0 - - -;
#X obj 128 80 bng 15 250 50 0 empty empty empty 17 7 0 10 -262144 -1
-1;
#X obj 127 194 dac~;
#X msg 158 53 0;
#X msg 187 53 0.5;
#N canvas 491 202 450 300 metronom 1;
#X obj 104 133 noise~;
#X obj 138 181 vline~;
#X msg 140 157 1 0 \, 0 100 0;
#X obj 104 205 *~;
#X obj 140 106 metro;
#X obj 166 56 u_bpmtoms;
#X obj 140 76 tgl 15 0 empty empty empty 17 7 0 10 -262144 -1 -1 1
1;
#X obj 160 31 inlet;
#X obj 107 242 outlet~;
#X obj 93 48 t b;
#X msg 93 74 1;
#X obj 86 18 inlet;
#X connect 0 0 3 0;
#X connect 1 0 3 1;
#X connect 2 0 1 0;
#X connect 3 0 8 0;
#X connect 4 0 2 0;
#X connect 5 0 4 1;
#X connect 6 0 4 0;
#X connect 7 0 5 0;
#X connect 7 0 9 0;
#X connect 9 0 10 0;
#X connect 10 0 6 0;
#X connect 11 0 6 0;
#X restore 271 136 pd metronom;
#X obj 300 56 t b;
#X msg 310 86 1;
#X connect 0 0 4 0;
#X connect 0 0 4 1;
#X connect 1 0 0 2;
#X connect 1 0 7 1;
#X connect 2 0 0 3;
#X connect 3 0 0 0;
#X connect 5 0 0 1;
#X connect 5 0 8 0;
#X connect 6 0 0 1;
#X connect 7 0 4 0;
#X connect 7 0 4 1;
#X connect 8 0 9 0;
#X connect 9 0 7 0;
