#N canvas 690 180 450 300 10;
#X obj 146 147 /;
#X msg 146 109 60;
#X obj 146 87 t b f;
#X obj 145 177 * 1000;
#X obj 146 64 inlet;
#X obj 145 211 outlet;
#X connect 0 0 3 0;
#X connect 1 0 0 0;
#X connect 2 0 1 0;
#X connect 2 1 0 1;
#X connect 3 0 5 0;
#X connect 4 0 2 0;
