#N canvas 1061 413 666 305 10;
#X obj 145 129 inlet;
#X obj 145 175 route \$2;
#X obj 190 211 outlet;
#X obj 360 159 u_statesave \$2-\$3 \$1;
#X obj 360 133 r \$1-\$3;
#X obj 360 183 s \$1-\$3;
#X obj 145 234 s \$1-\$3;
#X connect 0 0 1 0;
#X connect 1 0 6 0;
#X connect 1 1 2 0;
#X connect 3 0 5 0;
#X connect 4 0 3 0;
