#N canvas 1062 358 450 491 10;
#X obj -2 208 wrap;
#X floatatom -15 83 5 0 0 0 - - -, f 5;
#X obj 16 388 -;
#X obj -39 327 1;
#X obj -26 300 t b f;
#X floatatom 21 422 5 0 0 0 - - -, f 5;
#X obj 59 136 > 1;
#X obj -26 274 spigot;
#X obj 157 271 spigot;
#X obj 174 163 < 0;
#X obj 157 293 abs;
#X obj 96 245 ||;
#X obj 58 330 spigot;
#X obj 117 196 tgl 15 0 empty empty empty 17 7 0 10 -262144 -1 -1 0
1;
#X obj 150 205 tgl 15 0 empty empty empty 17 7 0 10 -262144 -1 -1 0
1;
#X obj 116 273 tgl 15 0 empty empty empty 17 7 0 10 -262144 -1 -1 1
1;
#X obj 119 324 tgl 15 0 empty empty empty 17 7 0 10 -262144 -1 -1 0
1;
#X obj 96 291 == 0;
#X obj -3 17 inlet;
#X obj 25 449 outlet;
#X connect 0 0 7 0;
#X connect 1 0 6 0;
#X connect 1 0 0 0;
#X connect 1 0 9 0;
#X connect 1 0 8 0;
#X connect 1 0 12 0;
#X connect 2 0 5 0;
#X connect 3 0 2 0;
#X connect 4 0 3 0;
#X connect 4 1 2 1;
#X connect 5 0 19 0;
#X connect 6 0 7 1;
#X connect 6 0 11 0;
#X connect 6 0 13 0;
#X connect 7 0 4 0;
#X connect 8 0 10 0;
#X connect 9 0 8 1;
#X connect 9 0 11 1;
#X connect 9 0 14 0;
#X connect 10 0 5 0;
#X connect 11 0 15 0;
#X connect 11 0 17 0;
#X connect 12 0 5 0;
#X connect 17 0 12 1;
#X connect 17 0 16 0;
#X connect 18 0 1 0;
