#N canvas 765 178 699 565 10;
#X obj 33 92 keyname;
#X msg 72 141 symbol \$1;
#X msg 72 269 60;
#X floatatom 33 142 5 0 0 0 - - -;
#X msg 84 293 61;
#X msg 99 269 62;
#X msg 111 293 63;
#X msg 128 269 64;
#X msg 140 293 65;
#X msg 155 269 66;
#X msg 184 268 68;
#X msg 199 296 69;
#X msg 212 267 70;
#X msg 229 296 71;
#X msg 240 269 72;
#X msg 169 292 67;
#X obj 72 369 outlet;
#X obj 72 340 +;
#X obj 303 309 * 12;
#X floatatom 303 252 5 -8 4 2 Trans - -;
#X obj 9 307 outlet;
#X obj 72 169 sel a w s e d f t g z h u j k y x;
#X obj 431 181 f;
#X obj 441 332 clip -8 8;
#X obj 420 240 + 1;
#X obj 483 263 t b b;
#X msg 498 307 1;
#X msg 527 308 -1;
#X obj 528 259 t b b;
#X obj 156 101 change;
#X msg 336 85 1;
#X msg 376 85 1;
#X obj 335 113 change;
#X obj 383 114 change;
#X obj 343 146 sel 1;
#X obj 394 149 sel 1;
#X obj 495 114 print;
#X obj 227 116 sel 0;
#X msg 258 75 0;
#X obj 16 357 &&;
#X obj 165 382 *;
#X obj 25 248 *;
#X obj 134 63 inlet;
#X obj 24 278 change;
#X connect 0 0 3 0;
#X connect 0 1 1 0;
#X connect 1 0 21 0;
#X connect 2 0 17 0;
#X connect 3 0 37 0;
#X connect 3 0 41 0;
#X connect 4 0 17 0;
#X connect 5 0 17 0;
#X connect 6 0 17 0;
#X connect 7 0 17 0;
#X connect 8 0 17 0;
#X connect 9 0 17 0;
#X connect 10 0 17 0;
#X connect 11 0 17 0;
#X connect 12 0 17 0;
#X connect 13 0 17 0;
#X connect 14 0 17 0;
#X connect 15 0 17 0;
#X connect 17 0 40 0;
#X connect 18 0 17 1;
#X connect 19 0 18 0;
#X connect 21 0 2 0;
#X connect 21 1 4 0;
#X connect 21 2 5 0;
#X connect 21 3 6 0;
#X connect 21 4 7 0;
#X connect 21 5 8 0;
#X connect 21 6 9 0;
#X connect 21 7 15 0;
#X connect 21 8 10 0;
#X connect 21 9 11 0;
#X connect 21 10 12 0;
#X connect 21 11 13 0;
#X connect 21 12 14 0;
#X connect 21 13 30 0;
#X connect 21 14 31 0;
#X connect 22 0 24 0;
#X connect 23 0 22 1;
#X connect 23 0 19 0;
#X connect 24 0 23 0;
#X connect 25 0 22 0;
#X connect 25 1 26 0;
#X connect 26 0 24 1;
#X connect 27 0 24 1;
#X connect 28 0 22 0;
#X connect 28 1 27 0;
#X connect 30 0 32 0;
#X connect 31 0 33 0;
#X connect 32 0 34 0;
#X connect 33 0 35 0;
#X connect 34 0 28 0;
#X connect 35 0 25 0;
#X connect 37 0 38 0;
#X connect 38 0 33 0;
#X connect 38 0 32 0;
#X connect 40 0 16 0;
#X connect 41 0 43 0;
#X connect 42 0 41 1;
#X connect 42 0 40 1;
#X connect 43 0 20 0;
