#N canvas 1027 658 1187 1006 10;
#X obj 261 50 prepend load;
#X msg 160 50 save;
#X obj 160 163 list prepend;
#X msg 229 140 \$1;
#X obj 160 75 u_staterecall \$1;
#X floatatom 279 149 5 0 0 0 - - -;
#X obj 160 27 r \$2-savepreset;
#X obj 261 29 r \$2-fromGlobal-presets;
#X obj 229 113 r \$2-presetnumber;
#X obj 160 267 s \$2-toGlobal-presets;
#X connect 0 0 4 0;
#X connect 1 0 4 0;
#X connect 2 0 9 0;
#X connect 3 0 2 1;
#X connect 4 0 2 0;
#X connect 6 0 1 0;
#X connect 7 0 0 0;
#X connect 8 0 3 0;
#X connect 8 0 5 0;
