#N canvas 997 62 1187 1006 10;
#X obj 160 27 r savepreset;
#X obj 261 50 prepend load;
#X msg 160 50 save;
#X obj 160 267 s global-presets;
#X obj 160 163 list prepend;
#X msg 229 140 \$1;
#X obj 160 75 u_staterecall \$1;
#X obj 261 29 r fromglobal-presets;
#X obj 229 113 r presetnumber;
#X connect 0 0 2 0;
#X connect 1 0 6 0;
#X connect 2 0 6 0;
#X connect 4 0 3 0;
#X connect 5 0 4 1;
#X connect 6 0 4 0;
#X connect 7 0 1 0;
#X connect 8 0 5 0;
