#N canvas 852 281 529 300 10;
#X obj 91 71 until;
#X obj 91 159 openpanel;
#X obj 91 262 soundfiler;
#X msg 91 240 read -resize \$1 \$2;
#X obj 236 113 f;
#X obj 236 132 + 1;
#X obj 91 97 t b b b;
#X obj 91 -1 bng 15 250 50 0 empty empty empty 17 7 0 10 -262144 -1
-1;
#X obj 91 21 t b b;
#X obj 191 201 symbol;
#X obj 91 218 pack s s;
#X obj 91 187 t s b b;
#X msg 251 89 0;
#X obj 140 4 inlet;
#X floatatom 194 18 5 0 0 0 - - -;
#X obj 194 -5 inlet;
#X msg 191 182 \$1\$2;
#X obj 91 48 \$2;
#X obj 191 89 symbol \$1;
#X obj 191 161 pack s f;
#X obj 91 284 outlet;
#X obj 227 235 outlet;
#X connect 0 0 6 0;
#X connect 1 0 11 0;
#X connect 2 0 20 0;
#X connect 3 0 2 0;
#X connect 4 0 5 0;
#X connect 5 0 4 1;
#X connect 5 0 19 1;
#X connect 6 0 1 0;
#X connect 7 0 8 0;
#X connect 8 0 17 0;
#X connect 8 1 12 0;
#X connect 9 0 10 1;
#X connect 10 0 3 0;
#X connect 10 0 21 0;
#X connect 11 0 10 0;
#X connect 11 1 18 0;
#X connect 11 2 4 0;
#X connect 12 0 4 1;
#X connect 13 0 8 0;
#X connect 14 0 17 1;
#X connect 15 0 14 0;
#X connect 16 0 9 0;
#X connect 17 0 0 0;
#X connect 18 0 19 0;
#X connect 19 0 16 0;
