#N canvas 0 32 675 722 10;
#X declare -lib mrpeach;
#X obj 175 323 unpackOSC;
#X obj 175 349 outlet;
#X obj 268 253 import mrpeach;
#X obj 175 254 udpreceive \$1;
#X obj 175 290 spigot;
#X obj 368 273 inlet;
#X obj 224 351 s vvvv;
#X connect 0 0 1 0;
#X connect 0 0 6 0;
#X connect 3 0 4 0;
#X connect 4 0 0 0;
#X connect 5 0 4 1;
