#N canvas 569 107 450 300 10;
#X obj 87 141 udpsend;
#X obj 87 111 packOSC;
#X msg 147 112 connect 127.0.0.1 9001;
#X msg 297 124 disconnect;
#X msg 87 68 send typed /gra fff \$1 \$2 \$3;
#X connect 1 0 0 0;
#X connect 2 0 0 0;
#X connect 3 0 0 0;
#X connect 4 0 1 0;
