#N canvas 0 0 450 300 10;
#X obj 126 116 env~;
#X obj 126 197 sel 1;
#X obj 126 173 change;
#X obj 162 147 outlet;
#X obj 170 82 inlet;
#X obj 125 82 inlet~;
#X obj 126 224 outlet;
#X obj 126 146 > \$1;
#X connect 0 0 3 0;
#X connect 0 0 7 0;
#X connect 1 0 6 0;
#X connect 2 0 1 0;
#X connect 4 0 7 1;
#X connect 5 0 0 0;
#X connect 7 0 2 0;
