#N canvas 0 0 450 300 10;
#X obj 43 40 inlet;
#N canvas 0 0 1366 702 quantziemode 0;
#X obj 204 133 r globalMetro96;
#X obj 220 152 r globalMetro64;
#X obj 236 172 r globalMetro32;
#X obj 252 194 r globalMetro16;
#X obj 268 217 r globalMetro8;
#X obj 284 237 r globalMetro4;
#X obj 300 257 r globalMetro2;
#X obj 317 276 r globalMetro1;
#X obj 188 335 switch 8 0 0 0 0 0 0 0;
#X obj -31 4 inlet;
#X msg 188 88 1;
#X msg 161 88 2;
#X msg 132 88 3;
#X msg 100 88 4;
#X msg 65 88 5;
#X msg 32 88 6;
#X msg 5 88 7;
#X msg -31 88 8;
#X obj -31 30 sel 1 2 4 8 16 32 64 96;
#X obj 224 107 outlet;
#X obj 188 362 outlet;
#X msg 259 78 1;
#X msg 224 78 2;
#X connect 0 0 8 1;
#X connect 1 0 8 2;
#X connect 2 0 8 3;
#X connect 3 0 8 4;
#X connect 4 0 8 5;
#X connect 5 0 8 6;
#X connect 6 0 8 7;
#X connect 7 0 8 8;
#X connect 8 0 20 0;
#X connect 9 0 18 0;
#X connect 10 0 8 0;
#X connect 11 0 8 0;
#X connect 12 0 8 0;
#X connect 13 0 8 0;
#X connect 14 0 8 0;
#X connect 15 0 8 0;
#X connect 16 0 8 0;
#X connect 17 0 8 0;
#X connect 18 0 17 0;
#X connect 18 0 22 0;
#X connect 18 1 16 0;
#X connect 18 1 22 0;
#X connect 18 2 15 0;
#X connect 18 2 22 0;
#X connect 18 3 14 0;
#X connect 18 3 22 0;
#X connect 18 4 13 0;
#X connect 18 4 22 0;
#X connect 18 5 12 0;
#X connect 18 5 22 0;
#X connect 18 6 11 0;
#X connect 18 6 22 0;
#X connect 18 7 10 0;
#X connect 18 7 22 0;
#X connect 18 8 21 0;
#X connect 21 0 19 0;
#X connect 22 0 19 0;
#X restore 88 88 pd quantziemode;
#X obj 88 266 list;
#X obj 88 39 inlet;
#X obj 55 359 switch;
#X obj 55 410 outlet;
#X obj 88 335 list trim;
#X obj 88 205 spigot;
#X msg 158 204 1;
#X msg 158 300 0;
#X obj 109 233 t a b;
#X obj 88 301 t a b;
#X obj 108 168 spigot;
#X obj 175 128 sel 1 2;
#X msg 175 151 0;
#X msg 204 151 1;
#X connect 0 0 4 1;
#X connect 0 0 12 0;
#X connect 1 0 7 0;
#X connect 1 1 4 0;
#X connect 1 1 13 0;
#X connect 2 0 11 0;
#X connect 3 0 1 0;
#X connect 4 0 5 0;
#X connect 6 0 4 2;
#X connect 7 0 2 0;
#X connect 8 0 7 1;
#X connect 9 0 7 1;
#X connect 10 0 2 1;
#X connect 10 1 8 0;
#X connect 11 0 6 0;
#X connect 11 1 9 0;
#X connect 12 0 10 0;
#X connect 13 0 14 0;
#X connect 13 1 15 0;
#X connect 14 0 12 1;
#X connect 15 0 12 1;
