#N canvas 0 0 450 300 10;
#X obj 101 89 inlet;
#X obj 101 151 +;
#X obj 101 200 outlet;
#X obj 137 149 +;
#X obj 188 108 unpack f f f f f f f;
#X obj 164 149 +;
#X obj 193 147 +;
#X obj 222 147 +;
#X obj 249 146 +;
#X obj 286 148 +;
#X obj 315 148 +;
#X obj 148 200 outlet;
#X obj 195 201 outlet;
#X obj 239 200 outlet;
#X obj 286 201 outlet;
#X obj 333 203 outlet;
#X obj 377 202 outlet;
#X obj 425 204 outlet;
#X msg 185 80 2 2 3 2 3 2 2;
#X obj 187 21 prepend symbol;
#X obj 147 98 t b;
#X obj 186 53 sel pentatonic ganzton;
#X msg 283 79 2 2 2 2 2 2 2;
#X obj 141 5 inlet;
#X connect 0 0 1 0;
#X connect 1 0 2 0;
#X connect 1 0 3 0;
#X connect 3 0 5 0;
#X connect 3 0 11 0;
#X connect 4 0 3 1;
#X connect 4 0 20 0;
#X connect 4 1 5 1;
#X connect 4 2 6 1;
#X connect 4 3 7 1;
#X connect 4 4 8 1;
#X connect 4 5 9 1;
#X connect 4 6 10 1;
#X connect 5 0 6 0;
#X connect 5 0 12 0;
#X connect 6 0 7 0;
#X connect 6 0 13 0;
#X connect 7 0 8 0;
#X connect 7 0 14 0;
#X connect 8 0 9 0;
#X connect 8 0 15 0;
#X connect 9 0 10 0;
#X connect 9 0 16 0;
#X connect 10 0 17 0;
#X connect 18 0 4 0;
#X connect 19 0 21 0;
#X connect 20 0 1 0;
#X connect 21 0 18 0;
#X connect 21 1 22 0;
#X connect 22 0 4 0;
#X connect 23 0 19 0;
