#N canvas 0 0 450 300 10;
#X obj 107 29 snapshot~;
#X obj 131 -34 loadbang;
#X floatatom 101 117 10 0 0 0 - #0-value -;
#X obj 106 -77 inlet~;
#X obj 131 4 metro \$1;
#X obj 107 61 s \$0-value;
#X obj 106 -54 outlet~;
#X obj 145 139 outlet;
#X connect 0 0 5 0;
#X connect 1 0 4 0;
#X connect 2 0 7 0;
#X connect 3 0 0 0;
#X connect 3 0 6 0;
#X connect 4 0 0 0;
#X coords 0 -1 1 1 85 38 1 100 100;
