#N canvas 664 155 538 596 10;
#X obj 102 47 inlet;
#X obj 102 74 route save load;
#X msg 178 341 set;
#X obj 122 475 outlet;
#X obj 99 326 t b a;
#X msg 73 361 addcomma;
#X obj 126 405 list prepend add2;
#X obj 126 426 list trim;
#X text 369 386 .mmb;
#X obj 166 241 s \$1-save.me.mmb;
#X obj 101 278 r \$1-my.hero.mmb;
#N canvas 660 26 531 435 order.force 0;
#X obj 255 56 inlet;
#X obj 239 309 f 1;
#X obj 273 309 + 1;
#X obj 239 226 f;
#X obj 239 253 until;
#X msg 321 119 0;
#X msg 292 254 1;
#X obj 255 93 t b b b;
#X obj 146 179 s \$1-save.me.mmb;
#X obj 368 138 r \$1-my.hero.mmb.getmax;
#X msg 146 159 getmax;
#X obj 240 346 outlet;
#X text 100 379 this is for data that must be loaded in a certain order
;
#X obj 313 207 max 0;
#X obj 354 209 t f;
#X connect 0 0 7 0;
#X connect 1 0 2 0;
#X connect 1 0 11 0;
#X connect 2 0 1 1;
#X connect 3 0 4 0;
#X connect 4 0 1 0;
#X connect 5 0 3 1;
#X connect 5 0 13 1;
#X connect 6 0 1 1;
#X connect 7 0 3 0;
#X connect 7 1 10 0;
#X connect 7 2 5 0;
#X connect 7 2 6 0;
#X connect 9 0 13 0;
#X connect 10 0 8 0;
#X connect 13 0 3 1;
#X connect 13 0 14 0;
#X connect 14 0 13 1;
#X restore 177 153 pd order.force;
#X msg 102 191 save \$1;
#X msg 102 150 0;
#X obj 102 99 t b b b b;
#X obj 274 191 prepend interpolate;
#X obj 279 159 f;
#X obj 326 85 inlet;
#X obj 272 123 t b;
#X obj 227 115 t l a;
#X obj 227 85 prepend list;
#X connect 0 0 1 0;
#X connect 1 0 14 0;
#X connect 1 1 20 0;
#X connect 2 0 3 0;
#X connect 4 0 5 0;
#X connect 4 1 6 0;
#X connect 5 0 3 0;
#X connect 6 0 7 0;
#X connect 7 0 3 0;
#X connect 10 0 4 0;
#X connect 11 0 12 0;
#X connect 12 0 9 0;
#X connect 13 0 12 0;
#X connect 14 0 13 0;
#X connect 14 1 11 0;
#X connect 15 0 9 0;
#X connect 16 0 15 0;
#X connect 17 0 16 1;
#X connect 18 0 16 0;
#X connect 19 0 9 0;
#X connect 19 1 18 0;
#X connect 20 0 19 0;
