#N canvas 914 173 950 686 10;
#X obj 101 117 vsl 15 128 0 100 0 0 \$0-vol \$0-vol input1 0 -9 0 10
-262144 -1 -1 12700 1;
#X obj 106 522 *~;
#X obj 106 448 sig~;
#N canvas 339 269 450 361 cospan 0;
#X obj 50 196 outlet~ left;
#X obj 160 197 outlet~ right;
#X obj 51 -73 inlet~ signal;
#X obj 290 -82 inlet control;
#X obj 50 152 *~;
#X obj 66 118 cos~;
#X obj 67 95 -~ 0.25;
#X obj 290 11 sig~;
#X obj 290 55 *~ 0.25;
#X obj 290 99 cos~;
#X obj 290 33 lop~ 1;
#X obj 161 155 *~;
#X obj 290 77 -~ 0.25;
#X obj 290 -61 + 50;
#X obj 290 -40 * 0.01;
#X obj 162 -73 inlet~ signal;
#X obj 161 174 *~ 1.41473;
#X obj 51 172 *~ 1.41473;
#X connect 2 0 4 0;
#X connect 3 0 13 0;
#X connect 4 0 17 0;
#X connect 5 0 4 1;
#X connect 6 0 5 0;
#X connect 7 0 10 0;
#X connect 8 0 12 0;
#X connect 9 0 11 1;
#X connect 10 0 8 0;
#X connect 11 0 16 0;
#X connect 12 0 9 0;
#X connect 12 0 6 0;
#X connect 13 0 14 0;
#X connect 14 0 7 0;
#X connect 15 0 11 0;
#X connect 16 0 1 0;
#X connect 17 0 0 0;
#X restore 155 504 pd cospan;
#X obj 155 434 inlet~;
#X obj 133 556 *~;
#X obj 181 458 inlet~;
#X obj 101 290 tgl 15 0 \$0-mute \$0-mute Mute 0 -7 0 10 -262144 -1
-1 0 1;
#X obj 226 80 inlet;
#X obj 107 688 outlet~ L-Out Post;
#X obj 133 668 outlet~ R-Out-Post;
#X obj 206 594 outlet~ R-Out-Pre;
#X obj 155 571 outlet~ L-Out-Pre;
#X obj 106 336 r \$0-vol;
#X obj 101 262 nbx 3 14 -50 50 0 0 \$0-pan \$0-pan Pan 0 -8 0 10 -262144
-1 -1 0 256;
#X obj 226 115 u_dispatch \$0 \$1 vol;
#X obj 226 139 u_dispatch \$0 \$1 pan;
#X obj 226 160 u_dispatch \$0 \$1 mute;
#X obj 34 336 r \$0-mute;
#X obj 206 480 r \$0-pan;
#X obj 34 361 == 0;
#X obj 377 115 u_load \$0 \$2;
#X obj 106 470 lop~ 50;
#N canvas 573 237 450 300 init 0;
#X obj 32 2 \$0;
#X obj 32 -21 loadbang;
#X msg 32 39 \; \$1-vol 100 \; \$1-pan 0 \; \$1-mute 0 \;;
#X msg 129 91 \; \$2-vol label \$1;
#X obj 123 19 t b f;
#X obj 129 42 symbol \$1;
#X obj 134 -5 bng 15 250 50 0 empty empty empty 17 7 0 10 -262144 -1
-1;
#X obj 129 71 pack s f;
#X connect 0 0 2 0;
#X connect 0 0 4 0;
#X connect 1 0 0 0;
#X connect 4 0 5 0;
#X connect 4 1 7 1;
#X connect 5 0 7 0;
#X connect 6 0 4 0;
#X connect 7 0 3 0;
#X restore 377 135 pd init;
#X obj 106 366 / 100;
#X obj 106 387 t f f;
#X obj 106 410 *;
#X obj 106 429 *;
#X obj 34 389 t b f;
#X obj 220 390 catch~ \$1-in-L;
#X obj 327 390 catch~ \$1-in-R;
#X obj 289 633 send~ \$1-out-R;
#X obj 135 630 send~ \$1-out-L;
#X connect 1 0 9 0;
#X connect 1 0 32 0;
#X connect 2 0 22 0;
#X connect 3 0 1 1;
#X connect 3 0 12 0;
#X connect 3 1 5 1;
#X connect 3 1 11 0;
#X connect 4 0 3 0;
#X connect 5 0 10 0;
#X connect 5 0 31 0;
#X connect 6 0 3 1;
#X connect 8 0 15 0;
#X connect 13 0 24 0;
#X connect 15 0 16 0;
#X connect 16 0 17 0;
#X connect 18 0 20 0;
#X connect 19 0 3 2;
#X connect 20 0 28 0;
#X connect 22 0 1 0;
#X connect 22 0 5 0;
#X connect 24 0 25 0;
#X connect 25 0 26 0;
#X connect 25 1 26 1;
#X connect 26 0 27 0;
#X connect 27 0 2 0;
#X connect 28 0 27 0;
#X connect 28 1 27 1;
#X connect 29 0 3 0;
#X connect 30 0 3 1;
#X coords 0 -1 1 1 38 210 2 100 100;
