#N canvas 1443 294 450 300 10;
#X msg 107 86 set \$1;
#X msg 107 110 28;
#X obj 107 65 f;
#X obj 77 32 inlet;
#X obj 146 36 inlet;
#X obj 185 36 inlet;
#X obj 107 132 outlet;
#X connect 0 0 1 0;
#X connect 1 0 6 0;
#X connect 2 0 0 0;
#X connect 3 0 6 0;
#X connect 3 0 2 1;
#X connect 4 0 2 0;
#X connect 5 0 1 0;
