#N canvas 0 0 700 300 10;
#X obj 256 101 nbx 3 14 0 100 0 0 empty empty empty 0 -8 0 10 -262144
-1 -1 0 256;
#X obj 241 193 *~;
#X obj 256 137 sig~;
#X obj 255 164 lop~ 50;
#X obj 242 64 inlet~;
#X obj 242 217 outlet~;
#X obj 361 63 inlet;
#X obj 294 61 inlet~;
#X obj 295 192 *~;
#X obj 310 136 sig~;
#X obj 309 163 lop~ 50;
#X obj 296 216 outlet~;
#X obj 256 118 / 100;
#X obj 371 217 outlet~;
#X obj 419 217 outlet~;
#X connect 0 0 12 0;
#X connect 1 0 5 0;
#X connect 2 0 3 0;
#X connect 3 0 1 1;
#X connect 4 0 1 0;
#X connect 4 0 13 0;
#X connect 6 0 0 0;
#X connect 7 0 8 0;
#X connect 7 0 14 0;
#X connect 8 0 11 0;
#X connect 9 0 10 0;
#X connect 10 0 8 1;
#X connect 12 0 9 0;
#X connect 12 0 2 0;
#X coords 0 -1 1 1 38 16 2 255 100;
