#N canvas 970 108 796 510 10;
#X obj 103 47 inlet;
#X obj 154 122 list trim;
#X obj 168 431 outlet;
#X text 468 439 .mmb;
#X obj 338 78 r \$2-save.me.mmb;
#X obj 318 428 s \$2-my.hero.mmb;
#X obj 334 218 route \$3;
#X obj 425 219 f \$3;
#X obj 425 277 s \$2-my.hero.mmb.getmax;
#X msg 318 333;
#X msg 339 299 set;
#X obj 340 274 loadbang;
#X obj 493 47 inlet;
#X obj 154 100 list prepend set \$1;
#X msg 493 115 save \$1;
#X obj 493 90 f \$3;
#X obj 493 70 route save2 clear;
#X obj 103 75 route add;
#X obj 68 133 t b a;
#X msg 68 161 addcomma;
#X obj 95 206 list trim;
#X obj 95 185 list prepend add2 \$1;
#X obj 168 399 line;
#X obj 247 382 f;
#X obj 238 350 bng 15 250 50 0 empty empty empty 17 7 0 10 -262144
-1 -1;
#X obj 287 242 t f b;
#X obj 338 172 route \$1 save getmax interpolate;
#X obj 162 341 pack;
#X obj 367 123 list trim;
#X connect 0 0 17 0;
#X connect 0 0 23 1;
#X connect 1 0 9 0;
#X connect 4 0 28 0;
#X connect 6 0 9 0;
#X connect 7 0 8 0;
#X connect 9 0 5 0;
#X connect 10 0 9 0;
#X connect 11 0 10 0;
#X connect 12 0 16 0;
#X connect 13 0 1 0;
#X connect 14 0 26 0;
#X connect 15 0 14 0;
#X connect 16 0 15 0;
#X connect 16 1 10 0;
#X connect 17 0 18 0;
#X connect 17 1 13 0;
#X connect 18 0 19 0;
#X connect 18 1 21 0;
#X connect 19 0 9 0;
#X connect 20 0 9 0;
#X connect 21 0 20 0;
#X connect 22 0 2 0;
#X connect 23 0 22 0;
#X connect 24 0 23 0;
#X connect 25 0 27 0;
#X connect 25 1 24 0;
#X connect 26 0 25 0;
#X connect 26 1 6 0;
#X connect 26 2 7 0;
#X connect 26 3 27 1;
#X connect 27 0 22 0;
#X connect 28 0 26 0;
